<svg width="20" height="21" viewBox="0 0 20 21" fill="none" xmlns="http://www.w3.org/2000/svg">
<path d="M10 0C4.47778 0 0 4.47778 0 10C0 15.5222 4.47778 20 10 20C15.5222 20 20 15.5222 20 10C20 4.47778 15.5222 0 10 0ZM14.7153 14.7153C14.525 14.9056 14.2764 15 14.0278 15C13.7792 15 13.5306 14.9056 13.3403 14.7153L9.3125 10.6875C9.04167 10.4167 8.95556 10.0125 9.09028 9.65556L10.6181 5.62778C10.8083 5.12639 11.3694 4.87361 11.8722 5.06389C12.375 5.25417 12.6264 5.81528 12.4361 6.31806L11.1319 9.75694L14.7153 13.3403C15.0944 13.7194 15.0944 14.3361 14.7153 14.7153Z" fill="url(#paint0_linear_393_1453)"/>
<defs>
<linearGradient id="paint0_linear_393_1453" x1="20" y1="0" x2="0" y2="0" gradientUnits="userSpaceOnUse">
<stop stop-color="#A83AFE"/>
<stop offset="1" stop-color="#6E59FE"/>
</linearGradient>
</defs>
</svg>
