<svg width="38" height="38" viewBox="0 0 38 38" fill="none" xmlns="http://www.w3.org/2000/svg">
<path d="M26.909 34.8288L26.9141 32.0184L19.8631 18.9954L26.9141 5.97253L26.909 3.16211L12.4898 17.5812C11.7088 18.3623 11.7088 19.6286 12.4898 20.4097L26.909 34.8288Z" fill="#CFCFCF"/>
<path d="M25.2937 34.8288L25.2988 32.0184L18.2479 18.9954L25.2988 5.97253L25.2937 3.16211L10.1675 18.2883C9.77698 18.6789 9.77698 19.312 10.1675 19.7025L25.2937 34.8288Z" fill="url(#paint0_linear_829_726960)"/>
<path d="M25.2956 34.8294H26.8975L26.916 32.0215L19.859 18.9961L26.916 5.96452V3.15039L25.2894 3.15658L25.2956 5.98307L18.2448 18.9899L25.2956 32.0091V34.8294Z" fill="#DCDCDC"/>
<defs>
<linearGradient id="paint0_linear_829_726960" x1="19.0751" y1="18.9954" x2="6.7559" y2="19.4883" gradientUnits="userSpaceOnUse">
<stop stop-color="white"/>
<stop offset="1" stop-color="#D0D0D0"/>
</linearGradient>
</defs>
</svg>
