<svg width="38" height="38" viewBox="0 0 38 38" fill="none" xmlns="http://www.w3.org/2000/svg">
<path d="M11.091 34.8327L11.0859 32.0223L18.1369 18.9993L11.0859 5.97643L11.091 3.16602L25.5102 17.5851C26.2912 18.3662 26.2912 19.6325 25.5102 20.4136L11.091 34.8327Z" fill="#CFCFCF"/>
<path d="M12.7063 34.8327L12.7012 32.0223L19.7521 18.9993L12.7012 5.97643L12.7063 3.16602L27.8325 18.2922C28.223 18.6828 28.223 19.3159 27.8325 19.7065L12.7063 34.8327Z" fill="url(#paint0_linear_794_265984)"/>
<path d="M12.7044 34.8333H11.1025L11.084 32.0254L18.141 19L11.084 5.96842V3.1543L12.7106 3.16048L12.7044 5.98698L19.7552 18.9938L12.7044 32.013V34.8333Z" fill="#DCDCDC"/>
<defs>
<linearGradient id="paint0_linear_794_265984" x1="18.9249" y1="18.9993" x2="31.2441" y2="19.4922" gradientUnits="userSpaceOnUse">
<stop stop-color="white"/>
<stop offset="1" stop-color="#D0D0D0"/>
</linearGradient>
</defs>
</svg>
