<svg width="20" height="20" viewBox="0 0 20 20" fill="none" xmlns="http://www.w3.org/2000/svg">
<g clip-path="url(#clip0_455_1782)">
<path d="M0 20L8.88889 20L8.88889 11.1111L7.77091e-07 11.1111L0 20ZM11.1111 20L20 20L20 11.1111L11.1111 11.1111L11.1111 20ZM9.71364e-07 8.88889L8.88889 8.88889L8.88889 7.77091e-07L1.74846e-06 0L9.71364e-07 8.88889ZM14.4444 8.88889L16.6667 8.88889L16.6667 5.55556L20 5.55556L20 3.33334L16.6667 3.33334L16.6667 1.45705e-06L14.4444 1.26277e-06L14.4444 3.33334L11.1111 3.33333L11.1111 5.55556L14.4444 5.55556L14.4444 8.88889ZM13.3333 17.7778L13.3333 13.3333L17.7778 13.3333L17.7778 17.7778L13.3333 17.7778ZM2.22222 17.7778L2.22222 13.3333L6.66667 13.3333L6.66667 17.7778L2.22222 17.7778ZM2.22222 6.66667L2.22222 2.22222L6.66667 2.22222L6.66667 6.66667L2.22222 6.66667Z" fill="#DCDCDC"/>
</g>
<defs>
<clipPath id="clip0_455_1782">
<rect width="20" height="20" fill="white" transform="matrix(1 8.74228e-08 8.74228e-08 -1 0 20)"/>
</clipPath>
</defs>
</svg>
