<svg width="20" height="20" viewBox="0 0 20 20" fill="none" xmlns="http://www.w3.org/2000/svg">
<path d="M7.5 6.5L14.5 11L7.5 15.5L7.5 6.5ZM6 1L6 3L2 3C1.45 3 0.979168 3.19583 0.587501 3.5875C0.195835 3.97917 1.272e-06 4.45 1.22392e-06 5L1.74846e-07 17C1.26763e-07 17.55 0.195833 18.0208 0.5875 18.4125C0.979167 18.8042 1.45 19 2 19L18 19C18.55 19 19.0208 18.8042 19.4125 18.4125C19.8042 18.0208 20 17.55 20 17L20 5C20 4.45 19.8042 3.97917 19.4125 3.5875C19.0208 3.19583 18.55 3 18 3L14 3L14 1L6 1Z" fill="#DCDCDC"/>
</svg>
