<svg width="40" height="40" viewBox="0 0 40 40" fill="none" xmlns="http://www.w3.org/2000/svg">
<path d="M20 39.9998C31.0456 39.9998 39.9999 31.0456 39.9999 19.9999C39.9999 8.95427 31.0456 0 20 0C8.95429 0 0 8.95427 0 19.9999C0 31.0456 8.95429 39.9998 20 39.9998Z" fill="url(#paint0_linear_1614_953)"/>
<mask id="mask0_1614_953" style="mask-type:luminance" maskUnits="userSpaceOnUse" x="0" y="0" width="40" height="40">
<path d="M20 39.9998C31.0456 39.9998 39.9999 31.0456 39.9999 19.9999C39.9999 8.95427 31.0456 0 20 0C8.95429 0 0 8.95427 0 19.9999C0 31.0456 8.95429 39.9998 20 39.9998Z" fill="white"/>
</mask>
<g mask="url(#mask0_1614_953)">
<path d="M25 15C25 17.7614 23.75 20 20 20C16.25 20 15 17.7614 15 15C15 12.2386 16.25 10 20 10C23.75 10 25 12.2386 25 15Z" fill="#DCDCDC"/>
<path d="M10 28.4957C10 25.3009 13.9909 22.6109 17.174 22.8835C18.032 22.9569 18.9729 23 20 23C21.0271 23 21.968 22.9569 22.826 22.8835C26.0092 22.6109 30 25.3009 30 28.4957C30 29.3241 29.3284 30 28.5 30H11.5C10.6716 30 10 29.3241 10 28.4957Z" fill="#DCDCDC"/>
</g>
<defs>
<linearGradient id="paint0_linear_1614_953" x1="14.2817" y1="0.830719" x2="31.3404" y2="36.4976" gradientUnits="userSpaceOnUse">
<stop stop-color="#A83AFE"/>
<stop offset="1" stop-color="#6E59FE"/>
</linearGradient>
</defs>
</svg>
