<svg width="20" height="20" viewBox="0 0 20 20" fill="none" xmlns="http://www.w3.org/2000/svg">
<mask id="path-1-inside-1_2729_2215" fill="white">
<path fill-rule="evenodd" clip-rule="evenodd" d="M8 0C7.44772 0 7 0.447715 7 1H1C0.447715 1 0 1.44772 0 2C0 2.55228 0.447715 3 1 3H7C7 3.55228 7.44772 4 8 4C8.55229 4 9 3.55228 9 3V1C9 0.447715 8.55229 0 8 0ZM11 2C11 1.44772 11.4477 1 12 1H19C19.5523 1 20 1.44772 20 2C20 2.55228 19.5523 3 19 3H12C11.4477 3 11 2.55228 11 2ZM0 18C0 17.4477 0.447715 17 1 17H3C3 16.4477 3.44772 16 4 16C4.55228 16 5 16.4477 5 17V18V19C5 19.5523 4.55228 20 4 20C3.44772 20 3 19.5523 3 19H1C0.447715 19 0 18.5523 0 18ZM8 17C7.44772 17 7 17.4477 7 18C7 18.5523 7.44772 19 8 19H19C19.5523 19 20 18.5523 20 18C20 17.4477 19.5523 17 19 17H8ZM1 9C0.447715 9 0 9.44771 0 10C0 10.5523 0.447715 11 1 11H11C11 11.5523 11.4477 12 12 12C12.5523 12 13 11.5523 13 11V9C13 8.44771 12.5523 8 12 8C11.4477 8 11 8.44771 11 9H1ZM15 10C15 9.44771 15.4477 9 16 9H19C19.5523 9 20 9.44771 20 10C20 10.5523 19.5523 11 19 11H16C15.4477 11 15 10.5523 15 10Z"/>
</mask>
<path fill-rule="evenodd" clip-rule="evenodd" d="M8 0C7.44772 0 7 0.447715 7 1H1C0.447715 1 0 1.44772 0 2C0 2.55228 0.447715 3 1 3H7C7 3.55228 7.44772 4 8 4C8.55229 4 9 3.55228 9 3V1C9 0.447715 8.55229 0 8 0ZM11 2C11 1.44772 11.4477 1 12 1H19C19.5523 1 20 1.44772 20 2C20 2.55228 19.5523 3 19 3H12C11.4477 3 11 2.55228 11 2ZM0 18C0 17.4477 0.447715 17 1 17H3C3 16.4477 3.44772 16 4 16C4.55228 16 5 16.4477 5 17V18V19C5 19.5523 4.55228 20 4 20C3.44772 20 3 19.5523 3 19H1C0.447715 19 0 18.5523 0 18ZM8 17C7.44772 17 7 17.4477 7 18C7 18.5523 7.44772 19 8 19H19C19.5523 19 20 18.5523 20 18C20 17.4477 19.5523 17 19 17H8ZM1 9C0.447715 9 0 9.44771 0 10C0 10.5523 0.447715 11 1 11H11C11 11.5523 11.4477 12 12 12C12.5523 12 13 11.5523 13 11V9C13 8.44771 12.5523 8 12 8C11.4477 8 11 8.44771 11 9H1ZM15 10C15 9.44771 15.4477 9 16 9H19C19.5523 9 20 9.44771 20 10C20 10.5523 19.5523 11 19 11H16C15.4477 11 15 10.5523 15 10Z" fill="#DCDCDC"/>
<path d="M7 1V2H8V1H7ZM7 3H8V2H7V3ZM3 17V18H4V17H3ZM3 19H4V18H3V19ZM11 11L12 11L12 10H11V11ZM11 9V10H12L12 9L11 9ZM8 1V-1C6.89543 -1 6 -0.10457 6 1H8ZM1 2H7V0H1V2ZM1 2V0C-0.10457 0 -1 0.895431 -1 2H1ZM1 2H-1C-1 3.10457 -0.10457 4 1 4V2ZM7 2H1V4H7V2ZM8 3H6C6 4.10457 6.89543 5 8 5V3ZM8 3V5C9.10457 5 10 4.10457 10 3H8ZM8 1V3H10V1H8ZM8 1H10C10 -0.104569 9.10457 -1 8 -1V1ZM12 0C10.8954 0 10 0.895431 10 2H12V0ZM19 0H12V2H19V0ZM21 2C21 0.89543 20.1046 0 19 0V2H21ZM19 4C20.1046 4 21 3.10457 21 2H19V4ZM12 4H19V2H12V4ZM10 2C10 3.10457 10.8954 4 12 4V2H10ZM1 16C-0.10457 16 -1 16.8954 -1 18H1V16ZM3 16H1V18H3V16ZM4 15C2.89543 15 2 15.8954 2 17H4V15ZM6 17C6 15.8954 5.10457 15 4 15V17H6ZM6 18V17H4V18H6ZM6 19V18H4V19H6ZM4 21C5.10457 21 6 20.1046 6 19H4V21ZM2 19C2 20.1046 2.89543 21 4 21V19H2ZM1 20H3V18H1V20ZM-1 18C-1 19.1046 -0.10457 20 1 20V18H-1ZM8 18V16C6.89543 16 6 16.8954 6 18H8ZM8 18H6C6 19.1046 6.89543 20 8 20V18ZM19 18H8V20H19V18ZM19 18V20C20.1046 20 21 19.1046 21 18H19ZM19 18H21C21 16.8954 20.1046 16 19 16V18ZM8 18H19V16H8V18ZM1 10V8C-0.104569 8 -1 8.89543 -1 10H1ZM1 10H-1C-1 11.1046 -0.104569 12 1 12V10ZM11 10H1V12H11V10ZM12 11L12 11L10 11C10 12.1046 10.8954 13 12 13V11ZM12 11V13C13.1046 13 14 12.1046 14 11H12ZM12 9V11H14V9H12ZM12 9H14C14 7.89543 13.1046 7 12 7V9ZM12 9L12 9V7C10.8954 7 10 7.89543 10 9L12 9ZM1 10H11V8H1V10ZM16 8C14.8954 8 14 8.89543 14 10H16V8ZM19 8H16V10H19V8ZM21 10C21 8.89543 20.1046 8 19 8V10H21ZM19 12C20.1046 12 21 11.1046 21 10H19V12ZM16 12H19V10H16V12ZM14 10C14 11.1046 14.8954 12 16 12V10H14Z" fill="#DCDCDC" mask="url(#path-1-inside-1_2729_2215)"/>
</svg>
