<svg width="20" height="21" viewBox="0 0 20 21" fill="none" xmlns="http://www.w3.org/2000/svg">
<g clip-path="url(#clip0_2378_1823)">
<path d="M7.67282 12.8189C9.75193 12.8189 11.4369 10.7092 11.4369 8.63148C11.4369 6.55376 9.75193 4.86743 7.67282 4.86743C5.59371 4.86743 3.91016 6.55237 3.91016 8.63148C3.91016 10.7106 5.5951 12.8189 7.67282 12.8189Z" fill="#DCDCDC"/>
<path d="M11.2186 13.414C11.0035 13.2919 10.7342 13.3044 10.5329 13.4487C9.69742 14.0469 8.71893 14.4106 7.67382 14.4106C6.61206 14.4106 5.62108 14.0372 4.77861 13.4224C4.58014 13.278 4.31782 13.2517 4.10269 13.3696C1.94308 14.5591 0.388604 16.7659 0.0541143 19.1684C-0.0166699 19.6791 0.378889 20.1344 0.895197 20.1344H14.3456C14.8605 20.1344 15.2574 19.6791 15.1867 19.1698C14.8563 16.7964 13.3352 14.6146 11.2186 13.414Z" fill="#DCDCDC"/>
<path d="M18.9822 2.92429H17.1779V1.11998C17.1779 0.582858 16.7435 0.148438 16.2064 0.148438C15.6693 0.148438 15.2348 0.582858 15.2348 1.11998V2.92429H13.4305C12.8934 2.92429 12.459 3.35871 12.459 3.89583C12.459 4.43296 12.8934 4.86738 13.4305 4.86738H15.2348V6.67169C15.2348 7.20881 15.6693 7.64323 16.2064 7.64323C16.7435 7.64323 17.1779 7.20881 17.1779 6.67169V4.86738H18.9822C19.5194 4.86738 19.9538 4.43296 19.9538 3.89583C19.9538 3.35871 19.5194 2.92429 18.9822 2.92429Z" fill="#DCDCDC"/>
</g>
<defs>
<clipPath id="clip0_2378_1823">
<rect width="20" height="20.0056" fill="white" transform="translate(0 0.138672)"/>
</clipPath>
</defs>
</svg>
