<svg width="48" height="49" viewBox="0 0 48 49" fill="none" xmlns="http://www.w3.org/2000/svg">
<path d="M9.24 36.74C11.28 35.18 13.56 33.95 16.08 33.05C18.6 32.15 21.24 31.7 24 31.7C26.76 31.7 29.4 32.15 31.92 33.05C34.44 33.95 36.72 35.18 38.76 36.74C40.16 35.1 41.25 33.24 42.03 31.16C42.81 29.08 43.2 26.86 43.2 24.5C43.2 19.18 41.33 14.65 37.59 10.91C33.85 7.17 29.32 5.3 24 5.3C18.68 5.3 14.15 7.17 10.41 10.91C6.67 14.65 4.8 19.18 4.8 24.5C4.8 26.86 5.19 29.08 5.97 31.16C6.75 33.24 7.84 35.1 9.24 36.74ZM24 26.9C21.64 26.9 19.65 26.09 18.03 24.47C16.41 22.85 15.6 20.86 15.6 18.5C15.6 16.14 16.41 14.15 18.03 12.53C19.65 10.91 21.64 10.1 24 10.1C26.36 10.1 28.35 10.91 29.97 12.53C31.59 14.15 32.4 16.14 32.4 18.5C32.4 20.86 31.59 22.85 29.97 24.47C28.35 26.09 26.36 26.9 24 26.9ZM24 48.5C20.68 48.5 17.56 47.87 14.64 46.61C11.72 45.35 9.18 43.64 7.02 41.48C4.86 39.32 3.15 36.78 1.89 33.86C0.63 30.94 0 27.82 0 24.5C0 21.18 0.63 18.06 1.89 15.14C3.15 12.22 4.86 9.68 7.02 7.52C9.18 5.36 11.72 3.65 14.64 2.39C17.56 1.13 20.68 0.5 24 0.5C27.32 0.5 30.44 1.13 33.36 2.39C36.28 3.65 38.82 5.36 40.98 7.52C43.14 9.68 44.85 12.22 46.11 15.14C47.37 18.06 48 21.18 48 24.5C48 27.82 47.37 30.94 46.11 33.86C44.85 36.78 43.14 39.32 40.98 41.48C38.82 43.64 36.28 45.35 33.36 46.61C30.44 47.87 27.32 48.5 24 48.5Z" fill="#DCDCDC"/>
</svg>
