<svg width="47" height="47" viewBox="0 0 47 47" fill="none" xmlns="http://www.w3.org/2000/svg">
<g filter="url(#filter0_b_66_5806)">
<rect x="2.75391" y="2.73242" width="42" height="42" rx="10" fill="#151515"/>
<rect x="1.75391" y="1.73242" width="44" height="44" rx="11" stroke="url(#paint0_linear_66_5806)" stroke-width="2"/>
<path d="M23.7514 26.1336C25.1317 26.1336 26.2508 25.0145 26.2508 23.6342C26.2508 22.2538 25.1317 21.1348 23.7514 21.1348C22.371 21.1348 21.252 22.2538 21.252 23.6342C21.252 25.0145 22.371 26.1336 23.7514 26.1336Z" fill="#DCDCDC"/>
<path d="M20.2625 28.7333C20.0499 28.7332 19.8441 28.6585 19.6808 28.5224C18.9641 27.9253 18.3873 27.1779 17.9916 26.3332C17.5958 25.4884 17.3906 24.5669 17.3906 23.634C17.3906 22.7011 17.5958 21.7797 17.9916 20.9349C18.3873 20.0901 18.9641 19.3427 19.6808 18.7457C19.8661 18.5914 20.105 18.517 20.3451 18.5389C20.5852 18.5608 20.8067 18.6772 20.961 18.8624C21.1153 19.0477 21.1896 19.2866 21.1677 19.5267C21.1458 19.7668 21.0295 19.9883 20.8442 20.1426C20.3321 20.5691 19.9201 21.1029 19.6374 21.7064C19.3547 22.3098 19.2081 22.9681 19.2081 23.6345C19.2081 24.3009 19.3547 24.9591 19.6374 25.5626C19.9201 26.166 20.3321 26.6999 20.8442 27.1264C20.9876 27.2459 21.0907 27.4068 21.1395 27.587C21.1882 27.7673 21.1803 27.9582 21.1167 28.1337C21.0532 28.3093 20.9371 28.461 20.7842 28.5683C20.6314 28.6756 20.4492 28.7332 20.2625 28.7333Z" fill="#DCDCDC"/>
<path d="M20.262 28.5054C20.1026 28.5061 19.9481 28.4504 19.8257 28.3482C19.1345 27.7724 18.5784 27.0516 18.1967 26.2369C17.815 25.4222 17.6172 24.5335 17.6172 23.6339C17.6172 22.7342 17.815 21.8456 18.1967 21.0309C18.5784 20.2162 19.1345 19.4954 19.8257 18.9196C19.8946 18.8623 19.974 18.8191 20.0595 18.7925C20.145 18.7659 20.2349 18.7564 20.324 18.7645C20.4132 18.7727 20.4999 18.7983 20.5791 18.84C20.6584 18.8816 20.7287 18.9385 20.786 19.0073C20.8433 19.0761 20.8864 19.1555 20.913 19.241C20.9396 19.3265 20.9491 19.4164 20.941 19.5055C20.9328 19.5947 20.9072 19.6814 20.8656 19.7607C20.8239 19.8399 20.7671 19.9102 20.6983 19.9675C20.1606 20.4153 19.7281 20.9759 19.4312 21.6095C19.1343 22.2431 18.9805 22.9342 18.9805 23.6339C18.9805 24.3336 19.1343 25.0247 19.4312 25.6583C19.7281 26.2919 20.1606 26.8525 20.6983 27.3003C20.8058 27.39 20.8831 27.5106 20.9197 27.6458C20.9563 27.781 20.9503 27.9241 20.9027 28.0558C20.855 28.1875 20.7679 28.3013 20.6533 28.3817C20.5387 28.4622 20.402 28.5054 20.262 28.5054Z" fill="#DCDCDC"/>
<path d="M17.9353 31.5242C17.7225 31.5245 17.5164 31.4495 17.3536 31.3125C16.2271 30.3752 15.3206 29.2015 14.6985 27.8746C14.0764 26.5478 13.7539 25.1002 13.7539 23.6348C13.7539 22.1693 14.0764 20.7218 14.6985 19.3949C15.3206 18.0681 16.2271 16.8944 17.3536 15.9571C17.445 15.8777 17.5512 15.8174 17.6661 15.7797C17.7811 15.742 17.9024 15.7276 18.023 15.7373C18.1435 15.7471 18.261 15.7808 18.3683 15.8366C18.4757 15.8923 18.5709 15.9689 18.6483 16.0619C18.7256 16.1549 18.7837 16.2624 18.819 16.3781C18.8543 16.4938 18.8661 16.6154 18.8538 16.7357C18.8415 16.8561 18.8053 16.9728 18.7473 17.0789C18.6893 17.1851 18.6107 17.2786 18.5161 17.354C17.5947 18.121 16.8533 19.0813 16.3445 20.1668C15.8357 21.2523 15.572 22.4364 15.572 23.6352C15.572 24.8341 15.8357 26.0182 16.3445 27.1037C16.8533 28.1892 17.5947 29.1495 18.5161 29.9165C18.6598 30.0359 18.7631 30.1967 18.8121 30.3771C18.8611 30.5574 18.8534 30.7484 18.7899 30.9242C18.7264 31.0999 18.6103 31.2518 18.4574 31.3592C18.3045 31.4666 18.1222 31.5242 17.9353 31.5242Z" fill="#DCDCDC"/>
<path d="M17.9358 31.2953C17.7766 31.2955 17.6225 31.2395 17.5005 31.1372C16.3995 30.2212 15.5136 29.074 14.9056 27.7773C14.2976 26.4805 13.9824 25.0658 13.9824 23.6335C13.9824 22.2013 14.2976 20.7866 14.9056 19.4898C15.5136 18.193 16.3995 17.0459 17.5005 16.1299C17.6398 16.0143 17.8193 15.9588 17.9996 15.9756C18.1798 15.9924 18.346 16.0801 18.4616 16.2194C18.5772 16.3587 18.6327 16.5383 18.6159 16.7185C18.5991 16.8988 18.5114 17.065 18.3721 17.1806C17.425 17.9689 16.6629 18.956 16.1399 20.0718C15.6169 21.1877 15.3457 22.4049 15.3457 23.6372C15.3457 24.8695 15.6169 26.0867 16.1399 27.2025C16.6629 28.3183 17.425 29.3054 18.3721 30.0938C18.4782 30.1838 18.5543 30.3042 18.59 30.4387C18.6258 30.5733 18.6194 30.7155 18.5719 30.8463C18.5244 30.9772 18.438 31.0903 18.3243 31.1706C18.2106 31.2509 18.075 31.2944 17.9358 31.2953Z" fill="#DCDCDC"/>
<path d="M27.242 28.733C27.0553 28.7329 26.8732 28.6753 26.7203 28.5681C26.5675 28.4608 26.4514 28.3091 26.3878 28.1335C26.3243 27.9579 26.3163 27.767 26.3651 27.5868C26.4139 27.4065 26.517 27.2457 26.6604 27.1261C27.1724 26.6996 27.5844 26.1658 27.8672 25.5623C28.1499 24.9589 28.2965 24.3006 28.2965 23.6342C28.2965 22.9678 28.1499 22.3096 27.8672 21.7061C27.5844 21.1027 27.1724 20.5688 26.6604 20.1423C26.5654 20.067 26.4865 19.9735 26.4283 19.8672C26.37 19.7609 26.3336 19.6441 26.3212 19.5235C26.3088 19.4029 26.3206 19.2811 26.3559 19.1652C26.3913 19.0493 26.4495 18.9416 26.5271 18.8485C26.6046 18.7554 26.7001 18.6788 26.8077 18.6231C26.9154 18.5674 27.033 18.5338 27.1539 18.5243C27.2747 18.5148 27.3962 18.5295 27.5112 18.5676C27.6263 18.6058 27.7325 18.6665 27.8237 18.7463C28.5405 19.3434 29.1172 20.0908 29.513 20.9355C29.9088 21.7803 30.1139 22.7018 30.1139 23.6347C30.1139 24.5676 29.9088 25.489 29.513 26.3338C29.1172 27.1786 28.5405 27.926 27.8237 28.523C27.6603 28.6589 27.4545 28.7332 27.242 28.733Z" fill="#DCDCDC"/>
<path d="M27.2424 28.5054C27.1023 28.5054 26.9657 28.4622 26.8511 28.3817C26.7364 28.3013 26.6494 28.1875 26.6017 28.0558C26.554 27.9241 26.5481 27.781 26.5847 27.6458C26.6212 27.5106 26.6985 27.39 26.8061 27.3003C27.3437 26.8525 27.7763 26.2919 28.0732 25.6583C28.37 25.0247 28.5239 24.3336 28.5239 23.6339C28.5239 22.9342 28.37 22.2431 28.0732 21.6095C27.7763 20.9759 27.3437 20.4153 26.8061 19.9675C26.6671 19.8518 26.5798 19.6856 26.5634 19.5055C26.5469 19.3255 26.6027 19.1462 26.7184 19.0073C26.8341 18.8683 27.0003 18.781 27.1803 18.7645C27.3604 18.7481 27.5397 18.8039 27.6786 18.9196C28.3699 19.4954 28.926 20.2162 29.3077 21.0309C29.6893 21.8456 29.8872 22.7342 29.8872 23.6339C29.8872 24.5335 29.6893 25.4222 29.3077 26.2369C28.926 27.0516 28.3699 27.7724 27.6786 28.3482C27.5563 28.4504 27.4018 28.5061 27.2424 28.5054Z" fill="#DCDCDC"/>
<path d="M29.5693 31.5235C29.3824 31.5235 29.2001 31.4658 29.0472 31.3584C28.8943 31.2511 28.7781 31.0992 28.7147 30.9234C28.6512 30.7477 28.6434 30.5566 28.6924 30.3763C28.7414 30.196 28.8448 30.0352 28.9885 29.9157C29.9099 29.1487 30.6512 28.1885 31.16 27.103C31.6688 26.0175 31.9325 24.8333 31.9325 23.6345C31.9325 22.4357 31.6688 21.2515 31.16 20.166C30.6512 19.0805 29.9099 18.1202 28.9885 17.3533C28.8935 17.2779 28.8146 17.1844 28.7564 17.0781C28.6981 16.9718 28.6617 16.855 28.6493 16.7344C28.6369 16.6139 28.6487 16.4921 28.6841 16.3761C28.7194 16.2602 28.7776 16.1525 28.8552 16.0594C28.9328 15.9663 29.0282 15.8897 29.1358 15.834C29.2435 15.7783 29.3612 15.7448 29.482 15.7352C29.6028 15.7257 29.7243 15.7404 29.8393 15.7786C29.9544 15.8167 30.0606 15.8774 30.1518 15.9572C31.2792 16.8945 32.1863 18.0685 32.8089 19.3958C33.4315 20.7231 33.7543 22.1712 33.7543 23.6372C33.7543 25.1033 33.4315 26.5514 32.8089 27.8787C32.1863 29.206 31.2792 30.3799 30.1518 31.3172C29.988 31.4525 29.7817 31.5255 29.5693 31.5235Z" fill="#DCDCDC"/>
<path d="M29.5683 31.2958C29.4283 31.2957 29.2917 31.2525 29.1771 31.1721C29.0624 31.0916 28.9754 30.9778 28.9277 30.8461C28.88 30.7144 28.8741 30.5713 28.9106 30.4361C28.9472 30.3009 29.0245 30.1803 29.1321 30.0906C30.0792 29.3022 30.8413 28.3151 31.3643 27.1993C31.8873 26.0835 32.1584 24.8663 32.1584 23.634C32.1584 22.4017 31.8873 21.1844 31.3643 20.0686C30.8413 18.9528 30.0792 17.9657 29.1321 17.1773C28.9932 17.0618 28.906 16.8957 28.8895 16.7158C28.8731 16.5359 28.9288 16.3569 29.0444 16.218C29.16 16.0792 29.326 15.9919 29.5059 15.9755C29.6858 15.959 29.8648 16.0147 30.0037 16.1303C31.1047 17.0464 31.9906 18.1935 32.5986 19.4903C33.2066 20.787 33.5217 22.2017 33.5217 23.634C33.5217 25.0662 33.2066 26.4809 32.5986 27.7777C31.9906 29.0745 31.1047 30.2216 30.0037 31.1376C29.8817 31.2399 29.7276 31.2959 29.5683 31.2958Z" fill="#DCDCDC"/>
</g>
<defs>
<filter id="filter0_b_66_5806" x="-17.2461" y="-17.2676" width="82" height="82" filterUnits="userSpaceOnUse" color-interpolation-filters="sRGB">
<feFlood flood-opacity="0" result="BackgroundImageFix"/>
<feGaussianBlur in="BackgroundImageFix" stdDeviation="9"/>
<feComposite in2="SourceAlpha" operator="in" result="effect1_backgroundBlur_66_5806"/>
<feBlend mode="normal" in="SourceGraphic" in2="effect1_backgroundBlur_66_5806" result="shape"/>
</filter>
<linearGradient id="paint0_linear_66_5806" x1="44.7539" y1="2.73242" x2="2.75391" y2="2.73242" gradientUnits="userSpaceOnUse">
<stop stop-color="#3AA0FE"/>
<stop offset="1" stop-color="#59FEF4"/>
</linearGradient>
</defs>
</svg>
