<svg width="20" height="22" viewBox="0 0 20 22" fill="none" xmlns="http://www.w3.org/2000/svg">
<g clip-path="url(#clip0_1984_1296)">
<path d="M12.2213 13.3829V15.6175C12.2213 16.0269 11.984 16.1255 11.6953 15.8354L7.39136 11.5259C7.10267 11.2358 7.10267 10.7625 7.39136 10.4724L11.6953 6.16432C11.984 5.87424 12.2213 5.97278 12.2213 6.38222V8.61678C12.2213 9.02622 12.5558 9.36209 12.9653 9.36209H19.9243C19.1429 4.61678 15.0291 0.99707 10.0673 0.99707C4.54889 0.99707 0.0742188 5.4759 0.0742188 10.9998C0.0742188 16.5238 4.54889 21.0026 10.0673 21.0026C15.0291 21.0026 19.1429 17.3829 19.9243 12.6376H12.9653C12.5558 12.6376 12.2213 12.9735 12.2213 13.3829Z" fill="#DCDCDC"/>
</g>
<defs>
<clipPath id="clip0_1984_1296">
<rect width="20" height="20.0056" fill="white" transform="translate(0 0.99707)"/>
</clipPath>
</defs>
</svg>
