<svg width="138" height="240" viewBox="0 0 138 240" fill="none" xmlns="http://www.w3.org/2000/svg">
<rect width="138" height="184" rx="10" fill="url(#paint0_linear_1178_291663)"/>
<path d="M21.3644 91.872L17.5504 77.122C17.4214 76.623 17.7214 76.114 18.2204 75.985L32.9704 72.171C33.4694 72.042 33.9784 72.342 34.1074 72.841L37.9214 87.591C38.0504 88.09 37.7504 88.598 37.2524 88.728L22.5024 92.542C22.0024 92.671 21.4934 92.371 21.3644 91.872ZM19.5904 77.559L22.9374 90.502L35.8804 87.155L32.5334 74.211L19.5904 77.559Z" fill="#151515"/>
<path d="M46.349 136.225C41.333 136.225 37.251 140.306 37.251 145.323C37.251 150.339 41.332 154.42 46.349 154.42C51.365 154.42 55.446 150.339 55.446 145.323C55.446 140.306 51.365 136.225 46.349 136.225ZM46.349 152.288C42.508 152.288 39.384 149.163 39.384 145.323C39.384 141.483 42.509 138.357 46.349 138.357C50.19 138.357 53.314 141.482 53.314 145.323C53.314 149.164 50.19 152.288 46.349 152.288Z" fill="#02061B"/>
<path d="M21.6822 172.272L22.0712 165.317L29.0262 165.706C29.6142 165.739 30.1172 165.289 30.1502 164.701C30.1832 164.113 29.7332 163.61 29.1452 163.577L22.1902 163.188L22.5792 156.233C22.6122 155.645 22.1622 155.142 21.5742 155.109C20.9862 155.076 20.4832 155.526 20.4502 156.114L20.0612 163.069L13.1062 162.68C12.5182 162.647 12.0152 163.097 11.9822 163.685C11.9492 164.273 12.3992 164.776 12.9872 164.809L19.9422 165.198L19.5532 172.153C19.5202 172.741 19.9702 173.244 20.5582 173.277C21.1462 173.309 21.6492 172.859 21.6822 172.272Z" fill="#02061B"/>
<path d="M38.761 27.362C38.426 27.287 38.156 27.04 38.053 26.712L32.759 9.85903C32.656 9.53103 32.7361 9.17404 32.9681 8.92104C33.2001 8.66804 33.5501 8.55803 33.8851 8.63303L51.1271 12.474C51.4621 12.549 51.7321 12.796 51.8351 13.124C51.9381 13.452 51.858 13.809 51.626 14.062L39.678 27.074C39.446 27.327 39.097 27.437 38.761 27.362ZM35.092 10.871L39.389 24.547L49.0851 13.988L35.092 10.871Z" fill="#151515"/>
<path d="M96.0941 50.7311L82.7131 43.4491C82.2601 43.2031 82.0931 42.6361 82.3391 42.1841L89.6211 28.8021C89.8671 28.3491 90.4341 28.1821 90.8861 28.4291L104.268 35.7111C104.721 35.9571 104.888 36.5241 104.641 36.9761L97.3591 50.3581C97.1131 50.8101 96.5471 50.9771 96.0941 50.7311ZM84.4241 42.2561L96.1671 48.6471L102.558 36.9041L90.8151 30.5141L84.4241 42.2561Z" fill="#151515"/>
<path d="M102.179 82.75C101.528 82.6476 101.083 82.0364 101.186 81.3854C101.288 80.7344 101.899 80.2893 102.55 80.3918C103.201 80.4942 103.646 81.1053 103.544 81.7563C103.441 82.4079 102.83 82.8524 102.179 82.75Z" fill="#2A2A2A"/>
<path d="M97.7504 68.1336C97.0994 68.0312 96.6544 67.4201 96.7568 66.7691C96.8592 66.118 97.4704 65.673 98.1214 65.7755C98.7724 65.8779 99.2174 66.489 99.115 67.14C99.0118 67.7916 98.4015 68.236 97.7504 68.1336Z" fill="#2A2A2A"/>
<path d="M68.6518 74.3425C68.0008 74.2401 67.5558 73.6289 67.6582 72.9779C67.7606 72.3269 68.3718 71.8819 69.0228 71.9843C69.6738 72.0867 70.1188 72.6978 70.0164 73.3488C69.9132 74.0005 69.3028 74.4449 68.6518 74.3425Z" fill="#2A2A2A"/>
<path d="M131.33 95.4279C130.679 95.3255 130.234 94.7144 130.336 94.0634C130.438 93.4124 131.049 92.9674 131.7 93.0698C132.352 93.1722 132.797 93.7833 132.694 94.4343C132.592 95.0853 131.981 95.5304 131.33 95.4279Z" fill="#2A2A2A"/>
<path d="M37.1811 176.314C36.5301 176.212 36.0851 175.601 36.1875 174.95C36.2899 174.299 36.9011 173.854 37.5521 173.956C38.2031 174.058 38.6481 174.67 38.5457 175.321C38.4425 175.972 37.8321 176.417 37.1811 176.314Z" fill="#2A2A2A"/>
<path d="M34.7504 136.698C34.0994 136.596 33.6544 135.984 33.7568 135.333C33.8592 134.682 34.4704 134.237 35.1214 134.34C35.7724 134.442 36.2174 135.053 36.115 135.704C36.0118 136.356 35.4015 136.8 34.7504 136.698Z" fill="#2A2A2A"/>
<path d="M8.6518 139.907C8.00078 139.804 7.55578 139.193 7.65819 138.542C7.76059 137.891 8.37178 137.446 9.0228 137.549C9.67382 137.651 10.1188 138.262 10.0164 138.913C9.9132 139.565 9.30282 140.009 8.6518 139.907Z" fill="#2A2A2A"/>
<path d="M21.3305 150.992C20.6795 150.89 20.2345 150.279 20.3369 149.628C20.4393 148.977 21.0504 148.532 21.7015 148.634C22.3525 148.737 22.7975 149.348 22.6951 149.999C22.5927 150.65 21.9815 151.095 21.3305 150.992Z" fill="#2A2A2A"/>
<path d="M71.8375 147.257H67.434V136.634H53.6304C46.1434 136.634 40.0742 131.065 40.0742 124.194V105.39C40.0742 93.8848 50.2372 84.5581 62.774 84.5581H66.6661C79.2029 84.5581 89.3659 93.8848 89.3659 105.39V129.728C89.3654 139.409 81.5179 147.257 71.8375 147.257Z" fill="#212123"/>
<path d="M95.7633 135.822C77.211 126.189 57.2573 119.535 36.6357 116.105C38.7439 103.427 39.7322 94.1079 41.8404 81.4298C66.4529 85.5225 90.2682 93.4643 112.411 104.963C106.489 116.369 101.686 124.416 95.7633 135.822Z" fill="#01051B"/>
<path d="M46.8823 106.425C55.6568 105.404 61.9429 97.4642 60.9227 88.6899C59.9024 79.9157 51.9621 73.6298 43.1876 74.6501C34.413 75.6704 28.1269 83.6105 29.1472 92.3847C30.1674 101.159 38.1077 107.445 46.8823 106.425Z" fill="#161616"/>
<path d="M31.9613 124.277C32.0367 117.422 26.5407 111.803 19.6855 111.728C12.8303 111.653 7.21196 117.149 7.13655 124.004C7.06114 130.859 12.5572 136.477 19.4124 136.553C26.2676 136.628 31.8859 131.132 31.9613 124.277Z" fill="#01051B"/>
<path d="M56.6701 101.523L28.6362 132.608L8.95605 117.683L31.3276 82.3035L56.6701 101.523Z" fill="#01051B"/>
<path d="M14.2754 109.262L13.2549 110.892C13.2549 110.892 28.3225 111.071 36.7831 123.62L38.0782 122.138C29.5188 109.444 14.2754 109.262 14.2754 109.262Z" fill="#161616"/>
<path d="M16.3634 133.172C15.3734 132.842 14.445 132.351 13.6042 131.713C9.68727 128.742 8.64702 123.336 11.1847 119.136C11.1909 119.126 11.1971 119.116 11.2033 119.106L25.8489 95.9348C26.371 95.1081 27.4644 94.8607 28.291 95.3845C29.1171 95.9066 29.3641 97 28.8414 97.8266L14.206 120.982C12.6188 123.625 13.2782 127.022 15.7435 128.892C16.2758 129.296 16.8612 129.606 17.4827 129.813C18.41 130.122 18.9112 131.125 18.6021 132.052C18.293 132.98 17.2906 133.481 16.3634 133.172Z" fill="#161616"/>
<path d="M115.691 121.655C121.937 115.409 121.937 105.282 115.691 99.0357C109.444 92.7896 99.3175 92.7896 93.0713 99.0357C86.8252 105.282 86.8252 115.409 93.0713 121.655C99.3174 127.901 109.444 127.901 115.691 121.655Z" fill="#161616"/>
<path d="M116.295 156.656C118.586 150.195 115.204 143.1 108.743 140.809C102.281 138.519 95.186 141.9 92.8954 148.362C90.6049 154.823 93.9862 161.918 100.448 164.209C106.91 166.499 114.005 163.118 116.295 156.656Z" fill="#01051B"/>
<path d="M88.4902 112.133L92.2563 153.823L116.955 153.697L120.296 111.971L88.4902 112.133Z" fill="#01051B"/>
<path d="M117.761 143.77L117.599 145.686C117.599 145.686 105.439 136.787 91.1401 141.746L90.9932 139.783C105.46 134.767 117.761 143.77 117.761 143.77Z" fill="#161616"/>
<path d="M101.397 161.528C97.8642 160.349 95.3169 157.201 94.9078 153.506C94.9061 153.494 94.905 153.482 94.9039 153.47L94.1343 144.953C94.0461 143.98 94.7643 143.119 95.7384 143.031C96.7126 142.944 97.5732 143.661 97.6608 144.635L98.4281 153.132C98.692 155.452 100.295 157.428 102.517 158.169C103.138 158.376 103.792 158.479 104.46 158.475C105.437 158.471 106.234 159.259 106.239 160.237C106.244 161.214 105.456 162.011 104.478 162.016C103.423 162.022 102.386 161.858 101.397 161.528Z" fill="#01051B"/>
<path d="M51.3628 102.766C58.1092 99.2673 60.7417 90.9618 57.2427 84.2154C53.7438 77.469 45.4383 74.8365 38.6919 78.3355C31.9456 81.8344 29.313 90.1399 32.812 96.8863C36.3109 103.633 44.6164 106.265 51.3628 102.766Z" fill="#161616"/>
<path d="M41.2376 101.927C34.9655 99.8354 31.5645 93.0316 33.6557 86.7596C35.7475 80.4875 42.5513 77.0864 48.824 79.1777C55.096 81.2695 58.4971 88.0733 56.4058 94.3459C54.314 100.617 47.5096 104.018 41.2376 101.927Z" fill="url(#paint1_linear_1178_291663)"/>
<path d="M52.6035 90.4838L48.143 88.9966L49.6307 84.5361C49.824 83.9569 49.5109 83.3308 48.9318 83.1381L46.3602 82.2804C45.781 82.0871 45.155 82.4002 44.9623 82.9794L43.4745 87.4399L39.014 85.9527C38.4348 85.7594 37.8087 86.0724 37.616 86.6516L36.7583 89.2232C36.565 89.8023 36.8781 90.4284 37.4573 90.6211L41.9178 92.1089L40.43 96.5694C40.2368 97.1486 40.5498 97.7747 41.129 97.9673L43.7005 98.8251C44.2797 99.0183 44.9058 98.7053 45.0985 98.1261L46.5862 93.6656L51.0468 95.1534C51.6259 95.3466 52.252 95.0336 52.4447 94.4544L53.3024 91.8829C53.4957 91.3031 53.1827 90.677 52.6035 90.4838Z" fill="url(#paint2_linear_1178_291663)"/>
<path d="M52.6035 90.4838L48.143 88.9966L49.6307 84.5361C49.824 83.9569 49.5109 83.3308 48.9318 83.1381L46.3602 82.2804C45.781 82.0871 45.155 82.4002 44.9623 82.9794L43.4745 87.4399L39.014 85.9527C38.4348 85.7594 37.8087 86.0724 37.616 86.6516L36.7583 89.2232C36.565 89.8023 36.8781 90.4284 37.4573 90.6211L41.9178 92.1089L40.43 96.5694C40.2368 97.1486 40.5498 97.7747 41.129 97.9673L43.7005 98.8251C44.2797 99.0183 44.9058 98.7053 45.0985 98.1261L46.5862 93.6656L51.0468 95.1534C51.6259 95.3466 52.252 95.0336 52.4447 94.4544L53.3024 91.8829C53.4957 91.3031 53.1827 90.677 52.6035 90.4838Z" fill="#2A2A2A"/>
<path d="M42.3197 96.4982L44.1567 90.9889L38.6475 89.1514L39.0842 87.8416L44.5935 89.6786L46.4305 84.1693L47.7408 84.6067L45.9038 90.1154L51.4131 91.9529L50.9763 93.2627L45.4671 91.4257L43.6295 96.935L42.3197 96.4982Z" fill="#01051B"/>
<path d="M118.042 111.898C118.898 104.347 113.471 97.5308 105.92 96.6743C98.3686 95.8178 91.5528 101.245 90.6963 108.796C89.8398 116.347 95.267 123.163 102.818 124.02C110.369 124.876 117.185 119.449 118.042 111.898Z" fill="#161616"/>
<path d="M100.591 121.719C94.319 119.627 90.918 112.823 93.0092 106.551C95.101 100.279 101.905 96.8783 108.178 98.9696C114.45 101.061 117.851 107.865 115.759 114.138C113.668 120.409 106.863 123.81 100.591 121.719Z" fill="url(#paint3_linear_1178_291663)"/>
<path d="M108.855 106.899C110.348 105.568 110.48 103.277 109.148 101.784C107.816 100.29 105.526 100.159 104.032 101.491C102.539 102.822 102.408 105.113 103.739 106.606C105.071 108.1 107.361 108.231 108.855 106.899Z" fill="url(#paint4_linear_1178_291663)"/>
<path d="M108.855 106.899C110.348 105.568 110.48 103.277 109.148 101.784C107.816 100.29 105.526 100.159 104.032 101.491C102.539 102.822 102.408 105.113 103.739 106.606C105.071 108.1 107.361 108.231 108.855 106.899Z" fill="#2A2A2A"/>
<path d="M105.853 105.938C104.884 105.615 104.358 104.563 104.681 103.594C105.004 102.625 106.056 102.099 107.026 102.422C107.995 102.746 108.521 103.797 108.198 104.766C107.874 105.736 106.823 106.261 105.853 105.938Z" fill="#01051B"/>
<path d="M103.927 119.734C105.721 118.848 106.456 116.675 105.569 114.881C104.682 113.087 102.509 112.352 100.716 113.239C98.9218 114.126 98.1867 116.299 99.0735 118.092C99.9604 119.886 102.133 120.621 103.927 119.734Z" fill="url(#paint5_linear_1178_291663)"/>
<path d="M103.927 119.734C105.721 118.848 106.456 116.675 105.569 114.881C104.682 113.087 102.509 112.352 100.716 113.239C98.9218 114.126 98.1867 116.299 99.0735 118.092C99.9604 119.886 102.133 120.621 103.927 119.734Z" fill="#2A2A2A"/>
<path d="M101.743 118.266C100.773 117.943 100.248 116.891 100.571 115.922C100.894 114.953 101.946 114.427 102.915 114.75C103.885 115.073 104.41 116.125 104.087 117.095C103.763 118.064 102.712 118.589 101.743 118.266Z" fill="#01051B"/>
<path d="M112.192 115.639C113.978 114.736 114.694 112.556 113.791 110.771C112.888 108.985 110.709 108.269 108.923 109.171C107.137 110.074 106.421 112.253 107.324 114.039C108.226 115.825 110.406 116.541 112.192 115.639Z" fill="url(#paint6_linear_1178_291663)"/>
<path d="M112.192 115.639C113.978 114.736 114.694 112.556 113.791 110.771C112.888 108.985 110.709 108.269 108.923 109.171C107.137 110.074 106.421 112.253 107.324 114.039C108.226 115.825 110.406 116.541 112.192 115.639Z" fill="#2A2A2A"/>
<path d="M109.962 114.157C108.993 113.834 108.467 112.783 108.791 111.814C109.114 110.844 110.165 110.318 111.134 110.642C112.104 110.965 112.63 112.016 112.306 112.986C111.983 113.955 110.932 114.481 109.962 114.157Z" fill="#01051B"/>
<path d="M98.5145 111.894C100.509 111.734 101.996 109.988 101.836 107.993C101.676 105.999 99.9293 104.511 97.9348 104.671C95.9402 104.832 94.453 106.578 94.6131 108.573C94.7732 110.567 96.5199 112.055 98.5145 111.894Z" fill="url(#paint7_linear_1178_291663)"/>
<path d="M98.5145 111.894C100.509 111.734 101.996 109.988 101.836 107.993C101.676 105.999 99.9293 104.511 97.9348 104.671C95.9402 104.832 94.453 106.578 94.6131 108.573C94.7732 110.567 96.5199 112.055 98.5145 111.894Z" fill="#2A2A2A"/>
<path d="M97.6344 110.047C96.6648 109.723 96.1393 108.672 96.4625 107.703C96.7857 106.733 97.8373 106.208 98.8069 106.531C99.776 106.854 100.301 107.906 99.9782 108.875C99.655 109.844 98.6035 110.37 97.6344 110.047Z" fill="#01051B"/>
<path d="M59.888 126.183C63.9733 124.15 65.6375 119.191 63.6051 115.106C61.5727 111.02 56.6133 109.356 52.528 111.389C48.4427 113.421 46.7784 118.38 48.8108 122.466C50.8432 126.551 55.8026 128.215 59.888 126.183Z" fill="#2A2A2A"/>
<path d="M54.7246 123.258C52.2547 122.434 50.9155 119.755 51.7388 117.285C52.5621 114.816 55.2416 113.476 57.7114 114.3C60.1813 115.123 61.5204 117.803 60.6966 120.273C59.8739 122.743 57.1944 124.082 54.7246 123.258Z" fill="#02061B"/>
<path d="M86.3331 128.821C84.8894 133.15 80.2102 135.489 75.8813 134.045C71.5525 132.601 69.2137 127.922 70.6569 123.594C72.1006 119.265 76.7798 116.926 81.1086 118.369C85.4375 119.813 87.7762 124.492 86.3331 128.821Z" fill="#2A2A2A"/>
<path d="M77.0009 130.687C74.5311 129.863 73.1919 127.184 74.0152 124.714C74.839 122.244 77.5185 120.905 79.9878 121.728C82.4576 122.552 83.7968 125.232 82.973 127.702C82.1503 130.171 79.4708 131.51 77.0009 130.687Z" fill="#02061B"/>
<path d="M67.1288 97.0779C64.0939 96.2201 62.3287 93.0649 63.1864 90.03L66.088 79.7624C66.4615 78.4408 67.8357 77.6718 69.1573 78.0453L75.361 79.798C76.6827 80.1715 77.4517 81.5458 77.0782 82.868L74.1767 93.1355C73.3189 96.1704 70.1637 97.9351 67.1288 97.0779Z" fill="#212123"/>
<path d="M58.7465 92.1002C56.3168 91.6731 54.6934 89.3569 55.1211 86.9272L56.5671 78.7074C56.753 77.649 57.7622 76.9422 58.82 77.1281L63.7867 78.0016C64.8451 78.1875 65.552 79.1967 65.3655 80.2545L63.9201 88.4743C63.4924 90.9046 61.1762 92.528 58.7465 92.1002Z" fill="#212123"/>
<path d="M75.361 100.372C72.8086 98.5188 72.2419 94.9477 74.0947 92.3959L80.3628 83.7619C81.1697 82.6505 82.7247 82.4035 83.8368 83.2104L89.0533 86.998C90.1648 87.8049 90.4117 89.3604 89.6048 90.4719L83.3367 99.1059C81.4839 101.657 77.9128 102.224 75.361 100.372Z" fill="#212123"/>
<path d="M82.2894 106.106C80.4428 103.549 81.0192 99.9799 83.5755 98.1339L92.2253 91.8873C93.339 91.0832 94.8934 91.3341 95.6975 92.4472L99.4715 97.6734C100.276 98.7871 100.025 100.342 98.9115 101.146L90.2617 107.392C87.7048 109.239 84.1354 108.663 82.2894 106.106Z" fill="#212123"/>
<path d="M80.7025 181.522H51.7301L49.6055 136.001H82.4728L80.7025 181.522Z" fill="#212123"/>
<path d="M60.9455 106.98C60.672 112.694 55.8188 117.104 50.105 116.831L42.5587 116.47C41.0585 116.398 39.9002 115.123 39.9719 113.623L40.3087 106.582C40.3804 105.081 41.6552 103.923 43.1554 103.995L58.9181 104.749C60.094 104.805 61.002 105.804 60.9455 106.98Z" fill="#212123"/>
<path d="M43.1554 103.995C46.6005 104.16 49.2591 107.086 49.0947 110.531L48.537 125.726C48.4652 127.226 47.191 128.385 45.6902 128.313L38.6486 127.976C37.1484 127.904 35.99 126.63 36.0618 125.129L36.6195 109.934C36.7839 106.489 39.7103 103.83 43.1554 103.995Z" fill="#212123"/>
<path d="M38.4735 120.05C41.4847 117.318 45.5977 117.601 48.9654 118.403C56.0958 120.1 60.8947 125.235 63.8098 129.625C66.1452 133.141 64.9049 137.903 61.1315 139.796L51.0278 144.865L37.9689 130.449C35.2363 127.438 35.4623 122.783 38.4735 120.05Z" fill="#212123"/>
<path d="M80.7024 181.522L82.0992 143.679C80.4645 143.547 79.0502 143.605 77.8591 145.713C76.855 147.49 76.512 149.813 76.3408 152.06C75.9198 157.589 75.808 175.931 75.7803 181.521H80.7024V181.522Z" fill="#01051B"/>
<path d="M105.953 181.522H24.6338V183.961H105.953V181.522Z" fill="#01051B"/>
<rect y="192" width="100" height="22" rx="10" fill="#0D0D0D"/>
<rect y="218" width="56" height="22" rx="10" fill="#0D0D0D"/>
<defs>
<linearGradient id="paint0_linear_1178_291663" x1="4.14858e-05" y1="141.787" x2="-14.2941" y2="63.8103" gradientUnits="userSpaceOnUse">
<stop stop-color="#151515"/>
<stop offset="1" stop-color="#01051B"/>
</linearGradient>
<linearGradient id="paint1_linear_1178_291663" x1="56.6219" y1="96.9888" x2="33.0393" y2="83.2076" gradientUnits="userSpaceOnUse">
<stop stop-color="#011931"/>
<stop offset="1" stop-color="#2C012A"/>
</linearGradient>
<linearGradient id="paint2_linear_1178_291663" x1="53.3596" y1="82.2233" x2="36.7012" y2="82.2233" gradientUnits="userSpaceOnUse">
<stop stop-color="#A83AFE"/>
<stop offset="1" stop-color="#6E59FE"/>
</linearGradient>
<linearGradient id="paint3_linear_1178_291663" x1="115.975" y1="116.781" x2="92.3929" y2="102.999" gradientUnits="userSpaceOnUse">
<stop stop-color="#011931"/>
<stop offset="1" stop-color="#2C012A"/>
</linearGradient>
<linearGradient id="paint4_linear_1178_291663" x1="106.737" y1="99.0796" x2="101.328" y2="103.902" gradientUnits="userSpaceOnUse">
<stop stop-color="#A83AFE"/>
<stop offset="1" stop-color="#6E59FE"/>
</linearGradient>
<linearGradient id="paint5_linear_1178_291663" x1="103.963" y1="111.633" x2="97.4678" y2="114.845" gradientUnits="userSpaceOnUse">
<stop stop-color="#A83AFE"/>
<stop offset="1" stop-color="#6E59FE"/>
</linearGradient>
<linearGradient id="paint6_linear_1178_291663" x1="112.157" y1="107.537" x2="105.689" y2="110.806" gradientUnits="userSpaceOnUse">
<stop stop-color="#A83AFE"/>
<stop offset="1" stop-color="#6E59FE"/>
</linearGradient>
<linearGradient id="paint7_linear_1178_291663" x1="101.546" y1="104.382" x2="94.3232" y2="104.961" gradientUnits="userSpaceOnUse">
<stop stop-color="#A83AFE"/>
<stop offset="1" stop-color="#6E59FE"/>
</linearGradient>
</defs>
</svg>
