<svg width="90" height="79" viewBox="0 0 90 79" fill="none" xmlns="http://www.w3.org/2000/svg">
<path fill-rule="evenodd" clip-rule="evenodd" d="M0 27.1977C0 26.1069 0.5874 25.1271 1.5 24.5991C1.5024 24.5979 43.4106 0.402338 43.4106 0.402338C44.3388 -0.133462 45.4824 -0.133462 46.4106 0.402338L88.3218 24.5997C89.25 25.1355 89.8218 26.1255 89.8218 27.1977V51.3945C89.8218 52.4667 89.25 53.4567 88.3218 53.9925L46.4106 78.1899C45.9582 78.4515 45.4428 78.5919 44.9106 78.5919C44.3784 78.5919 43.8636 78.4515 43.4106 78.1899L1.5 53.9925C0.5718 53.4567 0 52.4667 0 51.3945V27.1977ZM83.8218 32.3937L47.9106 53.1267V70.3959L83.8218 49.6629V32.3937ZM41.9106 53.1267L6 32.3937V49.6629L41.9106 70.3959V53.1267ZM9 27.1977L44.9106 47.9307L80.8218 27.1977L44.9106 6.46414L9 27.1977ZM26.2326 24.6003L43.4106 14.6829C44.3388 14.1471 45.4824 14.1471 46.4106 14.6829L63.5868 24.5997C64.515 25.1355 65.0868 26.1261 65.0868 27.1977C65.0868 28.2693 64.515 29.2599 63.5868 29.7957L46.4106 39.7143C45.4824 40.2501 44.3388 40.2501 43.4106 39.7143L26.2326 29.7969C25.3044 29.2605 24.7326 28.2705 24.7326 27.1989C24.7326 26.1267 25.3044 25.1367 26.2326 24.6003ZM33.7326 27.1989L44.9106 33.6519L56.0874 27.1977L44.9106 20.7453L33.7326 27.1989ZM18.4278 48.8643C18.4278 47.2089 19.7718 45.8643 21.4278 45.8643C23.0832 45.8643 24.4278 47.2089 24.4278 48.8643V50.0643C24.4278 51.7203 23.0832 53.0643 21.4278 53.0643C19.7718 53.0643 18.4278 51.7203 18.4278 50.0643V48.8643ZM10.0278 44.0643C10.0278 42.4089 11.3718 41.0643 13.0278 41.0643C14.6832 41.0643 16.0278 42.4089 16.0278 44.0643V45.2643C16.0278 46.9203 14.6832 48.2643 13.0278 48.2643C11.3718 48.2643 10.0278 46.9203 10.0278 45.2643V44.0643Z" fill="url(#paint0_linear_2860_2051)"/>
<defs>
<linearGradient id="paint0_linear_2860_2051" x1="16.7231" y1="4.75101" x2="89.8931" y2="75.2648" gradientUnits="userSpaceOnUse">
<stop stop-color="#FF0CF5"/>
<stop offset="1" stop-color="#0575E6"/>
</linearGradient>
</defs>
</svg>
