<svg width="21" height="20" viewBox="0 0 21 20" fill="none" xmlns="http://www.w3.org/2000/svg">
<g clip-path="url(#clip0_2388_1755)">
<path fill-rule="evenodd" clip-rule="evenodd" d="M0.5 9.99799C0.5 4.47901 4.98099 -0.00195312 10.5 -0.00195312C16.019 -0.00195312 20.5 4.47901 20.5 9.99799C20.5 15.517 16.019 19.9979 10.5 19.9979C4.98099 19.9979 0.5 15.517 0.5 9.99799ZM7.21583 3.2476C7.31684 2.98578 7.24309 2.68941 7.03177 2.506C6.81978 2.32193 6.51543 2.29066 6.27154 2.42756C4.02074 3.68819 2.38926 5.92306 1.94801 8.55928C1.91611 8.752 1.96995 8.94935 2.09621 9.0982C2.22248 9.24772 2.40787 9.33345 2.60391 9.33345H5.47011C5.82298 9.33345 6.11403 9.05835 6.13396 8.70615C6.25092 6.60687 6.64698 4.71756 7.21583 3.2476ZM18.3961 9.33345C18.5921 9.33345 18.7775 9.24772 18.9038 9.0982C19.0301 8.94935 19.0839 8.752 19.052 8.55928C18.6107 5.92306 16.9793 3.68819 14.7285 2.42756C14.4846 2.29066 14.1802 2.32193 13.9682 2.506C13.7569 2.68941 13.6832 2.98578 13.7842 3.2476C14.353 4.71756 14.7491 6.60687 14.866 8.70615C14.886 9.05835 15.177 9.33345 15.5299 9.33345H18.3961ZM2.60391 10.6625C2.40787 10.6625 2.22248 10.7483 2.09621 10.8978C1.96995 11.0466 1.91611 11.244 1.94801 11.4367C2.38926 14.0729 4.02074 16.3078 6.27154 17.5684C6.51543 17.7053 6.81978 17.6741 7.03177 17.49C7.24309 17.3066 7.31684 17.0102 7.21583 16.7484C6.64698 15.2784 6.25092 13.3891 6.13396 11.2898C6.11403 10.9376 5.82298 10.6625 5.47011 10.6625H2.60391ZM8.13091 10.6625C7.9475 10.6625 7.77271 10.7383 7.64711 10.8712C7.52151 11.0048 7.45641 11.1835 7.46771 11.3663C7.60992 13.7593 8.1276 15.8406 8.87653 17.2129C9.09118 17.6049 9.32244 17.9352 9.57231 18.1877C9.86271 18.4815 10.1677 18.6689 10.5 18.6689C10.8323 18.6689 11.1373 18.4815 11.4277 18.1877C11.6776 17.9352 11.9088 17.6049 12.1235 17.2129C12.8724 15.8406 13.3901 13.7593 13.5323 11.3663C13.5436 11.1835 13.4785 11.0048 13.3529 10.8712C13.2273 10.7383 13.0525 10.6625 12.8691 10.6625H8.13091ZM12.8691 9.33345C13.0525 9.33345 13.2273 9.25768 13.3529 9.12477C13.4785 8.9912 13.5436 8.81244 13.5323 8.62969C13.3901 6.23669 12.8724 4.15538 12.1235 2.78311C11.9088 2.39103 11.6776 2.06077 11.4277 1.80825C11.1373 1.51452 10.8323 1.32712 10.5 1.32712C10.1677 1.32712 9.86271 1.51452 9.57231 1.80825C9.32244 2.06077 9.09118 2.39103 8.87653 2.78311C8.1276 4.15538 7.60992 6.23669 7.46771 8.62969C7.45641 8.81244 7.52151 8.9912 7.64711 9.12477C7.77271 9.25768 7.9475 9.33345 8.13091 9.33345H12.8691ZM13.7842 16.7484C13.6832 17.0102 13.7569 17.3066 13.9682 17.49C14.1802 17.6741 14.4846 17.7053 14.7285 17.5684C16.9793 16.3078 18.6107 14.0729 19.052 11.4367C19.0839 11.244 19.0301 11.0466 18.9038 10.8978C18.7775 10.7483 18.5921 10.6625 18.3961 10.6625H15.5299C15.177 10.6625 14.886 10.9376 14.866 11.2898C14.7491 13.3891 14.353 15.2784 13.7842 16.7484Z" fill="url(#paint0_linear_2388_1755)"/>
</g>
<defs>
<linearGradient id="paint0_linear_2388_1755" x1="20.5" y1="-0.00195312" x2="0.5" y2="-0.00195312" gradientUnits="userSpaceOnUse">
<stop stop-color="#A83AFE"/>
<stop offset="1" stop-color="#6E59FE"/>
</linearGradient>
<clipPath id="clip0_2388_1755">
<rect width="20" height="20" fill="white" transform="translate(0.5)"/>
</clipPath>
</defs>
</svg>
