<svg width="20" height="20" viewBox="0 0 20 20" fill="none" xmlns="http://www.w3.org/2000/svg">
<g clip-path="url(#clip0_455_1750)">
<path d="M15.8463 17L4.15374 17C1.85969 17 1.62579e-07 15.1403 3.63132e-07 12.8463L8.7412e-07 7.00124C1.07467e-06 4.70719 1.85969 2.84749 4.15374 2.84749L15.8463 2.84749C18.1403 2.84749 20 4.70719 20 7.00124L20 12.8463C20 15.1403 18.1403 17 15.8463 17ZM13.0371 9.63937L7.56814 7.031C7.42241 6.9615 7.25408 7.06775 7.25408 7.22918L7.25408 12.6089C7.25408 12.7727 7.42684 12.8788 7.57287 12.8048L13.0418 10.0334C13.2044 9.95099 13.2016 9.71781 13.0371 9.63937Z" fill="#DCDCDC"/>
</g>
<defs>
<clipPath id="clip0_455_1750">
<rect width="20" height="20" fill="white" transform="matrix(1 8.74228e-08 8.74228e-08 -1 0 20)"/>
</clipPath>
</defs>
</svg>
