<svg width="110" height="80" viewBox="0 0 110 80" fill="none" xmlns="http://www.w3.org/2000/svg">
<path fill-rule="evenodd" clip-rule="evenodd" d="M3.64028 57.7391C1.633 57.7391 0.00390625 56.11 0.00390625 54.1027C0.00390625 52.0954 1.633 50.4663 3.64028 50.4663H10.0549C12.0622 50.4663 13.6913 52.0954 13.6913 54.1027C13.6913 56.11 12.0622 57.7391 10.0549 57.7391H3.64028ZM88.7314 19.862C86.7241 19.862 85.095 18.2329 85.095 16.2256C85.095 14.2183 86.7241 12.5893 88.7314 12.5893H105.459C107.466 12.5893 109.095 14.2183 109.095 16.2256C109.095 18.2329 107.466 19.862 105.459 19.862H88.7314ZM43.2549 50.3355L48.3968 55.4845L39.5748 64.3064L40.1785 64.91C40.8622 65.5936 41.7858 65.9718 42.7531 65.9718C43.7131 65.9718 44.6441 65.5936 45.3204 64.91L51.9749 58.2555C53.4004 56.83 55.6986 56.83 57.1241 58.2555C58.5423 59.6737 58.5423 61.9718 57.1241 63.3973L52.2368 68.2845L52.9495 68.9972C53.6332 69.6809 54.5568 70.0664 55.5168 70.0664C56.4841 70.0664 57.4078 69.6809 58.0914 68.9972L64.8114 62.2772C66.2296 60.8591 68.5349 60.8591 69.9531 62.2772C71.3713 63.7027 71.3713 66.0009 69.9531 67.4191L66.5204 70.8591L66.8913 71.23C67.5895 71.9355 68.5569 72.3136 69.546 72.2918C70.5423 72.27 71.4804 71.8409 72.1495 71.1063L89.1169 52.4663C89.8078 51.71 90.7823 51.2736 91.8077 51.2736H105.459C107.466 51.2736 109.095 52.9027 109.095 54.91C109.095 56.9172 107.466 58.5463 105.459 58.5463H93.415L77.5314 76.0009C75.5242 78.2045 72.7023 79.4918 69.7205 79.5645C66.7387 79.63 63.8585 78.4809 61.7494 76.3718L61.1459 75.7682C59.4659 76.7864 57.5168 77.3391 55.5168 77.3391C52.6295 77.3391 49.8513 76.1827 47.8076 74.1391L46.3167 72.6482C45.1749 73.0409 43.9749 73.2446 42.7531 73.2446C39.8586 73.2446 37.0803 72.0955 35.0367 70.0518L34.113 69.1282C32.7312 69.8409 31.1967 70.2264 29.6185 70.2264C27.0294 70.2264 24.5494 69.1936 22.7167 67.3682C18.913 63.5572 18.913 57.3827 22.7167 53.5791L36.7822 39.5137C38.2004 38.0955 40.5057 38.0955 41.9239 39.5137C43.3421 40.9318 43.3421 43.2373 41.9239 44.6554L27.8586 58.7209C26.8913 59.6881 26.8913 61.2591 27.8586 62.2264C28.324 62.6918 28.9567 62.9536 29.6185 62.9536C30.273 62.9536 30.9059 62.6918 31.3641 62.2264L43.2549 50.3355ZM3.64028 19.9238C1.633 19.9238 0.00390625 18.2947 0.00390625 16.2875C0.00390625 14.2802 1.633 12.6511 3.64028 12.6511H29.0439L36.3676 5.32527C43.4658 -1.77509 54.9787 -1.77509 62.0841 5.32527L74.3022 17.542C76.2804 19.526 77.3931 22.2162 77.3931 25.0213C77.3931 27.8271 76.2804 30.5173 74.3022 32.5027H74.2949C72.3167 34.4882 69.626 35.6009 66.8187 35.6009C64.0114 35.6009 61.3205 34.4882 59.335 32.5027L51.6404 24.8053C50.2222 23.3857 50.2222 21.0816 51.6404 19.6627C53.0586 18.2431 55.3641 18.2431 56.7823 19.6627L64.484 27.3602C65.1022 27.9798 65.9387 28.3282 66.8187 28.3282C67.6914 28.3282 68.535 27.9798 69.1532 27.3602V27.358C69.7787 26.7384 70.1204 25.8984 70.1204 25.0213C70.1204 24.1449 69.7787 23.3042 69.1532 22.6846L56.9422 10.4678C52.6804 6.20744 45.7713 6.20744 41.5095 10.4678L33.124 18.8584C32.4404 19.5406 31.5167 19.9238 30.5494 19.9238H3.64028Z" fill="url(#paint0_linear_1808_1565)"/>
<defs>
<linearGradient id="paint0_linear_1808_1565" x1="0.00390508" y1="0.000183428" x2="109.095" y2="79.567" gradientUnits="userSpaceOnUse">
<stop stop-color="#FF0CF5"/>
<stop offset="1" stop-color="#0575E6"/>
</linearGradient>
</defs>
</svg>
