<svg width="126" height="80" viewBox="0 0 126 80" fill="none" xmlns="http://www.w3.org/2000/svg">
<path d="M0 6C0 2.68629 2.68629 0 6 0H120C123.314 0 126 2.68629 126 6V74C126 77.3137 123.314 80 120 80H6C2.68629 80 0 77.3137 0 74V6Z" fill="#3E4246"/>
<g clip-path="url(#clip0_893_3229)">
<path d="M74.986 18.4417C72.2801 18.4417 52.5258 18.4417 50.1347 18.4417C33.7335 18.4417 24.3334 62.5603 36.6036 62.5603C46.9539 62.5603 48.3473 49.6586 62.5218 49.6586C73.9864 49.6586 80.7163 62.3979 88.3647 62.3979C100.625 62.3979 91.3892 18.4417 74.986 18.4417ZM50.2436 40.498C45.7029 40.498 42.0232 36.8183 42.0232 32.2835C42.0232 27.7527 45.7029 24.073 50.2436 24.073C54.7804 24.073 58.4581 27.7527 58.4581 32.2835C58.4581 36.8163 54.7784 40.498 50.2436 40.498ZM70.6333 33.584C69.2932 33.1663 68.545 31.7392 68.9706 30.3952C69.3883 29.0571 70.8154 28.3109 72.1574 28.7325C73.4975 29.1462 74.2516 30.5733 73.826 31.9134C73.4044 33.2633 71.9773 34.0016 70.6333 33.584ZM78.3351 39.6785C77.6977 41.7232 75.5204 42.8673 73.4717 42.222C71.427 41.5847 70.2889 39.4073 70.9322 37.3587C71.5695 35.314 73.7508 34.1699 75.7955 34.8152C77.8402 35.4565 78.9764 37.6358 78.3351 39.6785ZM76.8723 30.7436C74.986 30.1438 73.9349 28.1308 74.5248 26.2484C75.1206 24.358 77.1296 23.303 79.018 23.9008C80.9083 24.4887 81.9594 26.5017 81.3616 28.3901C80.7777 30.2764 78.7666 31.3354 76.8723 30.7436ZM83.913 35.9672C83.4835 37.3131 82.0603 38.0554 80.7203 37.6378C79.3822 37.2201 78.632 35.793 79.0497 34.445C79.4752 33.103 80.9063 32.3607 82.2384 32.7744C83.5844 33.198 84.3307 34.6212 83.913 35.9672ZM54.3944 32.4062C54.3944 34.7498 52.5021 36.6441 50.1644 36.6441C47.8228 36.6441 45.9305 34.7498 45.9305 32.4062C45.9305 30.0745 47.8228 28.1763 50.1644 28.1763C52.5021 28.1763 54.3944 30.0745 54.3944 32.4062Z" fill="#A8A8A8"/>
</g>
<defs>
<clipPath id="clip0_893_3229">
<path d="M31 9H94V66C94 69.3137 91.3137 72 88 72H37C33.6863 72 31 69.3137 31 66V9Z" fill="white"/>
</clipPath>
</defs>
</svg>
