<svg width="48" height="48" viewBox="0 0 48 48" fill="none" xmlns="http://www.w3.org/2000/svg">
<circle cx="24" cy="24" r="24" fill="#151515"/>
<path fill-rule="evenodd" clip-rule="evenodd" d="M19.3246 14C16.742 14 14.5231 15.6842 14.2635 18.2537C14.1133 19.7415 14 21.6442 14 24C14 26.3558 14.1133 28.2585 14.2635 29.7463C14.5231 32.3158 16.742 34 19.3246 34H28.6754C31.258 34 33.4769 32.3158 33.7365 29.7463C33.8867 28.2585 34 26.3558 34 24C34 21.6442 33.8867 19.7415 33.7365 18.2537C33.4769 15.6842 31.258 14 28.6754 14H19.3246ZM25 19C25 18.4477 24.5523 18 24 18C23.4477 18 23 18.4477 23 19V22.5C23 22.7761 22.7761 23 22.5 23H19C18.4477 23 18 23.4477 18 24C18 24.5523 18.4477 25 19 25H22.5C22.7761 25 23 25.2239 23 25.5V29C23 29.5523 23.4477 30 24 30C24.5523 30 25 29.5523 25 29V25.5C25 25.2239 25.2239 25 25.5 25H29C29.5523 25 30 24.5523 30 24C30 23.4477 29.5523 23 29 23H25.5C25.2239 23 25 22.7761 25 22.5V19Z" fill="url(#paint0_linear_393_1684)"/>
<defs>
<linearGradient id="paint0_linear_393_1684" x1="34" y1="14" x2="14" y2="14" gradientUnits="userSpaceOnUse">
<stop stop-color="#959595"/>
<stop offset="1" stop-color="#959595"/>
</linearGradient>
</defs>
</svg>
