<svg width="36" height="36" viewBox="0 0 36 36" fill="none" xmlns="http://www.w3.org/2000/svg">
<path fill-rule="evenodd" clip-rule="evenodd" d="M15 0C6.71573 0 0 6.71573 0 15V21C0 29.2843 6.71573 36 15 36H21C29.2843 36 36 29.2843 36 21V15C36 6.71573 29.2843 0 21 0H15ZM12.3432 10.9289C11.9526 10.5384 11.3195 10.5384 10.9289 10.9289C10.5384 11.3194 10.5384 11.9526 10.9289 12.3431L16.5858 18L10.9289 23.6568C10.5384 24.0474 10.5384 24.6805 10.9289 25.0711C11.3194 25.4616 11.9526 25.4616 12.3431 25.0711L18 19.4142L23.6569 25.0711C24.0474 25.4616 24.6805 25.4616 25.0711 25.0711C25.4616 24.6805 25.4616 24.0474 25.0711 23.6568L19.4142 18L25.071 12.3431C25.4616 11.9526 25.4616 11.3194 25.071 10.9289C24.6805 10.5384 24.0473 10.5384 23.6568 10.9289L18 16.5858L12.3432 10.9289Z" fill="#DCDCDC"/>
</svg>
