<svg width="48" height="48" viewBox="0 0 48 48" fill="none" xmlns="http://www.w3.org/2000/svg">
<path d="M8.94 41.9999H39.06C42.14 41.9999 44.06 38.6599 42.52 35.9999L27.46 9.97986C25.92 7.31986 22.08 7.31986 20.54 9.97986L5.48 35.9999C3.94 38.6599 5.86 41.9999 8.94 41.9999ZM24 27.9999C22.9 27.9999 22 27.0999 22 25.9999V21.9999C22 20.8999 22.9 19.9999 24 19.9999C25.1 19.9999 26 20.8999 26 21.9999V25.9999C26 27.0999 25.1 27.9999 24 27.9999ZM26 35.9999H22V31.9999H26V35.9999Z" fill="#FF5151"/>
</svg>
