<svg width="48" height="48" viewBox="0 0 48 48" fill="none" xmlns="http://www.w3.org/2000/svg">
<g clip-path="url(#clip0_693_5263)">
<rect x="4" y="4" width="40" height="40" rx="4" fill="#3AA0FE"/>
<path fill-rule="evenodd" clip-rule="evenodd" d="M24 22C25.1046 22 26 22.8954 26 24V32C26 33.1046 25.1046 34 24 34C22.8954 34 22 33.1046 22 32V24C22 22.8954 22.8954 22 24 22Z" fill="black"/>
<path fill-rule="evenodd" clip-rule="evenodd" d="M24 14C25.1046 14 26 14.8954 26 16C26 17.1046 25.1046 18 24 18C22.8954 18 22 17.1046 22 16C22 14.8954 22.8954 14 24 14Z" fill="black"/>
</g>
<defs>
<clipPath id="clip0_693_5263">
<rect width="48" height="48" fill="white"/>
</clipPath>
</defs>
</svg>
