<svg width="20" height="20" viewBox="0 0 20 20" fill="none" xmlns="http://www.w3.org/2000/svg">
<path d="M9.99705 9.22067C11.2208 9.22067 12.2129 8.22862 12.2129 7.00487C12.2129 5.78111 11.2208 4.78906 9.99705 4.78906C8.7733 4.78906 7.78125 5.78111 7.78125 7.00487C7.78125 8.22862 8.7733 9.22067 9.99705 9.22067Z" fill="url(#paint0_linear_1583_38149)"/>
<path d="M6.90542 11.5253C6.71695 11.5253 6.53448 11.4591 6.38974 11.3384C5.75428 10.8091 5.243 10.1465 4.89213 9.39757C4.54125 8.64865 4.35938 7.83173 4.35938 7.0047C4.35937 6.17766 4.54125 5.36074 4.89213 4.61182C5.243 3.8629 5.75428 3.20031 6.38974 2.67099C6.55396 2.53422 6.76579 2.46829 6.97863 2.48771C7.19146 2.50713 7.38787 2.6103 7.52463 2.77452C7.6614 2.93875 7.72732 3.15058 7.70791 3.36341C7.68849 3.57625 7.58532 3.77265 7.42109 3.90942C6.96713 4.2875 6.60188 4.7608 6.35122 5.29578C6.10056 5.83075 5.97063 6.41431 5.97063 7.0051C5.97063 7.59589 6.10056 8.17944 6.35122 8.71442C6.60188 9.24939 6.96713 9.72269 7.42109 10.1008C7.54822 10.2068 7.63962 10.3494 7.68284 10.5092C7.72607 10.669 7.71903 10.8382 7.66269 10.9938C7.60634 11.1495 7.50343 11.284 7.36794 11.3791C7.23244 11.4742 7.07095 11.5253 6.90542 11.5253Z" fill="url(#paint1_linear_1583_38149)"/>
<path d="M6.90527 11.3237C6.76395 11.3243 6.62697 11.2749 6.51851 11.1843C5.90571 10.6738 5.41266 10.0348 5.0743 9.31254C4.73594 8.59029 4.56055 7.80247 4.56055 7.00489C4.56055 6.20731 4.73594 5.41949 5.0743 4.69723C5.41266 3.97498 5.90571 3.33597 6.51851 2.82548C6.57951 2.77469 6.64992 2.73641 6.72571 2.71283C6.80151 2.68925 6.8812 2.68083 6.96025 2.68805C7.0393 2.69527 7.11615 2.71799 7.18642 2.75491C7.25669 2.79183 7.31899 2.84223 7.36978 2.90323C7.42057 2.96423 7.45885 3.03464 7.48243 3.11044C7.50601 3.18623 7.51443 3.26593 7.50721 3.34497C7.49999 3.42402 7.47727 3.50087 7.44035 3.57114C7.40343 3.64141 7.35303 3.70372 7.29203 3.75451C6.8154 4.1515 6.43191 4.64845 6.16873 5.21016C5.90556 5.77187 5.76914 6.38458 5.76914 7.00489C5.76914 7.62519 5.90556 8.23791 6.16873 8.79962C6.43191 9.36133 6.8154 9.85828 7.29203 10.2553C7.38738 10.3348 7.45592 10.4417 7.48834 10.5616C7.52076 10.6814 7.51548 10.8083 7.47323 10.9251C7.43097 11.0418 7.35378 11.1427 7.25216 11.214C7.15054 11.2853 7.02942 11.3236 6.90527 11.3237Z" fill="url(#paint2_linear_1583_38149)"/>
<path d="M4.84172 14.0002C4.65305 14.0005 4.47039 13.934 4.32604 13.8125C3.32732 12.9815 2.5237 11.941 1.97218 10.7647C1.42067 9.58839 1.13477 8.30512 1.13477 7.00593C1.13477 5.70675 1.42067 4.42348 1.97218 3.24717C2.5237 2.07085 3.32732 1.03032 4.32604 0.199386C4.40701 0.129058 4.5012 0.0756015 4.6031 0.0421503C4.70499 0.00869909 4.81254 -0.00407356 4.91944 0.00458108C5.02634 0.0132357 5.13043 0.0431435 5.22562 0.0925512C5.3208 0.141959 5.40517 0.209872 5.47377 0.29231C5.54237 0.374747 5.59382 0.47005 5.62511 0.572631C5.6564 0.675212 5.66689 0.783008 5.65598 0.889697C5.64507 0.996387 5.61296 1.09983 5.56155 1.19395C5.51014 1.28807 5.44046 1.37098 5.35659 1.43782C4.53975 2.11776 3.8825 2.96908 3.43145 3.93142C2.98039 4.89375 2.74657 5.94354 2.74657 7.00634C2.74657 8.06914 2.98039 9.11892 3.43145 10.0813C3.8825 11.0436 4.53975 11.8949 5.35659 12.5749C5.48398 12.6807 5.57563 12.8233 5.61907 12.9832C5.66251 13.1431 5.65562 13.3124 5.59934 13.4682C5.54306 13.624 5.44013 13.7587 5.30456 13.8539C5.16899 13.9491 5.00737 14.0002 4.84172 14.0002Z" fill="url(#paint3_linear_1583_38149)"/>
<path d="M4.84272 13.797C4.70158 13.7971 4.5649 13.7475 4.45677 13.6568C3.48071 12.8447 2.69532 11.8277 2.15631 10.6781C1.6173 9.52844 1.33789 8.27427 1.33789 7.00454C1.33789 5.73481 1.6173 4.48063 2.15631 3.33099C2.69532 2.18134 3.48071 1.1644 4.45677 0.352288C4.58028 0.24982 4.73945 0.200616 4.89924 0.2155C5.05904 0.230384 5.20638 0.308137 5.30885 0.431654C5.41131 0.555172 5.46052 0.714335 5.44563 0.874131C5.43075 1.03393 5.353 1.18126 5.22948 1.28373C4.38981 1.98265 3.7142 2.85774 3.25054 3.84695C2.78687 4.83617 2.54652 5.91527 2.54652 7.00776C2.54652 8.10024 2.78687 9.17935 3.25054 10.1686C3.7142 11.1578 4.38981 12.0329 5.22948 12.7318C5.32359 12.8116 5.39102 12.9183 5.4227 13.0376C5.45437 13.1568 5.44877 13.2829 5.40666 13.3989C5.36454 13.5149 5.28793 13.6152 5.18712 13.6864C5.0863 13.7576 4.96612 13.7961 4.84272 13.797Z" fill="url(#paint4_linear_1583_38149)"/>
<path d="M13.0921 11.5255C12.9266 11.5254 12.7651 11.4744 12.6296 11.3793C12.4941 11.2842 12.3912 11.1497 12.3348 10.994C12.2785 10.8384 12.2714 10.6692 12.3147 10.5094C12.3579 10.3496 12.4493 10.207 12.5764 10.101C13.0304 9.72287 13.3956 9.24957 13.6463 8.7146C13.8969 8.17962 14.0269 7.59606 14.0269 7.00528C14.0269 6.41449 13.8969 5.83093 13.6463 5.29596C13.3956 4.76098 13.0304 4.28768 12.5764 3.9096C12.4922 3.84282 12.4223 3.75988 12.3706 3.66566C12.319 3.57144 12.2867 3.46785 12.2757 3.36098C12.2647 3.2541 12.2752 3.14611 12.3065 3.04334C12.3379 2.94057 12.3895 2.84511 12.4582 2.76258C12.527 2.68004 12.6116 2.61209 12.707 2.56273C12.8025 2.51337 12.9068 2.48359 13.0139 2.47515C13.121 2.46671 13.2287 2.47977 13.3307 2.51357C13.4327 2.54737 13.5269 2.60123 13.6078 2.67197C14.2432 3.20129 14.7545 3.86388 15.1054 4.6128C15.4562 5.36172 15.6381 6.17864 15.6381 7.00568C15.6381 7.83272 15.4562 8.64964 15.1054 9.39855C14.7545 10.1475 14.2432 10.8101 13.6078 11.3394C13.4629 11.4598 13.2805 11.5257 13.0921 11.5255Z" fill="url(#paint5_linear_1583_38149)"/>
<path d="M13.0927 11.3237C12.9686 11.3236 12.8475 11.2853 12.7458 11.214C12.6442 11.1427 12.567 11.0418 12.5248 10.9251C12.4825 10.8083 12.4772 10.6814 12.5097 10.5616C12.5421 10.4417 12.6106 10.3348 12.706 10.2553C13.1826 9.85828 13.5661 9.36133 13.8293 8.79962C14.0924 8.23791 14.2289 7.6252 14.2289 7.00489C14.2289 6.38459 14.0924 5.77187 13.8293 5.21016C13.5661 4.64845 13.1826 4.1515 12.706 3.75451C12.5828 3.65193 12.5054 3.50462 12.4908 3.34498C12.4762 3.18533 12.5256 3.02643 12.6282 2.90324C12.7308 2.78004 12.8781 2.70264 13.0377 2.68805C13.1974 2.67347 13.3563 2.72291 13.4795 2.82548C14.0923 3.33598 14.5853 3.97498 14.9237 4.69723C15.2621 5.41949 15.4375 6.20731 15.4375 7.00489C15.4375 7.80247 15.2621 8.59029 14.9237 9.31255C14.5853 10.0348 14.0923 10.6738 13.4795 11.1843C13.371 11.2749 13.234 11.3243 13.0927 11.3237Z" fill="url(#paint6_linear_1583_38149)"/>
<path d="M15.1557 13.9993C14.9901 13.9993 14.8285 13.9482 14.6929 13.853C14.5573 13.7578 14.4544 13.6231 14.3981 13.4673C14.3418 13.3115 14.3349 13.1422 14.3784 12.9823C14.4218 12.8225 14.5135 12.6799 14.6409 12.574C15.4577 11.894 16.1149 11.0427 16.566 10.0804C17.0171 9.11804 17.2509 8.06826 17.2509 7.00546C17.2509 5.94266 17.0171 4.89287 16.566 3.93054C16.1149 2.9682 15.4577 2.11688 14.6409 1.43694C14.5567 1.37016 14.4867 1.28722 14.4351 1.193C14.3835 1.09879 14.3512 0.995195 14.3402 0.888321C14.3292 0.781447 14.3396 0.67345 14.371 0.570684C14.4023 0.467918 14.4539 0.372458 14.5227 0.289921C14.5915 0.207383 14.6761 0.139435 14.7715 0.0900733C14.8669 0.0407118 14.9713 0.0109338 15.0784 0.00249142C15.1855 -0.00595094 15.2932 0.00711285 15.3952 0.040914C15.4972 0.0747151 15.5914 0.128571 15.6722 0.199313C16.6716 1.03023 17.4759 2.07099 18.0278 3.24768C18.5798 4.42438 18.8659 5.70816 18.8659 7.00788C18.8659 8.30759 18.5798 9.59137 18.0278 10.7681C17.4759 11.9448 16.6716 12.9855 15.6722 13.8164C15.527 13.9364 15.3441 14.0011 15.1557 13.9993Z" fill="url(#paint7_linear_1583_38149)"/>
<path d="M15.1551 13.7974C15.0309 13.7973 14.9098 13.759 14.8082 13.6877C14.7066 13.6164 14.6294 13.5155 14.5871 13.3987C14.5449 13.282 14.5396 13.1551 14.572 13.0352C14.6044 12.9154 14.673 12.8084 14.7683 12.7289C15.608 12.03 16.2836 11.1549 16.7472 10.1657C17.2109 9.1765 17.4513 8.09739 17.4513 7.00491C17.4513 5.91242 17.2109 4.83332 16.7472 3.8441C16.2836 2.85489 15.608 1.9798 14.7683 1.28088C14.6452 1.17841 14.5679 1.03124 14.5533 0.871751C14.5387 0.712258 14.5881 0.553505 14.6906 0.430415C14.793 0.307325 14.9402 0.229982 15.0997 0.2154C15.2592 0.200819 15.4179 0.250193 15.541 0.35266C16.5171 1.16477 17.3025 2.18172 17.8415 3.33136C18.3805 4.48101 18.6599 5.73518 18.6599 7.00491C18.6599 8.27464 18.3805 9.52881 17.8415 10.6785C17.3025 11.8281 16.5171 12.845 15.541 13.6572C15.4329 13.7479 15.2962 13.7975 15.1551 13.7974Z" fill="url(#paint8_linear_1583_38149)"/>
<path d="M15.507 15.9758V16.9872H17.1381V17.9274H15.507V19.0242H17.3517V20H14.2891V15H17.3517V15.9758H15.507Z" fill="url(#paint9_linear_1583_38149)"/>
<path d="M13.6376 15L11.8641 20H10.3399L8.56641 15H9.8627L11.102 18.7749L12.3485 15H13.6376Z" fill="url(#paint10_linear_1583_38149)"/>
<path d="M7.92498 15V20H6.70703V15H7.92498Z" fill="url(#paint11_linear_1583_38149)"/>
<path d="M4.38201 19.0598H5.97745V20H3.16406V15H4.38201V19.0598Z" fill="url(#paint12_linear_1583_38149)"/>
<defs>
<linearGradient id="paint0_linear_1583_38149" x1="9.99705" y1="4.78906" x2="9.99705" y2="9.22067" gradientUnits="userSpaceOnUse">
<stop stop-color="#FF0C0C"/>
<stop offset="1" stop-color="#FF630C"/>
</linearGradient>
<linearGradient id="paint1_linear_1583_38149" x1="6.03531" y1="2.48438" x2="6.03531" y2="11.5253" gradientUnits="userSpaceOnUse">
<stop stop-color="#FF0C0C"/>
<stop offset="1" stop-color="#FF630C"/>
</linearGradient>
<linearGradient id="paint2_linear_1583_38149" x1="6.03513" y1="2.68555" x2="6.03513" y2="11.3237" gradientUnits="userSpaceOnUse">
<stop stop-color="#FF0C0C"/>
<stop offset="1" stop-color="#FF630C"/>
</linearGradient>
<linearGradient id="paint3_linear_1583_38149" x1="3.39746" y1="0.00195312" x2="3.39746" y2="14.0002" gradientUnits="userSpaceOnUse">
<stop stop-color="#FF0C0C"/>
<stop offset="1" stop-color="#FF630C"/>
</linearGradient>
<linearGradient id="paint4_linear_1583_38149" x1="3.39307" y1="0.212891" x2="3.39307" y2="13.797" gradientUnits="userSpaceOnUse">
<stop stop-color="#FF0C0C"/>
<stop offset="1" stop-color="#FF630C"/>
</linearGradient>
<linearGradient id="paint5_linear_1583_38149" x1="13.9548" y1="2.47266" x2="13.9548" y2="11.5255" gradientUnits="userSpaceOnUse">
<stop stop-color="#FF0C0C"/>
<stop offset="1" stop-color="#FF630C"/>
</linearGradient>
<linearGradient id="paint6_linear_1583_38149" x1="13.9629" y1="2.68555" x2="13.9629" y2="11.3237" gradientUnits="userSpaceOnUse">
<stop stop-color="#FF0C0C"/>
<stop offset="1" stop-color="#FF630C"/>
</linearGradient>
<linearGradient id="paint7_linear_1583_38149" x1="16.6009" y1="0" x2="16.6009" y2="13.9994" gradientUnits="userSpaceOnUse">
<stop stop-color="#FF0C0C"/>
<stop offset="1" stop-color="#FF630C"/>
</linearGradient>
<linearGradient id="paint8_linear_1583_38149" x1="16.6053" y1="0.212891" x2="16.6053" y2="13.7974" gradientUnits="userSpaceOnUse">
<stop stop-color="#FF0C0C"/>
<stop offset="1" stop-color="#FF630C"/>
</linearGradient>
<linearGradient id="paint9_linear_1583_38149" x1="15.8204" y1="15" x2="15.8204" y2="20" gradientUnits="userSpaceOnUse">
<stop stop-color="#FF0C0C"/>
<stop offset="1" stop-color="#FF630C"/>
</linearGradient>
<linearGradient id="paint10_linear_1583_38149" x1="11.102" y1="15" x2="11.102" y2="20" gradientUnits="userSpaceOnUse">
<stop stop-color="#FF0C0C"/>
<stop offset="1" stop-color="#FF630C"/>
</linearGradient>
<linearGradient id="paint11_linear_1583_38149" x1="7.31601" y1="15" x2="7.31601" y2="20" gradientUnits="userSpaceOnUse">
<stop stop-color="#FF0C0C"/>
<stop offset="1" stop-color="#FF630C"/>
</linearGradient>
<linearGradient id="paint12_linear_1583_38149" x1="4.57076" y1="15" x2="4.57076" y2="20" gradientUnits="userSpaceOnUse">
<stop stop-color="#FF0C0C"/>
<stop offset="1" stop-color="#FF630C"/>
</linearGradient>
</defs>
</svg>
