<svg width="16" height="16" viewBox="0 0 20 22" fill="none" xmlns="http://www.w3.org/2000/svg">
<g clip-path="url(#clip0_1711_16505)">
<path d="M12.2213 13.3832V15.6177C12.2213 16.0272 11.984 16.1257 11.6953 15.8356L7.39136 11.5261C7.10267 11.236 7.10267 10.7628 7.39136 10.4727L11.6953 6.16456C11.984 5.87448 12.2213 5.97303 12.2213 6.38246V8.61702C12.2213 9.02646 12.5558 9.36234 12.9653 9.36234H19.9243C19.1429 4.61702 15.0291 0.997314 10.0673 0.997314C4.54889 0.997314 0.0742188 5.47615 0.0742188 11.0001C0.0742188 16.524 4.54889 21.0029 10.0673 21.0029C15.0291 21.0029 19.1429 17.3832 19.9243 12.6378H12.9653C12.5558 12.6378 12.2213 12.9737 12.2213 13.3832Z" fill="#959595"/>
</g>
<defs>
<clipPath id="clip0_1711_16505">
<rect width="20" height="20.0056" fill="white" transform="translate(0 0.997314)"/>
</clipPath>
</defs>
</svg>
