<svg width="36" height="36" viewBox="0 0 36 36" fill="none" xmlns="http://www.w3.org/2000/svg">
<path d="M7 28.5C6.44772 28.5 6 28.0523 6 27.5V26.5C6 25.9477 6.44772 25.5 7 25.5H9V15C9 12.925 9.625 11.0813 10.875 9.46875C12.125 7.85625 13.75 6.8 15.75 6.3V5.25C15.75 4.625 15.9687 4.09375 16.4062 3.65625C16.8437 3.21875 17.375 3 18 3C18.625 3 19.1562 3.21875 19.5937 3.65625C20.0312 4.09375 20.25 4.625 20.25 5.25V6.3C22.25 6.8 23.875 7.85625 25.125 9.46875C26.375 11.0813 27 12.925 27 15V25.5H29C29.5523 25.5 30 25.9477 30 26.5V27.5C30 28.0523 29.5523 28.5 29 28.5H7ZM18 33C17.175 33 16.4687 32.7063 15.8812 32.1188C15.2937 31.5313 15 30.825 15 30H21C21 30.825 20.7062 31.5313 20.1187 32.1188C19.5312 32.7063 18.825 33 18 33Z" fill="#DCDCDC"/>
</svg>
