<svg width="90" height="90" viewBox="0 0 90 90" fill="none" xmlns="http://www.w3.org/2000/svg">
<g clip-path="url(#clip0_344_1468)">
<path d="M19.5 74L32.5 63.5L41 54.5H54.5L59.5 63.5L68.5 71.5L78 74L85.5 65.5V47L82.5 28L73.5 19L63 17L52.5 21.5H38.5L32.5 19L20.5 17L11 23.5L4.5 38V61L8.5 71.5L19.5 74Z" fill="#151515"/>
<path d="M85.0122 28.1434C84.8986 27.7544 84.7983 27.4099 84.7134 27.1148C81.8462 17.1 70.8989 11.1117 60.3097 13.7667C58.001 14.3385 55.8105 15.3112 53.8381 16.6403H36.1619C34.1895 15.3111 31.9991 14.3385 29.6903 13.7667C19.102 11.1117 8.15396 17.1 5.28627 27.1146C5.20172 27.4099 5.10117 27.7543 4.98744 28.1434C1.26914 40.8895 -2.98776 59.0317 2.94838 69.3833C5.00502 72.9692 8.06537 75.2941 12.0444 76.2915C13.5417 76.6679 15.0797 76.8581 16.6236 76.8581C25.7934 76.8581 34.7632 70.177 39.9523 59.2177H53.7539C56.2713 64.977 58.8778 69.0516 61.8681 71.9291C65.2888 75.221 69.1631 76.8751 73.4319 76.8749C74.9581 76.867 76.4775 76.6711 77.9558 76.2915C81.9346 75.294 84.995 72.9692 87.0516 69.3833C92.9874 59.0317 88.7305 40.8895 85.0122 28.1434ZM80.5474 65.6534C79.5155 67.4529 78.1126 68.5222 76.1328 69.0186C71.4656 70.1882 65.8672 69.3276 59.7259 54.0689C59.4466 53.3751 58.9662 52.7806 58.3464 52.362C57.7267 51.9433 56.9958 51.7196 56.2479 51.7196H37.5017C36.7538 51.7196 36.0229 51.9433 35.4031 52.362C34.7834 52.7806 34.303 53.3751 34.0237 54.0689C30.5016 62.8198 22.6921 71.2309 13.8677 69.0186C11.8879 68.5222 10.4852 67.4529 9.45316 65.6534C6.11191 59.8266 7.03125 47.9129 12.186 30.2433C12.3035 29.8408 12.4073 29.4843 12.4949 29.179C14.2617 23.0091 21.1579 19.3576 27.8671 21.0403C29.6042 21.4674 31.2324 22.2539 32.6466 23.3492C33.3047 23.8612 34.1147 24.1392 34.9485 24.1392H55.0515C55.8853 24.1392 56.6953 23.8612 57.3534 23.3492C58.7676 22.2539 60.3958 21.4674 62.1329 21.0403C68.843 19.3584 75.7383 23.0091 77.5051 29.179C77.593 29.4841 77.6964 29.8406 77.8138 30.2432C82.9687 47.9129 83.8881 59.8266 80.5468 65.6534H80.5474Z" fill="url(#paint0_linear_344_1468)"/>
<path d="M33.754 34.4994H30.0037V30.7491C30.0037 29.7548 29.6087 28.8012 28.9056 28.0981C28.2025 27.395 27.2489 27 26.2546 27C25.2602 27 24.3066 27.395 23.6035 28.0981C22.9004 28.8012 22.5054 29.7548 22.5054 30.7491V34.4994H18.756C17.7616 34.4994 16.808 34.8944 16.1049 35.5975C15.4018 36.3006 15.0068 37.2543 15.0068 38.2486C15.0068 39.2429 15.4018 40.1965 16.1049 40.8996C16.808 41.6027 17.7616 41.9977 18.756 41.9977H22.5054V45.748C22.5054 46.7424 22.9004 47.696 23.6035 48.3991C24.3066 49.1022 25.2602 49.4972 26.2546 49.4972C27.2489 49.4972 28.2025 49.1022 28.9056 48.3991C29.6087 47.696 30.0037 46.7424 30.0037 45.748V41.9976H33.754C34.7483 41.9976 35.7019 41.6026 36.405 40.8995C37.1081 40.1964 37.5031 39.2428 37.5031 38.2484C37.5031 37.2541 37.1081 36.3005 36.405 35.5974C35.7019 34.8943 34.7483 34.4993 33.754 34.4993V34.4994Z" fill="#3E4246"/>
<path d="M53 40C54.6569 40 56 38.6569 56 37C56 35.3431 54.6569 34 53 34C51.3431 34 50 35.3431 50 37C50 38.6569 51.3431 40 53 40Z" fill="url(#paint1_linear_344_1468)"/>
<path d="M69.999 40C71.6559 40 72.999 38.6569 72.999 37C72.999 35.3431 71.6559 34 69.999 34C68.3422 34 66.999 35.3431 66.999 37C66.999 38.6569 68.3422 40 69.999 40Z" fill="url(#paint2_linear_344_1468)"/>
<path d="M61.5 48.9988C63.1569 48.9988 64.5 47.6556 64.5 45.9988C64.5 44.3419 63.1569 42.9988 61.5 42.9988C59.8431 42.9988 58.5 44.3419 58.5 45.9988C58.5 47.6556 59.8431 48.9988 61.5 48.9988Z" fill="url(#paint3_linear_344_1468)"/>
<path d="M61.5 32C63.1569 32 64.5 30.6569 64.5 29C64.5 27.3431 63.1569 26 61.5 26C59.8431 26 58.5 27.3431 58.5 29C58.5 30.6569 59.8431 32 61.5 32Z" fill="url(#paint4_linear_344_1468)"/>
</g>
<defs>
<linearGradient id="paint0_linear_344_1468" x1="88.4967" y1="62.1116" x2="17.8684" y2="3.83226" gradientUnits="userSpaceOnUse">
<stop stop-color="#0575E6"/>
<stop offset="1" stop-color="#FF0CF5"/>
</linearGradient>
<linearGradient id="paint1_linear_344_1468" x1="56" y1="34" x2="50" y2="34" gradientUnits="userSpaceOnUse">
<stop stop-color="#3AA0FE"/>
<stop offset="1" stop-color="#59FEF4"/>
</linearGradient>
<linearGradient id="paint2_linear_344_1468" x1="72.999" y1="34" x2="66.999" y2="34" gradientUnits="userSpaceOnUse">
<stop stop-color="#3AA0FE"/>
<stop offset="1" stop-color="#59FEF4"/>
</linearGradient>
<linearGradient id="paint3_linear_344_1468" x1="64.5" y1="42.9988" x2="58.5" y2="42.9988" gradientUnits="userSpaceOnUse">
<stop stop-color="#3AA0FE"/>
<stop offset="1" stop-color="#59FEF4"/>
</linearGradient>
<linearGradient id="paint4_linear_344_1468" x1="64.5" y1="26" x2="58.5" y2="26" gradientUnits="userSpaceOnUse">
<stop stop-color="#3AA0FE"/>
<stop offset="1" stop-color="#59FEF4"/>
</linearGradient>
<clipPath id="clip0_344_1468">
<rect width="90" height="90" fill="white"/>
</clipPath>
</defs>
</svg>
