<svg width="20" height="20" viewBox="0 0 20 20" fill="none" xmlns="http://www.w3.org/2000/svg">
    <g clip-path="url(#clip0_1711_16501)">
        <path fill-rule="evenodd" clip-rule="evenodd" d="M19.8878 5.8002C18.8242 4.01359 17.3102 2.53755 15.4972 1.5197C13.6841 0.501858 11.6356 -0.0221133 9.55651 0.000195444H9.37526C9.25302 0.000955172 9.13242 0.0284682 9.02194 0.0808023C8.91146 0.133136 8.81377 0.209023 8.73575 0.303132C8.65772 0.397241 8.60124 0.507291 8.57028 0.625554C8.53931 0.743816 8.53462 0.867424 8.55651 0.987695L10.0878 8.9502C10.1124 9.06657 10.1614 9.17641 10.2315 9.27252C10.3016 9.36862 10.3913 9.44881 10.4946 9.50783C10.5978 9.56685 10.7124 9.60336 10.8308 9.61497C10.9492 9.62658 11.0687 9.61303 11.1815 9.5752L19.4003 7.0002C19.5193 6.96446 19.6288 6.9025 19.7207 6.81886C19.8126 6.73523 19.8846 6.63205 19.9313 6.51692C19.9781 6.4018 19.9985 6.27765 19.9909 6.15361C19.9834 6.02957 19.9481 5.90881 19.8878 5.8002Z" fill="#DCDCDC"/>
        <path fill-rule="evenodd" clip-rule="evenodd" d="M17.9688 9.4937L9.6875 12.0875C9.57508 12.1232 9.45643 12.1352 9.33912 12.1227C9.2218 12.1101 9.10839 12.0733 9.00609 12.0145C8.9038 11.9557 8.81487 11.8762 8.74495 11.7812C8.67504 11.6862 8.62567 11.5776 8.6 11.4625L7.04375 3.34995C7.01881 3.2271 6.96719 3.11121 6.89255 3.0105C6.81791 2.90978 6.72206 2.82668 6.61178 2.76706C6.5015 2.70745 6.37947 2.67278 6.25432 2.66551C6.12917 2.65823 6.00395 2.67852 5.8875 2.72495C4.18328 3.35095 2.70861 4.47841 1.65767 5.95887C0.606732 7.43934 0.0288085 9.20337 0 11.0187C0 15.9812 4.275 20 9.55625 20C14.8375 20 19.1125 15.9812 19.1125 11.0187C19.1125 10.7437 19.1125 10.4687 19.0688 10.1937C19.0537 10.0699 19.0114 9.95104 18.9449 9.84558C18.8784 9.74012 18.7894 9.6507 18.6842 9.58376C18.579 9.51683 18.4603 9.47403 18.3366 9.45846C18.2129 9.44289 18.0872 9.45492 17.9688 9.4937Z" fill="#DCDCDC"/>
    </g>
    <defs>
        <clipPath id="clip0_1711_16501">
            <rect width="20" height="20" fill="white"/>
        </clipPath>
    </defs>
</svg>