<svg width="20" height="20" viewBox="0 0 20 20" fill="none" xmlns="http://www.w3.org/2000/svg">
<path d="M16.0861 4.27398H13.4104C12.6466 4.27398 11.9953 4.76387 11.7534 5.44586H10.5859V4.27398C10.5859 3.62781 11.1116 3.10211 11.7578 3.10211H12.9297C14.222 3.10211 15.2734 2.0507 15.2734 0.758359V0H14.1016V0.758359C14.1016 1.40453 13.5759 1.93023 12.9297 1.93023H11.7578C10.4655 1.93023 9.41406 2.98164 9.41406 4.27398V5.44586H8.2466C8.00473 4.76387 7.35344 4.27398 6.58957 4.27398H3.91391L0 8.18785V20H4.49219V18.0111C5.32688 17.5016 5.84809 16.5903 5.84809 15.5932V14.284H14.1519V15.5932C14.1519 16.5903 14.6731 17.5016 15.5078 18.0111V20H20V8.18785L16.0861 4.27398ZM12.2026 9.43621C11.9817 9.64535 11.8226 9.90113 11.734 10.1824H10.5859V11.3543H11.7728C11.8599 11.577 11.9928 11.7816 12.1675 11.9563L13.3233 13.1121H6.67672L7.8325 11.9563C8.00719 11.7816 8.14004 11.5771 8.22715 11.3543H9.41406V10.1824H8.26602C8.17742 9.90113 8.01832 9.64535 7.79742 9.43621C7.11285 8.78824 6.0057 8.81129 5.32934 9.48762L3.51562 11.3014V9.6441L5.37012 7.78961H6.58961C7.35348 7.78961 8.00477 7.29973 8.24664 6.61773H11.7534C11.9953 7.29973 12.6466 7.78961 13.4105 7.78961H14.63L16.4844 9.6441V11.3014L14.6706 9.48758C13.9943 8.81125 12.8871 8.7882 12.2026 9.43621ZM4.67621 13.4554V15.5932C4.67621 16.2566 4.28277 16.8552 3.67383 17.1184L3.32031 17.2712V18.8281H1.17188V8.67328L4.3993 5.44586H6.58957C6.91266 5.44586 7.17551 5.70871 7.17551 6.0318C7.17551 6.35488 6.91266 6.61773 6.58957 6.61773H4.88469L2.34375 9.15867V12.9113H3.56301L6.15801 10.3162C6.3898 10.0845 6.76379 10.0714 6.99184 10.2872C7.10809 10.3973 7.17332 10.5457 7.17547 10.7052C7.17766 10.8648 7.11672 11.0148 7.00391 11.1277L4.67621 13.4554ZM18.8281 18.8281H16.6797V17.2712L16.3262 17.1184C15.7172 16.8553 15.3238 16.2566 15.3238 15.5932V13.4554L12.9961 11.1277C12.8833 11.0148 12.8224 10.8648 12.8245 10.7053C12.8267 10.5458 12.892 10.3973 13.0082 10.2873C13.2361 10.0715 13.6102 10.0845 13.842 10.3163L16.437 12.9113H17.6562V9.15875L15.1153 6.61781H13.4104C13.0873 6.61781 12.8245 6.35496 12.8245 6.03188C12.8245 5.70879 13.0873 5.44594 13.4104 5.44594H15.6007L18.8281 8.67328V18.8281Z" fill="#959595"/>
<path d="M9.41406 7.78906H10.5859V8.96094H9.41406V7.78906Z" fill="#959595"/>
</svg>
