<svg width="16" height="16" viewBox="0 0 20 20" fill="none" xmlns="http://www.w3.org/2000/svg">
<path fill-rule="evenodd" clip-rule="evenodd" d="M1.46744 10.4868L1.19145 6.071C1.07828 4.26044 2.19774 2.60041 3.91875 2.02675L9.05081 0.316059C9.66661 0.110792 10.3324 0.110793 10.9482 0.31606L16.0803 2.02675C17.8013 2.60042 18.9207 4.26043 18.8076 6.07099L18.5316 10.4867C18.5102 10.8286 18.4727 11.1691 18.3793 11.4986C18.1029 12.474 17.2624 14.7369 14.9995 16.9998C11.9995 19.9998 9.99949 19.9998 9.99949 19.9998C9.99949 19.9998 7.99949 19.9998 4.99949 16.9998C2.73654 14.7369 1.89608 12.4739 1.6197 11.4986C1.52633 11.1691 1.48881 10.8286 1.46744 10.4868ZM12.9995 7.99983C12.9995 9.30605 12.1647 10.4173 10.9995 10.8291V12.9998C10.9995 13.5521 10.5518 13.9998 9.99949 13.9998C9.44721 13.9998 8.99949 13.5521 8.99949 12.9998V10.8291C7.8343 10.4173 6.99949 9.30605 6.99949 7.99983C6.99949 6.34298 8.34264 4.99983 9.99949 4.99983C11.6563 4.99983 12.9995 6.34298 12.9995 7.99983Z" fill="#959595"/>
</svg>
