<svg width="48" height="48" viewBox="0 0 48 48" fill="none" xmlns="http://www.w3.org/2000/svg">
<g clip-path="url(#clip0_693_5641)">
<path d="M38 6H10C7.8 6 6 7.8 6 10V38C6 40.2 7.8 42 10 42H38C40.2 42 42 40.2 42 38V10C42 7.8 40.2 6 38 6ZM24.02 36C22.62 36 21.5 34.88 21.5 33.48C21.5 32.06 22.62 30.98 24.02 30.98C25.44 30.98 26.52 32.06 26.52 33.48C26.5 34.86 25.44 36 24.02 36ZM30.04 21.2C28.52 23.42 27.08 24.12 26.3 25.54C26.1 25.9 25.98 26.18 25.92 26.8C25.82 27.7 25.02 28.36 24.12 28.36H24C22.96 28.36 22.14 27.48 22.24 26.44C22.3 25.76 22.46 25.06 22.84 24.38C23.82 22.64 25.68 21.6 26.76 20.06C27.9 18.44 27.26 15.4 24.02 15.4C22.6 15.4 21.66 16.12 21.08 16.98C20.58 17.7 19.7 18.04 18.88 17.7C17.82 17.28 17.44 16 18.08 15.08C19.3 13.3 21.34 12 23.98 12C26.94 12 28.96 13.34 30 15.04C30.88 16.48 31.4 19.18 30.04 21.2Z" fill="#F4C37A"/>
</g>
<defs>
<clipPath id="clip0_693_5641">
<rect width="48" height="48" fill="white"/>
</clipPath>
</defs>
</svg>
