<svg width="48" height="48" viewBox="0 0 48 48" fill="none" xmlns="http://www.w3.org/2000/svg">
<circle cx="24" cy="24" r="24" fill="#151515"/>
<path fill-rule="evenodd" clip-rule="evenodd" d="M24 34C29.5228 34 34 29.5228 34 24C34 18.4772 29.5228 14 24 14C18.4772 14 14 18.4772 14 24C14 29.5228 18.4772 34 24 34ZM20 23C19.4477 23 19 23.4477 19 24C19 24.5523 19.4477 25 20 25H28C28.5523 25 29 24.5523 29 24C29 23.4477 28.5523 23 28 23H20Z" fill="url(#paint0_linear_2529_1575)"/>
<defs>
<linearGradient id="paint0_linear_2529_1575" x1="34" y1="14" x2="14" y2="14" gradientUnits="userSpaceOnUse">
<stop stop-color="#3AA0FE"/>
<stop offset="1" stop-color="#59FEF4"/>
</linearGradient>
</defs>
</svg>
