<svg width="19" height="18" viewBox="0 0 19 18" fill="none" xmlns="http://www.w3.org/2000/svg">
<g clip-path="url(#clip0_4171_7235)">
<path fill-rule="evenodd" clip-rule="evenodd" d="M11.9751 11.2363C8.68514 11.2363 6.02784 8.5685 6.02784 5.28906C6.02784 8.5685 3.36 11.2363 0.0805664 11.2363C3.36 11.2363 6.02784 13.8936 6.02784 17.1731C6.02784 13.8936 8.68514 11.2363 11.9751 11.2363Z" fill="#CC4D07"/>
<path fill-rule="evenodd" clip-rule="evenodd" d="M16.0632 13.2949C14.8181 13.2949 13.8132 12.2828 13.8132 11.0449C13.8132 12.2828 12.8011 13.2949 11.5632 13.2949C12.8011 13.2949 13.8132 14.2998 13.8132 15.5449C13.8132 14.2998 14.8181 13.2949 16.0632 13.2949Z" fill="#F56D22"/>
<path fill-rule="evenodd" clip-rule="evenodd" d="M16.2036 4.39259C14.0103 4.39259 12.2388 2.62106 12.2388 0.427734C12.2388 2.62106 10.4672 4.39259 8.27393 4.39259C10.4672 4.39259 12.2388 6.16411 12.2388 8.35744C12.2388 6.16411 14.0103 4.39259 16.2036 4.39259Z" fill="#E96116"/>
</g>
<defs>
<clipPath id="clip0_4171_7235">
<rect width="18" height="18" fill="white" transform="translate(0.0805664 -0.00390625)"/>
</clipPath>
</defs>
</svg>
