<svg width="36" height="35" viewBox="0 0 36 35" fill="none" xmlns="http://www.w3.org/2000/svg">
<path d="M13.7749 34.96C15.4131 34.96 16.7412 33.6319 16.7412 31.9937C16.7412 30.3554 15.4131 29.0273 13.7749 29.0273C12.1367 29.0273 10.8086 30.3554 10.8086 31.9937C10.8086 33.6319 12.1367 34.96 13.7749 34.96Z" fill="white"/>
<path d="M25.9741 34.96C27.6124 34.96 28.9404 33.6319 28.9404 31.9937C28.9404 30.3554 27.6124 29.0273 25.9741 29.0273C24.3359 29.0273 23.0078 30.3554 23.0078 31.9937C23.0078 33.6319 24.3359 34.96 25.9741 34.96Z" fill="white"/>
<path fill-rule="evenodd" clip-rule="evenodd" d="M10.4404 5.9982C9.8021 12.4201 11.619 20.2501 14.9796 20.2501C17.1939 20.2501 18.1246 19.4141 19.1284 18.5125C20.3031 17.4575 21.5777 16.3126 25.1263 16.3126C27.1551 16.3126 28.8384 17.5384 30.3415 19.0556L29.7571 21.101C29.6354 21.5259 29.2472 21.8184 28.806 21.8184H11.5536L11.2803 22.3649C10.9506 23.0228 11.4305 23.7959 12.1648 23.7959H28.806C29.3525 23.7959 29.7947 24.2382 29.7947 24.7847C29.7947 25.3312 29.3525 25.7735 28.806 25.7735H12.1648C9.95659 25.7735 8.52545 23.4501 9.51131 21.4805L9.88573 20.7316L5.11211 4.02067H0.988764C0.442241 4.02067 0 3.57836 0 3.03184C0 2.48532 0.442241 2.04308 0.988764 2.04308H5.8575C6.29882 2.04308 6.68694 2.33568 6.80863 2.76052L7.73365 5.9982H10.4404Z" fill="white"/>
<path d="M29.2091 0C28.2428 0 21.1877 0 20.3337 0C14.4762 0 11.119 15.7566 15.5012 15.7566C19.1977 15.7566 19.6954 11.1489 24.7576 11.1489C28.8521 11.1489 31.2557 15.6986 33.9872 15.6986C38.3659 15.6986 35.0674 0 29.2091 0ZM20.3726 7.87723C18.7509 7.87723 17.4368 6.56306 17.4368 4.9435C17.4368 3.32536 18.7509 2.01119 20.3726 2.01119C21.9929 2.01119 23.3063 3.32536 23.3063 4.9435C23.3063 6.56235 21.9922 7.87723 20.3726 7.87723ZM25.6546 5.40795C25.176 5.25879 24.9088 4.7491 25.0608 4.2691C25.2099 3.79122 25.7196 3.52471 26.1989 3.67529C26.6775 3.82303 26.9468 4.33272 26.7949 4.81131C26.6443 5.29343 26.1346 5.55711 25.6546 5.40795ZM29.4052 8.58456C29.1776 9.31481 28.4 9.72341 27.6683 9.49296C26.9381 9.26533 26.5316 8.48771 26.7613 7.75605C26.989 7.0258 27.768 6.6172 28.4982 6.84765C29.2285 7.0767 29.6343 7.85502 29.4052 8.58456ZM29.8828 4.39352C29.2091 4.17932 28.8337 3.46038 29.0444 2.7881C29.2572 2.11299 29.9747 1.7362 30.6491 1.94969C31.3242 2.15965 31.6996 2.87858 31.4861 3.55299C31.2776 4.22668 30.5593 4.60489 29.8828 4.39352ZM33.3973 7.25908C33.2439 7.73979 32.7357 8.00489 32.2571 7.85573C31.7792 7.70656 31.5113 7.19687 31.6604 6.71546C31.8124 6.23617 32.3235 5.97107 32.7993 6.11882C33.28 6.2701 33.5465 6.77838 33.3973 7.25908ZM21.855 4.98733C21.855 5.82433 21.1792 6.50085 20.3443 6.50085C19.508 6.50085 18.8322 5.82433 18.8322 4.98733C18.8322 4.15458 19.508 3.47664 20.3443 3.47664C21.1792 3.47664 21.855 4.15458 21.855 4.98733Z" fill="white"/>
</svg>
