<svg width="292" height="286" viewBox="0 0 292 286" fill="none" xmlns="http://www.w3.org/2000/svg">
<path d="M290.375 211.988L232.962 219.356C231.811 219.504 230.778 218.734 230.777 217.729L230.771 205.252L192.783 200.415C190.615 200.139 190.613 197.437 192.782 197.158L250.195 189.79C251.346 189.642 252.379 190.412 252.38 191.417L252.386 203.894L290.374 208.731C292.542 209.007 292.543 211.709 290.375 211.988Z" fill="url(#paint0_linear_364_28453)"/>
<path d="M239.514 248.116L205.678 242.086C205 241.965 204.552 241.345 204.73 240.776L206.944 233.706L186.283 224.214C185.104 223.672 185.584 222.141 186.862 222.369L220.697 228.399C221.375 228.52 221.823 229.14 221.645 229.709L219.431 236.779L240.092 246.271C241.271 246.813 240.791 248.344 239.514 248.116Z" fill="url(#paint1_linear_364_28453)"/>
<path d="M198.552 0.489799L153.966 37.4044C153.072 38.1441 152.929 39.4251 153.663 40.1117L162.774 48.636L140.37 79.6921C139.091 81.4649 141.064 83.3111 142.748 81.917L187.334 45.0024C188.227 44.2627 188.371 42.9818 187.637 42.2951L178.525 33.7709L200.93 2.71493C202.209 0.94214 200.235 -0.904131 198.552 0.489799Z" fill="url(#paint2_linear_364_28453)"/>
<path d="M137.428 12.9797L118.731 41.8173C118.356 42.3952 118.503 43.1463 119.041 43.4048L125.718 46.6143L118.545 68.1903C118.136 69.4219 119.582 70.1171 120.288 69.0281L138.985 40.1905C139.36 39.6126 139.214 38.8615 138.676 38.603L131.999 35.3935L139.171 13.8175C139.58 12.5859 138.134 11.8908 137.428 12.9797Z" fill="url(#paint3_linear_364_28453)"/>
<g opacity="0.1">
<path opacity="0.01" d="M100.744 285.397C147.143 285.397 184.756 281.024 184.756 275.628C184.756 270.233 147.143 265.859 100.744 265.859C54.3458 265.859 16.7324 270.233 16.7324 275.628C16.7324 281.024 54.3458 285.397 100.744 285.397Z" fill="white"/>
<path opacity="0.0132" d="M100.472 285.342C146.61 285.342 184.013 280.993 184.013 275.628C184.013 270.263 146.61 265.914 100.472 265.914C54.3333 265.914 16.9307 270.263 16.9307 275.628C16.9307 280.993 54.3333 285.342 100.472 285.342Z" fill="white"/>
<path opacity="0.0199" d="M100.198 285.288C146.077 285.288 183.269 280.963 183.269 275.628C183.269 270.293 146.077 265.969 100.198 265.969C54.3198 265.969 17.1279 270.293 17.1279 275.628C17.1279 280.963 54.3198 285.288 100.198 285.288Z" fill="#FEFEFE"/>
<path opacity="0.0265" d="M99.9259 285.233C145.544 285.233 182.526 280.933 182.526 275.628C182.526 270.324 145.544 266.023 99.9259 266.023C54.3073 266.023 17.3262 270.324 17.3262 275.628C17.3262 280.933 54.3073 285.233 99.9259 285.233Z" fill="#FEFEFE"/>
<path opacity="0.0331" d="M99.6525 285.178C145.011 285.178 181.782 280.902 181.782 275.628C181.782 270.354 145.011 266.078 99.6525 266.078C54.2939 266.078 17.5234 270.354 17.5234 275.628C17.5234 280.902 54.2939 285.178 99.6525 285.178Z" fill="#FEFEFE"/>
<path opacity="0.0397" d="M99.38 285.124C144.479 285.124 181.038 280.873 181.038 275.629C181.038 270.384 144.479 266.133 99.38 266.133C54.2814 266.133 17.7217 270.384 17.7217 275.629C17.7217 280.873 54.2814 285.124 99.38 285.124Z" fill="#FEFEFE"/>
<path opacity="0.0464" d="M99.1065 285.069C143.945 285.069 180.294 280.842 180.294 275.629C180.294 270.415 143.945 266.188 99.1065 266.188C54.2679 266.188 17.9189 270.415 17.9189 275.629C17.9189 280.842 54.2679 285.069 99.1065 285.069Z" fill="#FEFEFE"/>
<path opacity="0.053" d="M98.8331 285.014C143.412 285.014 179.55 280.812 179.55 275.628C179.55 270.445 143.412 266.243 98.8331 266.243C54.2544 266.243 18.1162 270.445 18.1162 275.628C18.1162 280.812 54.2544 285.014 98.8331 285.014Z" fill="#FDFDFD"/>
<path opacity="0.0596" d="M98.5606 284.96C142.879 284.96 178.807 280.782 178.807 275.628C178.807 270.475 142.879 266.297 98.5606 266.297C54.2419 266.297 18.3145 270.475 18.3145 275.628C18.3145 280.782 54.2419 284.96 98.5606 284.96Z" fill="#FDFDFD"/>
<path opacity="0.0662" d="M98.2882 284.905C142.347 284.905 178.064 280.752 178.064 275.628C178.064 270.505 142.347 266.352 98.2882 266.352C54.2294 266.352 18.5127 270.505 18.5127 275.628C18.5127 280.752 54.2294 284.905 98.2882 284.905Z" fill="#FDFDFD"/>
<path opacity="0.0728" d="M98.0147 284.85C141.814 284.85 177.319 280.721 177.319 275.628C177.319 270.535 141.814 266.407 98.0147 266.407C54.2159 266.407 18.71 270.535 18.71 275.628C18.71 280.721 54.2159 284.85 98.0147 284.85Z" fill="#FDFDFD"/>
<path opacity="0.0795" d="M97.7422 284.795C141.281 284.795 176.576 280.691 176.576 275.628C176.576 270.566 141.281 266.461 97.7422 266.461C54.2034 266.461 18.9082 270.566 18.9082 275.628C18.9082 280.691 54.2034 284.795 97.7422 284.795Z" fill="#FDFDFD"/>
<path opacity="0.0861" d="M97.4688 284.74C140.748 284.74 175.832 280.661 175.832 275.628C175.832 270.596 140.748 266.516 97.4688 266.516C54.1899 266.516 19.1055 270.596 19.1055 275.628C19.1055 280.661 54.1899 284.74 97.4688 284.74Z" fill="#FDFDFD"/>
<path opacity="0.0927" d="M97.1963 284.686C140.215 284.686 175.089 280.631 175.089 275.628C175.089 270.626 140.215 266.571 97.1963 266.571C54.1774 266.571 19.3037 270.626 19.3037 275.628C19.3037 280.631 54.1774 284.686 97.1963 284.686Z" fill="#FCFCFC"/>
<path opacity="0.0993" d="M96.9229 284.631C139.682 284.631 174.345 280.6 174.345 275.628C174.345 270.656 139.682 266.625 96.9229 266.625C54.1639 266.625 19.501 270.656 19.501 275.628C19.501 280.6 54.1639 284.631 96.9229 284.631Z" fill="#FCFCFC"/>
<path opacity="0.106" d="M96.6494 284.576C139.148 284.576 173.601 280.57 173.601 275.628C173.601 270.686 139.148 266.68 96.6494 266.68C54.1505 266.68 19.6982 270.686 19.6982 275.628C19.6982 280.57 54.1505 284.576 96.6494 284.576Z" fill="#FCFCFC"/>
<path opacity="0.1126" d="M96.377 284.521C138.616 284.521 172.857 280.54 172.857 275.628C172.857 270.717 138.616 266.735 96.377 266.735C54.138 266.735 19.8965 270.717 19.8965 275.628C19.8965 280.54 54.138 284.521 96.377 284.521Z" fill="#FCFCFC"/>
<path opacity="0.1192" d="M96.1035 284.467C138.083 284.467 172.113 280.51 172.113 275.629C172.113 270.747 138.083 266.79 96.1035 266.79C54.1245 266.79 20.0938 270.747 20.0938 275.629C20.0938 280.51 54.1245 284.467 96.1035 284.467Z" fill="#FCFCFC"/>
<path opacity="0.1258" d="M95.831 284.412C137.55 284.412 171.37 280.48 171.37 275.628C171.37 270.777 137.55 266.845 95.831 266.845C54.112 266.845 20.292 270.777 20.292 275.628C20.292 280.48 54.112 284.412 95.831 284.412Z" fill="#FBFBFB"/>
<path opacity="0.1324" d="M95.5576 284.357C137.017 284.357 170.626 280.449 170.626 275.628C170.626 270.807 137.017 266.899 95.5576 266.899C54.0985 266.899 20.4893 270.807 20.4893 275.628C20.4893 280.449 54.0985 284.357 95.5576 284.357Z" fill="#FBFBFB"/>
<path opacity="0.1391" d="M95.2851 284.303C136.484 284.303 169.883 280.419 169.883 275.628C169.883 270.838 136.484 266.954 95.2851 266.954C54.086 266.954 20.6875 270.838 20.6875 275.628C20.6875 280.419 54.086 284.303 95.2851 284.303Z" fill="#FBFBFB"/>
<path opacity="0.1457" d="M95.0117 284.248C135.951 284.248 169.139 280.389 169.139 275.628C169.139 270.868 135.951 267.009 95.0117 267.009C54.0725 267.009 20.8848 270.868 20.8848 275.628C20.8848 280.389 54.0725 284.248 95.0117 284.248Z" fill="#FBFBFB"/>
<path opacity="0.1523" d="M94.7392 284.193C135.418 284.193 168.395 280.359 168.395 275.628C168.395 270.898 135.418 267.063 94.7392 267.063C54.06 267.063 21.083 270.898 21.083 275.628C21.083 280.359 54.06 284.193 94.7392 284.193Z" fill="#FBFBFB"/>
<path opacity="0.1589" d="M94.4658 284.138C134.885 284.138 167.651 280.328 167.651 275.628C167.651 270.928 134.885 267.118 94.4658 267.118C54.0465 267.118 21.2803 270.928 21.2803 275.628C21.2803 280.328 54.0465 284.138 94.4658 284.138Z" fill="#FAFAFA"/>
<path opacity="0.1656" d="M94.1933 284.084C134.353 284.084 166.908 280.298 166.908 275.629C166.908 270.959 134.353 267.173 94.1933 267.173C54.034 267.173 21.4785 270.959 21.4785 275.629C21.4785 280.298 54.034 284.084 94.1933 284.084Z" fill="#FAFAFA"/>
<path opacity="0.1722" d="M93.9198 284.029C133.819 284.029 166.164 280.268 166.164 275.628C166.164 270.989 133.819 267.228 93.9198 267.228C54.0205 267.228 21.6758 270.989 21.6758 275.628C21.6758 280.268 54.0205 284.029 93.9198 284.029Z" fill="#FAFAFA"/>
<path opacity="0.1788" d="M93.6474 283.974C133.287 283.974 165.421 280.237 165.421 275.628C165.421 271.019 133.287 267.282 93.6474 267.282C54.008 267.282 21.874 271.019 21.874 275.628C21.874 280.237 54.008 283.974 93.6474 283.974Z" fill="#FAFAFA"/>
<path opacity="0.1854" d="M93.3739 283.92C132.753 283.92 164.677 280.207 164.677 275.628C164.677 271.049 132.753 267.337 93.3739 267.337C53.9946 267.337 22.0713 271.049 22.0713 275.628C22.0713 280.207 53.9946 283.92 93.3739 283.92Z" fill="#FAFAFA"/>
<path opacity="0.1921" d="M93.1005 283.864C132.22 283.864 163.932 280.177 163.932 275.628C163.932 271.079 132.22 267.392 93.1005 267.392C53.9811 267.392 22.2686 271.079 22.2686 275.628C22.2686 280.177 53.9811 283.864 93.1005 283.864Z" fill="#F9F9F9"/>
<path opacity="0.1987" d="M92.828 283.81C131.687 283.81 163.189 280.147 163.189 275.628C163.189 271.11 131.687 267.447 92.828 267.447C53.9686 267.447 22.4668 271.11 22.4668 275.628C22.4668 280.147 53.9686 283.81 92.828 283.81Z" fill="#F9F9F9"/>
<path opacity="0.2053" d="M92.5546 283.755C131.154 283.755 162.445 280.117 162.445 275.628C162.445 271.14 131.154 267.501 92.5546 267.501C53.9551 267.501 22.6641 271.14 22.6641 275.628C22.6641 280.117 53.9551 283.755 92.5546 283.755Z" fill="#F9F9F9"/>
<path opacity="0.2119" d="M92.2821 283.701C130.622 283.701 161.702 280.087 161.702 275.628C161.702 271.17 130.622 267.556 92.2821 267.556C53.9426 267.556 22.8623 271.17 22.8623 275.628C22.8623 280.087 53.9426 283.701 92.2821 283.701Z" fill="#F9F9F9"/>
<path opacity="0.2185" d="M92.0095 283.646C130.089 283.646 160.958 280.056 160.958 275.628C160.958 271.2 130.089 267.611 92.0095 267.611C53.93 267.611 23.0605 271.2 23.0605 275.628C23.0605 280.056 53.93 283.646 92.0095 283.646Z" fill="#F9F9F9"/>
<path opacity="0.2252" d="M91.736 283.591C129.555 283.591 160.214 280.026 160.214 275.628C160.214 271.231 129.555 267.666 91.736 267.666C53.9165 267.666 23.2578 271.231 23.2578 275.628C23.2578 280.026 53.9165 283.591 91.736 283.591Z" fill="#F8F8F8"/>
<path opacity="0.2318" d="M91.4625 283.536C129.022 283.536 159.47 279.996 159.47 275.628C159.47 271.261 129.022 267.72 91.4625 267.72C53.9031 267.72 23.4551 271.261 23.4551 275.628C23.4551 279.996 53.9031 283.536 91.4625 283.536Z" fill="#F8F8F8"/>
<path opacity="0.2384" d="M91.1901 283.482C128.49 283.482 158.727 279.966 158.727 275.629C158.727 271.291 128.49 267.775 91.1901 267.775C53.8906 267.775 23.6533 271.291 23.6533 275.629C23.6533 279.966 53.8906 283.482 91.1901 283.482Z" fill="#F8F8F8"/>
<path opacity="0.245" d="M90.9166 283.427C127.956 283.427 157.983 279.935 157.983 275.629C157.983 271.322 127.956 267.83 90.9166 267.83C53.8771 267.83 23.8506 271.322 23.8506 275.629C23.8506 279.935 53.8771 283.427 90.9166 283.427Z" fill="#F8F8F8"/>
<path opacity="0.2517" d="M90.6442 283.372C127.424 283.372 157.24 279.905 157.24 275.629C157.24 271.352 127.424 267.885 90.6442 267.885C53.8646 267.885 24.0488 271.352 24.0488 275.629C24.0488 279.905 53.8646 283.372 90.6442 283.372Z" fill="#F8F8F8"/>
<path opacity="0.2583" d="M90.3707 283.317C126.89 283.317 156.495 279.875 156.495 275.628C156.495 271.382 126.89 267.939 90.3707 267.939C53.8511 267.939 24.2461 271.382 24.2461 275.628C24.2461 279.875 53.8511 283.317 90.3707 283.317Z" fill="#F8F8F8"/>
<path opacity="0.2649" d="M90.0983 283.263C126.358 283.263 155.752 279.845 155.752 275.628C155.752 271.412 126.358 267.994 90.0983 267.994C53.8386 267.994 24.4443 271.412 24.4443 275.628C24.4443 279.845 53.8386 283.263 90.0983 283.263Z" fill="#F7F7F7"/>
<path opacity="0.2715" d="M89.8248 283.208C125.824 283.208 155.008 279.815 155.008 275.628C155.008 271.442 125.824 268.049 89.8248 268.049C53.8251 268.049 24.6416 271.442 24.6416 275.628C24.6416 279.815 53.8251 283.208 89.8248 283.208Z" fill="#F7F7F7"/>
<path opacity="0.2781" d="M89.5523 283.153C125.292 283.153 154.265 279.784 154.265 275.628C154.265 271.472 125.292 268.104 89.5523 268.104C53.8126 268.104 24.8398 271.472 24.8398 275.628C24.8398 279.784 53.8126 283.153 89.5523 283.153Z" fill="#F7F7F7"/>
<path opacity="0.2848" d="M89.2789 283.098C124.759 283.098 153.521 279.754 153.521 275.628C153.521 271.503 124.759 268.158 89.2789 268.158C53.7991 268.158 25.0371 271.503 25.0371 275.628C25.0371 279.754 53.7991 283.098 89.2789 283.098Z" fill="#F7F7F7"/>
<path opacity="0.2914" d="M89.0064 283.044C124.226 283.044 152.777 279.724 152.777 275.628C152.777 271.533 124.226 268.213 89.0064 268.213C53.7866 268.213 25.2354 271.533 25.2354 275.628C25.2354 279.724 53.7866 283.044 89.0064 283.044Z" fill="#F7F7F7"/>
<path opacity="0.298" d="M88.733 282.989C123.693 282.989 152.033 279.693 152.033 275.628C152.033 271.563 123.693 268.268 88.733 268.268C53.7732 268.268 25.4326 271.563 25.4326 275.628C25.4326 279.693 53.7732 282.989 88.733 282.989Z" fill="#F6F6F6"/>
<path opacity="0.3046" d="M88.4605 282.934C123.16 282.934 151.29 279.663 151.29 275.629C151.29 271.594 123.16 268.323 88.4605 268.323C53.7607 268.323 25.6309 271.594 25.6309 275.629C25.6309 279.663 53.7607 282.934 88.4605 282.934Z" fill="#F6F6F6"/>
<path opacity="0.3113" d="M88.187 282.88C122.627 282.88 150.546 279.633 150.546 275.629C150.546 271.624 122.627 268.377 88.187 268.377C53.7472 268.377 25.8281 271.624 25.8281 275.629C25.8281 279.633 53.7472 282.88 88.187 282.88Z" fill="#F6F6F6"/>
<path opacity="0.3179" d="M87.9146 282.825C122.094 282.825 149.803 279.603 149.803 275.629C149.803 271.654 122.094 268.432 87.9146 268.432C53.7347 268.432 26.0264 271.654 26.0264 275.629C26.0264 279.603 53.7347 282.825 87.9146 282.825Z" fill="#F6F6F6"/>
<path opacity="0.3245" d="M87.6411 282.77C121.561 282.77 149.059 279.573 149.059 275.628C149.059 271.684 121.561 268.487 87.6411 268.487C53.7212 268.487 26.2236 271.684 26.2236 275.628C26.2236 279.573 53.7212 282.77 87.6411 282.77Z" fill="#F6F6F6"/>
<path opacity="0.3311" d="M87.3677 282.715C121.028 282.715 148.314 279.542 148.314 275.628C148.314 271.714 121.028 268.542 87.3677 268.542C53.7077 268.542 26.4209 271.714 26.4209 275.628C26.4209 279.542 53.7077 282.715 87.3677 282.715Z" fill="#F5F5F5"/>
<path opacity="0.3377" d="M87.0952 282.661C120.495 282.661 147.571 279.512 147.571 275.628C147.571 271.745 120.495 268.596 87.0952 268.596C53.6952 268.596 26.6191 271.745 26.6191 275.628C26.6191 279.512 53.6952 282.661 87.0952 282.661Z" fill="#F5F5F5"/>
<path opacity="0.3444" d="M86.8218 282.606C119.962 282.606 146.827 279.482 146.827 275.628C146.827 271.775 119.962 268.651 86.8218 268.651C53.6817 268.651 26.8164 271.775 26.8164 275.628C26.8164 279.482 53.6817 282.606 86.8218 282.606Z" fill="#F5F5F5"/>
<path opacity="0.351" d="M86.5493 282.551C119.429 282.551 146.084 279.452 146.084 275.628C146.084 271.805 119.429 268.706 86.5493 268.706C53.6692 268.706 27.0146 271.805 27.0146 275.628C27.0146 279.452 53.6692 282.551 86.5493 282.551Z" fill="#F5F5F5"/>
<path opacity="0.3576" d="M86.2758 282.496C118.896 282.496 145.34 279.421 145.34 275.628C145.34 271.835 118.896 268.76 86.2758 268.76C53.6557 268.76 27.2119 271.835 27.2119 275.628C27.2119 279.421 53.6557 282.496 86.2758 282.496Z" fill="#F5F5F5"/>
<path opacity="0.3642" d="M86.0034 282.441C118.364 282.441 144.597 279.391 144.597 275.628C144.597 271.865 118.364 268.815 86.0034 268.815C53.6432 268.815 27.4102 271.865 27.4102 275.628C27.4102 279.391 53.6432 282.441 86.0034 282.441Z" fill="#F4F4F4"/>
<path opacity="0.3709" d="M85.7299 282.387C117.83 282.387 143.852 279.361 143.852 275.628C143.852 271.896 117.83 268.87 85.7299 268.87C53.6298 268.87 27.6074 271.896 27.6074 275.628C27.6074 279.361 53.6298 282.387 85.7299 282.387Z" fill="#F4F4F4"/>
<path opacity="0.3775" d="M85.4575 282.332C117.298 282.332 143.109 279.33 143.109 275.628C143.109 271.926 117.298 268.924 85.4575 268.924C53.6173 268.924 27.8057 271.926 27.8057 275.628C27.8057 279.33 53.6173 282.332 85.4575 282.332Z" fill="#F4F4F4"/>
<path opacity="0.3841" d="M85.184 282.278C116.764 282.278 142.365 279.301 142.365 275.629C142.365 271.956 116.764 268.979 85.184 268.979C53.6038 268.979 28.0029 271.956 28.0029 275.629C28.0029 279.301 53.6038 282.278 85.184 282.278Z" fill="#F4F4F4"/>
<path opacity="0.3907" d="M84.9115 282.223C116.232 282.223 141.622 279.27 141.622 275.629C141.622 271.987 116.232 269.034 84.9115 269.034C53.5913 269.034 28.2012 271.987 28.2012 275.629C28.2012 279.27 53.5913 282.223 84.9115 282.223Z" fill="#F4F4F4"/>
<path opacity="0.3974" d="M84.6381 282.168C115.698 282.168 140.878 279.24 140.878 275.628C140.878 272.017 115.698 269.089 84.6381 269.089C53.5778 269.089 28.3984 272.017 28.3984 275.628C28.3984 279.24 53.5778 282.168 84.6381 282.168Z" fill="#F3F3F3"/>
<path opacity="0.404" d="M84.3647 282.113C115.165 282.113 140.134 279.21 140.134 275.628C140.134 272.047 115.165 269.144 84.3647 269.144C53.5643 269.144 28.5957 272.047 28.5957 275.628C28.5957 279.21 53.5643 282.113 84.3647 282.113Z" fill="#F3F3F3"/>
<path opacity="0.4106" d="M84.0922 282.058C114.633 282.058 139.39 279.18 139.39 275.628C139.39 272.077 114.633 269.198 84.0922 269.198C53.5518 269.198 28.7939 272.077 28.7939 275.628C28.7939 279.18 53.5518 282.058 84.0922 282.058Z" fill="#F3F3F3"/>
<path opacity="0.4172" d="M83.8195 282.004C114.1 282.004 138.647 279.149 138.647 275.628C138.647 272.107 114.1 269.253 83.8195 269.253C53.5392 269.253 28.9922 272.107 28.9922 275.628C28.9922 279.149 53.5392 282.004 83.8195 282.004Z" fill="#F3F3F3"/>
<path opacity="0.4238" d="M83.5461 281.949C113.566 281.949 137.903 279.119 137.903 275.629C137.903 272.138 113.566 269.308 83.5461 269.308C53.5258 269.308 29.1895 272.138 29.1895 275.629C29.1895 279.119 53.5258 281.949 83.5461 281.949Z" fill="#F3F3F3"/>
<path opacity="0.4305" d="M83.2736 281.894C113.034 281.894 137.16 279.089 137.16 275.628C137.16 272.168 113.034 269.362 83.2736 269.362C53.5133 269.362 29.3877 272.168 29.3877 275.628C29.3877 279.089 53.5133 281.894 83.2736 281.894Z" fill="#F3F3F3"/>
<path opacity="0.4371" d="M83.0002 281.839C112.501 281.839 136.415 279.058 136.415 275.628C136.415 272.198 112.501 269.417 83.0002 269.417C53.4998 269.417 29.585 272.198 29.585 275.628C29.585 279.058 53.4998 281.839 83.0002 281.839Z" fill="#F2F2F2"/>
<path opacity="0.4437" d="M82.7267 281.785C111.967 281.785 135.671 279.029 135.671 275.629C135.671 272.228 111.967 269.472 82.7267 269.472C53.4863 269.472 29.7822 272.228 29.7822 275.629C29.7822 279.029 53.4863 281.785 82.7267 281.785Z" fill="#F2F2F2"/>
<path opacity="0.4503" d="M82.4543 281.73C111.435 281.73 134.928 278.998 134.928 275.628C134.928 272.258 111.435 269.526 82.4543 269.526C53.4738 269.526 29.9805 272.258 29.9805 275.628C29.9805 278.998 53.4738 281.73 82.4543 281.73Z" fill="#F2F2F2"/>
<path opacity="0.457" d="M82.1808 281.675C110.901 281.675 134.184 278.968 134.184 275.628C134.184 272.289 110.901 269.582 82.1808 269.582C53.4603 269.582 30.1777 272.289 30.1777 275.628C30.1777 278.968 53.4603 281.675 82.1808 281.675Z" fill="#F2F2F2"/>
<path opacity="0.4636" d="M81.9083 281.621C110.369 281.621 133.441 278.938 133.441 275.629C133.441 272.319 110.369 269.636 81.9083 269.636C53.4478 269.636 30.376 272.319 30.376 275.629C30.376 278.938 53.4478 281.621 81.9083 281.621Z" fill="#F2F2F2"/>
<path opacity="0.4702" d="M81.6349 281.566C109.835 281.566 132.697 278.908 132.697 275.628C132.697 272.349 109.835 269.691 81.6349 269.691C53.4343 269.691 30.5732 272.349 30.5732 275.628C30.5732 278.908 53.4343 281.566 81.6349 281.566Z" fill="#F1F1F1"/>
<path opacity="0.4768" d="M81.3624 281.511C109.303 281.511 131.953 278.877 131.953 275.628C131.953 272.379 109.303 269.746 81.3624 269.746C53.4218 269.746 30.7715 272.379 30.7715 275.628C30.7715 278.877 53.4218 281.511 81.3624 281.511Z" fill="#F1F1F1"/>
<path opacity="0.4834" d="M81.089 281.456C108.77 281.456 131.209 278.847 131.209 275.628C131.209 272.41 108.77 269.8 81.089 269.8C53.4083 269.8 30.9688 272.41 30.9688 275.628C30.9688 278.847 53.4083 281.456 81.089 281.456Z" fill="#F1F1F1"/>
<path opacity="0.4901" d="M80.8165 281.402C108.237 281.402 130.466 278.817 130.466 275.628C130.466 272.44 108.237 269.855 80.8165 269.855C53.3958 269.855 31.167 272.44 31.167 275.628C31.167 278.817 53.3958 281.402 80.8165 281.402Z" fill="#F1F1F1"/>
<path opacity="0.4967" d="M80.543 281.347C107.704 281.347 129.722 278.787 129.722 275.629C129.722 272.47 107.704 269.91 80.543 269.91C53.3824 269.91 31.3643 272.47 31.3643 275.629C31.3643 278.787 53.3824 281.347 80.543 281.347Z" fill="#F1F1F1"/>
<path opacity="0.5033" d="M80.2706 281.292C107.171 281.292 128.979 278.756 128.979 275.628C128.979 272.5 107.171 269.964 80.2706 269.964C53.3699 269.964 31.5625 272.5 31.5625 275.628C31.5625 278.756 53.3699 281.292 80.2706 281.292Z" fill="#F0F0F0"/>
<path opacity="0.5099" d="M79.9971 281.238C106.638 281.238 128.235 278.726 128.235 275.629C128.235 272.531 106.638 270.02 79.9971 270.02C53.3564 270.02 31.7598 272.531 31.7598 275.629C31.7598 278.726 53.3564 281.238 79.9971 281.238Z" fill="#F0F0F0"/>
<path opacity="0.5166" d="M79.7247 281.183C106.105 281.183 127.491 278.696 127.491 275.629C127.491 272.561 106.105 270.074 79.7247 270.074C53.3439 270.074 31.958 272.561 31.958 275.629C31.958 278.696 53.3439 281.183 79.7247 281.183Z" fill="#F0F0F0"/>
<path opacity="0.5232" d="M79.4512 281.128C105.572 281.128 126.747 278.665 126.747 275.628C126.747 272.591 105.572 270.128 79.4512 270.128C53.3304 270.128 32.1553 272.591 32.1553 275.628C32.1553 278.665 53.3304 281.128 79.4512 281.128Z" fill="#F0F0F0"/>
<path opacity="0.5298" d="M79.1787 281.073C105.04 281.073 126.004 278.636 126.004 275.628C126.004 272.621 105.04 270.184 79.1787 270.184C53.3179 270.184 32.3535 272.621 32.3535 275.628C32.3535 278.636 53.3179 281.073 79.1787 281.073Z" fill="#F0F0F0"/>
<path opacity="0.5364" d="M78.9053 281.018C104.506 281.018 125.26 278.605 125.26 275.628C125.26 272.651 104.506 270.238 78.9053 270.238C53.3044 270.238 32.5508 272.651 32.5508 275.628C32.5508 278.605 53.3044 281.018 78.9053 281.018Z" fill="#EFEFEF"/>
<path opacity="0.543" d="M78.6318 280.964C103.973 280.964 124.516 278.575 124.516 275.628C124.516 272.682 103.973 270.293 78.6318 270.293C53.2909 270.293 32.748 272.682 32.748 275.628C32.748 278.575 53.2909 280.964 78.6318 280.964Z" fill="#EFEFEF"/>
<path opacity="0.5497" d="M78.3594 280.909C103.44 280.909 123.772 278.545 123.772 275.628C123.772 272.712 103.44 270.348 78.3594 270.348C53.2784 270.348 32.9463 272.712 32.9463 275.628C32.9463 278.545 53.2784 280.909 78.3594 280.909Z" fill="#EFEFEF"/>
<path opacity="0.5563" d="M78.0859 280.854C102.907 280.854 123.028 278.514 123.028 275.628C123.028 272.742 102.907 270.402 78.0859 270.402C53.2649 270.402 33.1436 272.742 33.1436 275.628C33.1436 278.514 53.2649 280.854 78.0859 280.854Z" fill="#EFEFEF"/>
<path opacity="0.5629" d="M77.8135 280.799C102.374 280.799 122.285 278.484 122.285 275.628C122.285 272.772 102.374 270.457 77.8135 270.457C53.2524 270.457 33.3418 272.772 33.3418 275.628C33.3418 278.484 53.2524 280.799 77.8135 280.799Z" fill="#EFEFEF"/>
<path opacity="0.5695" d="M77.54 280.745C101.841 280.745 121.541 278.454 121.541 275.629C121.541 272.803 101.841 270.512 77.54 270.512C53.239 270.512 33.5391 272.803 33.5391 275.629C33.5391 278.454 53.239 280.745 77.54 280.745Z" fill="#EEEEEE"/>
<path opacity="0.5762" d="M77.2675 280.69C101.309 280.69 120.798 278.424 120.798 275.629C120.798 272.833 101.309 270.567 77.2675 270.567C53.2265 270.567 33.7373 272.833 33.7373 275.629C33.7373 278.424 53.2265 280.69 77.2675 280.69Z" fill="#EEEEEE"/>
<path opacity="0.5828" d="M76.9941 280.636C100.775 280.636 120.054 278.394 120.054 275.629C120.054 272.863 100.775 270.622 76.9941 270.622C53.213 270.622 33.9346 272.863 33.9346 275.629C33.9346 278.394 53.213 280.636 76.9941 280.636Z" fill="#EEEEEE"/>
<path opacity="0.5894" d="M76.7216 280.581C100.243 280.581 119.31 278.364 119.31 275.629C119.31 272.893 100.243 270.676 76.7216 270.676C53.2005 270.676 34.1328 272.893 34.1328 275.629C34.1328 278.364 53.2005 280.581 76.7216 280.581Z" fill="#EEEEEE"/>
<path opacity="0.596" d="M76.4482 280.526C99.7094 280.526 118.566 278.333 118.566 275.628C118.566 272.924 99.7094 270.731 76.4482 270.731C53.187 270.731 34.3301 272.924 34.3301 275.628C34.3301 278.333 53.187 280.526 76.4482 280.526Z" fill="#EEEEEE"/>
<path opacity="0.6026" d="M76.1757 280.471C99.1769 280.471 117.823 278.303 117.823 275.628C117.823 272.954 99.1769 270.786 76.1757 270.786C53.1745 270.786 34.5283 272.954 34.5283 275.628C34.5283 278.303 53.1745 280.471 76.1757 280.471Z" fill="#EEEEEE"/>
<path opacity="0.6093" d="M75.9023 280.416C98.6435 280.416 117.079 278.273 117.079 275.628C117.079 272.984 98.6435 270.84 75.9023 270.84C53.161 270.84 34.7256 272.984 34.7256 275.628C34.7256 278.273 53.161 280.416 75.9023 280.416Z" fill="#EDEDED"/>
<path opacity="0.6159" d="M75.6298 280.361C98.1111 280.361 116.336 278.242 116.336 275.628C116.336 273.014 98.1111 270.895 75.6298 270.895C53.1485 270.895 34.9238 273.014 34.9238 275.628C34.9238 278.242 53.1485 280.361 75.6298 280.361Z" fill="#EDEDED"/>
<path opacity="0.6225" d="M75.3562 280.307C97.5774 280.307 115.591 278.212 115.591 275.628C115.591 273.044 97.5774 270.95 75.3562 270.95C53.135 270.95 35.1211 273.044 35.1211 275.628C35.1211 278.212 53.135 280.307 75.3562 280.307Z" fill="#EDEDED"/>
<path opacity="0.6291" d="M75.0837 280.252C97.045 280.252 114.848 278.182 114.848 275.628C114.848 273.075 97.045 271.004 75.0837 271.004C53.1225 271.004 35.3193 273.075 35.3193 275.628C35.3193 278.182 53.1225 280.252 75.0837 280.252Z" fill="#EDEDED"/>
<path opacity="0.6358" d="M74.8103 280.197C96.5116 280.197 114.104 278.152 114.104 275.628C114.104 273.105 96.5116 271.059 74.8103 271.059C53.109 271.059 35.5166 273.105 35.5166 275.628C35.5166 278.152 53.109 280.197 74.8103 280.197Z" fill="#EDEDED"/>
<path opacity="0.6424" d="M74.5378 280.143C95.9791 280.143 113.361 278.121 113.361 275.628C113.361 273.135 95.9791 271.114 74.5378 271.114C53.0965 271.114 35.7148 273.135 35.7148 275.628C35.7148 278.121 53.0965 280.143 74.5378 280.143Z" fill="#ECECEC"/>
<path opacity="0.649" d="M74.2643 280.088C95.4457 280.088 112.617 278.092 112.617 275.629C112.617 273.166 95.4457 271.169 74.2643 271.169C53.083 271.169 35.9121 273.166 35.9121 275.629C35.9121 278.092 53.083 280.088 74.2643 280.088Z" fill="#ECECEC"/>
<path opacity="0.6556" d="M73.9919 280.033C94.9133 280.033 111.873 278.061 111.873 275.628C111.873 273.196 94.9133 271.224 73.9919 271.224C53.0705 271.224 36.1104 273.196 36.1104 275.628C36.1104 278.061 53.0705 280.033 73.9919 280.033Z" fill="#ECECEC"/>
<path opacity="0.6623" d="M73.7184 279.979C94.3799 279.979 111.129 278.031 111.129 275.629C111.129 273.226 94.3799 271.278 73.7184 271.278C53.057 271.278 36.3076 273.226 36.3076 275.629C36.3076 278.031 53.057 279.979 73.7184 279.979Z" fill="#ECECEC"/>
<path opacity="0.6689" d="M73.4459 279.924C93.8474 279.924 110.386 278.001 110.386 275.628C110.386 273.256 93.8474 271.333 73.4459 271.333C53.0445 271.333 36.5059 273.256 36.5059 275.628C36.5059 278.001 53.0445 279.924 73.4459 279.924Z" fill="#ECECEC"/>
<path opacity="0.6755" d="M73.1725 279.869C93.314 279.869 109.642 277.971 109.642 275.628C109.642 273.286 93.314 271.388 73.1725 271.388C53.031 271.388 36.7031 273.286 36.7031 275.628C36.7031 277.971 53.031 279.869 73.1725 279.869Z" fill="#EBEBEB"/>
<path opacity="0.6821" d="M72.9 279.814C92.7816 279.814 108.899 277.94 108.899 275.628C108.899 273.317 92.7816 271.442 72.9 271.442C53.0185 271.442 36.9014 273.317 36.9014 275.628C36.9014 277.94 53.0185 279.814 72.9 279.814Z" fill="#EBEBEB"/>
<path opacity="0.6887" d="M72.6266 279.759C92.2481 279.759 108.155 277.91 108.155 275.628C108.155 273.347 92.2481 271.497 72.6266 271.497C53.005 271.497 37.0986 273.347 37.0986 275.628C37.0986 277.91 53.005 279.759 72.6266 279.759Z" fill="#EBEBEB"/>
<path opacity="0.6954" d="M72.3541 279.705C91.7157 279.705 107.411 277.879 107.411 275.628C107.411 273.377 91.7157 271.552 72.3541 271.552C52.9925 271.552 37.2969 273.377 37.2969 275.628C37.2969 277.879 52.9925 279.705 72.3541 279.705Z" fill="#EBEBEB"/>
<path opacity="0.702" d="M72.0807 279.65C91.1823 279.65 106.667 277.849 106.667 275.628C106.667 273.407 91.1823 271.606 72.0807 271.606C52.9791 271.606 37.4941 273.407 37.4941 275.628C37.4941 277.849 52.9791 279.65 72.0807 279.65Z" fill="#EBEBEB"/>
<path opacity="0.7086" d="M71.8082 279.595C90.6498 279.595 105.924 277.819 105.924 275.628C105.924 273.437 90.6498 271.661 71.8082 271.661C52.9666 271.661 37.6924 273.437 37.6924 275.628C37.6924 277.819 52.9666 279.595 71.8082 279.595Z" fill="#EAEAEA"/>
<path opacity="0.7152" d="M71.5348 279.541C90.1164 279.541 105.18 277.789 105.18 275.628C105.18 273.467 90.1164 271.716 71.5348 271.716C52.9531 271.716 37.8896 273.467 37.8896 275.628C37.8896 277.789 52.9531 279.541 71.5348 279.541Z" fill="#EAEAEA"/>
<path opacity="0.7219" d="M71.2623 279.486C89.584 279.486 104.437 277.759 104.437 275.628C104.437 273.498 89.584 271.771 71.2623 271.771C52.9406 271.771 38.0879 273.498 38.0879 275.628C38.0879 277.759 52.9406 279.486 71.2623 279.486Z" fill="#EAEAEA"/>
<path opacity="0.7285" d="M70.9888 279.431C89.0506 279.431 103.693 277.729 103.693 275.628C103.693 273.528 89.0506 271.826 70.9888 271.826C52.9271 271.826 38.2852 273.528 38.2852 275.628C38.2852 277.729 52.9271 279.431 70.9888 279.431Z" fill="#EAEAEA"/>
<path opacity="0.7351" d="M70.7164 279.376C88.5181 279.376 102.949 277.698 102.949 275.628C102.949 273.558 88.5181 271.88 70.7164 271.88C52.9146 271.88 38.4834 273.558 38.4834 275.628C38.4834 277.698 52.9146 279.376 70.7164 279.376Z" fill="#EAEAEA"/>
<path opacity="0.7417" d="M70.4429 279.322C87.9847 279.322 102.205 277.668 102.205 275.628C102.205 273.589 87.9847 271.935 70.4429 271.935C52.9011 271.935 38.6807 273.589 38.6807 275.628C38.6807 277.668 52.9011 279.322 70.4429 279.322Z" fill="#E9E9E9"/>
<path opacity="0.7483" d="M70.1695 279.267C87.4513 279.267 101.461 277.638 101.461 275.628C101.461 273.619 87.4513 271.99 70.1695 271.99C52.8876 271.99 38.8779 273.619 38.8779 275.628C38.8779 277.638 52.8876 279.267 70.1695 279.267Z" fill="#E9E9E9"/>
<path opacity="0.755" d="M69.897 279.212C86.9189 279.212 100.718 277.608 100.718 275.628C100.718 273.649 86.9189 272.044 69.897 272.044C52.8751 272.044 39.0762 273.649 39.0762 275.628C39.0762 277.608 52.8751 279.212 69.897 279.212Z" fill="#E9E9E9"/>
<path opacity="0.7616" d="M69.6236 279.157C86.3855 279.157 99.9737 277.577 99.9737 275.628C99.9737 273.679 86.3855 272.099 69.6236 272.099C52.8617 272.099 39.2734 273.679 39.2734 275.628C39.2734 277.577 52.8617 279.157 69.6236 279.157Z" fill="#E9E9E9"/>
<path opacity="0.7682" d="M69.3511 279.103C85.853 279.103 99.2305 277.547 99.2305 275.628C99.2305 273.709 85.853 272.154 69.3511 272.154C52.8492 272.154 39.4717 273.709 39.4717 275.628C39.4717 277.547 52.8492 279.103 69.3511 279.103Z" fill="#E9E9E9"/>
<path opacity="0.7748" d="M69.0776 279.048C85.3196 279.048 98.4863 277.517 98.4863 275.628C98.4863 273.74 85.3196 272.208 69.0776 272.208C52.8357 272.208 39.6689 273.74 39.6689 275.628C39.6689 277.517 52.8357 279.048 69.0776 279.048Z" fill="#E9E9E9"/>
<path opacity="0.7815" d="M68.8052 278.993C84.7872 278.993 97.7431 277.487 97.7431 275.628C97.7431 273.77 84.7872 272.263 68.8052 272.263C52.8232 272.263 39.8672 273.77 39.8672 275.628C39.8672 277.487 52.8232 278.993 68.8052 278.993Z" fill="#E8E8E8"/>
<path opacity="0.7881" d="M68.5317 278.939C84.2537 278.939 96.999 277.457 96.999 275.629C96.999 273.8 84.2537 272.318 68.5317 272.318C52.8097 272.318 40.0645 273.8 40.0645 275.629C40.0645 277.457 52.8097 278.939 68.5317 278.939Z" fill="#E8E8E8"/>
<path opacity="0.7947" d="M68.2593 278.884C83.7213 278.884 96.2558 277.426 96.2558 275.628C96.2558 273.83 83.7213 272.373 68.2593 272.373C52.7972 272.373 40.2627 273.83 40.2627 275.628C40.2627 277.426 52.7972 278.884 68.2593 278.884Z" fill="#E8E8E8"/>
<path opacity="0.8013" d="M67.9858 278.829C83.1879 278.829 95.5116 277.396 95.5116 275.628C95.5116 273.861 83.1879 272.428 67.9858 272.428C52.7837 272.428 40.46 273.861 40.46 275.628C40.46 277.396 52.7837 278.829 67.9858 278.829Z" fill="#E8E8E8"/>
<path opacity="0.8079" d="M67.7133 278.774C82.6555 278.774 94.7685 277.366 94.7685 275.628C94.7685 273.891 82.6555 272.482 67.7133 272.482C52.7712 272.482 40.6582 273.891 40.6582 275.628C40.6582 277.366 52.7712 278.774 67.7133 278.774Z" fill="#E8E8E8"/>
<path opacity="0.8146" d="M67.4399 278.72C82.122 278.72 94.0243 277.336 94.0243 275.628C94.0243 273.921 82.122 272.537 67.4399 272.537C52.7577 272.537 40.8555 273.921 40.8555 275.628C40.8555 277.336 52.7577 278.72 67.4399 278.72Z" fill="#E7E7E7"/>
<path opacity="0.8212" d="M67.1673 278.665C81.5894 278.665 93.2808 277.305 93.2808 275.628C93.2808 273.951 81.5894 272.592 67.1673 272.592C52.7451 272.592 41.0537 273.951 41.0537 275.628C41.0537 277.305 52.7451 278.665 67.1673 278.665Z" fill="#E7E7E7"/>
<path opacity="0.8278" d="M66.8938 278.61C81.0559 278.61 92.5366 277.275 92.5366 275.628C92.5366 273.981 81.0559 272.646 66.8938 272.646C52.7317 272.646 41.251 273.981 41.251 275.628C41.251 277.275 52.7317 278.61 66.8938 278.61Z" fill="#E7E7E7"/>
<path opacity="0.8344" d="M66.6204 278.555C80.5225 278.555 91.7925 277.245 91.7925 275.628C91.7925 274.012 80.5225 272.701 66.6204 272.701C52.7182 272.701 41.4482 274.012 41.4482 275.628C41.4482 277.245 52.7182 278.555 66.6204 278.555Z" fill="#E7E7E7"/>
<path opacity="0.8411" d="M66.3479 278.501C79.9901 278.501 91.0493 277.215 91.0493 275.629C91.0493 274.042 79.9901 272.756 66.3479 272.756C52.7057 272.756 41.6465 274.042 41.6465 275.629C41.6465 277.215 52.7057 278.501 66.3479 278.501Z" fill="#E7E7E7"/>
<path opacity="0.8477" d="M66.0744 278.446C79.4567 278.446 90.3051 277.185 90.3051 275.629C90.3051 274.072 79.4567 272.811 66.0744 272.811C52.6922 272.811 41.8438 274.072 41.8438 275.629C41.8438 277.185 52.6922 278.446 66.0744 278.446Z" fill="#E6E6E6"/>
<path opacity="0.8543" d="M65.802 278.391C78.9242 278.391 89.5619 277.154 89.5619 275.628C89.5619 274.102 78.9242 272.865 65.802 272.865C52.6797 272.865 42.042 274.102 42.042 275.628C42.042 277.154 52.6797 278.391 65.802 278.391Z" fill="#E6E6E6"/>
<path opacity="0.8609" d="M65.5285 278.337C78.3908 278.337 88.8178 277.124 88.8178 275.629C88.8178 274.133 78.3908 272.92 65.5285 272.92C52.6662 272.92 42.2393 274.133 42.2393 275.629C42.2393 277.124 52.6662 278.337 65.5285 278.337Z" fill="#E6E6E6"/>
<path opacity="0.8676" d="M65.2561 278.282C77.8584 278.282 88.0746 277.094 88.0746 275.628C88.0746 274.163 77.8584 272.975 65.2561 272.975C52.6537 272.975 42.4375 274.163 42.4375 275.628C42.4375 277.094 52.6537 278.282 65.2561 278.282Z" fill="#E6E6E6"/>
<path opacity="0.8742" d="M64.9826 278.227C77.325 278.227 87.3304 277.064 87.3304 275.628C87.3304 274.193 77.325 273.03 64.9826 273.03C52.6402 273.03 42.6348 274.193 42.6348 275.628C42.6348 277.064 52.6402 278.227 64.9826 278.227Z" fill="#E6E6E6"/>
<path opacity="0.8808" d="M64.7101 278.172C76.7925 278.172 86.5872 277.033 86.5872 275.628C86.5872 274.223 76.7925 273.084 64.7101 273.084C52.6277 273.084 42.833 274.223 42.833 275.628C42.833 277.033 52.6277 278.172 64.7101 278.172Z" fill="#E5E5E5"/>
<path opacity="0.8874" d="M64.4367 278.117C76.2591 278.117 85.8431 277.003 85.8431 275.628C85.8431 274.254 76.2591 273.139 64.4367 273.139C52.6142 273.139 43.0303 274.254 43.0303 275.628C43.0303 277.003 52.6142 278.117 64.4367 278.117Z" fill="#E5E5E5"/>
<path opacity="0.894" d="M64.1642 278.063C75.7267 278.063 85.0999 276.973 85.0999 275.628C85.0999 274.284 75.7267 273.194 64.1642 273.194C52.6017 273.194 43.2285 274.284 43.2285 275.628C43.2285 276.973 52.6017 278.063 64.1642 278.063Z" fill="#E5E5E5"/>
<path opacity="0.9007" d="M63.8908 278.008C75.1933 278.008 84.3557 276.942 84.3557 275.628C84.3557 274.314 75.1933 273.249 63.8908 273.249C52.5883 273.249 43.4258 274.314 43.4258 275.628C43.4258 276.942 52.5883 278.008 63.8908 278.008Z" fill="#E5E5E5"/>
<path opacity="0.9073" d="M63.6183 277.953C74.6608 277.953 83.6126 276.912 83.6126 275.628C83.6126 274.344 74.6608 273.303 63.6183 273.303C52.5758 273.303 43.624 274.344 43.624 275.628C43.624 276.912 52.5758 277.953 63.6183 277.953Z" fill="#E5E5E5"/>
<path opacity="0.9139" d="M63.3448 277.899C74.1274 277.899 82.8684 276.882 82.8684 275.629C82.8684 274.375 74.1274 273.358 63.3448 273.358C52.5623 273.358 43.8213 274.375 43.8213 275.629C43.8213 276.882 52.5623 277.899 63.3448 277.899Z" fill="#E4E4E4"/>
<path opacity="0.9205" d="M63.0724 277.844C73.595 277.844 82.1252 276.852 82.1252 275.629C82.1252 274.405 73.595 273.413 63.0724 273.413C52.5498 273.413 44.0195 274.405 44.0195 275.629C44.0195 276.852 52.5498 277.844 63.0724 277.844Z" fill="#E4E4E4"/>
<path opacity="0.9272" d="M62.7989 277.789C73.0616 277.789 81.381 276.822 81.381 275.628C81.381 274.435 73.0616 273.468 62.7989 273.468C52.5363 273.468 44.2168 274.435 44.2168 275.628C44.2168 276.822 52.5363 277.789 62.7989 277.789Z" fill="#E4E4E4"/>
<path opacity="0.9338" d="M62.5264 277.735C72.5291 277.735 80.6379 276.792 80.6379 275.628C80.6379 274.465 72.5291 273.522 62.5264 273.522C52.5238 273.522 44.415 274.465 44.415 275.628C44.415 276.792 52.5238 277.735 62.5264 277.735Z" fill="#E4E4E4"/>
<path opacity="0.9404" d="M62.253 277.68C71.9957 277.68 79.8937 276.761 79.8937 275.628C79.8937 274.496 71.9957 273.577 62.253 273.577C52.5103 273.577 44.6123 274.496 44.6123 275.628C44.6123 276.761 52.5103 277.68 62.253 277.68Z" fill="#E4E4E4"/>
<path opacity="0.947" d="M61.9796 277.625C71.4623 277.625 79.1495 276.731 79.1495 275.628C79.1495 274.526 71.4623 273.632 61.9796 273.632C52.4968 273.632 44.8096 274.526 44.8096 275.628C44.8096 276.731 52.4968 277.625 61.9796 277.625Z" fill="#E4E4E4"/>
<path opacity="0.9536" d="M61.7071 277.57C70.9298 277.57 78.4064 276.701 78.4064 275.628C78.4064 274.556 70.9298 273.687 61.7071 273.687C52.4843 273.687 45.0078 274.556 45.0078 275.628C45.0078 276.701 52.4843 277.57 61.7071 277.57Z" fill="#E3E3E3"/>
<path opacity="0.9603" d="M61.4336 277.515C70.3964 277.515 77.6622 276.67 77.6622 275.628C77.6622 274.586 70.3964 273.741 61.4336 273.741C52.4709 273.741 45.2051 274.586 45.2051 275.628C45.2051 276.67 52.4709 277.515 61.4336 277.515Z" fill="#E3E3E3"/>
<path opacity="0.9669" d="M61.1612 277.46C69.864 277.46 76.919 276.64 76.919 275.628C76.919 274.616 69.864 273.796 61.1612 273.796C52.4584 273.796 45.4033 274.616 45.4033 275.628C45.4033 276.64 52.4584 277.46 61.1612 277.46Z" fill="#E3E3E3"/>
<path opacity="0.9735" d="M60.8877 277.406C69.3306 277.406 76.1749 276.61 76.1749 275.628C76.1749 274.646 69.3306 273.851 60.8877 273.851C52.4449 273.851 45.6006 274.646 45.6006 275.628C45.6006 276.61 52.4449 277.406 60.8877 277.406Z" fill="#E3E3E3"/>
<path opacity="0.9801" d="M60.6152 277.351C68.7981 277.351 75.4317 276.58 75.4317 275.628C75.4317 274.677 68.7981 273.905 60.6152 273.905C52.4324 273.905 45.7988 274.677 45.7988 275.628C45.7988 276.58 52.4324 277.351 60.6152 277.351Z" fill="#E3E3E3"/>
<path opacity="0.9868" d="M60.3418 277.296C68.2647 277.296 74.6875 276.549 74.6875 275.628C74.6875 274.707 68.2647 273.96 60.3418 273.96C52.4189 273.96 45.9961 274.707 45.9961 275.628C45.9961 276.549 52.4189 277.296 60.3418 277.296Z" fill="#E2E2E2"/>
<path opacity="0.9934" d="M60.0693 277.242C67.7323 277.242 73.9443 276.52 73.9443 275.629C73.9443 274.737 67.7323 274.015 60.0693 274.015C52.4064 274.015 46.1943 274.737 46.1943 275.629C46.1943 276.52 52.4064 277.242 60.0693 277.242Z" fill="#E2E2E2"/>
<path d="M59.7959 277.187C67.1989 277.187 73.2002 276.489 73.2002 275.628C73.2002 274.768 67.1989 274.07 59.7959 274.07C52.3929 274.07 46.3916 274.768 46.3916 275.628C46.3916 276.489 52.3929 277.187 59.7959 277.187Z" fill="#E2E2E2"/>
</g>
<path d="M208.843 69.7349L175.496 104.591C174.399 102.746 173.284 100.97 172.155 99.2638L208.843 69.7349Z" fill="url(#paint4_linear_364_28453)"/>
<path d="M212.053 118.254L189.345 134.149C188.651 132.238 187.933 130.356 187.194 128.506L212.053 118.254Z" fill="url(#paint5_linear_364_28453)"/>
<path d="M248.106 150.673L197.261 163.004C196.892 160.971 196.474 158.904 196.006 156.808L248.106 150.673Z" fill="url(#paint6_linear_364_28453)"/>
<path d="M37.7529 214.715C37.7529 214.715 38.5841 215.143 39.9089 216.452L50.4691 211.489L57.6492 220.994L57.4995 223.162C58.0529 222.818 59.5669 220.883 60.4239 219.142C60.9979 217.975 60.8652 216.585 60.0816 215.548L53.7665 207.188L37.7529 214.715Z" fill="#1A1D21"/>
<path d="M70.1871 248.498C70.5495 249.077 70.4736 249.696 70.0691 250.321L73.051 246.436L73.0597 246.426C74.101 245.226 74.0142 244.018 72.03 243.043C65.1072 239.642 64.5047 237.065 62.1669 232.75C60.3809 229.452 58.2547 225.71 57.0555 223.612L52.8057 226.255C52.8057 226.255 56.2118 232.145 58.8697 237.05C61.2074 241.365 61.81 243.943 68.7327 247.344C69.4595 247.702 69.9323 248.091 70.1871 248.498Z" fill="#1A1D21"/>
<path d="M51.6294 255.4C55.6626 257.346 67.8341 253.76 70.0654 250.326L70.0688 250.321C70.4732 249.696 70.5491 249.077 70.1867 248.498C69.932 248.091 69.4591 247.702 68.7324 247.344C61.8096 243.943 61.2071 241.365 58.8693 237.05C56.2115 232.145 52.8053 226.255 52.8053 226.255L57.0551 223.612L57.198 223.524C58.0612 222.988 58.2772 221.826 57.6636 221.014L57.6486 220.994L50.4685 211.489L39.9083 216.452L34.4551 219.016C34.4551 219.016 44.1576 223.996 50.0379 252.132C50.2485 253.14 50.2943 254.757 51.6294 255.4Z" fill="#373B46"/>
<path d="M51.6294 255.4C52.4824 255.812 53.699 255.975 55.1105 255.945C50.628 229.795 39.6708 217.802 38.8615 216.943L34.4551 219.015C34.4551 219.015 44.1576 223.996 50.0379 252.131C50.2485 253.14 50.2943 254.756 51.6294 255.4Z" fill="#525669"/>
<path d="M4.341 199.371C9.71964 214.421 18.1251 224.963 22.3739 223.66C22.4661 223.633 22.5543 223.601 22.6435 223.563C33.2013 219.177 45.7415 213.22 55.893 207.842C56.1771 207.693 56.4611 207.543 56.744 207.391C58.5798 205.921 58.9689 201.75 58.19 196.237C54.4657 186.813 51.047 177.271 47.9393 167.627C45.0399 162.874 42.0905 159.899 39.7386 159.928C39.4235 159.991 39.1091 160.055 38.7947 160.12C27.5368 162.409 14.0637 165.762 3.11982 169.069C3.02636 169.096 2.93821 169.127 2.8499 169.165C-1.2605 170.853 -1.06116 184.33 4.341 199.371Z" fill="url(#paint7_linear_364_28453)"/>
<path d="M4.341 199.371C9.71964 214.421 18.1251 224.963 22.3739 223.66C22.4661 223.633 22.5543 223.601 22.6435 223.563C33.2013 219.177 45.7415 213.22 55.893 207.842C56.1771 207.693 56.4611 207.543 56.744 207.391C58.5798 205.921 58.9689 201.75 58.19 196.237C54.4657 186.813 51.047 177.271 47.9393 167.627C45.0399 162.874 42.0905 159.899 39.7386 159.928C39.4235 159.991 39.1091 160.055 38.7947 160.12C27.5368 162.409 14.0637 165.762 3.11982 169.069C3.02636 169.096 2.93821 169.127 2.8499 169.165C-1.2605 170.853 -1.06116 184.33 4.341 199.371Z" fill="black" fill-opacity="0.6"/>
<path d="M9.04065 197.689C14.7474 213.659 23.7459 224.793 28.2824 223.37C28.3808 223.341 28.4749 223.306 28.5703 223.265C39.8484 218.52 53.2437 212.09 64.0915 206.307C64.3949 206.146 64.6984 205.985 65.0009 205.821C66.964 204.251 67.39 199.849 66.5819 194.049C62.6463 184.156 59.054 174.129 55.8119 163.989C52.7528 158.996 49.6283 155.866 47.1141 155.899C46.7766 155.965 46.4402 156.033 46.1035 156.101C34.0498 158.519 19.6166 162.051 7.88843 165.538C7.78836 165.567 7.69393 165.6 7.59918 165.64C3.19033 167.418 3.30749 181.727 9.04065 197.689Z" fill="url(#paint8_linear_364_28453)"/>
<path d="M66.5822 194.049C67.3902 199.85 66.9633 204.251 65.0015 205.821C64.6988 205.985 64.3954 206.145 64.0918 206.306C53.2446 212.089 39.8492 218.519 28.5712 223.265C28.4758 223.305 28.3822 223.342 28.2829 223.371C25.5086 224.241 21.0624 220.412 16.7246 213.652C19.62 212.46 23.9661 210.664 24.0317 210.637C35.3096 205.891 48.7051 199.462 59.5522 193.679C59.8559 193.518 60.1593 193.357 60.4619 193.194C62.2937 191.728 62.7881 187.789 62.1844 182.547C63.599 186.402 65.0637 190.235 66.5822 194.049Z" fill="#DFDFDF"/>
<path d="M55.811 163.989C56.7963 167.076 57.8172 170.149 58.869 173.211C57.5854 169.802 56.3443 166.373 55.1426 162.934C55.3666 163.275 55.5882 163.627 55.811 163.989Z" fill="url(#paint9_linear_364_28453)"/>
<path d="M62.0429 181.421C62.0961 181.802 62.145 182.179 62.1848 182.547C61.0443 179.447 59.9406 176.337 58.8691 173.211C59.9005 175.96 60.9589 178.695 62.0429 181.421Z" fill="url(#paint10_linear_364_28453)"/>
<path opacity="0.18" d="M46.1044 156.101C43.0157 157.327 42.1156 164.431 43.8427 173.634C33.7357 175.872 22.8237 178.644 13.5866 181.389C13.5103 181.41 8.04372 182.774 5.2665 183.475C3.68112 173.976 4.57404 166.859 7.59895 165.641C7.69435 165.601 7.78895 165.567 7.88822 165.537C19.6166 162.052 34.0506 158.52 46.1044 156.101Z" fill="white"/>
<path d="M63.9971 187.396C64.84 189.62 65.7035 191.837 66.5822 194.049C66.6388 194.447 66.6863 194.836 66.7292 195.221C65.7943 192.621 64.885 190.011 63.9971 187.396Z" fill="url(#paint11_linear_364_28453)"/>
<path d="M61.5097 179.841C62.3164 182.366 63.1461 184.883 63.9973 187.396C62.9015 184.516 61.8352 181.623 60.8008 178.721C61.0377 179.082 61.2729 179.456 61.5097 179.841Z" fill="url(#paint12_linear_364_28453)"/>
<path d="M62.5698 178.528C64.5846 184.157 65.9534 189.533 66.5823 194.048C67.3903 199.85 66.9635 204.251 65.0017 205.821C64.8054 205.982 64.5939 206.11 64.3659 206.207C64.2757 206.246 64.1835 206.279 64.0921 206.306C59.79 207.685 51.7145 198.095 46.7458 184.192C45.4256 180.52 44.4659 176.942 43.8434 173.634C42.1162 164.431 43.0164 157.326 46.1051 156.101C46.4414 156.032 46.7789 155.965 47.1136 155.899C49.628 155.866 52.7533 158.996 55.8114 163.989C58.1946 167.877 60.5515 172.898 62.5698 178.528Z" fill="url(#paint13_linear_364_28453)"/>
<path d="M62.5698 178.528C64.5846 184.157 65.9534 189.533 66.5823 194.048C67.3903 199.85 66.9635 204.251 65.0017 205.821C64.8054 205.982 64.5939 206.11 64.3659 206.207C64.2757 206.246 64.1835 206.279 64.0921 206.306C59.79 207.685 51.7145 198.095 46.7458 184.192C45.4256 180.52 44.4659 176.942 43.8434 173.634C42.1162 164.431 43.0164 157.326 46.1051 156.101C46.4414 156.032 46.7789 155.965 47.1136 155.899C49.628 155.866 52.7533 158.996 55.8114 163.989C58.1946 167.877 60.5515 172.898 62.5698 178.528Z" fill="black" fill-opacity="0.6"/>
<path d="M47.113 155.899C46.7783 155.965 46.4408 156.032 46.1045 156.101C46.1922 156.064 46.2818 156.031 46.3768 156.006C46.6171 155.935 46.8612 155.899 47.113 155.899Z" fill="url(#paint14_linear_364_28453)"/>
<path d="M33.9329 216.694C35.7635 215.856 37.5848 214.998 39.3977 214.123C40.4566 213.611 39.8436 211.868 38.7732 212.385C36.9603 213.261 35.139 214.119 33.3084 214.957C32.2358 215.447 32.8507 217.189 33.9329 216.694Z" fill="url(#paint15_linear_364_28453)"/>
<path d="M33.9329 216.694C35.7635 215.856 37.5848 214.998 39.3977 214.123C40.4566 213.611 39.8436 211.868 38.7732 212.385C36.9603 213.261 35.139 214.119 33.3084 214.957C32.2358 215.447 32.8507 217.189 33.9329 216.694Z" fill="black" fill-opacity="0.6"/>
<path d="M16.8109 168.974C18.7556 168.46 20.7057 167.968 22.6606 167.494C23.8137 167.215 23.1804 165.48 22.036 165.757C20.0811 166.23 18.131 166.723 16.1863 167.237C15.0378 167.54 15.6692 169.275 16.8109 168.974Z" fill="url(#paint16_linear_364_28453)"/>
<path d="M16.8109 168.974C18.7556 168.46 20.7057 167.968 22.6606 167.494C23.8137 167.215 23.1804 165.48 22.036 165.757C20.0811 166.23 18.131 166.723 16.1863 167.237C15.0378 167.54 15.6692 169.275 16.8109 168.974Z" fill="black" fill-opacity="0.6"/>
<path d="M31.0326 213.286C32.8915 212.442 34.7403 211.576 36.5806 210.692C37.641 210.183 37.0276 208.44 35.956 208.955C34.1159 209.839 32.2668 210.705 30.408 211.549C29.3339 212.037 29.9491 213.779 31.0326 213.286Z" fill="url(#paint17_linear_364_28453)"/>
<path d="M31.0326 213.286C32.8915 212.442 34.7403 211.576 36.5806 210.692C37.641 210.183 37.0276 208.44 35.956 208.955C34.1159 209.839 32.2668 210.705 30.408 211.549C29.3339 212.037 29.9491 213.779 31.0326 213.286Z" fill="black" fill-opacity="0.6"/>
<path d="M16.7411 173.445C18.7122 172.919 20.6894 172.415 22.6713 171.93C23.8242 171.649 23.191 169.913 22.0469 170.193C20.0649 170.677 18.0878 171.181 16.1166 171.708C14.9688 172.015 15.5997 173.75 16.7411 173.445Z" fill="url(#paint18_linear_364_28453)"/>
<path d="M16.7411 173.445C18.7122 172.919 20.6894 172.415 22.6713 171.93C23.8242 171.649 23.191 169.913 22.0469 170.193C20.0649 170.677 18.0878 171.181 16.1166 171.708C14.9688 172.015 15.5997 173.75 16.7411 173.445Z" fill="black" fill-opacity="0.6"/>
<path d="M33.5398 205.333C31.6833 206.222 29.8177 207.092 27.9421 207.94C26.8667 208.426 27.482 210.167 28.5667 209.677C30.4424 208.829 32.308 207.959 34.1645 207.07C35.2256 206.562 34.6121 204.819 33.5398 205.333Z" fill="url(#paint19_linear_364_28453)"/>
<path d="M33.5398 205.333C31.6833 206.222 29.8177 207.092 27.9421 207.94C26.8667 208.426 27.482 210.167 28.5667 209.677C30.4424 208.829 32.308 207.959 34.1645 207.07C35.2256 206.562 34.6121 204.819 33.5398 205.333Z" fill="black" fill-opacity="0.6"/>
<path d="M17.1314 177.798C19.1184 177.263 21.1113 176.752 23.1095 176.261C24.262 175.978 23.6291 174.242 22.4851 174.523C20.4868 175.014 18.4939 175.526 16.507 176.06C15.3596 176.369 15.9903 178.105 17.1314 177.798Z" fill="url(#paint20_linear_364_28453)"/>
<path d="M17.1314 177.798C19.1184 177.263 21.1113 176.752 23.1095 176.261C24.262 175.978 23.6291 174.242 22.4851 174.523C20.4868 175.014 18.4939 175.526 16.507 176.06C15.3596 176.369 15.9903 178.105 17.1314 177.798Z" fill="black" fill-opacity="0.6"/>
<path d="M73.8808 174.478C76.0415 180.512 77.4625 186.427 77.9907 191.595C78.0338 192.004 78.032 192.418 77.9938 192.826C77.3893 199.329 67.2658 205.638 66.1425 206.421C66.058 206.476 65.9707 206.523 65.871 206.559C65.8378 206.571 65.806 206.579 65.7528 206.592C65.6834 206.608 65.6068 206.62 65.525 206.625C65.5224 206.626 65.5188 206.624 65.5188 206.624C65.0734 206.648 64.4661 206.478 63.7227 206.05C63.7191 206.049 63.7156 206.047 63.7087 206.043C63.6935 206.034 63.675 206.022 63.6565 206.011C62.3748 205.252 60.6944 203.729 58.7211 201.11C57.5597 199.568 56.4106 197.802 55.3014 195.859C53.1889 192.162 51.2178 187.828 49.5575 183.185C47.0192 176.1 45.4914 169.116 45.2566 163.518C45.1098 160.006 45.5012 157.678 46.0749 156.306C46.1521 156.127 46.229 155.963 46.3074 155.819C46.465 155.526 46.6336 155.296 46.8036 155.125C46.9427 154.981 47.0824 154.879 47.2224 154.811C47.2572 154.795 47.2896 154.781 47.3228 154.769C47.4227 154.733 47.5196 154.713 47.6438 154.705C49.0706 154.589 62.3457 152.842 66.1881 158.642C68.9764 162.837 71.5637 168.12 73.6871 173.947C73.7533 174.123 73.817 174.3 73.8808 174.478Z" fill="#DFDFDF"/>
<path d="M170.182 202.416C169.745 206.053 169.02 209.309 168.012 212.11C167.922 212.359 167.832 212.608 167.735 212.849C166.266 216.617 164.254 219.493 161.702 221.275C157.555 220.658 153.43 220.003 149.311 219.317C148.54 219.188 147.767 219.058 146.996 218.927C145.321 218.642 143.618 218.275 141.894 217.849C131.025 215.171 119.204 210.182 106.697 208.651C92.3562 206.898 77.12 209.636 65.524 206.626C65.5219 206.626 65.5177 206.624 65.5177 206.624C65.3337 206.575 65.1517 206.526 64.9677 206.477C64.6916 206.404 64.4172 206.326 64.1466 206.246C64.0174 206.194 63.8746 206.125 63.723 206.051C63.7188 206.049 63.7165 206.048 63.7082 206.044C63.6929 206.033 63.6758 206.025 63.6587 206.016C63.6564 206.014 63.6564 206.014 63.6561 206.01C62.6452 202.435 61.6324 198.863 60.6194 195.288C59.2336 190.393 57.8437 185.498 56.4555 180.602L56.4734 180.596L56.4571 180.597C54.86 176.861 53.2632 173.126 51.6662 169.389C49.8034 165.028 47.9402 160.666 46.0752 156.306C46.1511 156.127 46.2284 155.963 46.3074 155.819C46.4706 155.589 46.6355 155.355 46.8029 155.126C53.8364 145.276 67.6861 137.771 77.9006 127.236C78.1157 127.014 78.3286 126.791 78.5392 126.566C78.8678 126.22 79.1917 125.869 79.5111 125.514C79.686 125.323 79.8607 125.129 80.0331 124.932C80.2764 124.662 80.5156 124.389 80.7524 124.115C80.8727 123.976 80.9909 123.836 81.1092 123.697C81.6989 123.006 82.2756 122.307 82.8414 121.599C82.985 121.423 83.1263 121.245 83.2655 121.067C83.5464 120.713 83.8249 120.356 84.0992 119.998C84.2386 119.821 84.3754 119.639 84.5106 119.46C85.6273 117.994 86.7035 116.506 87.7501 115.01C87.9495 114.726 88.1467 114.443 88.342 114.16C88.554 113.858 88.7618 113.555 88.9676 113.253C89.1755 112.951 89.3813 112.649 89.5871 112.347C89.5871 112.347 89.5892 112.346 89.5888 112.344C89.7946 112.042 89.9985 111.74 90.2023 111.44C90.8028 110.55 91.3974 109.662 91.9885 108.78C92.9019 107.414 93.8041 106.062 94.7045 104.732C94.8234 104.554 94.9444 104.378 95.0635 104.202C95.7817 103.143 96.5014 102.101 97.2252 101.081C97.3357 100.924 97.4462 100.767 97.559 100.612C97.8929 100.144 98.2294 99.6807 98.5662 99.2219C98.8503 98.8352 99.1367 98.4523 99.4234 98.0736C99.5293 97.9334 99.6353 97.7933 99.7434 97.6551C100.369 96.8398 101.001 96.0444 101.642 95.2746C101.744 95.1512 101.847 95.0297 101.951 94.9081C102.06 94.7779 102.168 94.6479 102.28 94.5215C102.448 94.3248 102.617 94.1322 102.785 93.9395C103.247 93.4164 103.711 92.8933 104.174 92.3701C106.495 89.7538 108.838 87.1521 111.206 84.5602C111.679 84.0423 112.153 83.5243 112.629 83.0061C112.762 82.8615 112.894 82.7171 113.028 82.5724L113.03 82.5723C116.036 82.5839 119.283 83.6584 122.65 85.655C125.444 87.3129 128.323 89.6064 131.219 92.4618C131.236 92.7808 131.252 93.102 131.268 93.4232C131.285 93.7443 131.301 94.0674 131.32 94.3925C131.337 94.7156 131.355 95.0406 131.374 95.3656C131.393 95.6926 131.412 96.0176 131.431 96.3467C131.469 96.9803 131.508 97.618 131.549 98.2595C131.591 98.9438 131.636 99.6319 131.684 100.324C132.824 117.212 134.938 136.177 136.299 152.406C144.458 164.431 153.518 178.522 162.288 191.256C163.39 192.859 164.489 194.441 165.581 195.993C165.581 195.993 165.581 195.993 165.581 195.995C167.131 198.198 168.668 200.346 170.182 202.416Z" fill="#DBDDDD"/>
<path opacity="0.41" d="M131.219 92.4609C131.235 92.78 131.252 93.1012 131.268 93.4224C131.285 93.7435 131.301 94.0666 131.32 94.3917C131.336 94.7148 131.355 95.0398 131.374 95.3648C131.393 95.6899 131.412 96.0168 131.431 96.3459C131.469 96.9795 131.507 97.6172 131.548 98.2587C126.819 102.415 122.148 106.59 117.536 110.785C111.154 116.589 105.302 123.673 98.9496 130.863C93.8071 136.685 88.3356 142.575 81.988 147.913C72.5483 155.849 61.1912 162.573 51.6658 169.388C49.9154 170.641 48.2266 171.896 46.6243 173.162C45.8456 169.695 45.3779 166.421 45.256 163.518C45.108 160.005 45.5007 157.677 46.0747 156.305C46.1506 156.127 46.228 155.963 46.307 155.819C46.4646 155.525 46.632 155.296 46.8025 155.126C53.836 145.276 67.6856 137.771 77.9002 127.235C78.1153 127.014 78.3282 126.791 78.5388 126.566C78.8674 126.22 79.1913 125.869 79.5107 125.513C79.6855 125.322 79.8602 125.129 80.0326 124.932C80.276 124.661 80.5151 124.389 80.752 124.114C80.8722 123.975 80.9905 123.836 81.1088 123.697C81.6984 123.005 82.2752 122.306 82.841 121.599C82.9845 121.422 83.1238 121.245 83.2651 121.067C83.546 120.713 83.8245 120.355 84.0987 119.998C84.238 119.818 84.3749 119.638 84.5101 119.459C85.6269 117.994 86.703 116.505 87.7497 115.009C87.949 114.726 88.1463 114.443 88.3416 114.16C88.5535 113.857 88.7614 113.555 88.9672 113.253C89.177 112.95 89.3829 112.648 89.5866 112.346C89.5866 112.346 89.5887 112.346 89.5884 112.344C89.7942 112.042 90.0003 111.742 90.2019 111.44C90.8044 110.549 91.399 109.661 91.988 108.779C92.9014 107.414 93.8037 106.061 94.704 104.731C94.8229 104.553 94.944 104.377 95.0631 104.201C95.7813 103.143 96.501 102.101 97.2247 101.081C97.3353 100.924 97.4458 100.767 97.5586 100.612C97.8925 100.143 98.229 99.6802 98.5658 99.2214C98.8499 98.8347 99.1362 98.4518 99.4229 98.0731C99.5288 97.9329 99.6348 97.7928 99.743 97.6546C100.369 96.8393 101 96.0439 101.642 95.2741C101.743 95.1507 101.847 95.0292 101.95 94.9076C102.059 94.7774 102.168 94.6474 102.279 94.5211C102.447 94.3243 102.616 94.1317 102.785 93.939C103.246 93.4159 103.71 92.8928 104.174 92.3696C106.495 89.7533 108.838 87.1516 111.206 84.5597C111.678 84.0418 112.152 83.5238 112.629 83.0056C112.761 82.861 112.893 82.7166 113.027 82.5719L113.029 82.5718C116.036 82.5834 119.282 83.6579 122.649 85.6545C125.443 87.3123 128.323 89.6056 131.219 92.4609Z" fill="white"/>
<path d="M170.182 202.416C169.745 206.053 169.021 209.308 168.013 212.11C167.923 212.359 167.832 212.608 167.735 212.849C166.266 216.616 164.255 219.493 161.702 221.274C157.555 220.658 153.43 220.003 149.312 219.317C148.54 219.187 147.767 219.058 146.996 218.927C145.321 218.641 143.618 218.275 141.894 217.848C131.026 215.171 119.204 210.182 106.697 208.651C92.3564 206.897 77.1202 209.636 65.5242 206.625C65.5221 206.625 65.5179 206.624 65.5179 206.624C65.0728 206.647 64.4657 206.479 63.7232 206.051C63.719 206.049 63.7167 206.047 63.7084 206.044C63.693 206.033 63.676 206.025 63.6589 206.016C63.6566 206.014 63.6566 206.014 63.6563 206.01C62.376 205.252 60.6944 203.728 58.7215 201.111C57.5588 199.567 56.4113 197.803 55.3008 195.858C57.0423 195.697 58.8159 195.506 60.6198 195.288C66.1891 194.618 72.0368 193.727 77.9939 192.826C87.7627 191.351 97.8321 189.855 107.477 189.278C111.417 189.046 115.287 188.966 119.09 188.994C121.972 189.015 124.818 189.096 127.628 189.217C139.772 189.741 151.259 191.002 162.288 191.255C163.391 192.858 164.489 194.44 165.581 195.993C165.581 195.993 165.581 195.993 165.581 195.995C167.132 198.198 168.669 200.346 170.182 202.416Z" fill="#BDBFBF"/>
<path d="M156.867 144.782C162.937 161.723 166.111 178.461 165.798 191.901C165.534 203.288 162.725 210.945 158.062 213.083C157.886 213.164 157.705 213.238 157.524 213.303C152.574 215.074 145.352 211.032 137.696 202.209C136.852 201.342 135.998 200.411 135.14 199.415C126.964 189.924 119.341 176.008 113.69 160.227C108.034 144.451 105.079 128.864 105.369 116.341C105.397 115.036 105.465 113.786 105.567 112.59C105.871 100.897 108.879 93.1837 113.842 91.412C114.021 91.3476 114.201 91.292 114.386 91.2438C119.346 89.9277 126.386 94.0658 133.826 102.699C142.612 112.892 150.793 127.837 156.867 144.782Z" fill="url(#paint21_linear_364_28453)"/>
<path d="M156.867 144.782C162.937 161.723 166.111 178.461 165.798 191.901C165.534 203.288 162.725 210.945 158.062 213.083C157.886 213.164 157.705 213.238 157.524 213.303C152.574 215.074 145.352 211.032 137.696 202.209C136.852 201.342 135.998 200.411 135.14 199.415C126.964 189.924 119.341 176.008 113.69 160.227C108.034 144.451 105.079 128.864 105.369 116.341C105.397 115.036 105.465 113.786 105.567 112.59C105.871 100.897 108.879 93.1837 113.842 91.412C114.021 91.3476 114.201 91.292 114.386 91.2438C119.346 89.9277 126.386 94.0658 133.826 102.699C142.612 112.892 150.793 127.837 156.867 144.782Z" fill="black" fill-opacity="0.6"/>
<path d="M118.341 184.639L134.767 169.5L125.067 142.515L102.762 141.299L118.341 184.639Z" fill="#DFDFDF"/>
<path d="M102.762 141.299L110.552 162.969L129.917 156.007L125.067 142.515L102.762 141.299Z" fill="#DFDFDF"/>
<path d="M134.388 170.058C136.2 169.407 135.435 162.666 132.679 155.001C129.924 147.337 126.222 141.651 124.41 142.303C122.598 142.954 123.364 149.695 126.119 157.36C128.874 165.024 132.577 170.709 134.388 170.058Z" fill="url(#paint22_linear_364_28453)"/>
<path d="M158.062 213.083C157.885 213.164 157.706 213.239 157.524 213.304C152.574 215.075 145.353 211.031 137.696 202.21C136.853 201.341 135.998 200.411 135.14 199.416C132.566 196.427 130.047 193.001 127.627 189.217C122.36 180.979 117.562 171.043 113.69 160.228C108.035 144.451 105.079 128.865 105.369 116.342C105.397 115.036 105.466 113.787 105.567 112.59C105.87 100.898 108.88 93.1835 113.841 91.412C114.021 91.349 114.201 91.292 114.385 91.2451C118.867 90.0553 125.044 93.3184 131.684 100.324C132.392 101.073 133.107 101.865 133.827 102.699C142.613 112.892 150.794 127.837 156.866 144.783C162.937 161.723 166.11 178.46 165.798 191.902C165.766 193.324 165.691 194.689 165.581 195.993C165.581 195.993 165.581 195.993 165.581 195.995C164.802 205.115 162.142 211.212 158.062 213.083ZM160.853 143.358C152.944 121.297 141.952 103.034 131.22 92.4613C128.323 89.6059 125.444 87.3124 122.65 85.6545C119.282 83.6578 116.036 82.5834 113.03 82.5718L113.028 82.5719C111.649 82.5663 110.319 82.7829 109.053 83.2367C108.843 83.3126 108.635 83.3902 108.433 83.4778C104.393 85.2038 101.45 89.2639 99.6241 95.0762C99.217 96.3723 98.8628 97.7576 98.5664 99.2214C96.875 107.57 96.9907 118.53 98.95 130.863C100.444 140.291 103.014 150.524 106.675 161.008C106.694 161.058 106.708 161.108 106.727 161.161C106.885 161.621 107.05 162.08 107.216 162.541C107.374 162.986 107.536 163.429 107.695 163.868C111.049 173.014 114.926 181.485 119.089 188.994C126.266 201.95 134.284 212.053 141.894 217.848C142.518 218.326 143.14 218.772 143.757 219.189C144.485 219.682 145.205 220.132 145.923 220.535C149.755 222.713 153.424 223.672 156.75 223.212C157.427 223.119 158.086 222.971 158.736 222.756C158.83 222.731 158.923 222.694 159.022 222.659C159.974 222.319 160.865 221.855 161.702 221.274C164.254 219.493 166.266 216.616 167.735 212.849C167.832 212.607 167.922 212.359 168.012 212.11C169.02 209.308 169.745 206.052 170.182 202.416C171.995 187.391 168.926 165.887 160.853 143.358Z" fill="url(#paint23_linear_364_28453)"/>
<defs>
<linearGradient id="paint0_linear_364_28453" x1="191.592" y1="207.961" x2="259.511" y2="253.504" gradientUnits="userSpaceOnUse">
<stop stop-color="#36FF78"/>
<stop offset="1" stop-color="#0CFFFF"/>
</linearGradient>
<linearGradient id="paint1_linear_364_28453" x1="185.848" y1="238.195" x2="231.593" y2="257.45" gradientUnits="userSpaceOnUse">
<stop stop-color="#36FF78"/>
<stop offset="1" stop-color="#0CFFFF"/>
</linearGradient>
<linearGradient id="paint2_linear_364_28453" x1="140.225" y1="50.6359" x2="198.891" y2="59.237" gradientUnits="userSpaceOnUse">
<stop stop-color="#36FF78"/>
<stop offset="1" stop-color="#0CFFFF"/>
</linearGradient>
<linearGradient id="paint3_linear_364_28453" x1="118.563" y1="47.5432" x2="138.738" y2="48.9869" gradientUnits="userSpaceOnUse">
<stop stop-color="#36FF78"/>
<stop offset="1" stop-color="#0CFFFF"/>
</linearGradient>
<linearGradient id="paint4_linear_364_28453" x1="172.314" y1="91.1527" x2="206.658" y2="98.2682" gradientUnits="userSpaceOnUse">
<stop stop-color="#36FF78"/>
<stop offset="1" stop-color="#0CFFFF"/>
</linearGradient>
<linearGradient id="paint5_linear_364_28453" x1="187.302" y1="128.021" x2="209.471" y2="134.845" gradientUnits="userSpaceOnUse">
<stop stop-color="#36FF78"/>
<stop offset="1" stop-color="#0CFFFF"/>
</linearGradient>
<linearGradient id="paint6_linear_364_28453" x1="196.231" y1="158.25" x2="226.299" y2="183.257" gradientUnits="userSpaceOnUse">
<stop stop-color="#36FF78"/>
<stop offset="1" stop-color="#0CFFFF"/>
</linearGradient>
<linearGradient id="paint7_linear_364_28453" x1="58.5698" y1="159.928" x2="0" y2="159.928" gradientUnits="userSpaceOnUse">
<stop stop-color="#A83AFE"/>
<stop offset="1" stop-color="#6E59FE"/>
</linearGradient>
<linearGradient id="paint8_linear_364_28453" x1="65.9252" y1="207.836" x2="2.12731" y2="173.378" gradientUnits="userSpaceOnUse">
<stop stop-color="#0575E6"/>
<stop offset="1" stop-color="#FF0CF5"/>
</linearGradient>
<linearGradient id="paint9_linear_364_28453" x1="55.1587" y1="169.249" x2="58.7784" y2="169.507" gradientUnits="userSpaceOnUse">
<stop stop-color="#36FF78"/>
<stop offset="1" stop-color="#0CFFFF"/>
</linearGradient>
<linearGradient id="paint10_linear_364_28453" x1="58.8835" y1="178.948" x2="62.1048" y2="179.173" gradientUnits="userSpaceOnUse">
<stop stop-color="#36FF78"/>
<stop offset="1" stop-color="#0CFFFF"/>
</linearGradient>
<linearGradient id="paint11_linear_364_28453" x1="64.0089" y1="192.204" x2="66.6637" y2="192.387" gradientUnits="userSpaceOnUse">
<stop stop-color="#36FF78"/>
<stop offset="1" stop-color="#0CFFFF"/>
</linearGradient>
<linearGradient id="paint12_linear_364_28453" x1="60.8146" y1="184.051" x2="63.9191" y2="184.277" gradientUnits="userSpaceOnUse">
<stop stop-color="#36FF78"/>
<stop offset="1" stop-color="#0CFFFF"/>
</linearGradient>
<linearGradient id="paint13_linear_364_28453" x1="66.9689" y1="155.899" x2="42.9756" y2="155.899" gradientUnits="userSpaceOnUse">
<stop stop-color="#A83AFE"/>
<stop offset="1" stop-color="#6E59FE"/>
</linearGradient>
<linearGradient id="paint14_linear_364_28453" x1="46.1089" y1="156.023" x2="46.6091" y2="156.516" gradientUnits="userSpaceOnUse">
<stop stop-color="#36FF78"/>
<stop offset="1" stop-color="#0CFFFF"/>
</linearGradient>
<linearGradient id="paint15_linear_364_28453" x1="39.948" y1="212.291" x2="32.749" y2="212.291" gradientUnits="userSpaceOnUse">
<stop stop-color="#A83AFE"/>
<stop offset="1" stop-color="#6E59FE"/>
</linearGradient>
<linearGradient id="paint16_linear_364_28453" x1="23.2715" y1="165.727" x2="15.5781" y2="165.727" gradientUnits="userSpaceOnUse">
<stop stop-color="#A83AFE"/>
<stop offset="1" stop-color="#6E59FE"/>
</linearGradient>
<linearGradient id="paint17_linear_364_28453" x1="37.1319" y1="208.861" x2="29.8477" y2="208.861" gradientUnits="userSpaceOnUse">
<stop stop-color="#A83AFE"/>
<stop offset="1" stop-color="#6E59FE"/>
</linearGradient>
<linearGradient id="paint18_linear_364_28453" x1="23.2821" y1="170.163" x2="15.5088" y2="170.163" gradientUnits="userSpaceOnUse">
<stop stop-color="#A83AFE"/>
<stop offset="1" stop-color="#6E59FE"/>
</linearGradient>
<linearGradient id="paint19_linear_364_28453" x1="34.7162" y1="205.239" x2="27.3809" y2="205.239" gradientUnits="userSpaceOnUse">
<stop stop-color="#A83AFE"/>
<stop offset="1" stop-color="#6E59FE"/>
</linearGradient>
<linearGradient id="paint20_linear_364_28453" x1="23.7201" y1="174.493" x2="15.8994" y2="174.493" gradientUnits="userSpaceOnUse">
<stop stop-color="#A83AFE"/>
<stop offset="1" stop-color="#6E59FE"/>
</linearGradient>
<linearGradient id="paint21_linear_364_28453" x1="165.819" y1="91.0039" x2="105.35" y2="91.0039" gradientUnits="userSpaceOnUse">
<stop stop-color="#A83AFE"/>
<stop offset="1" stop-color="#6E59FE"/>
</linearGradient>
<linearGradient id="paint22_linear_364_28453" x1="135.248" y1="162.489" x2="126.334" y2="164.369" gradientUnits="userSpaceOnUse">
<stop stop-color="#0575E6"/>
<stop offset="1" stop-color="#FF0CF5"/>
</linearGradient>
<linearGradient id="paint23_linear_364_28453" x1="169.462" y1="190.723" x2="80.9652" y2="163.79" gradientUnits="userSpaceOnUse">
<stop stop-color="#0575E6"/>
<stop offset="1" stop-color="#FF0CF5"/>
</linearGradient>
</defs>
</svg>
