<svg width="21" height="21" viewBox="0 0 21 21" fill="none" xmlns="http://www.w3.org/2000/svg">
<path d="M8.61758 15.1L15.6676 8.05L14.2676 6.65L8.61758 12.3L5.76758 9.45L4.36758 10.85L8.61758 15.1ZM10.0176 20.5C8.63424 20.5 7.33424 20.2375 6.11758 19.7125C4.90091 19.1875 3.84258 18.475 2.94258 17.575C2.04258 16.675 1.33008 15.6167 0.805078 14.4C0.280078 13.1833 0.0175781 11.8833 0.0175781 10.5C0.0175781 9.11667 0.280078 7.81667 0.805078 6.6C1.33008 5.38333 2.04258 4.325 2.94258 3.425C3.84258 2.525 4.90091 1.8125 6.11758 1.2875C7.33424 0.7625 8.63424 0.5 10.0176 0.5C11.4009 0.5 12.7009 0.7625 13.9176 1.2875C15.1342 1.8125 16.1926 2.525 17.0926 3.425C17.9926 4.325 18.7051 5.38333 19.2301 6.6C19.7551 7.81667 20.0176 9.11667 20.0176 10.5C20.0176 11.8833 19.7551 13.1833 19.2301 14.4C18.7051 15.6167 17.9926 16.675 17.0926 17.575C16.1926 18.475 15.1342 19.1875 13.9176 19.7125C12.7009 20.2375 11.4009 20.5 10.0176 20.5Z" fill="url(#paint0_linear_2094_4878)"/>
<defs>
<linearGradient id="paint0_linear_2094_4878" x1="20.0176" y1="0.5" x2="0.0175781" y2="0.5" gradientUnits="userSpaceOnUse">
<stop stop-color="#616161"/>
<stop offset="1" stop-color="#434343"/>
</linearGradient>
</defs>
</svg>
