<svg width="21" height="20" viewBox="0 0 21 20" fill="none" xmlns="http://www.w3.org/2000/svg">
<path d="M17.1624 0.0449219H3.83848C2.00232 0.0449219 0.5 1.54724 0.5 3.3834V12.1373C0.5 13.9735 2.00232 15.4758 3.83848 15.4758H6.92532V19.9702L12.4893 15.4758H17.1611C18.9968 15.4758 20.4996 13.9735 20.4996 12.1373V3.3834C20.5008 1.54724 18.9985 0.0449219 17.1624 0.0449219ZM18.4143 12.1369C18.4143 12.8159 17.8409 13.3888 17.1624 13.3888H12.4893H11.7515L11.1777 13.852L9.01146 15.6018V15.4745V13.388H6.92491H3.83848C3.15993 13.388 2.58655 12.815 2.58655 12.1361V3.3834C2.58655 2.70486 3.15993 2.13147 3.83848 2.13147H17.1624C17.8409 2.13147 18.4143 2.70486 18.4143 3.3834V12.1369Z" fill="url(#paint0_linear_2_36)"/>
<path d="M6.21953 8.97617C6.8909 8.97617 7.43515 8.43192 7.43515 7.76055C7.43515 7.08918 6.8909 6.54492 6.21953 6.54492C5.54816 6.54492 5.00391 7.08918 5.00391 7.76055C5.00391 8.43192 5.54816 8.97617 6.21953 8.97617Z" fill="#212123"/>
<path d="M10.5008 8.97617C11.1722 8.97617 11.7164 8.43192 11.7164 7.76055C11.7164 7.08918 11.1722 6.54492 10.5008 6.54492C9.82941 6.54492 9.28516 7.08918 9.28516 7.76055C9.28516 8.43192 9.82941 8.97617 10.5008 8.97617Z" fill="#212123"/>
<path d="M14.7801 8.97617C15.4514 8.97617 15.9957 8.43192 15.9957 7.76055C15.9957 7.08918 15.4514 6.54492 14.7801 6.54492C14.1087 6.54492 13.5645 7.08918 13.5645 7.76055C13.5645 8.43192 14.1087 8.97617 14.7801 8.97617Z" fill="#212123"/>
<defs>
<linearGradient id="paint0_linear_2_36" x1="20.4996" y1="0.0449219" x2="0.5" y2="0.0449219" gradientUnits="userSpaceOnUse">
<stop stop-color="#A83AFE"/>
<stop offset="1" stop-color="#6E59FE"/>
</linearGradient>
</defs>
</svg>
