<svg width="64" height="25" viewBox="0 0 64 25" fill="none" xmlns="http://www.w3.org/2000/svg">
<path d="M0.807129 4C0.807129 2.89543 1.70256 2 2.80713 2H42.8071V23H2.80713C1.70256 23 0.807129 22.1046 0.807129 21V4Z" fill="url(#paint0_linear_1033_756)"/>
<path d="M17.0731 7.172V9.09H13.0691V11.162H16.0651V13.024H13.0691V17H10.6751V7.172H17.0731ZM23.6234 17L21.5794 13.29H21.0054V17H18.6114V7.172H22.6294C23.404 7.172 24.062 7.30733 24.6034 7.578C25.154 7.84867 25.5647 8.222 25.8354 8.698C26.106 9.16467 26.2414 9.68733 26.2414 10.266C26.2414 10.9193 26.0547 11.5027 25.6814 12.016C25.3174 12.5293 24.776 12.8933 24.0574 13.108L26.3254 17H23.6234ZM21.0054 11.596H22.4894C22.928 11.596 23.2547 11.4887 23.4694 11.274C23.6934 11.0593 23.8054 10.756 23.8054 10.364C23.8054 9.99067 23.6934 9.69667 23.4694 9.482C23.2547 9.26733 22.928 9.16 22.4894 9.16H21.0054V11.596ZM30.4182 9.09V11.078H33.6242V12.926H30.4182V15.082H34.0442V17H28.0242V7.172H34.0442V9.09H30.4182ZM38.2724 9.09V11.078H41.4784V12.926H38.2724V15.082H41.8984V17H35.8784V7.172H41.8984V9.09H38.2724Z" fill="#151515"/>
<path d="M59.1477 22.1854C59.4123 22.5123 59.1797 23 58.7591 23L42.8071 23L42.8071 2L59.1477 22.1854Z" fill="url(#paint1_linear_1033_756)"/>
<path d="M59.1477 22.1854C59.4123 22.5123 59.1797 23 58.7591 23L42.8071 23L42.8071 2L59.1477 22.1854Z" fill="black" fill-opacity="0.3"/>
<g filter="url(#filter0_d_1033_756)">
<path d="M59.1477 2.8146C59.4123 2.48769 59.1797 2 58.7591 2L42.8071 2L42.8071 23L59.1477 2.8146Z" fill="url(#paint2_linear_1033_756)"/>
</g>
<defs>
<filter id="filter0_d_1033_756" x="42.8071" y="0" width="20.4529" height="25" filterUnits="userSpaceOnUse" color-interpolation-filters="sRGB">
<feFlood flood-opacity="0" result="BackgroundImageFix"/>
<feColorMatrix in="SourceAlpha" type="matrix" values="0 0 0 0 0 0 0 0 0 0 0 0 0 0 0 0 0 0 127 0" result="hardAlpha"/>
<feOffset dx="2"/>
<feGaussianBlur stdDeviation="1"/>
<feComposite in2="hardAlpha" operator="out"/>
<feColorMatrix type="matrix" values="0 0 0 0 0 0 0 0 0 0 0 0 0 0 0 0 0 0 0.25 0"/>
<feBlend mode="normal" in2="BackgroundImageFix" result="effect1_dropShadow_1033_756"/>
<feBlend mode="normal" in="SourceGraphic" in2="effect1_dropShadow_1033_756" result="shape"/>
</filter>
<linearGradient id="paint0_linear_1033_756" x1="0.988719" y1="14.9037" x2="36.4918" y2="28.8805" gradientUnits="userSpaceOnUse">
<stop stop-color="#36FF78"/>
<stop offset="1" stop-color="#0CFFFF"/>
</linearGradient>
<linearGradient id="paint1_linear_1033_756" x1="49.3613" y1="2.0908" x2="44.6542" y2="21.449" gradientUnits="userSpaceOnUse">
<stop stop-color="#36FF78"/>
<stop offset="1" stop-color="#0CFFFF"/>
</linearGradient>
<linearGradient id="paint2_linear_1033_756" x1="54.3235" y1="10.6452" x2="42.897" y2="10.1933" gradientUnits="userSpaceOnUse">
<stop stop-color="#36FF78"/>
<stop offset="1" stop-color="#0CFFFF"/>
</linearGradient>
</defs>
</svg>
