<svg width="21" height="21" viewBox="0 0 21 21" fill="none" xmlns="http://www.w3.org/2000/svg">
<path fill-rule="evenodd" clip-rule="evenodd" d="M15.5 2.80942V0.809418H13.5V2.80942H11.5C10.3954 2.80942 9.49999 3.70485 9.49999 4.80942V6.80942H9.22799H6.21021C4.11352 6.80942 2.30189 8.27513 1.86452 10.3255L0.556211 16.4593C0.331497 17.5099 0.793621 18.5884 1.70834 19.1515L2.98488 19.9373C4.05351 20.5945 5.38953 20.5534 6.40542 19.8779C6.72582 19.6648 6.93852 19.3318 7.09445 18.9801L8.23635 16.4042C8.39665 16.0426 8.75502 15.8094 9.15055 15.8094H11.8487C12.2446 15.8094 12.6032 16.043 12.7633 16.4052L13.9006 18.9783C14.0566 19.3312 14.2697 19.6653 14.5911 19.8788C15.6068 20.5534 16.9421 20.5942 18.0102 19.9373L19.2868 19.1515C20.2015 18.5884 20.6636 17.5099 20.4389 16.4593L19.1306 10.3255C18.6932 8.27513 16.8816 6.80942 14.7849 6.80942H11.7671H11.5V4.80942H13.5C14.6046 4.80942 15.5 3.91399 15.5 2.80942ZM12 10.3407C12 11.1691 11.3284 11.8407 10.5 11.8407C9.67157 11.8407 9 11.1691 9 10.3407C9 9.51224 9.67157 8.84067 10.5 8.84067C11.3284 8.84067 12 9.51224 12 10.3407Z" fill="#959595"/>
</svg>
