<svg width="21" height="21" viewBox="0 0 21 21" fill="none" xmlns="http://www.w3.org/2000/svg">
<path fill-rule="evenodd" clip-rule="evenodd" d="M15.5 2.02539V0.0253906H13.5V2.02539H11.5C10.3954 2.02539 9.5 2.92082 9.5 4.02539V6.02539H9.228H6.21022C4.11353 6.02539 2.30189 7.4911 1.86453 9.54145L0.556218 15.6753C0.331505 16.7259 0.793629 17.8044 1.70835 18.3674L2.98489 19.1533C4.05351 19.8105 5.38954 19.7694 6.40543 19.0938C6.72583 18.8808 6.93852 18.5478 7.09446 18.1961L8.23636 15.6201C8.39666 15.2585 8.75503 15.0254 9.15056 15.0254H11.8487C12.2446 15.0254 12.6033 15.259 12.7633 15.6211L13.9006 18.1942C14.0566 18.5472 14.2697 18.8813 14.5911 19.0948C15.6068 19.7694 16.9421 19.8102 18.0102 19.1533L19.2868 18.3674C20.2015 17.8044 20.6636 16.7259 20.4389 15.6753L19.1306 9.54145C18.6932 7.4911 16.8816 6.02539 14.7849 6.02539H11.7671H11.5V4.02539H13.5C14.6046 4.02539 15.5 3.12996 15.5 2.02539ZM12 9.55664C12 10.3851 11.3284 11.0566 10.5 11.0566C9.67158 11.0566 9.00001 10.3851 9.00001 9.55664C9.00001 8.72821 9.67158 8.05664 10.5 8.05664C11.3284 8.05664 12 8.72821 12 9.55664Z" fill="url(#paint0_linear_2_140)"/>
<defs>
<linearGradient id="paint0_linear_2_140" x1="20.4951" y1="0.0253906" x2="0.500008" y2="0.0253906" gradientUnits="userSpaceOnUse">
<stop stop-color="#A83AFE"/>
<stop offset="1" stop-color="#6E59FE"/>
</linearGradient>
</defs>
</svg>
