<svg width="38" height="39" viewBox="0 0 38 39" fill="none" xmlns="http://www.w3.org/2000/svg">
<g clip-path="url(#clip0_1170_15632)">
<path fill-rule="evenodd" clip-rule="evenodd" d="M8.54057 9.76562H29.3771V21.2829C28.472 20.5825 27.3504 20.168 26.1357 20.168C23.1638 20.168 20.7488 22.6493 20.7 25.7296L17.1052 29.3243L15.1877 27.4068V25.8728H7.77344V9.89371L8.54057 9.76562Z" fill="#DCDCDC"/>
<path fill-rule="evenodd" clip-rule="evenodd" d="M23.7004 32.1969C23.3321 32.1969 23.0233 32.0723 22.7741 31.8231C22.525 31.574 22.4004 31.2652 22.4004 30.8969V26.9969C22.4004 26.6285 22.525 26.3198 22.7741 26.0706C23.0233 25.8215 23.3321 25.6969 23.7004 25.6969V24.3969C23.7004 23.6819 23.955 23.0698 24.4641 22.5606C24.9733 22.0515 25.5854 21.7969 26.3004 21.7969C27.0154 21.7969 27.6275 22.0515 28.1366 22.5606C28.6458 23.0698 28.9004 23.6819 28.9004 24.3969V25.6969C29.2687 25.6969 29.5775 25.8215 29.8266 26.0706C30.0758 26.3198 30.2004 26.6285 30.2004 26.9969V30.8969C30.2004 31.2652 30.0758 31.574 29.8266 31.8231C29.5775 32.0723 29.2687 32.1969 28.9004 32.1969H23.7004ZM25.0004 24.4527V25.7527H27.6004V24.4527C27.6004 24.0844 27.4758 23.7757 27.2266 23.5265C26.9775 23.2773 26.6687 23.1527 26.3004 23.1527C25.9321 23.1527 25.6233 23.2773 25.3741 23.5265C25.125 23.7757 25.0004 24.0844 25.0004 24.4527Z" fill="black"/>
<path fill-rule="evenodd" clip-rule="evenodd" d="M23.7004 32.1969C23.3321 32.1969 23.0233 32.0723 22.7741 31.8231C22.525 31.574 22.4004 31.2652 22.4004 30.8969V26.9969C22.4004 26.6285 22.525 26.3198 22.7741 26.0706C23.0233 25.8215 23.3321 25.6969 23.7004 25.6969V24.3969C23.7004 23.6819 23.955 23.0698 24.4641 22.5606C24.9733 22.0515 25.5854 21.7969 26.3004 21.7969C27.0154 21.7969 27.6275 22.0515 28.1366 22.5606C28.6458 23.0698 28.9004 23.6819 28.9004 24.3969V25.6969C29.2687 25.6969 29.5775 25.8215 29.8266 26.0706C30.0758 26.3198 30.2004 26.6285 30.2004 26.9969V30.8969C30.2004 31.2652 30.0758 31.574 29.8266 31.8231C29.5775 32.0723 29.2687 32.1969 28.9004 32.1969H23.7004ZM25.0004 24.4527V25.7527H27.6004V24.4527C27.6004 24.0844 27.4758 23.7757 27.2266 23.5265C26.9775 23.2773 26.6687 23.1527 26.3004 23.1527C25.9321 23.1527 25.6233 23.2773 25.3741 23.5265C25.125 23.7757 25.0004 24.0844 25.0004 24.4527Z" fill="#DCDCDC"/>
<path fill-rule="evenodd" clip-rule="evenodd" d="M9.84002 7.55469H27.1611C29.5481 7.55469 31.5011 9.5077 31.4995 11.8947V23.2748C31.4995 23.648 31.4517 24.0105 31.362 24.3567C31.0206 22.8765 30.07 21.6291 28.7886 20.8928V11.8947C28.7886 11.0126 28.0432 10.2672 27.1611 10.2672H9.84002C8.95791 10.2672 8.21251 11.0126 8.21251 11.8947V23.2732C8.21251 24.1558 8.95791 24.9007 9.84002 24.9007H13.8524H16.5649V27.6132V27.7787L19.381 25.5039L20.127 24.9018H20.7505C20.7231 25.1221 20.709 25.3466 20.709 25.5744C20.709 26.2965 20.8508 26.9854 21.1081 27.6148H21.0861L13.8529 33.4576V27.6148H9.84002C7.45301 27.6148 5.5 25.6618 5.5 23.2748V11.8947C5.5 9.5077 7.45301 7.55469 9.84002 7.55469Z" fill="#DCDCDC"/>
<path d="M12.9358 19.1684C13.8086 19.1684 14.5161 18.4609 14.5161 17.5881C14.5161 16.7153 13.8086 16.0078 12.9358 16.0078C12.063 16.0078 11.3555 16.7153 11.3555 17.5881C11.3555 18.4609 12.063 19.1684 12.9358 19.1684Z" fill="#212123"/>
<path d="M18.5002 19.1684C19.373 19.1684 20.0805 18.4609 20.0805 17.5881C20.0805 16.7153 19.373 16.0078 18.5002 16.0078C17.6275 16.0078 16.9199 16.7153 16.9199 17.5881C16.9199 18.4609 17.6275 19.1684 18.5002 19.1684Z" fill="#212123"/>
<path d="M24.0647 19.1684C24.9375 19.1684 25.645 18.4609 25.645 17.5881C25.645 16.7153 24.9375 16.0078 24.0647 16.0078C23.1919 16.0078 22.4844 16.7153 22.4844 17.5881C22.4844 18.4609 23.1919 19.1684 24.0647 19.1684Z" fill="#212123"/>
</g>
<defs>
<clipPath id="clip0_1170_15632">
<rect width="37.5" height="38.0078" fill="white" transform="translate(0.5 0.5)"/>
</clipPath>
</defs>
</svg>
