<svg width="21" height="21" viewBox="0 0 21 21" fill="none" xmlns="http://www.w3.org/2000/svg">
<path d="M20.3557 10.6584L11.0538 0.297661C10.7498 -0.0450617 10.2516 -0.0450617 9.94761 0.297661L0.644346 10.6584C0.340391 11.0011 0.465304 11.28 0.923319 11.28H2.31124C2.76926 11.28 3.144 11.6547 3.144 12.1126V19.189C3.144 19.6469 3.51874 20.0215 3.97675 20.0215H7.44657C7.90458 20.0215 8.27932 19.6469 8.27932 19.189V14.6101C8.27932 14.5865 8.28071 14.5643 8.28349 14.5408C8.2821 14.5172 8.27932 14.495 8.27932 14.4714C8.27932 13.2448 9.27308 12.2513 10.5 12.2513C11.7269 12.2513 12.7207 13.2448 12.7207 14.4714C12.7207 14.495 12.7179 14.5172 12.7165 14.5408C12.7179 14.563 12.7207 14.5865 12.7207 14.6101V19.189C12.7207 19.6469 13.0954 20.0215 13.5534 20.0215H17.162C17.6201 20.0215 17.9948 19.6469 17.9948 19.189V12.1126C17.9948 11.6547 18.3695 11.28 18.8276 11.28H20.0767C20.5347 11.28 20.661 10.9998 20.3557 10.6584Z" fill="url(#paint0_linear_2_179)"/>
<defs>
<linearGradient id="paint0_linear_2_179" x1="20.5224" y1="0.0406189" x2="0.478241" y2="0.0406189" gradientUnits="userSpaceOnUse">
<stop stop-color="#A83AFE"/>
<stop offset="1" stop-color="#6E59FE"/>
</linearGradient>
</defs>
</svg>
