<svg width="21" height="21" viewBox="0 0 21 21" fill="none" xmlns="http://www.w3.org/2000/svg">
<g clip-path="url(#clip0_1298_2676)">
<path d="M20.3557 11.4366L11.0538 1.07583C10.7499 0.733106 10.2516 0.733106 9.94764 1.07583L0.644377 11.4366C0.340421 11.7793 0.465334 12.0582 0.92335 12.0582H2.31127C2.76929 12.0582 3.14403 12.4328 3.14403 12.8907V19.9672C3.14403 20.4251 3.51877 20.7997 3.97678 20.7997H7.4466C7.90461 20.7997 8.27935 20.4251 8.27935 19.9672V15.3883C8.27935 15.3647 8.28074 15.3425 8.28352 15.3189C8.28213 15.2953 8.27935 15.2731 8.27935 15.2495C8.27935 14.023 9.27311 13.0295 10.5 13.0295C11.727 13.0295 12.7207 14.023 12.7207 15.2495C12.7207 15.2731 12.7179 15.2953 12.7165 15.3189C12.7179 15.3411 12.7207 15.3647 12.7207 15.3883V19.9672C12.7207 20.4251 13.0955 20.7997 13.5535 20.7997H17.1621C17.6201 20.7997 17.9948 20.4251 17.9948 19.9672V12.8907C17.9948 12.4328 18.3696 12.0582 18.8276 12.0582H20.0767C20.5347 12.0582 20.661 11.7779 20.3557 11.4366Z" fill="#959595"/>
</g>
<defs>
<clipPath id="clip0_1298_2676">
<rect width="20" height="20" fill="white" transform="translate(0.5 0.809418)"/>
</clipPath>
</defs>
</svg>
