<svg width="21" height="21" viewBox="0 0 21 21" fill="none" xmlns="http://www.w3.org/2000/svg">
<path fill-rule="evenodd" clip-rule="evenodd" d="M10.5 0.809418C16.0194 0.809418 20.5 5.29004 20.5 10.8094C20.5 16.3288 16.0194 20.8094 10.5 20.8094C4.98064 20.8094 0.5 16.3288 0.5 10.8094C0.5 5.29004 4.98064 0.809418 10.5 0.809418ZM10.5 3.30942C6.36064 3.30942 3.00001 6.67004 3.00001 10.8094C3.00001 14.9488 6.36064 18.3094 10.5 18.3094C14.6394 18.3094 18 14.9488 18 10.8094C18 6.67004 14.6394 3.30942 10.5 3.30942ZM10.5 6.0819V9.49693C10.5 9.66943 10.64 9.80943 10.8125 9.80943H15.1038C15.2238 9.80943 15.3325 9.87817 15.385 9.98567C15.4369 10.0938 15.4232 10.2219 15.3488 10.3163L11.0575 15.7313C10.975 15.835 10.8356 15.8757 10.71 15.8319C10.5844 15.7882 10.5 15.6701 10.5 15.5369V12.1219C10.5 11.9494 10.36 11.8094 10.1875 11.8094H5.89625C5.77625 11.8094 5.66753 11.7407 5.61503 11.6332C5.56315 11.525 5.57689 11.3969 5.65127 11.3025L9.9425 5.88754C10.025 5.78379 10.1644 5.74316 10.29 5.78691C10.4156 5.83066 10.5 5.94878 10.5 6.0819Z" fill="#959595"/>
</svg>
