<svg width="24" height="25" viewBox="0 0 24 25" fill="none" xmlns="http://www.w3.org/2000/svg">
<path fill-rule="evenodd" clip-rule="evenodd" d="M24 12.1719C24 18.7993 18.6274 24.1719 12 24.1719C5.37258 24.1719 0 18.7993 0 12.1719C0 5.54446 5.37258 0.171875 12 0.171875C18.6274 0.171875 24 5.54446 24 12.1719ZM18.175 11.1719L16.3127 13.0341C15.93 13.4169 15.9218 14.0349 16.2943 14.4276C16.681 14.8354 17.3279 14.844 17.7252 14.4466L21.2929 10.879C21.6834 10.4885 21.6834 9.85529 21.2929 9.46477L17.7252 5.89712C17.3279 5.49973 16.681 5.50832 16.2943 5.91612C15.9218 6.30889 15.93 6.92687 16.3127 7.30962L18.175 9.17188H11C10.4477 9.17188 10 9.61959 10 10.1719C10 10.7242 10.4477 11.1719 11 11.1719H18.175ZM7.68725 11.3096L5.825 13.1719L13 13.1719C13.5523 13.1719 14 13.6196 14 14.1719C14 14.7242 13.5523 15.1719 13 15.1719L5.825 15.1719L7.68725 17.0341C8.07 17.4169 8.0782 18.0349 7.70575 18.4276C7.31904 18.8354 6.67214 18.844 6.27475 18.4466L2.70711 14.879C2.31658 14.4885 2.31658 13.8553 2.70711 13.4648L6.27475 9.89712C6.67215 9.49973 7.31904 9.50832 7.70575 9.91611C8.0782 10.3089 8.07 10.9269 7.68725 11.3096ZM11.998 7.17188C11.4458 7.17188 10.998 6.72416 10.998 6.17188V2.17188C10.998 1.61959 11.4458 1.17188 11.998 1.17188C12.5503 1.17188 12.998 1.61959 12.998 2.17188V6.17188C12.998 6.72416 12.5503 7.17188 11.998 7.17188ZM10.998 22.1719C10.998 22.7242 11.4458 23.1719 11.998 23.1719C12.5503 23.1719 12.998 22.7242 12.998 22.1719V18.1719C12.998 17.6196 12.5503 17.1719 11.998 17.1719C11.4458 17.1719 10.998 17.6196 10.998 18.1719V22.1719Z" fill="#DCDCDC"/>
</svg>
