<svg width="38" height="19" viewBox="0 0 38 19" fill="none" xmlns="http://www.w3.org/2000/svg">
<rect x="0.25" y="0.956177" width="37" height="18" rx="3" fill="url(#paint0_linear_394_295)"/>
<path d="M12.53 13.9562H10.478L7.046 8.76018V13.9562H4.994V5.53218H7.046L10.478 10.7522V5.53218H12.53V13.9562ZM16.3094 7.17618V8.88018H19.0574V10.4642H16.3094V12.3122H19.4174V13.9562H14.2574V5.53218H19.4174V7.17618H16.3094ZM32.5816 5.53218L30.3856 13.9562H27.9016L26.5576 8.41218L25.1656 13.9562H22.6816L20.5456 5.53218H22.7416L23.9536 11.6642L25.4536 5.53218H27.7096L29.1496 11.6642L30.3736 5.53218H32.5816Z" fill="white"/>
<defs>
<linearGradient id="paint0_linear_394_295" x1="5.73148" y1="-6.75811" x2="34.9895" y2="23.7177" gradientUnits="userSpaceOnUse">
<stop stop-color="#FF0DBB"/>
<stop offset="0.380385" stop-color="#F56122"/>
<stop offset="0.587807" stop-color="#F56122"/>
<stop offset="0.994776" stop-color="#FF0DBB"/>
</linearGradient>
</defs>
</svg>
