<svg width="20" height="17" viewBox="0 0 20 17" fill="none" xmlns="http://www.w3.org/2000/svg">
<path d="M2 16.1719C1.45 16.1719 0.979167 15.976 0.5875 15.5844C0.195833 15.1927 0 14.7219 0 14.1719V2.17188C0 1.62188 0.195833 1.15104 0.5875 0.759375C0.979167 0.367708 1.45 0.171875 2 0.171875H18C18.55 0.171875 19.0208 0.367708 19.4125 0.759375C19.8042 1.15104 20 1.62188 20 2.17188V14.1719C20 14.7219 19.8042 15.1927 19.4125 15.5844C19.0208 15.976 18.55 16.1719 18 16.1719H2ZM2 8.17188H18V4.17188H2V8.17188Z" fill="#DCDCDC"/>
</svg>
