<svg width="20" height="20" viewBox="0 0 20 20" fill="none" xmlns="http://www.w3.org/2000/svg">
<path d="M0.30417 0.679981C0.406597 0.268121 0.783973 0 1.20838 0H18.7792C19.2097 0 19.5912 0.275399 19.6932 0.693585C19.8339 1.27093 20 2.13547 20 3C20 3.40223 20 3.73256 20 4.00062C20 4.5529 19.5523 5 19 5H1C0.447715 5 0 4.55278 0 4.0005C0 3.73512 0 3.40578 0 3C0 2.09615 0.164015 1.24354 0.30417 0.679981Z" fill="#DCDCDC"/>
<path fill-rule="evenodd" clip-rule="evenodd" d="M19.6185 8.83798C19.5568 8.35306 19.1417 8 18.6529 8H1.34713C0.858287 8 0.443224 8.35306 0.381466 8.83798C0.233606 9.99897 -2.18136e-06 12.2659 0 15L1.71174e-06 18.0015C1.75273e-06 19.1061 0.895435 20 2.00001 20H18C19.1046 20 20 19.1061 20 18.0015V15C20 12.2659 19.7664 9.99897 19.6185 8.83798ZM17 13C17 12.4477 16.5523 12 16 12H13C12.4477 12 12 12.4477 12 13V15C12 15.5523 12.4477 16 13 16H16C16.5523 16 17 15.5523 17 15V13Z" fill="#DCDCDC"/>
</svg>
