<svg width="52" height="52" viewBox="0 0 52 52" fill="none" xmlns="http://www.w3.org/2000/svg">
<rect width="52" height="52" rx="26" fill="url(#paint0_linear_117_31450)"/>
<rect width="52" height="52" rx="26" fill="black" fill-opacity="0.9"/>
<g clip-path="url(#clip0_117_31450)">
<path d="M33.3954 16.0098H32.353C31.691 16.0098 31.0553 16.2734 30.5862 16.741L20.5585 26.7646C20.2878 27.0352 20.2878 27.4736 20.5585 27.7442L24.2545 31.4392C24.5251 31.7098 24.9637 31.7098 25.2344 31.4392L35.2607 21.4156C35.7299 20.9466 35.9922 20.3125 35.9922 19.6493V18.6072C35.9922 17.1725 34.8291 16.0098 33.3954 16.0098Z" fill="#DCDCDC"/>
<path d="M19.5957 29.5883C19.3764 29.369 19.0211 29.369 18.8018 29.5883L17.0974 31.2921C16.8781 31.5114 16.8781 31.8666 17.0974 32.0858L17.8177 32.806L16.291 34.3322C15.9121 34.711 15.9121 35.3271 16.291 35.7059C16.4812 35.896 16.7296 35.9904 16.978 35.9904C17.2265 35.9904 17.4749 35.896 17.6651 35.7059L19.1918 34.1796L19.9121 34.8998C20.1314 35.119 20.4867 35.119 20.706 34.8998L22.4104 33.1959C22.6297 32.9766 22.6297 32.6214 22.4104 32.4022L19.5957 29.5883Z" fill="#DCDCDC"/>
</g>
<defs>
<linearGradient id="paint0_linear_117_31450" x1="52" y1="0" x2="0" y2="0" gradientUnits="userSpaceOnUse">
<stop stop-color="#A83AFE"/>
<stop offset="1" stop-color="#6E59FE"/>
</linearGradient>
<clipPath id="clip0_117_31450">
<rect width="20" height="20" fill="white" transform="translate(16 16)"/>
</clipPath>
</defs>
</svg>
