<svg width="90" height="90" viewBox="0 0 90 90" fill="none" xmlns="http://www.w3.org/2000/svg">
<g clip-path="url(#clip0_1441_1004)">
<path fill-rule="evenodd" clip-rule="evenodd" d="M44.9863 0C69.8113 0 89.9863 20.1637 89.9863 45C89.9863 69.8363 69.8113 90 44.9863 90C20.1613 90 -0.0136719 69.8363 -0.0136719 45C-0.0136719 20.1637 20.1613 0 44.9863 0ZM44.9863 7.5C24.2863 7.5 7.48633 24.303 7.48633 45C7.48633 65.697 24.2863 82.5 44.9863 82.5C65.6863 82.5 82.4863 65.697 82.4863 45C82.4863 24.303 65.6863 7.5 44.9863 7.5ZM41.2363 24.375C41.2363 22.305 42.9613 20.625 44.9863 20.625C47.0863 20.625 48.7363 22.305 48.7363 24.375V50.625C48.7363 52.6942 47.0863 54.375 44.9863 54.375C42.9613 54.375 41.2363 52.6942 41.2363 50.625V24.375ZM44.9863 61.875C47.0863 61.875 48.7363 63.555 48.7363 65.625C48.7363 67.6943 47.0863 69.375 44.9863 69.375C42.9613 69.375 41.2363 67.6943 41.2363 65.625C41.2363 63.555 42.9613 61.875 44.9863 61.875Z" fill="url(#paint0_linear_1441_1004)"/>
</g>
<defs>
<linearGradient id="paint0_linear_1441_1004" x1="91.4644" y1="0" x2="-0.0136719" y2="0" gradientUnits="userSpaceOnUse">
<stop stop-color="#8A54D0"/>
<stop offset="1" stop-color="#D71F7B"/>
</linearGradient>
<clipPath id="clip0_1441_1004">
<rect width="90" height="90" fill="white"/>
</clipPath>
</defs>
</svg>
