<svg width="48" height="48" viewBox="0 0 48 48" fill="none" xmlns="http://www.w3.org/2000/svg">
<g clip-path="url(#clip0_1491_935)">
<path d="M24 48C37.2548 48 48 37.2548 48 24C48 10.7452 37.2548 0 24 0C10.7452 0 0 10.7452 0 24C0 37.2548 10.7452 48 24 48Z" fill="url(#paint0_linear_1491_935)"/>
<path fill-rule="evenodd" clip-rule="evenodd" d="M23.8434 5.52472C23.9036 5.59572 23.9919 5.63678 24.0852 5.63678C24.1783 5.6366 24.2668 5.59554 24.3268 5.52436C24.0947 5.7859 24.1058 5.76819 24.1184 5.75012C24.394 5.29202 24.8824 5.00402 25.4168 4.98468C26.7505 4.97774 31.3949 5.37726 34.4441 10.8681C36.0761 13.8065 37.8942 30.3073 37.1844 38.3217C37.1432 38.7564 36.9048 39.1481 36.5378 39.3846C36.1706 39.621 35.7152 39.6759 35.3024 39.5334C33.3729 38.8816 28.5094 38.1467 24.5707 39.2729H23.5999C19.661 38.1467 14.7976 38.8816 12.8681 39.5334C12.4553 39.6759 11.9999 39.621 11.6327 39.3846C11.2655 39.1481 11.0272 38.7564 10.9861 38.3217C10.2763 30.3073 12.0945 13.8065 13.7263 10.8681C16.7808 5.36831 21.4351 4.97647 22.7603 4.98249C23.2726 5.00129 23.7437 5.26812 24.0233 5.69774C24.0441 5.73716 24.0677 5.77093 23.8434 5.52472Z" fill="#433F43"/>
<path fill-rule="evenodd" clip-rule="evenodd" d="M6.09375 39.9735C6.42373 39.7652 6.77834 39.5889 7.15413 39.4493C13.1499 37.2223 24.2784 33.0889 24.2784 33.0889C24.2784 33.0889 35.4071 37.2223 41.403 39.4493C41.6422 39.5382 41.8729 39.6421 42.0943 39.7596C37.6927 44.8078 31.216 47.9997 23.9996 47.9997C16.8852 47.9997 10.4897 44.8974 6.09375 39.9735Z" fill="#F80FF5"/>
<path fill-rule="evenodd" clip-rule="evenodd" d="M19.7676 28.3237C19.7676 28.3237 19.6446 33.4679 19.5981 35.4155C19.5871 35.8771 19.7997 36.3153 20.169 36.5921C20.7105 36.9984 21.5451 37.6242 22.3207 38.2061C23.4799 39.0754 25.0737 39.0754 26.2328 38.2061C27.0085 37.6242 27.8429 36.9984 28.3846 36.5921C28.7538 36.3153 28.9665 35.8771 28.9555 35.4155C28.909 33.4679 28.786 28.3237 28.786 28.3237H19.7676Z" fill="#FDAB5B"/>
<path fill-rule="evenodd" clip-rule="evenodd" d="M26.1124 28.3237C27.1806 28.5316 28.1122 28.8924 28.8143 29.3569L28.9123 33.4544C27.7804 34.2434 26.0011 34.7521 24.0015 34.7521C22.3009 34.7521 20.7594 34.3841 19.6406 33.7888L19.7543 29.03C20.3632 28.7222 21.0883 28.4798 21.8906 28.3237H26.1124Z" fill="#FD9E52"/>
<path fill-rule="evenodd" clip-rule="evenodd" d="M32.7453 18.384C32.7453 18.384 35.6549 17.1444 35.5324 20.7652C35.5324 20.7652 35.7941 25.1613 32.6953 24.3372" fill="#FDAB55"/>
<path fill-rule="evenodd" clip-rule="evenodd" d="M17.3136 13.668C15.7948 14.5055 14.8516 16.1027 14.8516 17.8371V22.4352C14.8516 26.188 16.6214 29.7208 19.6271 31.9677C20.1179 32.3345 20.5811 32.6807 20.9773 32.977C21.8002 33.5922 22.8 33.9246 23.8276 33.9246C24.0037 33.9246 24.1829 33.9246 24.3588 33.9246C25.3864 33.9246 26.3863 33.5922 27.2093 32.977C27.6055 32.6807 28.0685 32.3345 28.5595 31.9677C31.5651 29.7208 33.335 26.188 33.335 22.4352C33.335 21.0321 33.335 19.5859 33.335 18.3477C33.335 16.3518 32.0901 14.568 30.2169 13.8793C28.441 13.2267 26.2515 12.4218 24.6167 11.821C23.1101 11.2673 21.4376 11.3943 20.0321 12.1692C19.1758 12.6414 18.192 13.1836 17.3136 13.668Z" fill="url(#paint1_linear_1491_935)"/>
<path d="M19.1333 22.5928C19.8412 22.5928 20.4151 21.8301 20.4151 20.8894C20.4151 19.9487 19.8412 19.186 19.1333 19.186C18.4254 19.186 17.8516 19.9487 17.8516 20.8894C17.8516 21.8301 18.4254 22.5928 19.1333 22.5928Z" fill="#433F43"/>
<path d="M28.4732 22.5928C29.1811 22.5928 29.7549 21.8301 29.7549 20.8894C29.7549 19.9487 29.1811 19.186 28.4732 19.186C27.7653 19.186 27.1914 19.9487 27.1914 20.8894C27.1914 21.8301 27.7653 22.5928 28.4732 22.5928Z" fill="#433F43"/>
<path fill-rule="evenodd" clip-rule="evenodd" d="M23.175 21.5401C23.175 21.5401 22.5274 23.1331 22.398 24.4176C22.3524 24.8702 22.3729 25.2898 22.4747 25.6172C22.5703 25.9247 22.7355 26.1662 22.9622 26.3325C23.1892 26.4987 23.4852 26.5993 23.8745 26.5739C24.2691 26.5482 24.8061 26.3755 25.5067 25.9625C25.7896 25.7959 25.884 25.4307 25.7172 25.1478C25.5503 24.8649 25.1853 24.7705 24.9023 24.9374C24.4887 25.1812 24.1625 25.3239 23.9025 25.3725C23.7986 25.3918 23.72 25.4122 23.6657 25.3725C23.6139 25.3345 23.6068 25.2617 23.5913 25.1852C23.5535 24.9979 23.5582 24.7746 23.5822 24.5369C23.6968 23.3993 24.2766 21.9906 24.2766 21.9906C24.4009 21.6865 24.2551 21.3388 23.951 21.2145C23.6471 21.0902 23.2993 21.2361 23.175 21.5401Z" fill="#FF9241"/>
<path fill-rule="evenodd" clip-rule="evenodd" d="M20.3169 29.0142C20.3169 29.0142 22.031 30.9816 24.4526 30.784C25.4757 30.7006 26.6367 30.2405 27.8399 29.0474C28.0732 28.816 28.0747 28.4389 27.8434 28.2058C27.6122 27.9726 27.2351 27.971 27.0019 28.2022C26.0563 29.1399 25.1598 29.5321 24.3558 29.5978C22.5138 29.7482 21.2169 28.2354 21.2169 28.2354C21.002 27.987 20.6259 27.9598 20.3775 28.1748C20.1291 28.3896 20.1019 28.7658 20.3169 29.0142Z" fill="#FF515E"/>
</g>
<defs>
<linearGradient id="paint0_linear_1491_935" x1="17.1381" y1="0.996961" x2="37.6085" y2="43.7973" gradientUnits="userSpaceOnUse">
<stop stop-color="#A83AFE"/>
<stop offset="1" stop-color="#6E59FE"/>
</linearGradient>
<linearGradient id="paint1_linear_1491_935" x1="24.0146" y1="19.6288" x2="24.0146" y2="32.8191" gradientUnits="userSpaceOnUse">
<stop stop-color="#FED2A4"/>
<stop offset="1" stop-color="#FFBD86"/>
</linearGradient>
<clipPath id="clip0_1491_935">
<rect width="48" height="48" fill="white"/>
</clipPath>
</defs>
</svg>
