<svg width="59" height="58" viewBox="0 0 59 58" fill="none" xmlns="http://www.w3.org/2000/svg">
<path d="M29.5 58C45.5163 58 58.5 45.0163 58.5 29C58.5 12.9837 45.5163 0 29.5 0C13.4837 0 0.5 12.9837 0.5 29C0.5 45.0163 13.4837 58 29.5 58Z" fill="url(#paint0_linear_180_440)"/>
<path fill-rule="evenodd" clip-rule="evenodd" d="M29.3078 6.67579C29.3806 6.76158 29.4873 6.8112 29.6 6.8112C29.7125 6.81098 29.8194 6.76136 29.892 6.67535C29.6115 6.99137 29.6249 6.96998 29.6401 6.94815C29.9731 6.39461 30.5633 6.04661 31.209 6.02323C32.8206 6.01485 38.4325 6.4976 42.117 13.1323C44.089 16.6829 46.2859 36.6214 45.4283 46.3054C45.3784 46.8308 45.0904 47.304 44.6469 47.5898C44.2032 47.8754 43.653 47.9418 43.1541 47.7696C40.8227 46.982 34.9459 46.094 30.1866 47.4549H29.0136C24.2541 46.094 18.3775 46.982 16.0461 47.7696C15.5472 47.9418 14.997 47.8754 14.5533 47.5898C14.1096 47.304 13.8216 46.8308 13.7719 46.3054C12.9143 36.6214 15.1112 16.6829 17.083 13.1323C20.7738 6.48679 26.3979 6.01331 27.9991 6.02059C28.6182 6.0433 29.1874 6.36572 29.5252 6.88485C29.5504 6.93249 29.5788 6.97329 29.3078 6.67579Z" fill="#433F43"/>
<path fill-rule="evenodd" clip-rule="evenodd" d="M7.86426 48.3013C8.26298 48.0497 8.69147 47.8367 9.14555 47.668C16.3905 44.977 29.8374 39.9824 29.8374 39.9824C29.8374 39.9824 43.2846 44.977 50.5295 47.668C50.8187 47.7754 51.0974 47.9009 51.3649 48.0429C46.0463 54.1428 38.2203 57.9997 29.5005 57.9997C20.9039 57.9997 13.176 54.2511 7.86426 48.3013Z" fill="#F80FF5"/>
<path fill-rule="evenodd" clip-rule="evenodd" d="M24.389 34.2246C24.389 34.2246 24.2403 40.4405 24.1841 42.7938C24.1708 43.3516 24.4278 43.8811 24.8739 44.2156C25.5282 44.7065 26.5367 45.4627 27.474 46.1658C28.8746 47.2162 30.8005 47.2162 32.2011 46.1658C33.1384 45.4627 34.1466 44.7065 34.8012 44.2156C35.2473 43.8811 35.5042 43.3516 35.491 42.7938C35.4348 40.4405 35.2861 34.2246 35.2861 34.2246H24.389Z" fill="#FDAB5B"/>
<path fill-rule="evenodd" clip-rule="evenodd" d="M32.0515 34.2246C33.3423 34.4758 34.4679 34.9118 35.3163 35.473L35.4347 40.4242C34.067 41.3776 31.917 41.9922 29.5008 41.9922C27.4459 41.9922 25.5833 41.5476 24.2314 40.8282L24.3688 35.0781C25.1045 34.706 25.9807 34.4132 26.9502 34.2246H32.0515Z" fill="#FD9E52"/>
<path fill-rule="evenodd" clip-rule="evenodd" d="M40.0682 22.2142C40.0682 22.2142 43.584 20.7164 43.436 25.0915C43.436 25.0915 43.7522 30.4035 40.0078 29.4078" fill="#FDAB55"/>
<path fill-rule="evenodd" clip-rule="evenodd" d="M21.4242 16.5157C19.5889 17.5278 18.4492 19.4576 18.4492 21.5533V27.1094C18.4492 31.644 20.5877 35.9129 24.2197 38.6278C24.8127 39.0711 25.3724 39.4895 25.8512 39.8474C26.8455 40.5908 28.0536 40.9924 29.2952 40.9924C29.508 40.9924 29.7246 40.9924 29.9372 40.9924C31.1788 40.9924 32.3871 40.5908 33.3815 39.8474C33.8602 39.4895 34.4197 39.0711 35.013 38.6278C38.6447 35.9129 40.7834 31.644 40.7834 27.1094C40.7834 25.414 40.7834 23.6665 40.7834 22.1704C40.7834 19.7587 39.2792 17.6032 37.0156 16.7711C34.8698 15.9825 32.2241 15.0099 30.2488 14.2839C28.4283 13.6148 26.4073 13.7683 24.709 14.7047C23.6743 15.2752 22.4856 15.9304 21.4242 16.5157Z" fill="url(#paint1_linear_180_440)"/>
<path d="M23.6211 27.2996C24.4764 27.2996 25.1699 26.3781 25.1699 25.2413C25.1699 24.1046 24.4764 23.1831 23.6211 23.1831C22.7657 23.1831 22.0723 24.1046 22.0723 25.2413C22.0723 26.3781 22.7657 27.2996 23.6211 27.2996Z" fill="#433F43"/>
<path d="M34.9043 27.2996C35.7596 27.2996 36.4531 26.3781 36.4531 25.2413C36.4531 24.1046 35.7596 23.1831 34.9043 23.1831C34.0489 23.1831 33.3555 24.1046 33.3555 25.2413C33.3555 26.3781 34.0489 27.2996 34.9043 27.2996Z" fill="#433F43"/>
<path fill-rule="evenodd" clip-rule="evenodd" d="M28.5038 26.0276C28.5038 26.0276 27.7213 27.9524 27.5649 29.5045C27.5098 30.0514 27.5345 30.5584 27.6576 30.9541C27.7731 31.3257 27.9727 31.6174 28.2466 31.8183C28.521 32.0192 28.8787 32.1408 29.3491 32.1101C29.8258 32.079 30.4746 31.8704 31.3213 31.3713C31.6631 31.17 31.7771 30.7287 31.5755 30.3869C31.374 30.045 30.9329 29.931 30.5909 30.1326C30.0911 30.4272 29.6971 30.5997 29.3828 30.6583C29.2573 30.6817 29.1623 30.7064 29.0968 30.6583C29.0341 30.6125 29.0255 30.5245 29.0068 30.4321C28.9611 30.2058 28.9669 29.9359 28.9958 29.6487C29.1343 28.2742 29.8349 26.5719 29.8349 26.5719C29.9851 26.2045 29.8089 25.7844 29.4415 25.6342C29.0743 25.484 28.6539 25.6602 28.5038 26.0276Z" fill="#FF9241"/>
<path fill-rule="evenodd" clip-rule="evenodd" d="M25.0522 35.0591C25.0522 35.0591 27.1234 37.4364 30.0495 37.1976C31.2858 37.0968 32.6886 36.5409 34.1425 35.0992C34.4244 34.8196 34.4261 34.364 34.1467 34.0824C33.8673 33.8005 33.4117 33.7985 33.1299 34.078C31.9873 35.2111 30.904 35.685 29.9326 35.7644C27.7067 35.9461 26.1396 34.1181 26.1396 34.1181C25.8801 33.8179 25.4256 33.7851 25.1254 34.0449C24.8253 34.3044 24.7924 34.759 25.0522 35.0591Z" fill="#FF515E"/>
<defs>
<linearGradient id="paint0_linear_180_440" x1="21.2085" y1="1.20466" x2="45.9436" y2="52.9217" gradientUnits="userSpaceOnUse">
<stop stop-color="#A83AFE"/>
<stop offset="1" stop-color="#6E59FE"/>
</linearGradient>
<linearGradient id="paint1_linear_180_440" x1="29.5213" y1="23.7183" x2="29.5213" y2="39.6567" gradientUnits="userSpaceOnUse">
<stop stop-color="#FED2A4"/>
<stop offset="1" stop-color="#FFBD86"/>
</linearGradient>
</defs>
</svg>
