<svg width="20" height="20" viewBox="0 0 20 20" fill="none" xmlns="http://www.w3.org/2000/svg">
<path d="M19.7044 0.298338C19.3255 -0.0805657 18.7093 -0.0805657 18.3304 0.298338L15.6655 2.96315C15.1534 2.49959 14.397 2.16648 13.7724 2.16648H6.22626C5.4282 2.16648 4.41224 2.70916 3.97088 3.37398L0.356721 8.7966C-0.0860272 9.46003 -0.0860272 10.5468 0.356721 11.2116L3.18115 15.4489L0.295652 18.333C-0.0832513 18.7119 -0.0832513 19.3282 0.295652 19.7071C0.485798 19.8972 0.734237 19.9916 0.982675 19.9916C1.23111 19.9916 1.47955 19.8972 1.6697 19.7071L19.7044 1.67238C20.0833 1.29348 20.0833 0.677241 19.7044 0.298338ZM11.2339 7.3948C10.8591 7.21714 10.4414 7.11583 9.99864 7.11583C8.40391 7.11583 7.11036 8.40937 7.11036 10.0041C7.11036 10.4468 7.21168 10.8646 7.38934 11.2394L5.68219 12.9465C5.10898 12.1082 4.7731 11.0964 4.7731 10.0055C4.7731 7.11999 7.11175 4.78134 9.99725 4.78134C11.0882 4.78134 12.1013 5.11721 12.9383 5.69043L11.2339 7.3948ZM18.1541 6.56343C18.0084 6.34414 17.6988 6.3136 17.5129 6.49959L15.1062 8.90625C15.1811 9.26017 15.2228 9.62658 15.2228 10.0027C15.2228 12.8882 12.8841 15.2269 9.99864 15.2269C9.62251 15.2269 9.2561 15.1866 8.90218 15.1103L6.88413 17.1283C6.49274 17.5197 6.62598 17.8389 7.17837 17.8389H13.771C14.5691 17.8389 15.5836 17.2963 16.0264 16.6314L19.6405 11.2102C20.0833 10.5468 20.0833 9.46003 19.6405 8.79521L18.1541 6.56343Z" fill="#DCDCDC"/>
</svg>
