<svg width="1081" height="1152" viewBox="0 0 1081 1152" fill="none" xmlns="http://www.w3.org/2000/svg">
<path d="M1080.05 -53H-0.0458984V1152H1080.05V-53Z" fill="#151515"/>
<path d="M1080.05 -53H-0.0458984V1152H1080.05V-53Z" fill="url(#paint0_linear_1529_901)"/>
<path fill-rule="evenodd" clip-rule="evenodd" d="M1080.04 313.656H1035.42C1014.89 313.656 995.197 321.887 980.679 336.539C966.161 351.191 958.005 371.063 958.005 391.783V555.288C958.005 589.923 930.183 618 895.863 618H774.521C771.787 618 769.566 620.24 769.566 623C769.566 625.76 771.787 628 774.521 628H895.863C935.656 628 967.914 595.446 967.914 555.288V391.783C967.914 373.715 975.025 356.386 987.686 343.61C1000.35 330.834 1017.52 323.656 1035.42 323.656H1080.04C1080.04 323.656 1080.04 321.76 1080.04 319C1080.04 316.241 1080.04 313.656 1080.04 313.656Z" fill="url(#paint1_linear_1529_901)"/>
<path fill-rule="evenodd" clip-rule="evenodd" d="M760.538 515.45C760.538 649.619 652.6 758.547 519.651 758.547C386.703 758.547 278.765 649.619 278.765 515.45C278.765 381.282 386.703 272.354 519.651 272.354C533.324 272.354 544.424 261.152 544.424 247.354C544.424 233.556 533.324 222.354 519.651 222.354C359.358 222.354 229.22 353.686 229.22 515.45C229.22 677.215 359.358 808.547 519.651 808.547C679.946 808.547 810.084 677.215 810.084 515.45C810.084 501.653 798.984 490.45 785.311 490.45C771.638 490.45 760.538 501.653 760.538 515.45Z" fill="url(#paint2_linear_1529_901)"/>
<path fill-rule="evenodd" clip-rule="evenodd" d="M760.538 515.45C760.538 649.619 652.6 758.547 519.651 758.547C386.703 758.547 278.765 649.619 278.765 515.45C278.765 381.282 386.703 272.354 519.651 272.354C533.324 272.354 544.424 261.152 544.424 247.354C544.424 233.556 533.324 222.354 519.651 222.354C359.358 222.354 229.22 353.686 229.22 515.45C229.22 677.215 359.358 808.547 519.651 808.547C679.946 808.547 810.084 677.215 810.084 515.45C810.084 501.653 798.984 490.45 785.311 490.45C771.638 490.45 760.538 501.653 760.538 515.45Z" fill="url(#paint3_linear_1529_901)"/>
<path d="M204.757 303H399.439C402.173 303 404.393 305.24 404.393 308C404.393 310.76 402.173 313 399.439 313H204.757C162.703 313 128.614 278.597 128.614 236.159V201.326C128.614 184.796 122.107 168.943 110.525 157.255C98.9424 145.566 83.2346 139 66.8548 139H0V129H66.8548C85.8624 129 104.091 136.62 117.532 150.184C130.973 163.747 138.523 182.144 138.523 201.326V236.159C138.523 273.074 168.176 303 204.757 303Z" fill="#670CF5"/>
<path fill-rule="evenodd" clip-rule="evenodd" d="M294.031 578.266C294.031 578.266 299.27 572.452 303.708 567.526C307.676 563.123 312.889 560.058 318.641 558.748C364.08 548.397 571.104 501.236 618.563 490.425C624.855 488.992 631.443 489.737 637.264 492.54C643.37 495.48 650.341 498.837 650.341 498.837L661.923 638.637L525.637 669.683L529.373 688.593L486.286 698.409L479.816 680.121L362.185 706.918L294.031 578.266Z" fill="url(#paint4_linear_1529_901)"/>
<path fill-rule="evenodd" clip-rule="evenodd" d="M543.92 507.429C544.158 508.053 544.271 508.727 544.244 509.413C543.697 523.53 542.403 556.913 541.816 572.028C541.641 576.553 538.474 580.394 534.097 581.392C513.307 586.128 454.663 599.487 433.872 604.223C429.495 605.22 425.001 603.124 422.916 599.114C415.953 585.719 400.574 556.134 394.069 543.623C393.754 543.015 393.57 542.358 393.519 541.691L543.92 507.429Z" fill="url(#paint5_linear_1529_901)"/>
<path fill-rule="evenodd" clip-rule="evenodd" d="M396.059 542.625C395.343 541.249 395.3 539.615 395.946 538.203C396.591 536.792 397.851 535.764 399.354 535.421C423.793 529.854 512.185 509.718 536.625 504.151C538.127 503.809 539.701 504.191 540.886 505.186C542.07 506.181 542.728 507.674 542.666 509.228C542.12 523.013 540.85 555.084 540.265 569.829C540.087 574.351 536.921 578.188 532.546 579.184C512.149 583.831 455.372 596.764 434.975 601.411C430.601 602.407 426.11 600.315 424.023 596.309C417.219 583.247 402.42 554.837 396.059 542.625Z" fill="url(#paint6_linear_1529_901)"/>
<path fill-rule="evenodd" clip-rule="evenodd" d="M485.795 556.052C485.159 561.303 480.379 565.061 475.134 564.446C469.897 563.833 466.155 559.083 466.791 553.841C467.427 548.59 472.206 544.832 477.452 545.447C480.337 545.785 482.961 543.709 483.307 540.814C483.653 537.918 481.591 535.293 478.705 534.955C467.691 533.663 457.67 541.572 456.334 552.598C454.999 563.633 462.857 573.646 473.881 574.939C484.894 576.23 494.916 568.321 496.25 557.295C496.601 554.401 494.543 551.772 491.657 551.429C488.773 551.085 486.145 553.157 485.795 556.052Z" fill="url(#paint7_linear_1529_901)"/>
<path fill-rule="evenodd" clip-rule="evenodd" d="M259.96 670.922C259.96 670.922 275.999 754.685 282.576 789.035C284.391 798.513 288.486 807.397 294.506 814.912C294.931 815.443 295.367 815.987 295.813 816.545C308.435 832.303 328.061 840.69 348.148 838.91C368.236 837.129 386.141 825.415 395.896 807.673C395.896 807.673 395.896 807.672 395.897 807.672C399.893 800.403 402.454 792.43 403.437 784.192C407.146 753.126 416.499 674.784 416.499 674.784L260.132 670.882" fill="url(#paint8_linear_1529_901)"/>
<path fill-rule="evenodd" clip-rule="evenodd" d="M716.219 566.985C716.219 566.985 737.391 649.578 746.073 683.449C748.469 692.795 748.553 702.593 746.315 711.989C746.157 712.652 745.996 713.333 745.829 714.03C741.14 733.732 726.986 749.814 708.09 756.914C689.192 764.014 668.036 761.199 651.676 749.406C651.675 749.406 651.675 749.405 651.674 749.405C644.972 744.573 639.265 738.483 634.87 731.47C618.298 705.025 576.504 638.334 576.504 638.334L716.047 567.024" fill="url(#paint9_linear_1529_901)"/>
<path fill-rule="evenodd" clip-rule="evenodd" d="M433.963 643.895C458.382 638.333 482.658 653.715 488.141 678.225C493.623 702.734 478.248 727.149 453.829 732.712C429.409 738.275 405.133 722.893 399.651 698.383C394.169 673.873 409.544 649.458 433.963 643.895Z" fill="url(#paint10_linear_1529_901)"/>
<path fill-rule="evenodd" clip-rule="evenodd" d="M551.545 617.11C575.964 611.547 600.24 626.93 605.722 651.439C611.204 675.949 595.83 700.364 571.411 705.927C546.991 711.49 522.715 696.107 517.233 671.598C511.751 647.088 527.126 622.673 551.545 617.11Z" fill="url(#paint11_linear_1529_901)"/>
<path fill-rule="evenodd" clip-rule="evenodd" d="M261.027 621.275C261.027 621.275 269.781 581.041 271.886 571.369C272.184 569.998 272.718 568.69 273.463 567.506C275.759 563.861 281.028 555.494 284.232 550.405C285.918 547.728 288.585 545.834 291.65 545.136C302.262 542.718 327.667 536.931 338.279 534.513C341.344 533.815 344.559 534.37 347.221 536.056C352.28 539.262 360.6 544.534 364.225 546.83C365.402 547.577 366.441 548.526 367.293 549.634C373.311 557.456 398.343 589.995 398.343 589.995L261.027 621.275Z" fill="url(#paint12_linear_1529_901)"/>
<path fill-rule="evenodd" clip-rule="evenodd" d="M284.474 565.719C283.976 566.61 284.135 567.726 284.86 568.441C285.584 569.155 286.694 569.289 287.565 568.766C294.753 564.534 306.353 558.583 318.541 555.807C329.867 553.227 343.521 553.595 352.161 554.233C353.177 554.308 354.119 553.69 354.461 552.722C354.805 551.753 354.465 550.673 353.632 550.081C350.133 547.58 346.052 544.681 343.204 542.659C340.938 541.049 338.102 540.482 335.398 541.098C327.001 543.011 308.256 547.281 298.683 549.462C294.943 550.314 291.736 552.722 289.853 556.092C288.252 558.956 286.245 562.547 284.474 565.719Z" fill="url(#paint13_linear_1529_901)"/>
<path fill-rule="evenodd" clip-rule="evenodd" d="M694.055 522.631C694.055 522.631 669.024 490.092 663.007 482.27C662.154 481.162 661.116 480.213 659.937 479.466C656.314 477.17 647.994 471.898 642.933 468.692C640.273 467.006 637.058 466.451 633.992 467.149C623.38 469.567 597.976 475.354 587.363 477.771C584.298 478.47 581.632 480.364 579.946 483.041C576.742 488.13 571.473 496.497 569.177 500.142C568.431 501.326 567.897 502.634 567.599 504.005C565.495 513.677 556.741 553.911 556.741 553.911L694.055 522.631Z" fill="url(#paint14_linear_1529_901)"/>
<path fill-rule="evenodd" clip-rule="evenodd" d="M580.14 498.365C579.642 499.256 579.801 500.373 580.526 501.087C581.25 501.802 582.361 501.935 583.231 501.413C590.419 497.18 602.02 491.23 614.207 488.453C625.533 485.873 639.188 486.241 647.828 486.879C648.843 486.955 649.785 486.336 650.128 485.368C650.471 484.4 650.131 483.319 649.298 482.727C645.799 480.227 641.718 477.328 638.871 475.305C636.604 473.696 633.769 473.129 631.065 473.744C622.667 475.657 603.923 479.928 594.349 482.108C590.61 482.96 587.403 485.369 585.519 488.738C583.919 491.602 581.911 495.194 580.14 498.365Z" fill="url(#paint15_linear_1529_901)"/>
<path fill-rule="evenodd" clip-rule="evenodd" d="M320.995 566.779C365.28 556.691 409.307 584.588 419.249 629.038C429.192 673.488 401.31 717.766 357.023 727.855C312.737 737.943 268.71 710.046 258.769 665.596C248.826 621.146 276.708 576.868 320.995 566.779Z" fill="url(#paint16_linear_1529_901)"/>
<path fill-rule="evenodd" clip-rule="evenodd" d="M339.475 633.392C338.059 635.644 335.097 636.318 332.861 634.899C329.214 632.585 324.037 629.299 321.403 627.628C320.329 626.946 319.569 625.863 319.29 624.616C318.303 620.205 315.874 609.344 314.469 603.059C314.189 601.813 314.415 600.505 315.095 599.423C315.775 598.342 316.854 597.576 318.093 597.293C323.285 596.111 331.611 594.214 336.802 593.031C338.042 592.749 339.342 592.973 340.418 593.655C341.492 594.337 342.252 595.42 342.53 596.667C343.936 602.952 346.366 613.812 347.352 618.223C347.631 619.47 347.405 620.778 346.726 621.859C345.06 624.51 341.783 629.721 339.475 633.392Z" fill="url(#paint17_linear_1529_901)"/>
<path fill-rule="evenodd" clip-rule="evenodd" d="M338.523 629.114C337.104 631.366 334.139 632.042 331.9 630.623C328.249 628.31 323.066 625.025 320.43 623.355C319.354 622.673 318.593 621.59 318.315 620.343C317.328 615.932 314.899 605.072 313.493 598.787C313.213 597.54 313.44 596.232 314.121 595.15C314.802 594.069 315.883 593.302 317.124 593.019C322.322 591.835 330.66 589.935 335.859 588.751C337.1 588.469 338.402 588.692 339.478 589.374C340.553 590.055 341.315 591.139 341.593 592.385C342.999 598.67 345.428 609.531 346.415 613.942C346.694 615.189 346.468 616.497 345.786 617.578C344.118 620.229 340.835 625.443 338.523 629.114Z" fill="url(#paint18_linear_1529_901)"/>
<path fill-rule="evenodd" clip-rule="evenodd" d="M321.916 651.671C324.156 653.09 324.821 656.066 323.402 658.319C321.091 661.99 317.808 667.203 316.139 669.854C315.457 670.936 314.377 671.702 313.135 671.985C308.74 672.986 297.919 675.451 291.658 676.878C290.416 677.161 289.114 676.937 288.038 676.255C286.963 675.574 286.202 674.491 285.923 673.244C284.756 668.027 282.884 659.658 281.717 654.441C281.438 653.194 281.664 651.886 282.345 650.804C283.027 649.723 284.107 648.956 285.35 648.673C291.611 647.247 302.431 644.782 306.827 643.781C308.068 643.498 309.37 643.722 310.446 644.403C313.082 646.073 318.266 649.358 321.916 651.671Z" fill="url(#paint19_linear_1529_901)"/>
<path fill-rule="evenodd" clip-rule="evenodd" d="M320.926 648.048C323.165 649.468 323.831 652.444 322.412 654.696C320.1 658.368 316.818 663.581 315.149 666.232C314.467 667.313 313.387 668.08 312.144 668.363C307.75 669.364 296.929 671.829 290.668 673.255C289.426 673.538 288.124 673.315 287.048 672.633C285.973 671.952 285.212 670.868 284.933 669.622C283.766 664.405 281.894 656.035 280.727 650.819C280.448 649.572 280.674 648.264 281.355 647.182C282.037 646.1 283.117 645.334 284.359 645.051C290.621 643.624 301.441 641.16 305.836 640.158C307.078 639.875 308.38 640.099 309.456 640.781C312.092 642.451 317.275 645.735 320.926 648.048Z" fill="url(#paint20_linear_1529_901)"/>
<path fill-rule="evenodd" clip-rule="evenodd" d="M340.686 669.189C342.104 666.936 345.069 666.261 347.309 667.68C350.959 669.993 356.143 673.277 358.779 674.947C359.854 675.629 360.615 676.712 360.894 677.959C361.88 682.37 364.31 693.231 365.716 699.516C365.995 700.762 365.769 702.07 365.088 703.152C364.406 704.234 363.326 705 362.083 705.283C356.886 706.467 348.548 708.367 343.35 709.551C342.108 709.834 340.806 709.61 339.73 708.928C338.655 708.247 337.894 707.164 337.615 705.917C336.21 699.632 333.78 688.772 332.793 684.36C332.515 683.114 332.741 681.806 333.421 680.724C335.091 678.073 338.374 672.86 340.686 669.189Z" fill="url(#paint21_linear_1529_901)"/>
<path fill-rule="evenodd" clip-rule="evenodd" d="M339.694 665.475C341.112 663.223 344.078 662.547 346.318 663.966C349.968 666.279 355.152 669.564 357.787 671.234C358.863 671.915 359.624 672.999 359.903 674.245C360.889 678.657 363.319 689.517 364.725 695.802C365.003 697.049 364.777 698.357 364.097 699.438C363.415 700.52 362.335 701.287 361.092 701.57C355.895 702.754 347.556 704.653 342.359 705.837C341.116 706.12 339.814 705.896 338.739 705.215C337.664 704.533 336.903 703.45 336.624 702.203C335.219 695.918 332.789 685.058 331.802 680.647C331.523 679.4 331.749 678.092 332.43 677.01C334.1 674.359 337.383 669.146 339.694 665.475Z" fill="url(#paint22_linear_1529_901)"/>
<path fill-rule="evenodd" clip-rule="evenodd" d="M358.028 650.354C355.789 648.935 355.123 645.959 356.541 643.706C358.853 640.035 362.136 634.822 363.805 632.171C364.486 631.089 365.566 630.323 366.809 630.04C371.204 629.039 382.024 626.574 388.286 625.147C389.528 624.864 390.83 625.088 391.906 625.77C392.981 626.451 393.742 627.534 394.021 628.781C395.187 633.998 397.059 642.367 398.227 647.584C398.505 648.831 398.279 650.139 397.598 651.221C396.918 652.302 395.837 653.069 394.595 653.352C388.333 654.778 377.513 657.243 373.117 658.244C371.875 658.527 370.573 658.303 369.498 657.622C366.862 655.952 361.679 652.667 358.028 650.354Z" fill="url(#paint23_linear_1529_901)"/>
<path fill-rule="evenodd" clip-rule="evenodd" d="M357.137 646.786C354.897 645.367 354.232 642.391 355.65 640.138C357.961 636.467 361.244 631.254 362.914 628.603C363.595 627.521 364.675 626.755 365.917 626.472C370.312 625.471 381.133 623.006 387.394 621.579C388.637 621.296 389.938 621.52 391.014 622.202C392.089 622.883 392.85 623.966 393.13 625.213C394.296 630.43 396.168 638.799 397.335 644.016C397.614 645.263 397.388 646.571 396.707 647.653C396.026 648.734 394.945 649.501 393.704 649.784C387.441 651.21 376.621 653.675 372.226 654.676C370.984 654.959 369.682 654.735 368.607 654.054C365.971 652.384 360.787 649.099 357.137 646.786Z" fill="url(#paint24_linear_1529_901)"/>
<path fill-rule="evenodd" clip-rule="evenodd" d="M616.672 499.423C660.958 489.335 704.985 517.232 714.928 561.682C724.871 606.132 696.988 650.41 652.702 660.499C608.416 670.587 564.389 642.69 554.446 598.24C544.503 553.79 572.387 509.512 616.672 499.423Z" fill="url(#paint25_linear_1529_901)"/>
<path fill-rule="evenodd" clip-rule="evenodd" d="M619.03 506.257C644.814 500.383 668.903 509.723 672.79 527.1C676.677 544.478 658.9 563.355 633.115 569.228C607.331 575.102 583.242 565.762 579.356 548.385C575.468 531.007 593.246 512.13 619.03 506.257Z" fill="url(#paint26_linear_1529_901)"/>
<path fill-rule="evenodd" clip-rule="evenodd" d="M323.402 575.383C349.186 569.509 373.275 578.849 377.162 596.226C381.049 613.604 363.271 632.481 337.488 638.354C311.703 644.228 287.614 634.888 283.728 617.511C279.84 600.133 297.618 581.256 323.402 575.383Z" fill="url(#paint27_linear_1529_901)"/>
<path fill-rule="evenodd" clip-rule="evenodd" d="M667.851 559.967C676.57 557.981 685.238 563.474 687.195 572.225C689.153 580.977 683.664 589.694 674.945 591.68C666.225 593.667 657.557 588.174 655.599 579.423C653.642 570.671 659.132 561.954 667.851 559.967Z" fill="url(#paint28_linear_1529_901)"/>
<path fill-rule="evenodd" clip-rule="evenodd" d="M596.411 576.241C605.131 574.255 613.798 579.748 615.756 588.499C617.713 597.251 612.223 605.968 603.504 607.954C594.785 609.941 586.117 604.448 584.16 595.697C582.202 586.945 587.692 578.228 596.411 576.241Z" fill="url(#paint29_linear_1529_901)"/>
<path fill-rule="evenodd" clip-rule="evenodd" d="M659.495 616.214C661.452 624.965 655.963 633.683 647.244 635.669C638.525 637.656 629.856 632.163 627.899 623.412C625.941 614.66 631.431 605.942 640.151 603.956C648.87 601.97 657.537 607.462 659.495 616.214Z" fill="url(#paint30_linear_1529_901)"/>
<path fill-rule="evenodd" clip-rule="evenodd" d="M643.457 544.51C645.415 553.262 639.925 561.979 631.205 563.966C622.486 565.952 613.819 560.459 611.861 551.708C609.904 542.956 615.393 534.239 624.112 532.253C632.831 530.266 641.5 535.759 643.457 544.51Z" fill="url(#paint31_linear_1529_901)"/>
<path fill-rule="evenodd" clip-rule="evenodd" d="M666.859 555.967C675.578 553.981 684.247 559.474 686.204 568.225C688.162 576.977 682.672 585.694 673.953 587.68C665.233 589.667 656.566 584.174 654.608 575.423C652.651 566.671 658.14 557.954 666.859 555.967Z" fill="url(#paint32_linear_1529_901)"/>
<path fill-rule="evenodd" clip-rule="evenodd" d="M595.42 572.241C604.14 570.255 612.808 575.748 614.766 584.499C616.723 593.251 611.233 601.968 602.514 603.954C593.795 605.941 585.127 600.448 583.17 591.697C581.212 582.945 586.701 574.228 595.42 572.241Z" fill="url(#paint33_linear_1529_901)"/>
<path fill-rule="evenodd" clip-rule="evenodd" d="M658.505 612.214C660.462 620.965 654.973 629.683 646.253 631.669C637.534 633.656 628.866 628.163 626.909 619.412C624.951 610.66 630.441 601.942 639.161 599.956C647.88 597.97 656.547 603.462 658.505 612.214Z" fill="url(#paint34_linear_1529_901)"/>
<path fill-rule="evenodd" clip-rule="evenodd" d="M642.466 540.51C644.424 549.262 638.934 557.979 630.214 559.966C621.495 561.952 612.828 556.459 610.87 547.708C608.912 538.956 614.402 530.239 623.121 528.253C631.84 526.266 640.509 531.759 642.466 540.51Z" fill="url(#paint35_linear_1529_901)"/>
<path fill-rule="evenodd" clip-rule="evenodd" d="M555.549 635.586C572.558 631.711 589.468 642.426 593.287 659.498C597.106 676.57 586.396 693.577 569.388 697.451C552.378 701.326 535.468 690.611 531.65 673.539C527.831 656.467 538.539 639.46 555.549 635.586Z" fill="url(#paint36_linear_1529_901)"/>
<path fill-rule="evenodd" clip-rule="evenodd" d="M437.968 662.37C454.977 658.495 471.887 669.211 475.706 686.283C479.525 703.356 468.815 720.361 451.806 724.236C434.796 728.111 417.888 717.396 414.069 700.323C410.25 683.251 420.958 666.245 437.968 662.37Z" fill="url(#paint37_linear_1529_901)"/>
<path fill-rule="evenodd" clip-rule="evenodd" d="M554.559 630.586C571.568 626.711 588.478 637.426 592.297 654.498C596.116 671.57 585.406 688.577 568.397 692.451C551.387 696.326 534.477 685.611 530.659 668.539C526.84 651.467 537.549 634.46 554.559 630.586Z" fill="url(#paint38_linear_1529_901)"/>
<path fill-rule="evenodd" clip-rule="evenodd" d="M555.803 636.006C562.774 634.418 568.935 635.38 569.556 638.153C570.176 640.925 565.02 644.465 558.05 646.053C551.08 647.641 544.918 646.679 544.298 643.906C543.678 641.134 548.833 637.594 555.803 636.006Z" fill="url(#paint39_linear_1529_901)"/>
<path fill-rule="evenodd" clip-rule="evenodd" d="M436.977 657.37C453.986 653.495 470.896 664.211 474.715 681.283C478.534 698.356 467.824 715.361 450.815 719.236C433.805 723.111 416.896 712.396 413.077 695.323C409.258 678.251 419.967 661.245 436.977 657.37Z" fill="url(#paint40_linear_1529_901)"/>
<path fill-rule="evenodd" clip-rule="evenodd" d="M437.673 663.896C444.488 661.727 450.708 662.167 451.555 664.878C452.402 667.589 447.557 671.55 440.742 673.718C433.928 675.887 427.707 675.447 426.86 672.736C426.013 670.026 430.858 666.064 437.673 663.896Z" fill="url(#paint41_linear_1529_901)"/>
<path fill-rule="evenodd" clip-rule="evenodd" d="M475.959 619.001C475.68 617.755 474.922 616.671 473.852 615.988C472.781 615.306 471.486 615.081 470.251 615.362C467.377 616.017 463.705 616.853 460.831 617.508C459.596 617.789 458.523 618.554 457.846 619.635C457.17 620.715 456.947 622.022 457.225 623.269C457.225 623.269 457.225 623.27 457.225 623.271C457.505 624.517 458.263 625.601 459.333 626.283C460.403 626.965 461.699 627.191 462.934 626.909C465.808 626.255 469.48 625.418 472.354 624.764C473.589 624.482 474.662 623.717 475.339 622.637C476.015 621.557 476.238 620.249 475.96 619.003C475.96 619.002 475.96 619.002 475.959 619.001Z" fill="url(#paint42_linear_1529_901)"/>
<path fill-rule="evenodd" clip-rule="evenodd" d="M522.943 608.298C522.664 607.051 521.906 605.968 520.835 605.285C519.765 604.603 518.47 604.378 517.234 604.659C514.362 605.313 510.688 606.15 507.815 606.805C506.58 607.086 505.506 607.851 504.83 608.931C504.153 610.012 503.93 611.319 504.209 612.565C504.21 612.566 504.21 612.567 504.21 612.567C504.488 613.814 505.246 614.897 506.317 615.58C507.388 616.262 508.683 616.488 509.918 616.206C512.791 615.552 516.464 614.715 519.338 614.06C520.573 613.779 521.647 613.014 522.323 611.934C522.998 610.853 523.222 609.546 522.943 608.3C522.943 608.299 522.943 608.298 522.943 608.298Z" fill="url(#paint43_linear_1529_901)"/>
<path fill-rule="evenodd" clip-rule="evenodd" d="M474.967 617.001C474.689 615.755 473.931 614.671 472.861 613.988C471.79 613.306 470.494 613.081 469.26 613.362C466.386 614.017 462.714 614.853 459.84 615.508C458.604 615.789 457.531 616.554 456.855 617.635C456.179 618.715 455.956 620.022 456.234 621.269C456.234 621.269 456.234 621.27 456.234 621.271C456.514 622.517 457.272 623.601 458.342 624.283C459.412 624.965 460.708 625.191 461.943 624.909C464.816 624.255 468.489 623.418 471.362 622.764C472.598 622.482 473.671 621.717 474.348 620.637C475.024 619.557 475.247 618.249 474.968 617.003C474.968 617.002 474.968 617.002 474.967 617.001Z" fill="url(#paint44_linear_1529_901)"/>
<path fill-rule="evenodd" clip-rule="evenodd" d="M521.953 606.298C521.674 605.051 520.916 603.968 519.845 603.285C518.775 602.603 517.48 602.378 516.244 602.659C513.371 603.313 509.698 604.15 506.824 604.805C505.59 605.086 504.516 605.851 503.84 606.931C503.163 608.012 502.94 609.319 503.219 610.565C503.22 610.566 503.22 610.567 503.22 610.567C503.498 611.814 504.256 612.897 505.327 613.58C506.397 614.262 507.693 614.488 508.928 614.206C511.801 613.552 515.474 612.715 518.348 612.06C519.582 611.779 520.657 611.014 521.332 609.934C522.008 608.853 522.232 607.546 521.953 606.3C521.953 606.299 521.953 606.298 521.953 606.298Z" fill="url(#paint45_linear_1529_901)"/>
<path fill-rule="evenodd" clip-rule="evenodd" d="M760.538 515.45C760.538 626.559 686.52 720.361 585.57 749.322C572.419 753.095 564.777 766.933 568.515 780.205C572.254 793.477 585.966 801.189 599.118 797.416C720.831 762.499 810.083 649.411 810.083 515.45C810.083 501.653 798.983 490.45 785.31 490.45C771.638 490.45 760.538 501.653 760.538 515.45Z" fill="url(#paint46_linear_1529_901)"/>
<path fill-rule="evenodd" clip-rule="evenodd" d="M108.954 403.909V419.081C108.954 419.89 109.437 420.619 110.178 420.928C110.918 421.238 111.77 421.067 112.337 420.495C115.982 416.818 121.745 411.001 125.389 407.323C125.956 406.751 126.126 405.891 125.818 405.144C125.512 404.396 124.789 403.909 123.988 403.909C118.123 403.909 108.954 403.909 108.954 403.909Z" fill="url(#paint47_linear_1529_901)"/>
<path fill-rule="evenodd" clip-rule="evenodd" d="M108.954 404.172V389C108.954 388.191 108.471 387.462 107.73 387.152C106.99 386.843 106.138 387.014 105.571 387.586C101.926 391.263 96.1634 397.08 92.5188 400.757C91.952 401.329 91.7825 402.19 92.0897 402.937C92.3959 403.684 93.1193 404.172 93.9199 404.172C99.7851 404.172 108.954 404.172 108.954 404.172Z" fill="url(#paint48_linear_1529_901)"/>
<path fill-rule="evenodd" clip-rule="evenodd" d="M981.082 740.179C981.082 740.179 971.979 739.066 966.158 738.355C965.362 738.258 964.586 738.654 964.193 739.358C963.799 740.063 963.865 740.938 964.359 741.574C967.539 745.667 972.568 752.141 975.748 756.234C976.242 756.87 977.068 757.144 977.841 756.926C978.613 756.709 979.178 756.043 979.275 755.24C979.98 749.365 981.082 740.179 981.082 740.179Z" fill="url(#paint49_linear_1529_901)"/>
<path fill-rule="evenodd" clip-rule="evenodd" d="M980.824 740.147C980.824 740.147 989.927 741.26 995.748 741.971C996.544 742.068 997.32 741.672 997.713 740.968C998.107 740.263 998.041 739.388 997.547 738.752C994.367 734.659 989.338 728.185 986.158 724.092C985.664 723.456 984.838 723.182 984.065 723.4C983.294 723.617 982.728 724.283 982.632 725.086C981.926 730.961 980.824 740.147 980.824 740.147Z" fill="url(#paint50_linear_1529_901)"/>
<path d="M282.931 285.6V291.35H294.181V298.8H282.931V305.15H295.681V313H273.131V277.75H295.681V285.6H282.931ZM319.874 284.7C323.107 284.7 325.674 285.783 327.574 287.95C329.474 290.083 330.424 292.983 330.424 296.65V313H320.624V297.95C320.624 296.35 320.207 295.1 319.374 294.2C318.54 293.267 317.424 292.8 316.024 292.8C314.557 292.8 313.407 293.267 312.574 294.2C311.74 295.1 311.324 296.35 311.324 297.95V313H301.524V284.95H311.324V288.95C312.19 287.683 313.357 286.667 314.824 285.9C316.29 285.1 317.974 284.7 319.874 284.7ZM341.701 282.35C339.968 282.35 338.568 281.883 337.501 280.95C336.468 279.983 335.951 278.783 335.951 277.35C335.951 275.883 336.468 274.667 337.501 273.7C338.568 272.733 339.968 272.25 341.701 272.25C343.401 272.25 344.768 272.733 345.801 273.7C346.868 274.667 347.401 275.883 347.401 277.35C347.401 278.783 346.868 279.983 345.801 280.95C344.768 281.883 343.401 282.35 341.701 282.35ZM346.601 315.75C346.601 322.85 343.034 326.4 335.901 326.4H332.351V318.05H334.451C335.284 318.05 335.884 317.883 336.251 317.55C336.618 317.217 336.801 316.667 336.801 315.9V284.95H346.601V315.75ZM366.183 313.35C363.383 313.35 360.866 312.767 358.633 311.6C356.433 310.433 354.7 308.767 353.433 306.6C352.166 304.433 351.533 301.883 351.533 298.95C351.533 296.05 352.166 293.517 353.433 291.35C354.733 289.183 356.483 287.517 358.683 286.35C360.916 285.183 363.433 284.6 366.233 284.6C369.033 284.6 371.533 285.183 373.733 286.35C375.966 287.517 377.716 289.183 378.983 291.35C380.283 293.517 380.933 296.05 380.933 298.95C380.933 301.85 380.283 304.4 378.983 306.6C377.716 308.767 375.966 310.433 373.733 311.6C371.5 312.767 368.983 313.35 366.183 313.35ZM366.183 304.85C367.55 304.85 368.683 304.35 369.583 303.35C370.516 302.317 370.983 300.85 370.983 298.95C370.983 297.05 370.516 295.6 369.583 294.6C368.683 293.6 367.566 293.1 366.233 293.1C364.9 293.1 363.783 293.6 362.883 294.6C361.983 295.6 361.533 297.05 361.533 298.95C361.533 300.883 361.966 302.35 362.833 303.35C363.7 304.35 364.816 304.85 366.183 304.85ZM416.12 284.95L398.32 326.35H387.67L394.37 311.8L382.87 284.95H393.77L399.67 300.85L405.37 284.95H416.12ZM439.854 277.75V298.2C439.854 300.1 440.287 301.567 441.154 302.6C442.054 303.633 443.404 304.15 445.204 304.15C447.004 304.15 448.354 303.633 449.254 302.6C450.187 301.533 450.654 300.067 450.654 298.2V277.75H460.454V298.2C460.454 301.433 459.771 304.2 458.404 306.5C457.037 308.767 455.171 310.483 452.804 311.65C450.471 312.783 447.871 313.35 445.004 313.35C442.137 313.35 439.571 312.783 437.304 311.65C435.071 310.483 433.304 308.767 432.004 306.5C430.737 304.233 430.104 301.467 430.104 298.2V277.75H439.854ZM485.2 284.7C488.433 284.7 491 285.783 492.9 287.95C494.8 290.083 495.75 292.983 495.75 296.65V313H485.95V297.95C485.95 296.35 485.533 295.1 484.7 294.2C483.866 293.267 482.75 292.8 481.35 292.8C479.883 292.8 478.733 293.267 477.9 294.2C477.066 295.1 476.65 296.35 476.65 297.95V313H466.85V284.95H476.65V288.95C477.516 287.683 478.683 286.667 480.15 285.9C481.616 285.1 483.3 284.7 485.2 284.7ZM507.077 282.35C505.344 282.35 503.944 281.883 502.877 280.95C501.844 279.983 501.327 278.783 501.327 277.35C501.327 275.883 501.844 274.667 502.877 273.7C503.944 272.733 505.344 272.25 507.077 272.25C508.777 272.25 510.144 272.733 511.177 273.7C512.244 274.667 512.777 275.883 512.777 277.35C512.777 278.783 512.244 279.983 511.177 280.95C510.144 281.883 508.777 282.35 507.077 282.35ZM511.927 284.95V313H502.127V284.95H511.927ZM536.858 284.7C540.091 284.7 542.658 285.783 544.558 287.95C546.458 290.083 547.408 292.983 547.408 296.65V313H537.608V297.95C537.608 296.35 537.191 295.1 536.358 294.2C535.525 293.267 534.408 292.8 533.008 292.8C531.541 292.8 530.391 293.267 529.558 294.2C528.725 295.1 528.308 296.35 528.308 297.95V313H518.508V284.95H528.308V288.95C529.175 287.683 530.341 286.667 531.808 285.9C533.275 285.1 534.958 284.7 536.858 284.7ZM570.335 304.65V313H566.085C558.919 313 555.335 309.45 555.335 302.35V293.1H551.885V284.95H555.335V278.15H565.185V284.95H570.285V293.1H565.185V302.5C565.185 303.267 565.352 303.817 565.685 304.15C566.052 304.483 566.652 304.65 567.485 304.65H570.335ZM602.63 298.65C602.63 299.417 602.58 300.183 602.48 300.95H583.93C584.03 302.483 584.447 303.633 585.18 304.4C585.947 305.133 586.914 305.5 588.08 305.5C589.714 305.5 590.88 304.767 591.58 303.3H602.03C601.597 305.233 600.747 306.967 599.48 308.5C598.247 310 596.68 311.183 594.78 312.05C592.88 312.917 590.78 313.35 588.48 313.35C585.714 313.35 583.247 312.767 581.08 311.6C578.947 310.433 577.264 308.767 576.03 306.6C574.83 304.433 574.23 301.883 574.23 298.95C574.23 296.017 574.83 293.483 576.03 291.35C577.23 289.183 578.897 287.517 581.03 286.35C583.197 285.183 585.68 284.6 588.48 284.6C591.247 284.6 593.697 285.167 595.83 286.3C597.964 287.433 599.63 289.067 600.83 291.2C602.03 293.3 602.63 295.783 602.63 298.65ZM592.63 296.2C592.63 295 592.23 294.067 591.43 293.4C590.63 292.7 589.63 292.35 588.43 292.35C587.23 292.35 586.247 292.683 585.48 293.35C584.714 293.983 584.214 294.933 583.98 296.2H592.63ZM617.441 289.9C618.541 288.3 619.874 287.033 621.441 286.1C623.007 285.167 624.691 284.7 626.491 284.7V295.15H623.741C621.607 295.15 620.024 295.567 618.991 296.4C617.957 297.233 617.441 298.683 617.441 300.75V313H607.641V284.95H617.441V289.9ZM640.804 289.9C641.904 288.3 643.237 287.033 644.804 286.1C646.371 285.167 648.054 284.7 649.854 284.7V295.15H647.104C644.971 295.15 643.387 295.567 642.354 296.4C641.321 297.233 640.804 298.683 640.804 300.75V313H631.004V284.95H640.804V289.9ZM683.067 284.95V313H673.217V309C672.384 310.267 671.234 311.3 669.767 312.1C668.301 312.867 666.617 313.25 664.717 313.25C661.451 313.25 658.867 312.183 656.967 310.05C655.101 307.883 654.167 304.95 654.167 301.25V284.95H663.917V300C663.917 301.6 664.334 302.867 665.167 303.8C666.034 304.7 667.167 305.15 668.567 305.15C670.001 305.15 671.134 304.7 671.967 303.8C672.801 302.867 673.217 301.6 673.217 300V284.95H683.067ZM699.445 288.85C700.211 287.55 701.295 286.517 702.695 285.75C704.095 284.983 705.745 284.6 707.645 284.6C709.878 284.6 711.895 285.183 713.695 286.35C715.528 287.517 716.961 289.183 717.995 291.35C719.061 293.517 719.595 296.05 719.595 298.95C719.595 301.85 719.061 304.4 717.995 306.6C716.961 308.767 715.528 310.433 713.695 311.6C711.895 312.767 709.878 313.35 707.645 313.35C705.745 313.35 704.095 312.967 702.695 312.2C701.328 311.433 700.245 310.4 699.445 309.1V326.4H689.645V284.95H699.445V288.85ZM709.645 298.95C709.645 297.117 709.145 295.7 708.145 294.7C707.178 293.667 705.978 293.15 704.545 293.15C703.111 293.15 701.895 293.667 700.895 294.7C699.928 295.733 699.445 297.15 699.445 298.95C699.445 300.783 699.928 302.217 700.895 303.25C701.895 304.283 703.111 304.8 704.545 304.8C705.978 304.8 707.178 304.283 708.145 303.25C709.145 302.183 709.645 300.75 709.645 298.95ZM741.179 304.65V313H736.929C729.762 313 726.179 309.45 726.179 302.35V293.1H722.729V284.95H726.179V278.15H736.029V284.95H741.129V293.1H736.029V302.5C736.029 303.267 736.196 303.817 736.529 304.15C736.896 304.483 737.496 304.65 738.329 304.65H741.179ZM773.474 298.65C773.474 299.417 773.424 300.183 773.324 300.95H754.774C754.874 302.483 755.291 303.633 756.024 304.4C756.791 305.133 757.757 305.5 758.924 305.5C760.557 305.5 761.724 304.767 762.424 303.3H772.874C772.441 305.233 771.591 306.967 770.324 308.5C769.091 310 767.524 311.183 765.624 312.05C763.724 312.917 761.624 313.35 759.324 313.35C756.557 313.35 754.091 312.767 751.924 311.6C749.791 310.433 748.107 308.767 746.874 306.6C745.674 304.433 745.074 301.883 745.074 298.95C745.074 296.017 745.674 293.483 746.874 291.35C748.074 289.183 749.741 287.517 751.874 286.35C754.041 285.183 756.524 284.6 759.324 284.6C762.091 284.6 764.541 285.167 766.674 286.3C768.807 287.433 770.474 289.067 771.674 291.2C772.874 293.3 773.474 295.783 773.474 298.65ZM763.474 296.2C763.474 295 763.074 294.067 762.274 293.4C761.474 292.7 760.474 292.35 759.274 292.35C758.074 292.35 757.091 292.683 756.324 293.35C755.557 293.983 755.057 294.933 754.824 296.2H763.474ZM776.885 298.95C776.885 296.05 777.401 293.517 778.435 291.35C779.501 289.183 780.951 287.517 782.785 286.35C784.618 285.183 786.651 284.6 788.885 284.6C790.685 284.6 792.285 284.983 793.685 285.75C795.118 286.483 796.235 287.5 797.035 288.8V276H806.885V313H797.035V309.1C796.268 310.4 795.185 311.433 793.785 312.2C792.385 312.967 790.735 313.35 788.835 313.35C786.601 313.35 784.568 312.767 782.735 311.6C780.935 310.433 779.501 308.767 778.435 306.6C777.401 304.4 776.885 301.85 776.885 298.95ZM797.085 298.95C797.085 297.15 796.585 295.733 795.585 294.7C794.618 293.667 793.418 293.15 791.985 293.15C790.518 293.15 789.301 293.667 788.335 294.7C787.368 295.7 786.885 297.117 786.885 298.95C786.885 300.75 787.368 302.183 788.335 303.25C789.301 304.283 790.518 304.8 791.985 304.8C793.418 304.8 794.618 304.283 795.585 303.25C796.585 302.217 797.085 300.783 797.085 298.95ZM458.381 359.35C457.814 358.417 457.031 357.7 456.031 357.2C455.064 356.7 453.914 356.45 452.581 356.45C450.114 356.45 448.164 357.25 446.731 358.85C445.331 360.45 444.631 362.6 444.631 365.3C444.631 368.333 445.381 370.65 446.881 372.25C448.414 373.817 450.631 374.6 453.531 374.6C456.964 374.6 459.414 373.05 460.881 369.95H451.031V362.9H469.331V372.4C468.564 374.267 467.431 376.017 465.931 377.65C464.464 379.283 462.598 380.633 460.331 381.7C458.064 382.733 455.481 383.25 452.581 383.25C449.048 383.25 445.914 382.5 443.181 381C440.481 379.467 438.381 377.35 436.881 374.65C435.414 371.917 434.681 368.8 434.681 365.3C434.681 361.833 435.414 358.75 436.881 356.05C438.381 353.317 440.481 351.2 443.181 349.7C445.881 348.167 448.998 347.4 452.531 347.4C456.964 347.4 460.631 348.467 463.531 350.6C466.431 352.733 468.231 355.65 468.931 359.35H458.381ZM473.123 368.95C473.123 366.05 473.64 363.517 474.673 361.35C475.74 359.183 477.173 357.517 478.973 356.35C480.806 355.183 482.84 354.6 485.073 354.6C487.006 354.6 488.673 354.983 490.073 355.75C491.473 356.517 492.556 357.55 493.323 358.85V354.95H503.123V383H493.323V379.1C492.556 380.4 491.456 381.433 490.023 382.2C488.623 382.967 486.973 383.35 485.073 383.35C482.84 383.35 480.806 382.767 478.973 381.6C477.173 380.433 475.74 378.767 474.673 376.6C473.64 374.4 473.123 371.85 473.123 368.95ZM493.323 368.95C493.323 367.15 492.823 365.733 491.823 364.7C490.856 363.667 489.656 363.15 488.223 363.15C486.756 363.15 485.54 363.667 484.573 364.7C483.606 365.7 483.123 367.117 483.123 368.95C483.123 370.75 483.606 372.183 484.573 373.25C485.54 374.283 486.756 374.8 488.223 374.8C489.656 374.8 490.856 374.283 491.823 373.25C492.823 372.217 493.323 370.783 493.323 368.95ZM546.357 354.7C549.891 354.7 552.657 355.767 554.657 357.9C556.691 360.033 557.707 362.95 557.707 366.65V383H547.907V367.95C547.907 366.45 547.491 365.283 546.657 364.45C545.824 363.617 544.691 363.2 543.257 363.2C541.824 363.2 540.691 363.617 539.857 364.45C539.024 365.283 538.607 366.45 538.607 367.95V383H528.807V367.95C528.807 366.45 528.391 365.283 527.557 364.45C526.757 363.617 525.641 363.2 524.207 363.2C522.741 363.2 521.591 363.617 520.757 364.45C519.924 365.283 519.507 366.45 519.507 367.95V383H509.707V354.95H519.507V358.65C520.374 357.45 521.491 356.5 522.857 355.8C524.257 355.067 525.857 354.7 527.657 354.7C529.724 354.7 531.557 355.15 533.157 356.05C534.791 356.95 536.074 358.217 537.007 359.85C538.007 358.317 539.324 357.083 540.957 356.15C542.591 355.183 544.391 354.7 546.357 354.7ZM569.026 352.35C567.293 352.35 565.893 351.883 564.826 350.95C563.793 349.983 563.276 348.783 563.276 347.35C563.276 345.883 563.793 344.667 564.826 343.7C565.893 342.733 567.293 342.25 569.026 342.25C570.726 342.25 572.093 342.733 573.126 343.7C574.193 344.667 574.726 345.883 574.726 347.35C574.726 348.783 574.193 349.983 573.126 350.95C572.093 351.883 570.726 352.35 569.026 352.35ZM573.876 354.95V383H564.076V354.95H573.876ZM598.807 354.7C602.041 354.7 604.607 355.783 606.507 357.95C608.407 360.083 609.357 362.983 609.357 366.65V383H599.557V367.95C599.557 366.35 599.141 365.1 598.307 364.2C597.474 363.267 596.357 362.8 594.957 362.8C593.491 362.8 592.341 363.267 591.507 364.2C590.674 365.1 590.257 366.35 590.257 367.95V383H580.457V354.95H590.257V358.95C591.124 357.683 592.291 356.667 593.757 355.9C595.224 355.1 596.907 354.7 598.807 354.7ZM626.085 354.6C627.985 354.6 629.635 354.983 631.035 355.75C632.468 356.517 633.568 357.55 634.335 358.85V354.95H644.135V382.7C644.135 385.333 643.635 387.7 642.635 389.8C641.635 391.933 640.068 393.633 637.935 394.9C635.835 396.167 633.168 396.8 629.935 396.8C625.601 396.8 622.135 395.783 619.535 393.75C616.935 391.717 615.451 388.95 615.085 385.45H624.735C624.935 386.35 625.435 387.05 626.235 387.55C627.035 388.05 628.068 388.3 629.335 388.3C632.668 388.3 634.335 386.433 634.335 382.7V379.1C633.568 380.4 632.468 381.433 631.035 382.2C629.635 382.967 627.985 383.35 626.085 383.35C623.851 383.35 621.818 382.767 619.985 381.6C618.185 380.433 616.751 378.767 615.685 376.6C614.651 374.4 614.135 371.85 614.135 368.95C614.135 366.05 614.651 363.517 615.685 361.35C616.751 359.183 618.185 357.517 619.985 356.35C621.818 355.183 623.851 354.6 626.085 354.6ZM634.335 368.95C634.335 367.15 633.835 365.733 632.835 364.7C631.868 363.667 630.668 363.15 629.235 363.15C627.768 363.15 626.551 363.667 625.585 364.7C624.618 365.7 624.135 367.117 624.135 368.95C624.135 370.75 624.618 372.183 625.585 373.25C626.551 374.283 627.768 374.8 629.235 374.8C630.668 374.8 631.868 374.283 632.835 373.25C633.835 372.217 634.335 370.783 634.335 368.95Z" fill="white"/>
<defs>
<linearGradient id="paint0_linear_1529_901" x1="-0.0458984" y1="-53" x2="1090.9" y2="1142.09" gradientUnits="userSpaceOnUse">
<stop stop-color="#670CF5" stop-opacity="0.1"/>
<stop offset="1" stop-color="#400092" stop-opacity="0.1"/>
</linearGradient>
<linearGradient id="paint1_linear_1529_901" x1="962.959" y1="178.656" x2="1080.04" y2="178.656" gradientUnits="userSpaceOnUse">
<stop stop-color="#670CF5"/>
<stop offset="1" stop-color="#400092"/>
</linearGradient>
<linearGradient id="paint2_linear_1529_901" x1="731.302" y1="761.117" x2="400.265" y2="316.899" gradientUnits="userSpaceOnUse">
<stop stop-color="#1C1429"/>
<stop offset="1" stop-color="#1C1429" stop-opacity="0"/>
</linearGradient>
<linearGradient id="paint3_linear_1529_901" x1="830" y1="732" x2="572.483" y2="290.049" gradientUnits="userSpaceOnUse">
<stop stop-color="#0575E6"/>
<stop offset="0.629011" stop-color="#FF0CF5"/>
<stop offset="1" stop-color="#1D1028"/>
</linearGradient>
<linearGradient id="paint4_linear_1529_901" x1="526.904" y1="691.07" x2="473.278" y2="418.028" gradientUnits="userSpaceOnUse">
<stop stop-color="#260043"/>
<stop offset="1" stop-color="#4F36FE"/>
</linearGradient>
<linearGradient id="paint5_linear_1529_901" x1="488.821" y1="484" x2="494.38" y2="617.996" gradientUnits="userSpaceOnUse">
<stop stop-color="#0C011C"/>
<stop offset="1" stop-color="#400092"/>
</linearGradient>
<linearGradient id="paint6_linear_1529_901" x1="482.368" y1="636" x2="453.13" y2="511.381" gradientUnits="userSpaceOnUse">
<stop stop-color="#2B004C"/>
<stop offset="1" stop-color="#4F36FE"/>
</linearGradient>
<linearGradient id="paint7_linear_1529_901" x1="467.381" y1="543.116" x2="488.918" y2="562.608" gradientUnits="userSpaceOnUse">
<stop stop-color="#FF0CF5"/>
<stop offset="1" stop-color="#0575E6"/>
</linearGradient>
<linearGradient id="paint8_linear_1529_901" x1="258.269" y1="770.465" x2="429.342" y2="732.2" gradientUnits="userSpaceOnUse">
<stop stop-color="#3B0169"/>
<stop offset="1" stop-color="#5F47FE"/>
</linearGradient>
<linearGradient id="paint9_linear_1529_901" x1="640.292" y1="735.169" x2="739.059" y2="654.135" gradientUnits="userSpaceOnUse">
<stop stop-color="#3B0169"/>
<stop offset="1" stop-color="#5F47FE"/>
</linearGradient>
<linearGradient id="paint10_linear_1529_901" x1="513.895" y1="736.593" x2="410.701" y2="649.603" gradientUnits="userSpaceOnUse">
<stop stop-color="#3B0169"/>
<stop offset="1" stop-color="#5F47FE"/>
</linearGradient>
<linearGradient id="paint11_linear_1529_901" x1="541.412" y1="721.507" x2="558.863" y2="616.128" gradientUnits="userSpaceOnUse">
<stop stop-color="#3B0169"/>
<stop offset="1" stop-color="#5F47FE"/>
</linearGradient>
<linearGradient id="paint12_linear_1529_901" x1="306.82" y1="492.879" x2="339.576" y2="647.197" gradientUnits="userSpaceOnUse">
<stop stop-color="#3B0169"/>
<stop offset="1" stop-color="#5F47FE"/>
</linearGradient>
<linearGradient id="paint13_linear_1529_901" x1="280.653" y1="562.462" x2="355.653" y2="545.685" gradientUnits="userSpaceOnUse">
<stop stop-color="#FF006E"/>
<stop offset="1" stop-color="#FF64A0"/>
</linearGradient>
<linearGradient id="paint14_linear_1529_901" x1="593.062" y1="423.564" x2="635.402" y2="579.767" gradientUnits="userSpaceOnUse">
<stop stop-color="#3B0169"/>
<stop offset="1" stop-color="#5F47FE"/>
</linearGradient>
<linearGradient id="paint15_linear_1529_901" x1="576.32" y1="495.108" x2="651.32" y2="478.332" gradientUnits="userSpaceOnUse">
<stop stop-color="#FF006E"/>
<stop offset="1" stop-color="#FF64A0"/>
</linearGradient>
<linearGradient id="paint16_linear_1529_901" x1="272.944" y1="724.163" x2="358.273" y2="567.348" gradientUnits="userSpaceOnUse">
<stop stop-color="#3B0169"/>
<stop offset="1" stop-color="#5F47FE"/>
</linearGradient>
<linearGradient id="paint17_linear_1529_901" x1="286.403" y1="619.99" x2="390.942" y2="684.408" gradientUnits="userSpaceOnUse">
<stop stop-color="#0C011C"/>
<stop offset="1" stop-color="#400092"/>
</linearGradient>
<linearGradient id="paint18_linear_1529_901" x1="285.387" y1="615.727" x2="389.869" y2="680.403" gradientUnits="userSpaceOnUse">
<stop stop-color="#E1DCFE"/>
<stop offset="1" stop-color="#7E67FD"/>
</linearGradient>
<linearGradient id="paint19_linear_1529_901" x1="286.376" y1="619.349" x2="390.858" y2="684.025" gradientUnits="userSpaceOnUse">
<stop stop-color="#0C011C"/>
<stop offset="1" stop-color="#400092"/>
</linearGradient>
<linearGradient id="paint20_linear_1529_901" x1="285.386" y1="615.727" x2="389.868" y2="680.403" gradientUnits="userSpaceOnUse">
<stop stop-color="#E1DCFE"/>
<stop offset="1" stop-color="#7E67FD"/>
</linearGradient>
<linearGradient id="paint21_linear_1529_901" x1="286.377" y1="619.44" x2="390.859" y2="684.116" gradientUnits="userSpaceOnUse">
<stop stop-color="#0C011C"/>
<stop offset="1" stop-color="#400092"/>
</linearGradient>
<linearGradient id="paint22_linear_1529_901" x1="285.386" y1="615.727" x2="389.868" y2="680.403" gradientUnits="userSpaceOnUse">
<stop stop-color="#E1DCFE"/>
<stop offset="1" stop-color="#7E67FD"/>
</linearGradient>
<linearGradient id="paint23_linear_1529_901" x1="286.278" y1="619.295" x2="390.76" y2="683.971" gradientUnits="userSpaceOnUse">
<stop stop-color="#0C011C"/>
<stop offset="1" stop-color="#400092"/>
</linearGradient>
<linearGradient id="paint24_linear_1529_901" x1="285.386" y1="615.727" x2="389.868" y2="680.403" gradientUnits="userSpaceOnUse">
<stop stop-color="#E1DCFE"/>
<stop offset="1" stop-color="#7E67FD"/>
</linearGradient>
<linearGradient id="paint25_linear_1529_901" x1="608.715" y1="689.734" x2="644.13" y2="478.705" gradientUnits="userSpaceOnUse">
<stop stop-color="#3B0169"/>
<stop offset="1" stop-color="#5F47FE"/>
</linearGradient>
<linearGradient id="paint26_linear_1529_901" x1="606.724" y1="582.753" x2="597.969" y2="496.981" gradientUnits="userSpaceOnUse">
<stop stop-color="#E1DCFE" stop-opacity="0.01"/>
<stop offset="1" stop-color="white" stop-opacity="0.1"/>
</linearGradient>
<linearGradient id="paint27_linear_1529_901" x1="311.096" y1="651.879" x2="302.341" y2="566.107" gradientUnits="userSpaceOnUse">
<stop stop-color="#E1DCFE" stop-opacity="0.01"/>
<stop offset="1" stop-color="white" stop-opacity="0.1"/>
</linearGradient>
<linearGradient id="paint28_linear_1529_901" x1="602.094" y1="560.992" x2="696.365" y2="619.453" gradientUnits="userSpaceOnUse">
<stop stop-color="#0C011C"/>
<stop offset="1" stop-color="#400092"/>
</linearGradient>
<linearGradient id="paint29_linear_1529_901" x1="602.093" y1="560.992" x2="696.364" y2="619.453" gradientUnits="userSpaceOnUse">
<stop stop-color="#0C011C"/>
<stop offset="1" stop-color="#400092"/>
</linearGradient>
<linearGradient id="paint30_linear_1529_901" x1="602.094" y1="560.992" x2="696.365" y2="619.453" gradientUnits="userSpaceOnUse">
<stop stop-color="#0C011C"/>
<stop offset="1" stop-color="#400092"/>
</linearGradient>
<linearGradient id="paint31_linear_1529_901" x1="602.094" y1="560.992" x2="696.365" y2="619.453" gradientUnits="userSpaceOnUse">
<stop stop-color="#0C011C"/>
<stop offset="1" stop-color="#400092"/>
</linearGradient>
<linearGradient id="paint32_linear_1529_901" x1="601.103" y1="556.992" x2="695.374" y2="615.453" gradientUnits="userSpaceOnUse">
<stop stop-color="#E1DCFE"/>
<stop offset="1" stop-color="#7E67FD"/>
</linearGradient>
<linearGradient id="paint33_linear_1529_901" x1="601.103" y1="556.992" x2="695.374" y2="615.453" gradientUnits="userSpaceOnUse">
<stop stop-color="#E1DCFE"/>
<stop offset="1" stop-color="#7E67FD"/>
</linearGradient>
<linearGradient id="paint34_linear_1529_901" x1="601.104" y1="556.992" x2="695.375" y2="615.453" gradientUnits="userSpaceOnUse">
<stop stop-color="#E1DCFE"/>
<stop offset="1" stop-color="#7E67FD"/>
</linearGradient>
<linearGradient id="paint35_linear_1529_901" x1="601.103" y1="556.992" x2="695.374" y2="615.453" gradientUnits="userSpaceOnUse">
<stop stop-color="#E1DCFE"/>
<stop offset="1" stop-color="#7E67FD"/>
</linearGradient>
<linearGradient id="paint36_linear_1529_901" x1="539.856" y1="644.427" x2="594.082" y2="669.154" gradientUnits="userSpaceOnUse">
<stop stop-color="#0C011C"/>
<stop offset="1" stop-color="#400092"/>
</linearGradient>
<linearGradient id="paint37_linear_1529_901" x1="422.088" y1="671.407" x2="475.682" y2="700.819" gradientUnits="userSpaceOnUse">
<stop stop-color="#0C011C"/>
<stop offset="1" stop-color="#400092"/>
</linearGradient>
<linearGradient id="paint38_linear_1529_901" x1="538.866" y1="639.427" x2="593.092" y2="664.154" gradientUnits="userSpaceOnUse">
<stop stop-color="#E1DCFE"/>
<stop offset="1" stop-color="#7E67FD"/>
</linearGradient>
<linearGradient id="paint39_linear_1529_901" x1="549.095" y1="638.39" x2="553.016" y2="650.909" gradientUnits="userSpaceOnUse">
<stop stop-color="#E1DCFE"/>
<stop offset="1" stop-color="#DFD9FF"/>
</linearGradient>
<linearGradient id="paint40_linear_1529_901" x1="421.097" y1="666.407" x2="474.691" y2="695.819" gradientUnits="userSpaceOnUse">
<stop stop-color="#E1DCFE"/>
<stop offset="1" stop-color="#7E67FD"/>
</linearGradient>
<linearGradient id="paint41_linear_1529_901" x1="431.185" y1="666.835" x2="436.14" y2="678.975" gradientUnits="userSpaceOnUse">
<stop stop-color="#E1DCFE"/>
<stop offset="1" stop-color="#DFD9FF"/>
</linearGradient>
<linearGradient id="paint42_linear_1529_901" x1="457.225" y1="623.27" x2="475.976" y2="619.076" gradientUnits="userSpaceOnUse">
<stop stop-color="#0C011C"/>
<stop offset="1" stop-color="#400092"/>
</linearGradient>
<linearGradient id="paint43_linear_1529_901" x1="504.21" y1="612.566" x2="522.96" y2="608.372" gradientUnits="userSpaceOnUse">
<stop stop-color="#0C011C"/>
<stop offset="1" stop-color="#400092"/>
</linearGradient>
<linearGradient id="paint44_linear_1529_901" x1="456.234" y1="621.27" x2="474.984" y2="617.076" gradientUnits="userSpaceOnUse">
<stop stop-color="#3AA0FE"/>
<stop offset="1" stop-color="#59FEF4"/>
</linearGradient>
<linearGradient id="paint45_linear_1529_901" x1="503.22" y1="610.566" x2="521.97" y2="606.372" gradientUnits="userSpaceOnUse">
<stop stop-color="#3AA0FE"/>
<stop offset="1" stop-color="#59FEF4"/>
</linearGradient>
<linearGradient id="paint46_linear_1529_901" x1="592.344" y1="773.369" x2="787.561" y2="517.165" gradientUnits="userSpaceOnUse">
<stop stop-color="#FF0CF5"/>
<stop offset="1" stop-color="#0575E6"/>
</linearGradient>
<linearGradient id="paint47_linear_1529_901" x1="108.954" y1="413.909" x2="128.772" y2="413.909" gradientUnits="userSpaceOnUse">
<stop stop-color="#A83AFE"/>
<stop offset="1" stop-color="#6E59FE"/>
</linearGradient>
<linearGradient id="paint48_linear_1529_901" x1="108.954" y1="394.172" x2="89.1358" y2="394.172" gradientUnits="userSpaceOnUse">
<stop stop-color="#E1DCFE"/>
<stop offset="1" stop-color="#7E67FD"/>
</linearGradient>
<linearGradient id="paint49_linear_1529_901" x1="971.245" y1="738.977" x2="968.819" y2="758.827" gradientUnits="userSpaceOnUse">
<stop stop-color="#A83AFE"/>
<stop offset="1" stop-color="#6E59FE"/>
</linearGradient>
<linearGradient id="paint50_linear_1529_901" x1="990.661" y1="741.349" x2="993.087" y2="721.499" gradientUnits="userSpaceOnUse">
<stop stop-color="#E1DCFE"/>
<stop offset="1" stop-color="#7E67FD"/>
</linearGradient>
</defs>
</svg>
