<svg width="90" height="90" viewBox="0 0 90 90" fill="none" xmlns="http://www.w3.org/2000/svg">
<path fill-rule="evenodd" clip-rule="evenodd" d="M45.0003 0C69.8366 0 90.0005 20.1639 90.0005 45C90.0005 69.8361 69.8366 90 45.0003 90C20.164 90 0 69.8361 0 45C0 20.1639 20.164 0 45.0003 0ZM45.0003 7.50021C65.6972 7.50021 82.5003 24.3032 82.5003 45C82.5003 65.6968 65.6972 82.4998 45.0003 82.4998C24.3034 82.4998 7.50026 65.6968 7.50026 45C7.50026 24.3032 24.3034 7.50021 45.0003 7.50021Z" fill="url(#paint0_linear_289_177)"/>
<path fill-rule="evenodd" clip-rule="evenodd" d="M23.4012 47.6522L36.0327 60.2835C37.4973 61.7475 39.872 61.7475 41.3366 60.2835L66.5995 35.0208C68.0628 33.5568 68.0628 31.1809 66.5995 29.7169C65.1355 28.2535 62.7596 28.2535 61.2956 29.7169L38.6846 52.3283L28.7051 42.3483C27.2412 40.8849 24.8652 40.8849 23.4012 42.3483C21.9379 43.8122 21.9379 46.1882 23.4012 47.6522Z" fill="url(#paint1_linear_289_177)"/>
<defs>
<linearGradient id="paint0_linear_289_177" x1="0" y1="45" x2="90.0005" y2="45" gradientUnits="userSpaceOnUse">
<stop stop-color="#36FF78"/>
<stop offset="1" stop-color="#0CFFFF"/>
</linearGradient>
<linearGradient id="paint1_linear_289_177" x1="22.5" y1="48.7505" x2="63.7501" y2="60.0006" gradientUnits="userSpaceOnUse">
<stop stop-color="#36FF78"/>
<stop offset="1" stop-color="#0CFFFF"/>
</linearGradient>
</defs>
</svg>
