<svg width="120" height="120" viewBox="0 0 120 120" fill="none" xmlns="http://www.w3.org/2000/svg">
<path fill-rule="evenodd" clip-rule="evenodd" d="M60.0002 0C93.1151 0 120 26.8851 120 59.9998C120 93.1146 93.1151 120 60.0002 120C26.8852 120 0 93.1146 0 59.9998C0 26.8851 26.8852 0 60.0002 0ZM60.0002 10.0002C87.596 10.0002 110 32.4042 110 59.9998C110 87.5954 87.596 109.999 60.0002 109.999C32.4044 109.999 10.0003 87.5954 10.0003 59.9998C10.0003 32.4042 32.4044 10.0002 60.0002 10.0002Z" fill="url(#paint0_linear_298_207)"/>
<path fill-rule="evenodd" clip-rule="evenodd" d="M31.2016 63.5361L48.0435 80.3779C49.9963 82.3299 53.1626 82.3299 55.1154 80.3779L88.7991 46.6943C90.7503 44.7424 90.7503 41.5745 88.7991 39.6225C86.8472 37.6714 83.6792 37.6714 81.7273 39.6225L51.5794 69.771L38.2735 56.4643C36.3215 54.5132 33.1536 54.5132 31.2016 56.4643C29.2505 58.4163 29.2505 61.5842 31.2016 63.5361Z" fill="url(#paint1_linear_298_207)"/>
<defs>
<linearGradient id="paint0_linear_298_207" x1="0" y1="59.9998" x2="120" y2="59.9998" gradientUnits="userSpaceOnUse">
<stop stop-color="#36FF78"/>
<stop offset="1" stop-color="#0CFFFF"/>
</linearGradient>
<linearGradient id="paint1_linear_298_207" x1="30" y1="65.0005" x2="85" y2="80.0007" gradientUnits="userSpaceOnUse">
<stop stop-color="#36FF78"/>
<stop offset="1" stop-color="#0CFFFF"/>
</linearGradient>
</defs>
</svg>
