<svg width="48" height="48" viewBox="0 0 48 48" fill="none" xmlns="http://www.w3.org/2000/svg">
<g clip-path="url(#clip0_1491_920)">
<path d="M24 48C37.2548 48 48 37.2548 48 24C48 10.7452 37.2548 0 24 0C10.7452 0 0 10.7452 0 24C0 37.2548 10.7452 48 24 48Z" fill="url(#paint0_linear_1491_920)"/>
<path fill-rule="evenodd" clip-rule="evenodd" d="M6.09375 39.974C6.42373 39.7657 6.77834 39.5894 7.15413 39.4498C13.1499 37.2228 24.2784 33.0894 24.2784 33.0894C24.2784 33.0894 35.4071 37.2228 41.403 39.4498C41.6422 39.5387 41.8729 39.6425 42.0943 39.7601C37.6927 44.8083 31.216 48.0002 23.9996 48.0002C16.8852 48.0002 10.4897 44.8979 6.09375 39.974Z" fill="#1E30FF"/>
<path fill-rule="evenodd" clip-rule="evenodd" d="M19.7715 28.3237C19.7715 28.3237 19.6485 33.4679 19.602 35.4155C19.591 35.8771 19.8036 36.3153 20.1729 36.5921C20.7144 36.9984 21.549 37.6242 22.3246 38.2061C23.4838 39.0754 25.0776 39.0754 26.2367 38.2061C27.0124 37.6242 27.8468 36.9984 28.3885 36.5921C28.7577 36.3153 28.9704 35.8771 28.9594 35.4155C28.9129 33.4679 28.7899 28.3237 28.7899 28.3237H19.7715Z" fill="#FDAB5B"/>
<path fill-rule="evenodd" clip-rule="evenodd" d="M26.3915 28.3237C27.322 28.5048 28.1486 28.8019 28.8105 29.1823L28.9167 33.6328C27.7828 34.319 26.1254 34.7521 24.2806 34.7521C22.4358 34.7521 20.7785 34.319 19.6445 33.6328L19.7509 29.1823C20.4127 28.8019 21.2395 28.5046 22.1699 28.3237H26.3915Z" fill="#FD9E52"/>
<path fill-rule="evenodd" clip-rule="evenodd" d="M13.0092 18.996C13.0092 18.996 11.4473 11.6447 14.969 7.82331C16.3383 6.31249 18.5022 5.8115 20.3961 6.56654C20.4026 6.55085 20.4026 6.55085 20.4026 6.55085C20.4026 6.55085 20.57 6.56965 20.7722 6.42236C23.893 4.14848 36.7601 2.36536 35.1494 19.1862" fill="#433F43"/>
<path fill-rule="evenodd" clip-rule="evenodd" d="M15.449 18.384C15.449 18.384 12.5393 17.1444 12.6617 20.7652C12.6617 20.7652 12.4 25.1613 15.4988 24.3372" fill="#FDAB55"/>
<path fill-rule="evenodd" clip-rule="evenodd" d="M32.7492 18.384C32.7492 18.384 35.6588 17.1444 35.5363 20.7652C35.5363 20.7652 35.798 25.1613 32.6992 24.3372" fill="#FDAB55"/>
<path fill-rule="evenodd" clip-rule="evenodd" d="M16.6777 14.072C15.5295 14.9745 14.8594 16.3541 14.8594 17.8145V22.4351C14.8594 26.1879 16.6292 29.7207 19.6349 31.9676C20.1257 32.3345 20.5889 32.6807 20.9851 32.9769C21.8081 33.5921 22.8078 33.9245 23.8354 33.9245C24.0115 33.9245 24.1907 33.9245 24.3667 33.9245C25.3942 33.9245 26.3942 33.5921 27.2171 32.9769C27.6133 32.6807 28.0763 32.3345 28.5673 31.9676C31.5729 29.7207 33.3428 26.1879 33.3428 22.4351C33.3428 21.1598 33.3428 19.8588 33.3428 18.7335C33.3428 16.7825 32.1523 15.0289 30.3389 14.3089C27.7739 13.2905 24.2106 11.8759 22.3342 11.1309C21.5462 10.818 20.6513 10.948 19.9848 11.472C19.0748 12.1874 17.7516 13.2277 16.6777 14.072Z" fill="url(#paint1_linear_1491_920)"/>
<path d="M19.1372 22.5928C19.8451 22.5928 20.419 21.8301 20.419 20.8894C20.419 19.9487 19.8451 19.186 19.1372 19.186C18.4293 19.186 17.8555 19.9487 17.8555 20.8894C17.8555 21.8301 18.4293 22.5928 19.1372 22.5928Z" fill="#433F43"/>
<path d="M28.4771 22.5928C29.185 22.5928 29.7588 21.8301 29.7588 20.8894C29.7588 19.9487 29.185 19.186 28.4771 19.186C27.7692 19.186 27.1953 19.9487 27.1953 20.8894C27.1953 21.8301 27.7692 22.5928 28.4771 22.5928Z" fill="#433F43"/>
<path fill-rule="evenodd" clip-rule="evenodd" d="M23.1789 21.5404C23.1789 21.5404 22.5313 23.1333 22.4019 24.4178C22.3563 24.8704 22.3768 25.29 22.4786 25.6174C22.5742 25.925 22.7394 26.1664 22.9661 26.3327C23.1931 26.499 23.4892 26.5995 23.8784 26.5742C24.273 26.5484 24.81 26.3758 25.5106 25.9628C25.7935 25.7961 25.8879 25.4309 25.7211 25.148C25.5542 24.8651 25.1892 24.7708 24.9062 24.9376C24.4926 25.1814 24.1664 25.3242 23.9064 25.3727C23.8025 25.392 23.7239 25.4125 23.6697 25.3727C23.6178 25.3347 23.6107 25.2619 23.5952 25.1854C23.5574 24.9982 23.5622 24.7748 23.5861 24.5372C23.7007 23.3996 24.2805 21.9908 24.2805 21.9908C24.4048 21.6867 24.259 21.3391 23.9549 21.2148C23.651 21.0905 23.3032 21.2363 23.1789 21.5404Z" fill="#FF9241"/>
<path fill-rule="evenodd" clip-rule="evenodd" d="M20.3208 29.0142C20.3208 29.0142 22.0349 30.9816 24.4565 30.784C25.4796 30.7006 26.6406 30.2405 27.8439 29.0474C28.0771 28.816 28.0786 28.4389 27.8473 28.2058C27.6161 27.9726 27.239 27.971 27.0058 28.2022C26.0602 29.1399 25.1637 29.5321 24.3597 29.5978C22.5177 29.7482 21.2208 28.2354 21.2208 28.2354C21.006 27.987 20.6298 27.9598 20.3814 28.1748C20.133 28.3896 20.1058 28.7658 20.3208 29.0142Z" fill="#FF515E"/>
</g>
<defs>
<linearGradient id="paint0_linear_1491_920" x1="17.1381" y1="0.996961" x2="37.6085" y2="43.7973" gradientUnits="userSpaceOnUse">
<stop stop-color="#A83AFE"/>
<stop offset="1" stop-color="#6E59FE"/>
</linearGradient>
<linearGradient id="paint1_linear_1491_920" x1="24.0224" y1="19.6287" x2="24.0224" y2="32.8191" gradientUnits="userSpaceOnUse">
<stop stop-color="#FED2A4"/>
<stop offset="1" stop-color="#FFBD86"/>
</linearGradient>
<clipPath id="clip0_1491_920">
<rect width="48" height="48" fill="white"/>
</clipPath>
</defs>
</svg>
