<svg width="59" height="58" viewBox="0 0 59 58" fill="none" xmlns="http://www.w3.org/2000/svg">
<g clip-path="url(#clip0_180_417)">
<path d="M29.5 58C45.5163 58 58.5 45.0163 58.5 29C58.5 12.9837 45.5163 0 29.5 0C13.4837 0 0.5 12.9837 0.5 29C0.5 45.0163 13.4837 58 29.5 58Z" fill="url(#paint0_linear_180_417)"/>
<path fill-rule="evenodd" clip-rule="evenodd" d="M7.86426 48.3018C8.26298 48.0502 8.69147 47.8372 9.14555 47.6685C16.3905 44.9775 29.8374 39.9829 29.8374 39.9829C29.8374 39.9829 43.2846 44.9775 50.5295 47.6685C50.8187 47.7759 51.0974 47.9013 51.3649 48.0434C46.0463 54.1433 38.2203 58.0002 29.5005 58.0002C20.9039 58.0002 13.176 54.2516 7.86426 48.3018Z" fill="#1E30FF"/>
<path fill-rule="evenodd" clip-rule="evenodd" d="M24.389 34.2246C24.389 34.2246 24.2403 40.4405 24.1841 42.7938C24.1708 43.3516 24.4278 43.8811 24.8739 44.2156C25.5282 44.7065 26.5367 45.4627 27.474 46.1658C28.8746 47.2162 30.8005 47.2162 32.2011 46.1658C33.1384 45.4627 34.1466 44.7065 34.8012 44.2156C35.2473 43.8811 35.5042 43.3516 35.491 42.7938C35.4348 40.4405 35.2861 34.2246 35.2861 34.2246H24.389Z" fill="#FDAB5B"/>
<path fill-rule="evenodd" clip-rule="evenodd" d="M32.388 34.2246C33.5123 34.4434 34.5111 34.8024 35.3109 35.262L35.4393 40.6397C34.0691 41.4689 32.0665 41.9922 29.8373 41.9922C27.6082 41.9922 25.6055 41.4689 24.2354 40.6397L24.3639 35.262C25.1636 34.8024 26.1626 34.4432 27.2869 34.2246H32.388Z" fill="#FD9E52"/>
<path fill-rule="evenodd" clip-rule="evenodd" d="M16.2159 22.9536C16.2159 22.9536 14.3285 14.0707 18.5839 9.45324C20.2386 7.62768 22.8532 7.02231 25.1417 7.93466C25.1496 7.91569 25.1496 7.91569 25.1496 7.91569C25.1496 7.91569 25.3518 7.9384 25.5962 7.76043C29.3671 5.01282 44.9148 2.85822 42.9686 23.1834" fill="#433F43"/>
<path fill-rule="evenodd" clip-rule="evenodd" d="M19.1646 22.2142C19.1646 22.2142 15.6487 20.7164 15.7966 25.0915C15.7966 25.0915 15.4804 30.4035 19.2248 29.4078" fill="#FDAB55"/>
<path fill-rule="evenodd" clip-rule="evenodd" d="M40.0682 22.2142C40.0682 22.2142 43.584 20.7164 43.436 25.0915C43.436 25.0915 43.7522 30.4035 40.0078 29.4078" fill="#FDAB55"/>
<path fill-rule="evenodd" clip-rule="evenodd" d="M20.6464 17.0039C19.259 18.0944 18.4492 19.7615 18.4492 21.5262V27.1094C18.4492 31.644 20.5877 35.9128 24.2197 38.6278C24.8127 39.071 25.3724 39.4894 25.8512 39.8473C26.8455 40.5907 28.0536 40.9923 29.2952 40.9923C29.508 40.9923 29.7246 40.9923 29.9372 40.9923C31.1788 40.9923 32.3871 40.5907 33.3815 39.8473C33.8602 39.4894 34.4197 39.071 35.013 38.6278C38.6447 35.9128 40.7834 31.644 40.7834 27.1094C40.7834 25.5683 40.7834 23.9963 40.7834 22.6365C40.7834 20.279 39.3449 18.1602 37.1537 17.2902C34.0543 16.0596 29.7486 14.3502 27.4813 13.45C26.5291 13.072 25.4478 13.2291 24.6424 13.8622C23.5429 14.7267 21.944 15.9837 20.6464 17.0039Z" fill="url(#paint1_linear_180_417)"/>
<path d="M23.6201 27.3C24.4755 27.3 25.1689 26.3785 25.1689 25.2418C25.1689 24.1051 24.4755 23.1836 23.6201 23.1836C22.7647 23.1836 22.0713 24.1051 22.0713 25.2418C22.0713 26.3785 22.7647 27.3 23.6201 27.3Z" fill="#433F43"/>
<path d="M34.9043 27.3C35.7596 27.3 36.4531 26.3785 36.4531 25.2418C36.4531 24.1051 35.7596 23.1836 34.9043 23.1836C34.0489 23.1836 33.3555 24.1051 33.3555 25.2418C33.3555 26.3785 34.0489 27.3 34.9043 27.3Z" fill="#433F43"/>
<path fill-rule="evenodd" clip-rule="evenodd" d="M28.5038 26.0276C28.5038 26.0276 27.7213 27.9524 27.5649 29.5045C27.5098 30.0514 27.5345 30.5584 27.6576 30.9541C27.7731 31.3257 27.9727 31.6174 28.2466 31.8183C28.521 32.0192 28.8787 32.1408 29.3491 32.1101C29.8258 32.079 30.4746 31.8704 31.3213 31.3713C31.6631 31.17 31.7771 30.7287 31.5755 30.3869C31.374 30.045 30.9329 29.931 30.5909 30.1326C30.0911 30.4272 29.6971 30.5997 29.3828 30.6583C29.2573 30.6817 29.1623 30.7064 29.0968 30.6583C29.0341 30.6125 29.0255 30.5245 29.0068 30.4321C28.9611 30.2058 28.9669 29.9359 28.9958 29.6487C29.1343 28.2742 29.8349 26.5719 29.8349 26.5719C29.9851 26.2045 29.8089 25.7844 29.4415 25.6342C29.0743 25.484 28.6539 25.6602 28.5038 26.0276Z" fill="#FF9241"/>
<path fill-rule="evenodd" clip-rule="evenodd" d="M25.0522 35.0591C25.0522 35.0591 27.1234 37.4364 30.0495 37.1976C31.2858 37.0968 32.6886 36.5409 34.1425 35.0992C34.4244 34.8196 34.4261 34.364 34.1467 34.0824C33.8673 33.8005 33.4117 33.7985 33.1299 34.078C31.9873 35.2111 30.904 35.685 29.9326 35.7644C27.7067 35.9461 26.1396 34.1181 26.1396 34.1181C25.8801 33.8179 25.4256 33.7851 25.1254 34.0449C24.8253 34.3044 24.7924 34.759 25.0522 35.0591Z" fill="#FF515E"/>
</g>
<defs>
<linearGradient id="paint0_linear_180_417" x1="21.2085" y1="1.20466" x2="45.9436" y2="52.9217" gradientUnits="userSpaceOnUse">
<stop stop-color="#A83AFE"/>
<stop offset="1" stop-color="#6E59FE"/>
</linearGradient>
<linearGradient id="paint1_linear_180_417" x1="29.5213" y1="23.7182" x2="29.5213" y2="39.6566" gradientUnits="userSpaceOnUse">
<stop stop-color="#FED2A4"/>
<stop offset="1" stop-color="#FFBD86"/>
</linearGradient>
<clipPath id="clip0_180_417">
<rect width="58" height="58" fill="white" transform="translate(0.5)"/>
</clipPath>
</defs>
</svg>
