<svg width="48" height="48" viewBox="0 0 48 48" fill="none" xmlns="http://www.w3.org/2000/svg">
<g clip-path="url(#clip0_1491_905)">
<path d="M24.0078 48.0003C37.2626 48.0003 48.0077 37.2552 48.0077 24.0004C48.0077 10.7456 37.2626 0.000488281 24.0078 0.000488281C10.753 0.000488281 0.0078125 10.7456 0.0078125 24.0004C0.0078125 37.2552 10.753 48.0003 24.0078 48.0003Z" fill="url(#paint0_linear_1491_905)"/>
<mask id="mask0_1491_905" style="mask-type:luminance" maskUnits="userSpaceOnUse" x="0" y="0" width="49" height="49">
<path d="M24.0078 48.0003C37.2626 48.0003 48.0077 37.2552 48.0077 24.0004C48.0077 10.7456 37.2626 0.000488281 24.0078 0.000488281C10.753 0.000488281 0.0078125 10.7456 0.0078125 24.0004C0.0078125 37.2552 10.753 48.0003 24.0078 48.0003Z" fill="white"/>
</mask>
<g mask="url(#mask0_1491_905)">
<path fill-rule="evenodd" clip-rule="evenodd" d="M42.0859 39.7649C37.6699 44.8096 31.1898 48.0016 23.9898 48.0016C16.8858 48.0016 10.5019 44.9008 6.08594 39.9808C6.42194 39.7648 6.80584 39.5825 7.18984 39.4385L24.2781 33.0881L41.3659 39.4385C41.6059 39.5297 41.8459 39.6401 42.0859 39.7649Z" fill="url(#paint1_linear_1491_905)"/>
<path fill-rule="evenodd" clip-rule="evenodd" d="M18.7772 27.0659C18.7772 27.0659 18.6204 33.6404 18.5668 35.8864C18.5554 36.351 18.7695 36.7928 19.1424 37.072C19.8863 37.6304 21.2001 38.6161 22.3131 39.4509C23.4824 40.3276 25.0887 40.3276 26.2581 39.4509C27.371 38.6161 28.6848 37.6304 29.4287 37.072C29.8016 36.7928 30.0158 36.351 30.0043 35.8864C29.9508 33.6404 29.7939 27.0659 29.7939 27.0659H18.7772Z" fill="#454545"/>
<path fill-rule="evenodd" clip-rule="evenodd" d="M17.849 12.5681C15.4727 13.8351 13.9883 16.3085 13.9883 19.0013C13.9883 20.1816 13.9883 21.4796 13.9883 22.7324C13.9883 26.5159 15.7729 30.078 18.8032 32.3437C19.5393 32.8939 20.2402 33.4178 20.804 33.839C21.6336 34.4593 22.6416 34.7945 23.6776 34.7945C24.007 34.7945 24.3526 34.7945 24.6768 34.7945C25.6193 34.7945 26.5367 34.4896 27.2919 33.9249C28.0563 33.3537 29.1069 32.5684 30.1587 31.7822C32.7163 29.8699 34.2225 26.8636 34.2225 23.6702V19.0925C34.2225 16.3476 32.6968 13.8298 30.2639 12.5592C29.9102 12.3745 29.5484 12.1857 29.1862 11.9966C25.941 10.302 22.0682 10.3186 18.8376 12.0409C18.5054 12.2184 18.1735 12.3951 17.849 12.5681Z" fill="url(#paint2_linear_1491_905)"/>
</g>
</g>
<defs>
<linearGradient id="paint0_linear_1491_905" x1="17.1459" y1="0.99735" x2="37.6163" y2="43.7976" gradientUnits="userSpaceOnUse">
<stop stop-color="#A83AFE"/>
<stop offset="1" stop-color="#6E59FE"/>
</linearGradient>
<linearGradient id="paint1_linear_1491_905" x1="25.2859" y1="34.7969" x2="25.2859" y2="49.7364" gradientUnits="userSpaceOnUse">
<stop stop-color="#454545"/>
<stop offset="1" stop-color="#5E5B5A"/>
</linearGradient>
<linearGradient id="paint2_linear_1491_905" x1="24.0002" y1="10.8748" x2="24.3055" y2="34.7947" gradientUnits="userSpaceOnUse">
<stop stop-color="#454545"/>
<stop offset="1" stop-color="#5E5B5A"/>
</linearGradient>
<clipPath id="clip0_1491_905">
<rect width="48" height="48" fill="white"/>
</clipPath>
</defs>
</svg>
