<svg width="20" height="20" viewBox="0 0 20 20" fill="none" xmlns="http://www.w3.org/2000/svg">
<path d="M15 4H5L6.70313 1.4453C6.8886 1.1671 7.20083 1 7.53518 1H12.4648C12.7992 1 13.1114 1.1671 13.2969 1.4453L15 4Z" fill="#DCDCDC"/>
<path d="M1 4H19M5 4L6.70313 1.4453C6.8886 1.1671 7.20083 1 7.53518 1H12.4648C12.7992 1 13.1114 1.1671 13.2969 1.4453L15 4H5Z" stroke="#DCDCDC" stroke-width="2" stroke-linecap="round"/>
<path d="M2.17724 8.15206L3.86955 19.1521C3.9446 19.6399 4.36435 20 4.85792 20H15.1421C15.6357 20 16.0554 19.6399 16.1305 19.1521L17.8228 8.15206C17.916 7.5463 17.4473 7 16.8344 7H3.16561C2.55273 7 2.08405 7.5463 2.17724 8.15206Z" fill="#DCDCDC"/>
</svg>
