<svg width="20" height="20" viewBox="0 0 20 20" fill="none" xmlns="http://www.w3.org/2000/svg">
<g clip-path="url(#clip0_1_442)">
<path d="M12.2252 12.3831V14.6177C12.2252 15.0271 11.9879 15.1256 11.6992 14.8356L7.39527 10.5261C7.10658 10.236 7.10658 9.76269 7.39527 9.47262L11.6992 5.1645C11.9879 4.87442 12.2252 4.97296 12.2252 5.3824V7.61696C12.2252 8.0264 12.5597 8.36228 12.9692 8.36228H19.9282C19.1468 3.61696 15.033 -0.00274658 10.0712 -0.00274658C4.5528 -0.00274658 0.078125 4.47609 0.078125 10C0.078125 15.524 4.5528 20.0028 10.0712 20.0028C15.033 20.0028 19.1468 16.3831 19.9282 11.6378H12.9692C12.5597 11.6378 12.2252 11.9737 12.2252 12.3831Z" fill="#DCDCDC"/>
</g>
<defs>
<clipPath id="clip0_1_442">
<rect width="20" height="20.0056" fill="white" transform="translate(0 -0.00274658)"/>
</clipPath>
</defs>
</svg>
