<svg width="20" height="20" viewBox="0 0 20 20" fill="none" xmlns="http://www.w3.org/2000/svg">
<path fill-rule="evenodd" clip-rule="evenodd" d="M1.46793 10.4868L1.19194 6.071C1.07877 4.26044 2.19823 2.60041 3.91923 2.02675L9.0513 0.316059C9.6671 0.110792 10.3329 0.110793 10.9487 0.31606L16.0807 2.02675C17.8017 2.60042 18.9212 4.26043 18.808 6.07099L18.5321 10.4867C18.5107 10.8286 18.4732 11.1691 18.3798 11.4986C18.1034 12.474 17.2629 14.7369 15 16.9998C12 19.9998 9.99998 19.9998 9.99998 19.9998C9.99998 19.9998 7.99998 19.9998 4.99998 16.9998C2.73703 14.7369 1.89657 12.4739 1.62019 11.4986C1.52682 11.1691 1.48929 10.8286 1.46793 10.4868ZM13 7.99983C13 9.30605 12.1652 10.4173 11 10.8291V12.9998C11 13.5521 10.5523 13.9998 9.99998 13.9998C9.4477 13.9998 8.99998 13.5521 8.99998 12.9998V10.8291C7.83479 10.4173 6.99998 9.30605 6.99998 7.99983C6.99998 6.34298 8.34313 4.99983 9.99998 4.99983C11.6568 4.99983 13 6.34298 13 7.99983Z" fill="#DCDCDC"/>
</svg>
