<svg width="20" height="20" viewBox="0 0 20 20" fill="none" xmlns="http://www.w3.org/2000/svg">
<g clip-path="url(#clip0_1_427)">
<path fill-rule="evenodd" clip-rule="evenodd" d="M19.8839 5.80068C18.8203 4.01408 17.3063 2.53804 15.4932 1.52019C13.6802 0.502347 11.6317 -0.0216251 9.55261 0.000683725H9.37136C9.24911 0.00144345 9.12851 0.0289565 9.01803 0.0812906C8.90755 0.133625 8.80987 0.209511 8.73184 0.30362C8.65381 0.397729 8.59734 0.50778 8.56637 0.626042C8.53541 0.744305 8.53071 0.867912 8.55261 0.988184L10.0839 8.95068C10.1085 9.06706 10.1575 9.1769 10.2276 9.273C10.2977 9.36911 10.3874 9.4493 10.4907 9.50832C10.5939 9.56734 10.7085 9.60385 10.8269 9.61546C10.9453 9.62707 11.0648 9.61352 11.1776 9.57568L19.3964 7.00068C19.5154 6.96495 19.6249 6.90298 19.7168 6.81935C19.8087 6.73571 19.8807 6.63254 19.9274 6.51741C19.9742 6.40228 19.9946 6.27813 19.987 6.1541C19.9795 6.03006 19.9442 5.9093 19.8839 5.80068Z" fill="#DCDCDC"/>
<path fill-rule="evenodd" clip-rule="evenodd" d="M17.9688 9.4937L9.6875 12.0875C9.57508 12.1232 9.45643 12.1352 9.33912 12.1227C9.2218 12.1101 9.10839 12.0733 9.00609 12.0145C8.9038 11.9557 8.81487 11.8762 8.74495 11.7812C8.67504 11.6862 8.62567 11.5776 8.6 11.4625L7.04375 3.34995C7.01881 3.2271 6.96719 3.11121 6.89255 3.0105C6.81791 2.90978 6.72206 2.82668 6.61178 2.76706C6.5015 2.70745 6.37947 2.67278 6.25432 2.66551C6.12917 2.65823 6.00395 2.67852 5.8875 2.72495C4.18328 3.35095 2.70861 4.47841 1.65767 5.95887C0.606732 7.43934 0.0288085 9.20337 0 11.0187C0 15.9812 4.275 20 9.55625 20C14.8375 20 19.1125 15.9812 19.1125 11.0187C19.1125 10.7437 19.1125 10.4687 19.0688 10.1937C19.0537 10.0699 19.0114 9.95104 18.9449 9.84558C18.8784 9.74012 18.7894 9.6507 18.6842 9.58376C18.579 9.51683 18.4603 9.47403 18.3366 9.45846C18.2129 9.44289 18.0872 9.45492 17.9688 9.4937Z" fill="#DCDCDC"/>
</g>
<defs>
<clipPath id="clip0_1_427">
<rect width="20" height="20" fill="white"/>
</clipPath>
</defs>
</svg>
