<svg width="20" height="20" viewBox="0 0 20 20" fill="none" xmlns="http://www.w3.org/2000/svg">
<g clip-path="url(#clip0_129_1590)">
<path fill-rule="evenodd" clip-rule="evenodd" d="M0.384165 2.81227C0.649066 1.11105 2.16132 0 3.88304 0H16.117C17.8387 0 19.3509 1.11105 19.6158 2.81227C19.8218 4.13494 20 5.88926 20 8V12.0011C20 14.2102 18.2091 16 16 16H14.5C13.8705 16 13.2777 16.2964 12.9 16.8L10.8 19.6C10.6111 19.8518 10.3148 20 10 20C9.68524 20 9.38885 19.8518 9.2 19.6L7.1 16.8C6.72229 16.2964 6.12951 16 5.5 16H4C1.79086 16 0 14.2102 0 12.0011V8C0 5.88926 0.178209 4.13494 0.384165 2.81227ZM4 5C4 4.44772 4.44772 4 5 4H14C14.5523 4 15 4.44772 15 5C15 5.55228 14.5523 6 14 6H5C4.44772 6 4 5.55228 4 5ZM5 9C4.44772 9 4 9.44771 4 10C4 10.5523 4.44772 11 5 11H10C10.5523 11 11 10.5523 11 10C11 9.44771 10.5523 9 10 9H5Z" fill="#DCDCDC"/>
</g>
<defs>
<clipPath id="clip0_129_1590">
<rect width="20" height="20" fill="white"/>
</clipPath>
</defs>
</svg>
