<svg width="20" height="20" viewBox="0 0 20 20" fill="none" xmlns="http://www.w3.org/2000/svg">
<g clip-path="url(#clip0_129_1594)">
<path d="M19.025 9.72501H15V1.38751C15.0008 1.20507 14.9655 1.02428 14.8961 0.855564C14.8266 0.686851 14.7245 0.533565 14.5955 0.404559C14.4665 0.275552 14.3132 0.173381 14.1445 0.103946C13.9758 0.0345107 13.795 -0.000813202 13.6125 1.42059e-05H1.38751C1.20507 -0.000813202 1.02428 0.0345107 0.855564 0.103946C0.686851 0.173381 0.533565 0.275552 0.404559 0.404559C0.275552 0.533565 0.173381 0.686851 0.103946 0.855564C0.0345107 1.02428 -0.000813202 1.20507 1.42059e-05 1.38751V16.25C1.42059e-05 17.2446 0.395102 18.1984 1.09836 18.9017C1.80163 19.6049 2.75545 20 3.75001 20H16.6125C17.5189 19.9772 18.3805 19.601 19.0133 18.9518C19.6462 18.3026 20.0003 17.4317 20 16.525V10.6938C20 10.566 19.9748 10.4395 19.9257 10.3216C19.8766 10.2036 19.8047 10.0966 19.7141 10.0065C19.6234 9.9165 19.5159 9.84527 19.3977 9.79695C19.2794 9.74864 19.1528 9.72419 19.025 9.72501ZM7.22501 12.5H3.33126V10H7.22501V12.5ZM11.3875 7.50001H3.33126V5.00001H11.3875V7.50001ZM18.0563 16.4375C18.0647 16.8272 17.9301 17.2064 17.6779 17.5035C17.4257 17.8007 17.0734 17.9951 16.6875 18.05C16.4744 18.0709 16.2593 18.0471 16.056 17.98C15.8526 17.9129 15.6655 17.8041 15.5066 17.6606C15.3478 17.517 15.2207 17.3418 15.1334 17.1463C15.0462 16.9507 15.0007 16.7391 15 16.525V11.6688H18.0563V16.4375Z" fill="#DCDCDC"/>
</g>
<defs>
<clipPath id="clip0_129_1594">
<rect width="20" height="20" fill="white"/>
</clipPath>
</defs>
</svg>
