<svg width="20" height="21" viewBox="0 0 20 21" fill="none" xmlns="http://www.w3.org/2000/svg">
<path d="M19.6441 8.79523L16.0299 3.374C15.5872 2.71057 14.5726 2.1665 13.7745 2.1665H6.22837C5.43032 2.1665 4.41436 2.70918 3.973 3.374L0.357452 8.79523C-0.0852964 9.45866 -0.0852964 10.5454 0.357452 11.2102L3.97161 16.6315C4.41436 17.2949 5.42893 17.839 6.22699 17.839H13.7731C14.5712 17.839 15.5872 17.2963 16.0285 16.6315L19.6427 11.2102C20.0868 10.5454 20.0868 9.46005 19.6441 8.79523ZM10.0008 15.2269C7.11526 15.2269 4.7766 12.8882 4.7766 10.0027C4.7766 7.11723 7.11526 4.77858 10.0008 4.77858C12.8863 4.77858 15.2249 7.11723 15.2249 10.0027C15.2249 12.8882 12.8863 15.2269 10.0008 15.2269ZM10.0008 7.11446C8.40603 7.11446 7.11248 8.408 7.11248 10.0027C7.11248 11.5975 8.40603 12.891 10.0008 12.891C11.5955 12.891 12.889 11.5975 12.889 10.0027C12.889 8.408 11.5955 7.11446 10.0008 7.11446Z" fill="#DCDCDC"/>
</svg>
