<svg width="40" height="41" viewBox="0 0 40 41" fill="none" xmlns="http://www.w3.org/2000/svg">
<g clip-path="url(#clip0_1735_1158)">
<path d="M24.4427 25.7619V30.2298C24.4427 31.0484 23.968 31.2454 23.3906 30.6655L14.7827 22.0488C14.2053 21.4688 14.2053 20.5225 14.7827 19.9425L23.3906 11.3287C23.968 10.7487 24.4427 10.9457 24.4427 11.7644V16.2323C24.4427 17.0509 25.1117 17.7225 25.9305 17.7225H39.8486C38.2858 8.23448 30.0582 0.99707 20.1346 0.99707C9.09778 0.99707 0.148438 9.95225 0.148438 20.9971C0.148438 32.0419 9.09778 40.9971 20.1346 40.9971C30.0582 40.9971 38.2858 33.7597 39.8486 24.2717H25.9305C25.1117 24.2717 24.4427 24.9432 24.4427 25.7619Z" fill="#DCDCDC"/>
</g>
<defs>
<clipPath id="clip0_1735_1158">
<rect width="40" height="40" fill="white" transform="translate(0 0.99707)"/>
</clipPath>
</defs>
</svg>
