<svg width="20" height="20" viewBox="0 0 20 20" fill="none" xmlns="http://www.w3.org/2000/svg">
<path fill-rule="evenodd" clip-rule="evenodd" d="M20 5.32456C20 2.74197 18.3158 0.523084 15.7463 0.26354C14.2585 0.113256 12.3558 -3.34141e-07 10 -4.37114e-07C7.64425 -5.40087e-07 5.74152 0.113256 4.25371 0.263539C1.6842 0.523083 -1.19855e-07 2.74197 -2.32744e-07 5.32455L-6.41484e-07 14.6754C-7.54372e-07 17.258 1.6842 19.4769 4.2537 19.7365C5.74152 19.8867 7.64425 20 10 20C12.3558 20 14.2585 19.8867 15.7463 19.7365C18.3158 19.4769 20 17.258 20 14.6754L20 5.32456ZM14.7071 11.7071C15.0976 11.3166 15.0976 10.6834 14.7071 10.2929C14.3166 9.90237 13.6834 9.90237 13.2929 10.2929L11.3414 12.2444C11.2154 12.3704 11 12.2811 11 12.1029L11 5C11 4.44771 10.5523 4 10 4C9.44772 4 9 4.44771 9 5L9 12.1029C9 12.2811 8.78457 12.3704 8.65858 12.2444L6.70711 10.2929C6.31658 9.90237 5.68342 9.90237 5.29289 10.2929C4.90237 10.6834 4.90237 11.3166 5.29289 11.7071L9.29289 15.7071C9.68342 16.0976 10.3166 16.0976 10.7071 15.7071L14.7071 11.7071Z" fill="url(#paint0_linear_393_1997)"/>
<defs>
<linearGradient id="paint0_linear_393_1997" x1="20" y1="20" x2="20" y2="0" gradientUnits="userSpaceOnUse">
<stop stop-color="#A83AFE"/>
<stop offset="1" stop-color="#6E59FE"/>
</linearGradient>
</defs>
</svg>
