<svg width="48" height="48" viewBox="0 0 48 48" fill="none" xmlns="http://www.w3.org/2000/svg">
<circle cx="24" cy="24" r="23" fill="black" stroke="#959595" stroke-width="2"/>
<path fill-rule="evenodd" clip-rule="evenodd" d="M24 34C29.5228 34 34 29.5228 34 24C34 18.4772 29.5228 14 24 14C18.4772 14 14 18.4772 14 24C14 29.5228 18.4772 34 24 34ZM24 17.728V22C24 22.2761 24.2239 22.5 24.5 22.5H29.0928C29.4866 22.5 29.7259 22.9341 29.5156 23.267L24.9227 30.539C24.6552 30.9627 24 30.7731 24 30.272V26C24 25.7239 23.7761 25.5 23.5 25.5H18.9072C18.5134 25.5 18.2741 25.0659 18.4844 24.733L23.0773 17.461C23.3448 17.0373 24 17.2269 24 17.728Z" fill="#959595"/>
</svg>
