<svg width="48" height="48" viewBox="0 0 48 48" fill="none" xmlns="http://www.w3.org/2000/svg">
<g opacity="0.6">
<rect width="48" height="48" rx="24" fill="#151515" fill-opacity="0.8"/>
<path d="M34.303 36L30.6364 32.3333C30.1313 32.6566 29.596 32.9343 29.0303 33.1667C28.4646 33.399 27.8788 33.5859 27.2727 33.7273V31.2424C27.5556 31.1414 27.8333 31.0404 28.1061 30.9394C28.3788 30.8384 28.6364 30.7172 28.8788 30.5758L24.8485 26.5455V32.8485L18.7879 26.7879H13.9394V19.5152H17.8182L12 13.697L13.697 12L36 34.303L34.303 36ZM34.0606 28.9697L32.303 27.2121C32.6465 26.5859 32.904 25.9293 33.0758 25.2424C33.2475 24.5556 33.3333 23.8485 33.3333 23.1212C33.3333 21.2222 32.7778 19.5253 31.6667 18.0303C30.5556 16.5354 29.0909 15.5253 27.2727 15V12.5152C29.7778 13.0808 31.8182 14.3485 33.3939 16.3182C34.9697 18.2879 35.7576 20.5556 35.7576 23.1212C35.7576 24.1919 35.6111 25.2222 35.3182 26.2121C35.0253 27.202 34.6061 28.1212 34.0606 28.9697ZM30 24.9091L27.2727 22.1818V18.2424C28.2222 18.6869 28.9646 19.3535 29.5 20.2424C30.0354 21.1313 30.303 22.101 30.303 23.1515C30.303 23.4545 30.2778 23.7525 30.2273 24.0455C30.1768 24.3384 30.101 24.6263 30 24.9091ZM24.8485 19.7576L21.697 16.6061L24.8485 13.4545V19.7576ZM22.4242 26.9697V24.1212L20.2424 21.9394H16.3636V24.3636H19.8182L22.4242 26.9697Z" fill="white"/>
</g>
</svg>
