<svg width="48" height="49" viewBox="0 0 48 49" fill="none" xmlns="http://www.w3.org/2000/svg">
<g opacity="0.6">
<rect y="0.769531" width="48" height="47.3333" rx="23.6667" fill="#151515" fill-opacity="0.8"/>
<path d="M26.6667 36.1029V33.3695C28.6667 32.7918 30.2778 31.6806 31.5 30.0362C32.7222 28.3918 33.3333 26.5251 33.3333 24.4362C33.3333 22.3473 32.7222 20.4806 31.5 18.8362C30.2778 17.1918 28.6667 16.0806 26.6667 15.5029V12.7695C29.4222 13.3918 31.6667 14.7862 33.4 16.9529C35.1333 19.1195 36 21.614 36 24.4362C36 27.2584 35.1333 29.7529 33.4 31.9195C31.6667 34.0862 29.4222 35.4806 26.6667 36.1029ZM12 28.4695V20.4695H17.3333L24 13.8029V35.1362L17.3333 28.4695H12ZM26.6667 29.8029V19.0695C27.7111 19.5584 28.5278 20.2918 29.1167 21.2695C29.7056 22.2473 30 23.314 30 24.4695C30 25.6029 29.7056 26.6529 29.1167 27.6195C28.5278 28.5862 27.7111 29.314 26.6667 29.8029ZM21.3333 20.2695L18.4667 23.1362H14.6667V25.8029H18.4667L21.3333 28.6695V20.2695Z" fill="white"/>
</g>
</svg>
