<svg width="20" height="20" viewBox="0 0 20 20" fill="none" xmlns="http://www.w3.org/2000/svg">
<path d="M18.0833 18.4637L15.1881 19.9113C14.8633 20.0737 14.4705 20.0099 14.2137 19.7531L10.3498 15.8891C10.1499 15.6893 9.86399 15.6032 9.58779 15.6587L5.85982 16.404C5.58363 16.4596 5.29771 16.3721 5.09785 16.1736L0.24844 11.3256C0.022208 11.0994 -0.0569038 10.7649 0.0444148 10.4623L1.29355 6.71632C1.49202 6.1209 2.24705 5.94325 2.69119 6.386L5.97086 9.66566C6.19709 9.89189 6.53158 9.97101 6.83415 9.86969L8.70785 9.24512C8.96045 9.16046 9.15753 8.96337 9.2422 8.71077L9.86676 6.83707C9.96808 6.53312 9.88897 6.20002 9.66274 5.97378L6.38307 2.69412C5.93894 2.24998 6.11798 1.49495 6.7134 1.29648L10.4594 0.0473444C10.7634 -0.0539741 11.0965 0.0251376 11.3227 0.251369L16.1707 5.09939C16.3706 5.29925 16.4566 5.58516 16.4011 5.86136L15.6558 9.59072C15.6003 9.86691 15.6877 10.1528 15.8862 10.3527L19.7502 14.2167C20.0069 14.4734 20.0708 14.8662 19.9084 15.191L18.4608 18.0862C18.3803 18.25 18.2471 18.3832 18.0833 18.4637Z" fill="#DCDCDC"/>
</svg>
