<svg width="29" height="31" viewBox="0 0 29 31" fill="none" xmlns="http://www.w3.org/2000/svg">
<path d="M7.67233 22.678C9.75144 22.678 11.4364 20.5683 11.4364 18.4906C11.4364 16.4129 9.75144 14.7266 7.67233 14.7266C5.59322 14.7266 3.90967 16.4115 3.90967 18.4906C3.90967 20.5697 5.59461 22.678 7.67233 22.678Z" fill="#DCDCDC"/>
<path d="M11.2186 23.2729C11.0035 23.1508 10.7342 23.1633 10.5329 23.3076C9.69742 23.9058 8.71893 24.2695 7.67382 24.2695C6.61206 24.2695 5.62108 23.8961 4.77861 23.2813C4.58014 23.1369 4.31782 23.1105 4.10269 23.2285C1.94308 24.418 0.388604 26.6248 0.0541143 29.0273C-0.0166699 29.538 0.378889 29.9933 0.895197 29.9933H14.3456C14.8605 29.9933 15.2574 29.538 15.1867 29.0287C14.8563 26.6553 13.3352 24.4735 11.2186 23.2729Z" fill="#DCDCDC"/>
<path d="M26.9259 6.92397H23.0741V3.07212C23.0741 1.92545 22.1467 0.998047 21 0.998047C19.8533 0.998047 18.9259 1.92545 18.9259 3.07212V6.92397H15.0741C13.9274 6.92397 13 7.85138 13 8.99805C13 10.1447 13.9274 11.0721 15.0741 11.0721H18.9259V14.924C18.9259 16.0706 19.8533 16.998 21 16.998C22.1467 16.998 23.0741 16.0706 23.0741 14.924V11.0721H26.9259C28.0726 11.0721 29 10.1447 29 8.99805C29 7.85138 28.0726 6.92397 26.9259 6.92397Z" fill="url(#paint0_linear_695_2820)"/>
<defs>
<linearGradient id="paint0_linear_695_2820" x1="13.0692" y1="10.8294" x2="28.1076" y2="13.7896" gradientUnits="userSpaceOnUse">
<stop stop-color="#36FF78"/>
<stop offset="1" stop-color="#0CFFFF"/>
</linearGradient>
</defs>
</svg>
