<svg width="20" height="21" viewBox="0 0 20 21" fill="none" xmlns="http://www.w3.org/2000/svg">
<path d="M9.99 0.811523C4.47 0.811523 0 5.29152 0 10.8115C0 16.3315 4.47 20.8115 9.99 20.8115C15.52 20.8115 20 16.3315 20 10.8115C20 5.29152 15.52 0.811523 9.99 0.811523ZM6.5 6.81152C7.33 6.81152 8 7.48152 8 8.31152C8 9.14152 7.33 9.81152 6.5 9.81152C5.67 9.81152 5 9.14152 5 8.31152C5 7.48152 5.67 6.81152 6.5 6.81152ZM14.75 13.5615C13.8 15.2015 12.03 16.3115 10 16.3115C7.97 16.3115 6.2 15.2015 5.25 13.5615C5.06 13.2315 5.31 12.8115 5.69 12.8115H14.31C14.7 12.8115 14.94 13.2315 14.75 13.5615ZM13.5 9.81152C12.67 9.81152 12 9.14152 12 8.31152C12 7.48152 12.67 6.81152 13.5 6.81152C14.33 6.81152 15 7.48152 15 8.31152C15 9.14152 14.33 9.81152 13.5 9.81152Z" fill="white"/>
</svg>
