<svg width="178" height="80" viewBox="0 0 178 80" fill="none" xmlns="http://www.w3.org/2000/svg">
<g clip-path="url(#clip0_617_8629)">
<path d="M40.8651 23.4335V40.0056H35.341V45.5296H24.293V40.0056H18.7704V23.4335H24.293V17.9109H35.341V23.4335H40.8651Z" fill="white"/>
<path d="M35.3457 23.433V17.913H24.2924V23.433H18.7724V40.0063H24.2924V45.5263H35.3457V40.0063H40.8657V23.433H35.3457Z" fill="white"/>
<path d="M74.0118 23.4324V40.0056H68.4783V45.5256H57.4383V40.0056H51.9183V23.4324H57.4383V17.9124H68.4783V23.4324H74.0118Z" fill="white"/>
<path d="M35.341 34.4816H24.293V45.5295H35.341V34.4816Z" fill="#336A93"/>
<path d="M68.4863 34.4816H57.4383V45.5295H68.4863V34.4816Z" fill="#336A93"/>
<path d="M40.8651 23.4335V40.0056H35.341V45.5296H24.293V40.0056H18.7704V23.4335H24.293V17.9109H35.341V23.4335H40.8651Z" fill="white"/>
<path d="M35.3457 23.433V17.913H24.2924V23.433H18.7724V40.0063H24.2924V45.5263H35.3457V40.0063H40.8657V23.433H35.3457Z" fill="white"/>
<path d="M74.0116 17.9124H68.4783V23.4324H74.0116V17.9124Z" fill="#09B885"/>
<path d="M74.0118 23.4324V40.0056H68.4783V45.5256H57.4383V40.0056H51.9183V23.4324H57.4383V17.9124H68.4783V23.4324H74.0118Z" fill="white"/>
<path d="M74.0118 28.9523V40.0056H68.4785V34.4856H57.4385V40.0056H51.9185V23.4323H57.4385V17.9123H68.4785V12.3923H62.9585V6.85887H57.4385V1.33887H24.2918V6.85887H18.7718V12.3921H13.2518V17.9121H7.71833V28.9522H2.19833V73.1522H7.71833V78.6722H18.7716V73.1522H24.2916V67.6189H29.8116V73.1522H35.3449V78.6722H46.3849V73.1522H51.9182V67.6189H57.4382V73.1522H62.9582V78.6722H74.0114V73.1522H79.5314V28.9522H74.0118V28.9523ZM40.865 40.0056H35.345V34.4856H24.2918V40.0056H18.7718V23.4323H24.2918V17.9123H35.345V23.4323H40.865V40.0056Z" fill="url(#paint0_linear_617_8629)"/>
<path d="M74.0118 28.9523V40.0056H63.145V34.4856H57.4383V40.0056H46.585V23.4323H52.105V17.9123H63.145V12.3923H57.625V6.85887H52.105V1.33887H24.2918V6.85887H18.7718V12.3921H13.2518V17.9121H7.71833V28.9522H2.19833V73.1522H7.71833V78.6722H13.4383V73.1522H18.9583V67.6189H29.8116V73.1522H35.3449V78.6722H41.0516V73.1522H46.5849V67.6189H57.4382V73.1522H62.9582V78.6722H68.6782V73.1522H74.1982V28.9522H74.0118V28.9523ZM40.865 40.0056H30.0118V34.4856H24.2918V40.0056H13.4383V23.4323H18.9583V17.9123H35.345V23.4323H40.865V40.0056Z" fill="url(#paint1_linear_617_8629)"/>
<path d="M35.341 34.4816H24.293V45.5295H35.341V34.4816Z" fill="url(#paint2_linear_617_8629)"/>
<path d="M35.341 34.4816H24.293V45.5295H35.341V34.4816Z" fill="black" fill-opacity="0.6"/>
<path d="M68.4863 34.4816H57.4383V45.5295H68.4863V34.4816Z" fill="url(#paint3_linear_617_8629)"/>
<path d="M68.4863 34.4816H57.4383V45.5295H68.4863V34.4816Z" fill="black" fill-opacity="0.6"/>
<path d="M40.8651 22.1006H36.6749V17.9104C36.675 17.5567 36.5347 17.2175 36.2846 16.9675C36.0344 16.7173 35.6952 16.577 35.3416 16.5771H24.2935C23.9397 16.577 23.6005 16.7173 23.3505 16.9675C23.1004 17.2176 22.96 17.5568 22.9602 17.9104V22.1006H18.77C18.4163 22.1004 18.0771 22.2407 17.8271 22.4909C17.5769 22.7411 17.4366 23.0803 17.4368 23.4339V40.0056C17.4366 40.3593 17.5769 40.6986 17.8271 40.9486C18.0772 41.1987 18.4165 41.339 18.77 41.3389H22.9602V45.529C22.96 45.8828 23.1004 46.222 23.3505 46.472C23.6007 46.7222 23.9399 46.8625 24.2935 46.8623H35.3416C35.6954 46.8625 36.0346 46.7222 36.2846 46.472C36.5347 46.2218 36.675 45.8826 36.6749 45.529V41.3389H40.8651C41.2188 41.339 41.558 41.1987 41.808 40.9486C42.058 40.6984 42.1985 40.3592 42.1983 40.0056V23.434C42.1985 23.0803 42.0582 22.7411 41.808 22.4911C41.558 22.2409 41.2188 22.1004 40.8651 22.1006ZM34.0083 44.1957H25.6268V35.8156H34.0083V44.1957ZM39.5318 38.6723H36.6751V34.4822C36.6752 34.1284 36.5349 33.7892 36.2847 33.5392C36.0346 33.289 35.6954 33.1487 35.3418 33.1489H24.2936C23.9399 33.1487 23.6007 33.289 23.3507 33.5392C23.1005 33.7893 22.9602 34.1286 22.9604 34.4822V38.6723H20.1036V24.7673H24.2938C24.6475 24.7675 24.9868 24.6272 25.2368 24.377C25.4869 24.1268 25.6272 23.7876 25.6271 23.434V19.2439H34.0086V23.434C34.0085 23.7878 34.1488 24.127 34.399 24.377C34.6491 24.6272 34.9883 24.7675 35.3419 24.7673H39.5321V38.6723H39.5318Z" fill="url(#paint4_linear_617_8629)"/>
<path d="M40.8651 22.1006H36.6749V17.9104C36.675 17.5567 36.5347 17.2175 36.2846 16.9675C36.0344 16.7173 35.6952 16.577 35.3416 16.5771H24.2935C23.9397 16.577 23.6005 16.7173 23.3505 16.9675C23.1004 17.2176 22.96 17.5568 22.9602 17.9104V22.1006H18.77C18.4163 22.1004 18.0771 22.2407 17.8271 22.4909C17.5769 22.7411 17.4366 23.0803 17.4368 23.4339V40.0056C17.4366 40.3593 17.5769 40.6986 17.8271 40.9486C18.0772 41.1987 18.4165 41.339 18.77 41.3389H22.9602V45.529C22.96 45.8828 23.1004 46.222 23.3505 46.472C23.6007 46.7222 23.9399 46.8625 24.2935 46.8623H35.3416C35.6954 46.8625 36.0346 46.7222 36.2846 46.472C36.5347 46.2218 36.675 45.8826 36.6749 45.529V41.3389H40.8651C41.2188 41.339 41.558 41.1987 41.808 40.9486C42.058 40.6984 42.1985 40.3592 42.1983 40.0056V23.434C42.1985 23.0803 42.0582 22.7411 41.808 22.4911C41.558 22.2409 41.2188 22.1004 40.8651 22.1006ZM34.0083 44.1957H25.6268V35.8156H34.0083V44.1957ZM39.5318 38.6723H36.6751V34.4822C36.6752 34.1284 36.5349 33.7892 36.2847 33.5392C36.0346 33.289 35.6954 33.1487 35.3418 33.1489H24.2936C23.9399 33.1487 23.6007 33.289 23.3507 33.5392C23.1005 33.7893 22.9602 34.1286 22.9604 34.4822V38.6723H20.1036V24.7673H24.2938C24.6475 24.7675 24.9868 24.6272 25.2368 24.377C25.4869 24.1268 25.6272 23.7876 25.6271 23.434V19.2439H34.0086V23.434C34.0085 23.7878 34.1488 24.127 34.399 24.377C34.6491 24.6272 34.9883 24.7675 35.3419 24.7673H39.5321V38.6723H39.5318Z" fill="black" fill-opacity="0.6"/>
<path d="M79.5318 27.6241H75.3416V17.9105C75.3418 17.5567 75.2015 17.2175 74.9513 16.9675C74.7011 16.7173 74.3619 16.577 74.0083 16.5772H69.8169V12.3872C69.8171 12.0334 69.6768 11.6942 69.4266 11.4442C69.1765 11.1941 68.8372 11.0537 68.4836 11.0539H64.2935V6.86233C64.2936 6.50858 64.1533 6.16937 63.9032 5.91936C63.653 5.66921 63.3138 5.5289 62.9602 5.52905H58.7701V1.3389C58.7702 0.985147 58.6299 0.645928 58.3797 0.395928C58.1296 0.145928 57.7904 0.00545911 57.4366 0.00561536H24.2935C23.9397 0.00545911 23.6005 0.145772 23.3505 0.395928C23.1004 0.646084 22.9601 0.985303 22.9602 1.3389V5.52905H18.7701C18.4163 5.5289 18.0771 5.66921 17.8271 5.91936C17.5769 6.16952 17.4366 6.50874 17.4368 6.86233V11.0537H13.2466C12.8929 11.0536 12.5536 11.1939 12.3036 11.4441C12.0535 11.6942 11.9132 12.0334 11.9133 12.387V16.5772H7.72177C7.36802 16.577 7.0288 16.7173 6.7788 16.9675C6.52865 17.2176 6.38833 17.5569 6.38849 17.9105V27.6241H2.19833C1.84458 27.6239 1.50536 27.7642 1.25536 28.0144C1.00521 28.2645 0.864895 28.6037 0.865051 28.9573V73.1487C0.864895 73.5025 1.00521 73.8417 1.25536 74.0917C1.50552 74.3417 1.84474 74.4822 2.19833 74.482H6.38849V78.6722C6.38833 79.0259 6.52865 79.3652 6.7788 79.6152C7.02896 79.8653 7.36818 80.0056 7.72177 80.0055H18.7699C19.1236 80.0056 19.4629 79.8653 19.7129 79.6152C19.963 79.365 20.1033 79.0258 20.1032 78.6722V74.4822H24.2933C24.6471 74.4823 24.9863 74.342 25.2363 74.0919C25.4865 73.8417 25.6268 73.5025 25.6266 73.1489V68.9575H28.4833V73.1489C28.4832 73.5026 28.6235 73.8419 28.8736 74.0919C29.1238 74.342 29.463 74.4823 29.8166 74.4822H34.008V78.6723C34.0079 79.0261 34.1482 79.3653 34.3983 79.6153C34.6485 79.8655 34.9877 80.0058 35.3413 80.0056H46.3882C46.7419 80.0058 47.0811 79.8655 47.3311 79.6153C47.5813 79.3652 47.7216 79.0259 47.7215 78.6723V74.4822H51.9129C52.2666 74.4823 52.6058 74.342 52.8558 74.0919C53.106 73.8417 53.2463 73.5025 53.2461 73.1489V68.9575H56.1029V73.1489C56.1027 73.5026 56.243 73.8419 56.4932 74.0919C56.7433 74.342 57.0826 74.4823 57.4361 74.4822H61.6263V78.6723C61.6261 79.0261 61.7665 79.3653 62.0166 79.6153C62.2668 79.8655 62.606 80.0058 62.9596 80.0056H74.0077C74.3615 80.0058 74.7007 79.8655 74.9507 79.6153C75.2008 79.3652 75.3411 79.0259 75.341 78.6723V74.4822H79.5311C79.8849 74.4823 80.2241 74.342 80.4741 74.0919C80.7243 73.8417 80.8646 73.5025 80.8644 73.1489V28.9575C80.8646 28.6037 80.7243 28.2645 80.4741 28.0145C80.2247 27.7644 79.8854 27.6239 79.5318 27.6241ZM69.8169 38.6723V34.4822C69.8171 34.1284 69.6768 33.7892 69.4266 33.5392C69.1765 33.2892 68.8372 33.1487 68.4836 33.1489H57.4368C57.083 33.1487 56.7438 33.2891 56.4938 33.5392C56.2438 33.7894 56.1033 34.1286 56.1035 34.4822V38.6723H53.2468V24.7673H57.4369C57.7907 24.7675 58.1299 24.6272 58.3799 24.377C58.6301 24.1269 58.7704 23.7876 58.7702 23.4341V19.2439H67.1504V23.4341C67.1502 23.7878 67.2905 24.127 67.5407 24.377C67.7908 24.6272 68.1301 24.7675 68.4836 24.7673H72.6751V38.6723H69.8169ZM58.7701 40.0056V35.8155H67.1502V44.1956H58.7701V40.0056ZM72.6749 22.1006H69.8168V19.2439H72.6749V22.1006ZM78.1983 71.8155H74.0082C73.6544 71.8153 73.3152 71.9556 73.0652 72.2058C72.8152 72.4559 72.6747 72.7951 72.6749 73.1487V77.3389H64.2933V73.1487C64.2935 72.795 64.1532 72.4558 63.903 72.2058C63.6529 71.9558 63.3136 71.8153 62.96 71.8155H58.7699V67.6241C58.7701 67.2703 58.6297 66.9311 58.3796 66.6811C58.1294 66.4309 57.7902 66.2906 57.4366 66.2908H51.9132C51.5594 66.2906 51.2202 66.4309 50.9702 66.6811C50.7201 66.9312 50.5797 67.2705 50.5799 67.6241V71.8155H46.3885C46.0347 71.8153 45.6955 71.9556 45.4455 72.2058C45.1955 72.4559 45.055 72.7951 45.0552 73.1487V77.3389H36.6751V73.1487C36.6752 72.795 36.5349 72.4558 36.2847 72.2058C36.0346 71.9556 35.6954 71.8153 35.3418 71.8155H31.1504V67.6241C31.1505 67.2703 31.0102 66.9311 30.7601 66.6811C30.5099 66.4309 30.1707 66.2906 29.8171 66.2908H24.2936C23.9399 66.2906 23.6007 66.4309 23.3507 66.6811C23.1005 66.9312 22.9602 67.2705 22.9604 67.6241V71.8155H18.7702C18.4165 71.8153 18.0772 71.9556 17.8272 72.2058C17.5771 72.4559 17.4368 72.7951 17.4369 73.1487V77.3389H9.05521V73.1487C9.05536 72.795 8.91505 72.4558 8.6649 72.2058C8.41474 71.9558 8.07552 71.8153 7.72193 71.8155H3.53177V30.2908H7.72193C8.07568 30.2909 8.41489 30.1506 8.6649 29.9005C8.91505 29.6503 9.05536 29.3111 9.05521 28.9575V19.2439H13.2466C13.6004 19.2441 13.9396 19.1037 14.1896 18.8536C14.4397 18.6034 14.5801 18.2642 14.5799 17.9106V13.7205H18.7701C19.1238 13.7206 19.463 13.5803 19.713 13.3301C19.9632 13.08 20.1035 12.7408 20.1033 12.3872V8.19577H24.2935C24.6472 8.19593 24.9865 8.05562 25.2365 7.80546C25.4866 7.5553 25.6269 7.21608 25.6268 6.86249V2.67233H56.1033V6.86249C56.1032 7.21624 56.2435 7.55546 56.4936 7.80546C56.7438 8.05546 57.083 8.19593 57.4366 8.19577H61.6268V12.3872C61.6266 12.7409 61.7669 13.0801 62.0171 13.3301C62.2672 13.5803 62.6065 13.7206 62.96 13.7205H67.1502V16.5772H57.4366C57.0829 16.577 56.7436 16.7173 56.4936 16.9675C56.2435 17.2176 56.1032 17.5569 56.1033 17.9105V22.1006H51.9132C51.5594 22.1005 51.2202 22.2408 50.9702 22.4909C50.7201 22.7411 50.5797 23.0803 50.5799 23.4339V40.0056C50.5797 40.3594 50.7201 40.6986 50.9702 40.9486C51.2204 41.1986 51.5596 41.3391 51.9132 41.3389H56.1033V45.5291C56.1032 45.8828 56.2435 46.222 56.4936 46.472C56.7438 46.722 57.083 46.8625 57.4366 46.8623H68.4835C68.8372 46.8625 69.1765 46.7222 69.4265 46.472C69.6765 46.2219 69.8169 45.8826 69.8168 45.5291V41.3389H74.0082C74.3619 41.3391 74.7011 41.1987 74.9511 40.9486C75.2013 40.6984 75.3416 40.3592 75.3415 40.0056V30.2908H78.1982V71.8155H78.1983Z" fill="url(#paint5_linear_617_8629)"/>
<path d="M79.5318 27.6241H75.3416V17.9105C75.3418 17.5567 75.2015 17.2175 74.9513 16.9675C74.7011 16.7173 74.3619 16.577 74.0083 16.5772H69.8169V12.3872C69.8171 12.0334 69.6768 11.6942 69.4266 11.4442C69.1765 11.1941 68.8372 11.0537 68.4836 11.0539H64.2935V6.86233C64.2936 6.50858 64.1533 6.16937 63.9032 5.91936C63.653 5.66921 63.3138 5.5289 62.9602 5.52905H58.7701V1.3389C58.7702 0.985147 58.6299 0.645928 58.3797 0.395928C58.1296 0.145928 57.7904 0.00545911 57.4366 0.00561536H24.2935C23.9397 0.00545911 23.6005 0.145772 23.3505 0.395928C23.1004 0.646084 22.9601 0.985303 22.9602 1.3389V5.52905H18.7701C18.4163 5.5289 18.0771 5.66921 17.8271 5.91936C17.5769 6.16952 17.4366 6.50874 17.4368 6.86233V11.0537H13.2466C12.8929 11.0536 12.5536 11.1939 12.3036 11.4441C12.0535 11.6942 11.9132 12.0334 11.9133 12.387V16.5772H7.72177C7.36802 16.577 7.0288 16.7173 6.7788 16.9675C6.52865 17.2176 6.38833 17.5569 6.38849 17.9105V27.6241H2.19833C1.84458 27.6239 1.50536 27.7642 1.25536 28.0144C1.00521 28.2645 0.864895 28.6037 0.865051 28.9573V73.1487C0.864895 73.5025 1.00521 73.8417 1.25536 74.0917C1.50552 74.3417 1.84474 74.4822 2.19833 74.482H6.38849V78.6722C6.38833 79.0259 6.52865 79.3652 6.7788 79.6152C7.02896 79.8653 7.36818 80.0056 7.72177 80.0055H18.7699C19.1236 80.0056 19.4629 79.8653 19.7129 79.6152C19.963 79.365 20.1033 79.0258 20.1032 78.6722V74.4822H24.2933C24.6471 74.4823 24.9863 74.342 25.2363 74.0919C25.4865 73.8417 25.6268 73.5025 25.6266 73.1489V68.9575H28.4833V73.1489C28.4832 73.5026 28.6235 73.8419 28.8736 74.0919C29.1238 74.342 29.463 74.4823 29.8166 74.4822H34.008V78.6723C34.0079 79.0261 34.1482 79.3653 34.3983 79.6153C34.6485 79.8655 34.9877 80.0058 35.3413 80.0056H46.3882C46.7419 80.0058 47.0811 79.8655 47.3311 79.6153C47.5813 79.3652 47.7216 79.0259 47.7215 78.6723V74.4822H51.9129C52.2666 74.4823 52.6058 74.342 52.8558 74.0919C53.106 73.8417 53.2463 73.5025 53.2461 73.1489V68.9575H56.1029V73.1489C56.1027 73.5026 56.243 73.8419 56.4932 74.0919C56.7433 74.342 57.0826 74.4823 57.4361 74.4822H61.6263V78.6723C61.6261 79.0261 61.7665 79.3653 62.0166 79.6153C62.2668 79.8655 62.606 80.0058 62.9596 80.0056H74.0077C74.3615 80.0058 74.7007 79.8655 74.9507 79.6153C75.2008 79.3652 75.3411 79.0259 75.341 78.6723V74.4822H79.5311C79.8849 74.4823 80.2241 74.342 80.4741 74.0919C80.7243 73.8417 80.8646 73.5025 80.8644 73.1489V28.9575C80.8646 28.6037 80.7243 28.2645 80.4741 28.0145C80.2247 27.7644 79.8854 27.6239 79.5318 27.6241ZM69.8169 38.6723V34.4822C69.8171 34.1284 69.6768 33.7892 69.4266 33.5392C69.1765 33.2892 68.8372 33.1487 68.4836 33.1489H57.4368C57.083 33.1487 56.7438 33.2891 56.4938 33.5392C56.2438 33.7894 56.1033 34.1286 56.1035 34.4822V38.6723H53.2468V24.7673H57.4369C57.7907 24.7675 58.1299 24.6272 58.3799 24.377C58.6301 24.1269 58.7704 23.7876 58.7702 23.4341V19.2439H67.1504V23.4341C67.1502 23.7878 67.2905 24.127 67.5407 24.377C67.7908 24.6272 68.1301 24.7675 68.4836 24.7673H72.6751V38.6723H69.8169ZM58.7701 40.0056V35.8155H67.1502V44.1956H58.7701V40.0056ZM72.6749 22.1006H69.8168V19.2439H72.6749V22.1006ZM78.1983 71.8155H74.0082C73.6544 71.8153 73.3152 71.9556 73.0652 72.2058C72.8152 72.4559 72.6747 72.7951 72.6749 73.1487V77.3389H64.2933V73.1487C64.2935 72.795 64.1532 72.4558 63.903 72.2058C63.6529 71.9558 63.3136 71.8153 62.96 71.8155H58.7699V67.6241C58.7701 67.2703 58.6297 66.9311 58.3796 66.6811C58.1294 66.4309 57.7902 66.2906 57.4366 66.2908H51.9132C51.5594 66.2906 51.2202 66.4309 50.9702 66.6811C50.7201 66.9312 50.5797 67.2705 50.5799 67.6241V71.8155H46.3885C46.0347 71.8153 45.6955 71.9556 45.4455 72.2058C45.1955 72.4559 45.055 72.7951 45.0552 73.1487V77.3389H36.6751V73.1487C36.6752 72.795 36.5349 72.4558 36.2847 72.2058C36.0346 71.9556 35.6954 71.8153 35.3418 71.8155H31.1504V67.6241C31.1505 67.2703 31.0102 66.9311 30.7601 66.6811C30.5099 66.4309 30.1707 66.2906 29.8171 66.2908H24.2936C23.9399 66.2906 23.6007 66.4309 23.3507 66.6811C23.1005 66.9312 22.9602 67.2705 22.9604 67.6241V71.8155H18.7702C18.4165 71.8153 18.0772 71.9556 17.8272 72.2058C17.5771 72.4559 17.4368 72.7951 17.4369 73.1487V77.3389H9.05521V73.1487C9.05536 72.795 8.91505 72.4558 8.6649 72.2058C8.41474 71.9558 8.07552 71.8153 7.72193 71.8155H3.53177V30.2908H7.72193C8.07568 30.2909 8.41489 30.1506 8.6649 29.9005C8.91505 29.6503 9.05536 29.3111 9.05521 28.9575V19.2439H13.2466C13.6004 19.2441 13.9396 19.1037 14.1896 18.8536C14.4397 18.6034 14.5801 18.2642 14.5799 17.9106V13.7205H18.7701C19.1238 13.7206 19.463 13.5803 19.713 13.3301C19.9632 13.08 20.1035 12.7408 20.1033 12.3872V8.19577H24.2935C24.6472 8.19593 24.9865 8.05562 25.2365 7.80546C25.4866 7.5553 25.6269 7.21608 25.6268 6.86249V2.67233H56.1033V6.86249C56.1032 7.21624 56.2435 7.55546 56.4936 7.80546C56.7438 8.05546 57.083 8.19593 57.4366 8.19577H61.6268V12.3872C61.6266 12.7409 61.7669 13.0801 62.0171 13.3301C62.2672 13.5803 62.6065 13.7206 62.96 13.7205H67.1502V16.5772H57.4366C57.0829 16.577 56.7436 16.7173 56.4936 16.9675C56.2435 17.2176 56.1032 17.5569 56.1033 17.9105V22.1006H51.9132C51.5594 22.1005 51.2202 22.2408 50.9702 22.4909C50.7201 22.7411 50.5797 23.0803 50.5799 23.4339V40.0056C50.5797 40.3594 50.7201 40.6986 50.9702 40.9486C51.2204 41.1986 51.5596 41.3391 51.9132 41.3389H56.1033V45.5291C56.1032 45.8828 56.2435 46.222 56.4936 46.472C56.7438 46.722 57.083 46.8625 57.4366 46.8623H68.4835C68.8372 46.8625 69.1765 46.7222 69.4265 46.472C69.6765 46.2219 69.8169 45.8826 69.8168 45.5291V41.3389H74.0082C74.3619 41.3391 74.7011 41.1987 74.9511 40.9486C75.2013 40.6984 75.3416 40.3592 75.3415 40.0056V30.2908H78.1982V71.8155H78.1983Z" fill="black" fill-opacity="0.6"/>
</g>
<path d="M137.469 23.4335V40.0056H131.945V45.5296H120.897V40.0056H115.374V23.4335H120.897V17.9109H131.945V23.4335H137.469Z" fill="white"/>
<path d="M131.949 23.433V17.913H120.896V23.433H115.376V40.0063H120.896V45.5263H131.949V40.0063H137.469V23.433H131.949Z" fill="white"/>
<path d="M170.616 23.4321V40.0054H165.082V45.5254H154.042V40.0054H148.522V23.4321H154.042V17.9121H165.082V23.4321H170.616Z" fill="white"/>
<path d="M131.945 34.4816H120.897V45.5295H131.945V34.4816Z" fill="#336A93"/>
<path d="M165.09 34.4816H154.042V45.5295H165.09V34.4816Z" fill="#336A93"/>
<path d="M137.469 23.4335V40.0056H131.945V45.5296H120.897V40.0056H115.374V23.4335H120.897V17.9109H131.945V23.4335H137.469Z" fill="white"/>
<path d="M131.949 23.433V17.913H120.896V23.433H115.376V40.0063H120.896V45.5263H131.949V40.0063H137.469V23.433H131.949Z" fill="white"/>
<path d="M170.615 17.9122H165.082V23.4322H170.615V17.9122Z" fill="#B61808"/>
<path d="M170.616 23.4322V40.0055H165.082V45.5255H154.042V40.0055H148.522V23.4322H154.042V17.9122H165.082V23.4322H170.616Z" fill="white"/>
<path d="M170.616 28.9521V40.0053H165.082V34.4853H154.042V40.0053H148.522V23.4321H154.042V17.9121H165.082V12.3921H159.562V6.85862H154.042V1.33862H120.896V6.85862H115.376V12.3919H109.856V17.9119H104.322V28.9519H98.8021V73.1519H104.322V78.6719H115.375V73.1519H120.895V67.6186H126.415V73.1519H131.949V78.6719H142.989V73.1519H148.522V67.6186H154.042V73.1519H159.562V78.6719H170.615V73.1519H176.135V28.9519H170.616V28.9521ZM137.469 40.0053H131.949V34.4853H120.896V40.0053H115.376V23.4321H120.896V17.9121H131.949V23.4321H137.469V40.0053Z" fill="url(#paint6_linear_617_8629)"/>
<path d="M170.616 28.9521V40.0053H159.749V34.4853H154.042V40.0053H143.189V23.4321H148.709V17.9121H159.749V12.3921H154.229V6.85862H148.709V1.33862H120.896V6.85862H115.376V12.3919H109.856V17.9119H104.322V28.9519H98.8021V73.1519H104.322V78.6719H110.042V73.1519H115.562V67.6186H126.415V73.1519H131.949V78.6719H137.655V73.1519H143.189V67.6186H154.042V73.1519H159.562V78.6719H165.282V73.1519H170.802V28.9519H170.616V28.9521ZM137.469 40.0053H126.616V34.4853H120.896V40.0053H110.042V23.4321H115.562V17.9121H131.949V23.4321H137.469V40.0053Z" fill="url(#paint7_linear_617_8629)"/>
<path d="M131.945 34.4816H120.897V45.5295H131.945V34.4816Z" fill="url(#paint8_linear_617_8629)"/>
<path d="M131.945 34.4816H120.897V45.5295H131.945V34.4816Z" fill="black" fill-opacity="0.6"/>
<path d="M165.09 34.4816H154.042V45.5295H165.09V34.4816Z" fill="url(#paint9_linear_617_8629)"/>
<path d="M165.09 34.4816H154.042V45.5295H165.09V34.4816Z" fill="black" fill-opacity="0.6"/>
<path d="M137.469 22.1006H133.279V17.9104C133.279 17.5567 133.138 17.2175 132.888 16.9675C132.638 16.7173 132.299 16.577 131.945 16.5771H120.897C120.543 16.577 120.204 16.7173 119.954 16.9675C119.704 17.2176 119.564 17.5568 119.564 17.9104V22.1006H115.374C115.02 22.1004 114.681 22.2407 114.431 22.4909C114.181 22.7411 114.04 23.0803 114.04 23.4339V40.0056C114.04 40.3593 114.181 40.6986 114.431 40.9486C114.681 41.1987 115.02 41.339 115.374 41.3389H119.564V45.529C119.564 45.8828 119.704 46.222 119.954 46.472C120.204 46.7222 120.544 46.8625 120.897 46.8623H131.945C132.299 46.8625 132.638 46.7222 132.888 46.472C133.138 46.2218 133.279 45.8826 133.279 45.529V41.3389H137.469C137.823 41.339 138.162 41.1987 138.412 40.9486C138.662 40.6984 138.802 40.3592 138.802 40.0056V23.434C138.802 23.0803 138.662 22.7411 138.412 22.4911C138.162 22.2409 137.823 22.1004 137.469 22.1006ZM130.612 44.1957H122.23V35.8156H130.612V44.1957ZM136.135 38.6723H133.279V34.4822C133.279 34.1284 133.139 33.7892 132.888 33.5392C132.638 33.289 132.299 33.1487 131.945 33.1489H120.897C120.544 33.1487 120.204 33.289 119.954 33.5392C119.704 33.7893 119.564 34.1286 119.564 34.4822V38.6723H116.707V24.7673H120.897C121.251 24.7675 121.59 24.6272 121.84 24.377C122.091 24.1268 122.231 23.7876 122.231 23.434V19.2439H130.612V23.434C130.612 23.7878 130.753 24.127 131.003 24.377C131.253 24.6272 131.592 24.7675 131.946 24.7673H136.136V38.6723H136.135Z" fill="url(#paint10_linear_617_8629)"/>
<path d="M137.469 22.1006H133.279V17.9104C133.279 17.5567 133.138 17.2175 132.888 16.9675C132.638 16.7173 132.299 16.577 131.945 16.5771H120.897C120.543 16.577 120.204 16.7173 119.954 16.9675C119.704 17.2176 119.564 17.5568 119.564 17.9104V22.1006H115.374C115.02 22.1004 114.681 22.2407 114.431 22.4909C114.181 22.7411 114.04 23.0803 114.04 23.4339V40.0056C114.04 40.3593 114.181 40.6986 114.431 40.9486C114.681 41.1987 115.02 41.339 115.374 41.3389H119.564V45.529C119.564 45.8828 119.704 46.222 119.954 46.472C120.204 46.7222 120.544 46.8625 120.897 46.8623H131.945C132.299 46.8625 132.638 46.7222 132.888 46.472C133.138 46.2218 133.279 45.8826 133.279 45.529V41.3389H137.469C137.823 41.339 138.162 41.1987 138.412 40.9486C138.662 40.6984 138.802 40.3592 138.802 40.0056V23.434C138.802 23.0803 138.662 22.7411 138.412 22.4911C138.162 22.2409 137.823 22.1004 137.469 22.1006ZM130.612 44.1957H122.23V35.8156H130.612V44.1957ZM136.135 38.6723H133.279V34.4822C133.279 34.1284 133.139 33.7892 132.888 33.5392C132.638 33.289 132.299 33.1487 131.945 33.1489H120.897C120.544 33.1487 120.204 33.289 119.954 33.5392C119.704 33.7893 119.564 34.1286 119.564 34.4822V38.6723H116.707V24.7673H120.897C121.251 24.7675 121.59 24.6272 121.84 24.377C122.091 24.1268 122.231 23.7876 122.231 23.434V19.2439H130.612V23.434C130.612 23.7878 130.753 24.127 131.003 24.377C131.253 24.6272 131.592 24.7675 131.946 24.7673H136.136V38.6723H136.135Z" fill="black" fill-opacity="0.6"/>
<path d="M176.136 27.6241H171.945V17.9105C171.946 17.5567 171.805 17.2175 171.555 16.9675C171.305 16.7173 170.966 16.577 170.612 16.5772H166.421V12.3872C166.421 12.0334 166.281 11.6942 166.03 11.4442C165.78 11.1941 165.441 11.0537 165.087 11.0539H160.897V6.86233C160.897 6.50858 160.757 6.16937 160.507 5.91937C160.257 5.66921 159.918 5.5289 159.564 5.52905H155.374V1.3389C155.374 0.985147 155.234 0.645928 154.983 0.395928C154.733 0.145928 154.394 0.00545911 154.04 0.00561536H120.897C120.543 0.00545911 120.204 0.145772 119.954 0.395928C119.704 0.646084 119.564 0.985303 119.564 1.3389V5.52905H115.374C115.02 5.5289 114.681 5.66921 114.431 5.91937C114.181 6.16952 114.04 6.50874 114.041 6.86233V11.0537H109.85C109.497 11.0536 109.157 11.1939 108.907 11.4441C108.657 11.6942 108.517 12.0334 108.517 12.387V16.5772H104.326C103.972 16.577 103.633 16.7173 103.383 16.9675C103.132 17.2176 102.992 17.5569 102.992 17.9105V27.6241H98.8021C98.4483 27.6239 98.1091 27.7642 97.8591 28.0144C97.609 28.2645 97.4687 28.6037 97.4688 28.9573V73.1487C97.4687 73.5025 97.609 73.8417 97.8591 74.0917C98.1093 74.3417 98.4485 74.4822 98.8021 74.482H102.992V78.6722C102.992 79.0259 103.132 79.3652 103.383 79.6152C103.633 79.8653 103.972 80.0056 104.326 80.0055H115.374C115.727 80.0056 116.067 79.8653 116.317 79.6152C116.567 79.365 116.707 79.0258 116.707 78.6722V74.4822H120.897C121.251 74.4823 121.59 74.342 121.84 74.0919C122.09 73.8417 122.231 73.5025 122.23 73.1489V68.9575H125.087V73.1489C125.087 73.5026 125.227 73.8419 125.477 74.0919C125.728 74.342 126.067 74.4823 126.42 74.4822H130.612V78.6723C130.612 79.0261 130.752 79.3653 131.002 79.6153C131.252 79.8655 131.591 80.0058 131.945 80.0056H142.992C143.346 80.0058 143.685 79.8655 143.935 79.6153C144.185 79.3652 144.325 79.0259 144.325 78.6723V74.4822H148.517C148.87 74.4823 149.21 74.342 149.46 74.0919C149.71 73.8417 149.85 73.5025 149.85 73.1489V68.9575H152.707V73.1489C152.706 73.5026 152.847 73.8419 153.097 74.0919C153.347 74.342 153.686 74.4823 154.04 74.4822H158.23V78.6723C158.23 79.0261 158.37 79.3653 158.62 79.6153C158.871 79.8655 159.21 80.0058 159.563 80.0056H170.611C170.965 80.0058 171.304 79.8655 171.554 79.6153C171.805 79.3652 171.945 79.0259 171.945 78.6723V74.4822H176.135C176.489 74.4823 176.828 74.342 177.078 74.0919C177.328 73.8417 177.468 73.5025 177.468 73.1489V28.9575C177.468 28.6037 177.328 28.2645 177.078 28.0145C176.828 27.7644 176.489 27.6239 176.136 27.6241ZM166.421 38.6723V34.4822C166.421 34.1284 166.281 33.7892 166.03 33.5392C165.78 33.2892 165.441 33.1487 165.087 33.1489H154.041C153.687 33.1487 153.348 33.2891 153.098 33.5392C152.848 33.7894 152.707 34.1286 152.707 34.4822V38.6723H149.851V24.7673H154.041C154.394 24.7675 154.734 24.6272 154.984 24.377C155.234 24.1269 155.374 23.7876 155.374 23.4341V19.2439H163.754V23.4341C163.754 23.7878 163.894 24.127 164.144 24.377C164.395 24.6272 164.734 24.7675 165.087 24.7673H169.279V38.6723H166.421ZM155.374 40.0056V35.8155H163.754V44.1956H155.374V40.0056ZM169.279 22.1006H166.421V19.2439H169.279V22.1006ZM174.802 71.8155H170.612C170.258 71.8153 169.919 71.9556 169.669 72.2058C169.419 72.4559 169.278 72.7952 169.279 73.1487V77.3389H160.897V73.1487C160.897 72.795 160.757 72.4558 160.507 72.2058C160.257 71.9558 159.917 71.8153 159.564 71.8155H155.374V67.6241C155.374 67.2703 155.233 66.9311 154.983 66.6811C154.733 66.4309 154.394 66.2906 154.04 66.2908H148.517C148.163 66.2906 147.824 66.4309 147.574 66.6811C147.324 66.9312 147.183 67.2705 147.184 67.6241V71.8155H142.992C142.638 71.8153 142.299 71.9556 142.049 72.2058C141.799 72.4559 141.659 72.7952 141.659 73.1487V77.3389H133.279V73.1487C133.279 72.795 133.139 72.4558 132.888 72.2058C132.638 71.9556 132.299 71.8153 131.946 71.8155H127.754V67.6241C127.754 67.2703 127.614 66.9311 127.364 66.6811C127.114 66.4309 126.774 66.2906 126.421 66.2908H120.897C120.544 66.2906 120.204 66.4309 119.954 66.6811C119.704 66.9312 119.564 67.2705 119.564 67.6241V71.8155H115.374C115.02 71.8153 114.681 71.9556 114.431 72.2058C114.181 72.4559 114.041 72.7952 114.041 73.1487V77.3389H105.659V73.1487C105.659 72.795 105.519 72.4558 105.269 72.2058C105.018 71.9558 104.679 71.8153 104.326 71.8155H100.136V30.2908H104.326C104.679 30.2909 105.019 30.1506 105.269 29.9005C105.519 29.6503 105.659 29.3111 105.659 28.9575V19.2439H109.85C110.204 19.2441 110.543 19.1037 110.793 18.8536C111.043 18.6034 111.184 18.2642 111.184 17.9106V13.7205H115.374C115.728 13.7206 116.067 13.5803 116.317 13.3301C116.567 13.08 116.707 12.7408 116.707 12.3872V8.19577H120.897C121.251 8.19593 121.59 8.05562 121.84 7.80546C122.09 7.5553 122.231 7.21608 122.231 6.86249V2.67233H152.707V6.86249C152.707 7.21624 152.847 7.55546 153.097 7.80546C153.348 8.05546 153.687 8.19593 154.04 8.19577H158.231V12.3872C158.23 12.7409 158.371 13.0801 158.621 13.3301C158.871 13.5803 159.21 13.7206 159.564 13.7205H163.754V16.5772H154.04C153.687 16.577 153.347 16.7173 153.097 16.9675C152.847 17.2176 152.707 17.5569 152.707 17.9105V22.1006H148.517C148.163 22.1005 147.824 22.2408 147.574 22.4909C147.324 22.7411 147.183 23.0803 147.184 23.4339V40.0056C147.183 40.3594 147.324 40.6986 147.574 40.9486C147.824 41.1986 148.163 41.3391 148.517 41.3389H152.707V45.5291C152.707 45.8828 152.847 46.222 153.097 46.472C153.348 46.722 153.687 46.8625 154.04 46.8623H165.087C165.441 46.8625 165.78 46.7222 166.03 46.472C166.28 46.2219 166.421 45.8826 166.421 45.5291V41.3389H170.612C170.966 41.3391 171.305 41.1987 171.555 40.9486C171.805 40.6984 171.945 40.3592 171.945 40.0056V30.2908H174.802L174.802 71.8155Z" fill="url(#paint11_linear_617_8629)"/>
<path d="M176.136 27.6241H171.945V17.9105C171.946 17.5567 171.805 17.2175 171.555 16.9675C171.305 16.7173 170.966 16.577 170.612 16.5772H166.421V12.3872C166.421 12.0334 166.281 11.6942 166.03 11.4442C165.78 11.1941 165.441 11.0537 165.087 11.0539H160.897V6.86233C160.897 6.50858 160.757 6.16937 160.507 5.91937C160.257 5.66921 159.918 5.5289 159.564 5.52905H155.374V1.3389C155.374 0.985147 155.234 0.645928 154.983 0.395928C154.733 0.145928 154.394 0.00545911 154.04 0.00561536H120.897C120.543 0.00545911 120.204 0.145772 119.954 0.395928C119.704 0.646084 119.564 0.985303 119.564 1.3389V5.52905H115.374C115.02 5.5289 114.681 5.66921 114.431 5.91937C114.181 6.16952 114.04 6.50874 114.041 6.86233V11.0537H109.85C109.497 11.0536 109.157 11.1939 108.907 11.4441C108.657 11.6942 108.517 12.0334 108.517 12.387V16.5772H104.326C103.972 16.577 103.633 16.7173 103.383 16.9675C103.132 17.2176 102.992 17.5569 102.992 17.9105V27.6241H98.8021C98.4483 27.6239 98.1091 27.7642 97.8591 28.0144C97.609 28.2645 97.4687 28.6037 97.4688 28.9573V73.1487C97.4687 73.5025 97.609 73.8417 97.8591 74.0917C98.1093 74.3417 98.4485 74.4822 98.8021 74.482H102.992V78.6722C102.992 79.0259 103.132 79.3652 103.383 79.6152C103.633 79.8653 103.972 80.0056 104.326 80.0055H115.374C115.727 80.0056 116.067 79.8653 116.317 79.6152C116.567 79.365 116.707 79.0258 116.707 78.6722V74.4822H120.897C121.251 74.4823 121.59 74.342 121.84 74.0919C122.09 73.8417 122.231 73.5025 122.23 73.1489V68.9575H125.087V73.1489C125.087 73.5026 125.227 73.8419 125.477 74.0919C125.728 74.342 126.067 74.4823 126.42 74.4822H130.612V78.6723C130.612 79.0261 130.752 79.3653 131.002 79.6153C131.252 79.8655 131.591 80.0058 131.945 80.0056H142.992C143.346 80.0058 143.685 79.8655 143.935 79.6153C144.185 79.3652 144.325 79.0259 144.325 78.6723V74.4822H148.517C148.87 74.4823 149.21 74.342 149.46 74.0919C149.71 73.8417 149.85 73.5025 149.85 73.1489V68.9575H152.707V73.1489C152.706 73.5026 152.847 73.8419 153.097 74.0919C153.347 74.342 153.686 74.4823 154.04 74.4822H158.23V78.6723C158.23 79.0261 158.37 79.3653 158.62 79.6153C158.871 79.8655 159.21 80.0058 159.563 80.0056H170.611C170.965 80.0058 171.304 79.8655 171.554 79.6153C171.805 79.3652 171.945 79.0259 171.945 78.6723V74.4822H176.135C176.489 74.4823 176.828 74.342 177.078 74.0919C177.328 73.8417 177.468 73.5025 177.468 73.1489V28.9575C177.468 28.6037 177.328 28.2645 177.078 28.0145C176.828 27.7644 176.489 27.6239 176.136 27.6241ZM166.421 38.6723V34.4822C166.421 34.1284 166.281 33.7892 166.03 33.5392C165.78 33.2892 165.441 33.1487 165.087 33.1489H154.041C153.687 33.1487 153.348 33.2891 153.098 33.5392C152.848 33.7894 152.707 34.1286 152.707 34.4822V38.6723H149.851V24.7673H154.041C154.394 24.7675 154.734 24.6272 154.984 24.377C155.234 24.1269 155.374 23.7876 155.374 23.4341V19.2439H163.754V23.4341C163.754 23.7878 163.894 24.127 164.144 24.377C164.395 24.6272 164.734 24.7675 165.087 24.7673H169.279V38.6723H166.421ZM155.374 40.0056V35.8155H163.754V44.1956H155.374V40.0056ZM169.279 22.1006H166.421V19.2439H169.279V22.1006ZM174.802 71.8155H170.612C170.258 71.8153 169.919 71.9556 169.669 72.2058C169.419 72.4559 169.278 72.7952 169.279 73.1487V77.3389H160.897V73.1487C160.897 72.795 160.757 72.4558 160.507 72.2058C160.257 71.9558 159.917 71.8153 159.564 71.8155H155.374V67.6241C155.374 67.2703 155.233 66.9311 154.983 66.6811C154.733 66.4309 154.394 66.2906 154.04 66.2908H148.517C148.163 66.2906 147.824 66.4309 147.574 66.6811C147.324 66.9312 147.183 67.2705 147.184 67.6241V71.8155H142.992C142.638 71.8153 142.299 71.9556 142.049 72.2058C141.799 72.4559 141.659 72.7952 141.659 73.1487V77.3389H133.279V73.1487C133.279 72.795 133.139 72.4558 132.888 72.2058C132.638 71.9556 132.299 71.8153 131.946 71.8155H127.754V67.6241C127.754 67.2703 127.614 66.9311 127.364 66.6811C127.114 66.4309 126.774 66.2906 126.421 66.2908H120.897C120.544 66.2906 120.204 66.4309 119.954 66.6811C119.704 66.9312 119.564 67.2705 119.564 67.6241V71.8155H115.374C115.02 71.8153 114.681 71.9556 114.431 72.2058C114.181 72.4559 114.041 72.7952 114.041 73.1487V77.3389H105.659V73.1487C105.659 72.795 105.519 72.4558 105.269 72.2058C105.018 71.9558 104.679 71.8153 104.326 71.8155H100.136V30.2908H104.326C104.679 30.2909 105.019 30.1506 105.269 29.9005C105.519 29.6503 105.659 29.3111 105.659 28.9575V19.2439H109.85C110.204 19.2441 110.543 19.1037 110.793 18.8536C111.043 18.6034 111.184 18.2642 111.184 17.9106V13.7205H115.374C115.728 13.7206 116.067 13.5803 116.317 13.3301C116.567 13.08 116.707 12.7408 116.707 12.3872V8.19577H120.897C121.251 8.19593 121.59 8.05562 121.84 7.80546C122.09 7.5553 122.231 7.21608 122.231 6.86249V2.67233H152.707V6.86249C152.707 7.21624 152.847 7.55546 153.097 7.80546C153.348 8.05546 153.687 8.19593 154.04 8.19577H158.231V12.3872C158.23 12.7409 158.371 13.0801 158.621 13.3301C158.871 13.5803 159.21 13.7206 159.564 13.7205H163.754V16.5772H154.04C153.687 16.577 153.347 16.7173 153.097 16.9675C152.847 17.2176 152.707 17.5569 152.707 17.9105V22.1006H148.517C148.163 22.1005 147.824 22.2408 147.574 22.4909C147.324 22.7411 147.183 23.0803 147.184 23.4339V40.0056C147.183 40.3594 147.324 40.6986 147.574 40.9486C147.824 41.1986 148.163 41.3391 148.517 41.3389H152.707V45.5291C152.707 45.8828 152.847 46.222 153.097 46.472C153.348 46.722 153.687 46.8625 154.04 46.8623H165.087C165.441 46.8625 165.78 46.7222 166.03 46.472C166.28 46.2219 166.421 45.8826 166.421 45.5291V41.3389H170.612C170.966 41.3391 171.305 41.1987 171.555 40.9486C171.805 40.6984 171.945 40.3592 171.945 40.0056V30.2908H174.802L174.802 71.8155Z" fill="black" fill-opacity="0.6"/>
<defs>
<linearGradient id="paint0_linear_617_8629" x1="40.8649" y1="1.33887" x2="40.8649" y2="78.6722" gradientUnits="userSpaceOnUse">
<stop stop-color="#08B982"/>
<stop offset="1" stop-color="#09B392"/>
</linearGradient>
<linearGradient id="paint1_linear_617_8629" x1="2.50963" y1="48.8572" x2="70.5203" y2="61.3211" gradientUnits="userSpaceOnUse">
<stop stop-color="#36FF78"/>
<stop offset="1" stop-color="#0CFFFF"/>
</linearGradient>
<linearGradient id="paint2_linear_617_8629" x1="35.341" y1="34.4816" x2="24.293" y2="34.4816" gradientUnits="userSpaceOnUse">
<stop stop-color="#A83AFE"/>
<stop offset="1" stop-color="#6E59FE"/>
</linearGradient>
<linearGradient id="paint3_linear_617_8629" x1="68.4863" y1="34.4816" x2="57.4383" y2="34.4816" gradientUnits="userSpaceOnUse">
<stop stop-color="#A83AFE"/>
<stop offset="1" stop-color="#6E59FE"/>
</linearGradient>
<linearGradient id="paint4_linear_617_8629" x1="42.1983" y1="16.5771" x2="17.4368" y2="16.5771" gradientUnits="userSpaceOnUse">
<stop stop-color="#A83AFE"/>
<stop offset="1" stop-color="#6E59FE"/>
</linearGradient>
<linearGradient id="paint5_linear_617_8629" x1="80.8644" y1="0.00561523" x2="0.865051" y2="0.00561523" gradientUnits="userSpaceOnUse">
<stop stop-color="#A83AFE"/>
<stop offset="1" stop-color="#6E59FE"/>
</linearGradient>
<linearGradient id="paint6_linear_617_8629" x1="137.469" y1="1.33862" x2="137.469" y2="78.6719" gradientUnits="userSpaceOnUse">
<stop stop-color="#B40C06"/>
<stop offset="1" stop-color="#C1480D"/>
</linearGradient>
<linearGradient id="paint7_linear_617_8629" x1="134.802" y1="1.33862" x2="134.802" y2="78.6719" gradientUnits="userSpaceOnUse">
<stop stop-color="#FF0C0C"/>
<stop offset="1" stop-color="#FF630C"/>
</linearGradient>
<linearGradient id="paint8_linear_617_8629" x1="131.945" y1="34.4816" x2="120.897" y2="34.4816" gradientUnits="userSpaceOnUse">
<stop stop-color="#A83AFE"/>
<stop offset="1" stop-color="#6E59FE"/>
</linearGradient>
<linearGradient id="paint9_linear_617_8629" x1="165.09" y1="34.4816" x2="154.042" y2="34.4816" gradientUnits="userSpaceOnUse">
<stop stop-color="#A83AFE"/>
<stop offset="1" stop-color="#6E59FE"/>
</linearGradient>
<linearGradient id="paint10_linear_617_8629" x1="138.802" y1="16.5771" x2="114.04" y2="16.5771" gradientUnits="userSpaceOnUse">
<stop stop-color="#A83AFE"/>
<stop offset="1" stop-color="#6E59FE"/>
</linearGradient>
<linearGradient id="paint11_linear_617_8629" x1="177.468" y1="0.00561523" x2="97.4688" y2="0.00561523" gradientUnits="userSpaceOnUse">
<stop stop-color="#A83AFE"/>
<stop offset="1" stop-color="#6E59FE"/>
</linearGradient>
<clipPath id="clip0_617_8629">
<rect width="80" height="80" fill="white" transform="translate(0.865051 0.00561523)"/>
</clipPath>
</defs>
</svg>
