<svg width="20" height="22" viewBox="0 0 20 22" fill="none" xmlns="http://www.w3.org/2000/svg">
<path d="M7.67233 13.678C9.75144 13.678 11.4364 11.5683 11.4364 9.49061C11.4364 7.41289 9.75144 5.72656 7.67233 5.72656C5.59322 5.72656 3.90967 7.4115 3.90967 9.49061C3.90967 11.5697 5.59461 13.678 7.67233 13.678Z" fill="url(#paint0_linear_212_60903)"/>
<path d="M11.2186 14.2729C11.0035 14.1508 10.7342 14.1633 10.5329 14.3076C9.69742 14.9058 8.71893 15.2695 7.67382 15.2695C6.61206 15.2695 5.62108 14.8961 4.77861 14.2813C4.58014 14.1369 4.31782 14.1105 4.10269 14.2285C1.94308 15.418 0.388604 17.6248 0.0541143 20.0273C-0.0166699 20.538 0.378889 20.9933 0.895197 20.9933H14.3456C14.8605 20.9933 15.2574 20.538 15.1867 20.0287C14.8563 17.6553 13.3352 15.4735 11.2186 14.2729Z" fill="url(#paint1_linear_212_60903)"/>
<path d="M18.9827 3.78366H17.1784V1.97936C17.1784 1.44223 16.744 1.00781 16.2069 1.00781C15.6697 1.00781 15.2353 1.44223 15.2353 1.97936V3.78366H13.431C12.8939 3.78366 12.4595 4.21808 12.4595 4.75521C12.4595 5.29234 12.8939 5.72676 13.431 5.72676H15.2353V7.53106C15.2353 8.06819 15.6697 8.50261 16.2069 8.50261C16.744 8.50261 17.1784 8.06819 17.1784 7.53106V5.72676H18.9827C19.5199 5.72676 19.9543 5.29234 19.9543 4.75521C19.9543 4.21808 19.5199 3.78366 18.9827 3.78366Z" fill="url(#paint2_linear_212_60903)"/>
<defs>
<linearGradient id="paint0_linear_212_60903" x1="11.4364" y1="5.72656" x2="3.90967" y2="5.72656" gradientUnits="userSpaceOnUse">
<stop stop-color="#A83AFE"/>
<stop offset="1" stop-color="#6E59FE"/>
</linearGradient>
<linearGradient id="paint1_linear_212_60903" x1="15.1949" y1="14.1543" x2="0.0458984" y2="14.1543" gradientUnits="userSpaceOnUse">
<stop stop-color="#A83AFE"/>
<stop offset="1" stop-color="#6E59FE"/>
</linearGradient>
<linearGradient id="paint2_linear_212_60903" x1="19.9543" y1="1.00781" x2="12.4595" y2="1.00781" gradientUnits="userSpaceOnUse">
<stop stop-color="#A83AFE"/>
<stop offset="1" stop-color="#6E59FE"/>
</linearGradient>
</defs>
</svg>
