<svg width="270" height="124" viewBox="0 0 270 124" fill="none" xmlns="http://www.w3.org/2000/svg">
<g clip-path="url(#clip0_315_105364)">
<path d="M61.154 36.664V62.0002H52.7085V70.4457H35.8178V62.0002H27.3745V36.664H35.8178V28.2207H52.7085V36.664H61.154Z" fill="white"/>
<path d="M52.7155 36.6629V28.2236H35.8167V36.6629H27.3774V62.001H35.8167V70.4403H52.7155V62.001H61.1548V36.6629H52.7155Z" fill="white"/>
<path d="M111.83 36.6619V62H103.371V70.4393H86.492V62H78.0527V36.6619H86.492V28.2227H103.371V36.6619H111.83Z" fill="white"/>
<path d="M52.7086 53.5547H35.8179V70.4454H52.7086V53.5547Z" fill="#336A93"/>
<path d="M103.383 53.5547H86.4922V70.4454H103.383V53.5547Z" fill="#336A93"/>
<path d="M61.154 36.664V62.0002H52.7085V70.4457H35.8178V62.0002H27.3745V36.664H35.8178V28.2207H52.7085V36.664H61.154Z" fill="white"/>
<path d="M52.7155 36.6629V28.2236H35.8167V36.6629H27.3774V62.001H35.8167V70.4403H52.7155V62.001H61.1548V36.6629H52.7155Z" fill="white"/>
<path d="M111.83 28.2227H103.371V36.6619H111.83V28.2227Z" fill="#09B885"/>
<path d="M111.83 36.6619V62H103.371V70.4393H86.492V62H78.0527V36.6619H86.492V28.2227H103.371V36.6619H111.83Z" fill="white"/>
<path d="M111.831 45.1006V61.9995H103.371V53.5602H86.4926V61.9995H78.0533V36.6614H86.4926V28.2221H103.371V19.7829H94.9318V11.3231H86.4926V2.88379H35.8162V11.3231H27.3769V19.7826H18.9376V28.2219H10.4778V45.1004H2.03857V112.676H10.4778V121.115H27.3767V112.676H35.8159V104.216H44.2552V112.676H52.7147V121.115H69.5933V112.676H78.0528V104.216H86.4921V112.676H94.9313V121.115H111.83V112.676H120.269V45.1004H111.831V45.1006ZM61.1542 61.9995H52.715V53.5602H35.8162V61.9995H27.3769V36.6614H35.8162V28.2221H52.715V36.6614H61.1542V61.9995Z" fill="url(#paint0_linear_315_105364)"/>
<path d="M111.831 45.1006V61.9995H95.2171V53.5602H86.4923V61.9995H69.8993V36.6614H78.3385V28.2221H95.2171V19.7829H86.7778V11.3231H78.3385V2.88379H35.8162V11.3231H27.3769V19.7826H18.9376V28.2219H10.4778V45.1004H2.03857V112.676H10.4778V121.115H19.2229V112.676H27.6621V104.216H44.2552V112.676H52.7147V121.115H61.4395V112.676H69.899V104.216H86.4921V112.676H94.9314V121.115H103.676V112.676H112.116V45.1004H111.831V45.1006ZM61.1542 61.9995H44.5612V53.5602H35.8162V61.9995H19.2229V36.6614H27.6621V28.2221H52.715V36.6614H61.1542V61.9995Z" fill="url(#paint1_linear_315_105364)"/>
<path d="M52.7086 53.5547H35.8179V70.4454H52.7086V53.5547Z" fill="url(#paint2_linear_315_105364)"/>
<path d="M52.7086 53.5547H35.8179V70.4454H52.7086V53.5547Z" fill="black" fill-opacity="0.6"/>
<path d="M103.383 53.5547H86.4922V70.4454H103.383V53.5547Z" fill="url(#paint3_linear_315_105364)"/>
<path d="M103.383 53.5547H86.4922V70.4454H103.383V53.5547Z" fill="black" fill-opacity="0.6"/>
<path d="M61.1543 34.6262H54.7482V28.22C54.7484 27.6792 54.5339 27.1606 54.1514 26.7784C53.769 26.3959 53.2504 26.1814 52.7098 26.1816H35.8188C35.278 26.1814 34.7594 26.3959 34.3772 26.7784C33.9947 27.1608 33.7802 27.6794 33.7805 28.22V34.6262H27.3743C26.8335 34.6259 26.3149 34.8404 25.9327 35.2229C25.5502 35.6053 25.3357 36.124 25.3359 36.6645V62.0003C25.3357 62.5411 25.5502 63.0597 25.9327 63.4419C26.3151 63.8244 26.8337 64.0389 27.3743 64.0386H33.7805V70.4448C33.7802 70.9856 33.9947 71.5042 34.3772 71.8864C34.7596 72.2689 35.2783 72.4834 35.8188 72.4832H52.7098C53.2506 72.4834 53.7692 72.2689 54.1514 71.8864C54.5339 71.504 54.7484 70.9854 54.7482 70.4448V64.0386H61.1543C61.6951 64.0389 62.2138 63.8244 62.596 63.4419C62.9782 63.0595 63.1929 62.5409 63.1927 62.0003V36.6648C63.1929 36.124 62.9784 35.6053 62.596 35.2231C62.2138 34.8407 61.6951 34.6259 61.1543 34.6262ZM50.6714 68.4064H37.8572V55.5944H50.6714V68.4064ZM59.1159 59.9619H54.7484V53.5557C54.7487 53.0149 54.5341 52.4963 54.1517 52.1141C53.7692 51.7316 53.2506 51.5171 52.71 51.5174H35.8191C35.2783 51.5171 34.7596 51.7316 34.3774 52.1141C33.995 52.4965 33.7805 53.0151 33.7807 53.5557V59.9619H29.4132V38.7032H35.8193C36.3602 38.7034 36.8788 38.4889 37.261 38.1065C37.6434 37.724 37.858 37.2054 37.8577 36.6648V30.2587H50.6719V36.6648C50.6716 37.2056 50.8862 37.7242 51.2686 38.1065C51.6511 38.4889 52.1697 38.7034 52.7103 38.7032H59.1164V59.9619H59.1159Z" fill="url(#paint4_linear_315_105364)"/>
<path d="M61.1543 34.6262H54.7482V28.22C54.7484 27.6792 54.5339 27.1606 54.1514 26.7784C53.769 26.3959 53.2504 26.1814 52.7098 26.1816H35.8188C35.278 26.1814 34.7594 26.3959 34.3772 26.7784C33.9947 27.1608 33.7802 27.6794 33.7805 28.22V34.6262H27.3743C26.8335 34.6259 26.3149 34.8404 25.9327 35.2229C25.5502 35.6053 25.3357 36.124 25.3359 36.6645V62.0003C25.3357 62.5411 25.5502 63.0597 25.9327 63.4419C26.3151 63.8244 26.8337 64.0389 27.3743 64.0386H33.7805V70.4448C33.7802 70.9856 33.9947 71.5042 34.3772 71.8864C34.7596 72.2689 35.2783 72.4834 35.8188 72.4832H52.7098C53.2506 72.4834 53.7692 72.2689 54.1514 71.8864C54.5339 71.504 54.7484 70.9854 54.7482 70.4448V64.0386H61.1543C61.6951 64.0389 62.2138 63.8244 62.596 63.4419C62.9782 63.0595 63.1929 62.5409 63.1927 62.0003V36.6648C63.1929 36.124 62.9784 35.6053 62.596 35.2231C62.2138 34.8407 61.6951 34.6259 61.1543 34.6262ZM50.6714 68.4064H37.8572V55.5944H50.6714V68.4064ZM59.1159 59.9619H54.7484V53.5557C54.7487 53.0149 54.5341 52.4963 54.1517 52.1141C53.7692 51.7316 53.2506 51.5171 52.71 51.5174H35.8191C35.2783 51.5171 34.7596 51.7316 34.3774 52.1141C33.995 52.4965 33.7805 53.0151 33.7807 53.5557V59.9619H29.4132V38.7032H35.8193C36.3602 38.7034 36.8788 38.4889 37.261 38.1065C37.6434 37.724 37.858 37.2054 37.8577 36.6648V30.2587H50.6719V36.6648C50.6716 37.2056 50.8862 37.7242 51.2686 38.1065C51.6511 38.4889 52.1697 38.7034 52.7103 38.7032H59.1164V59.9619H59.1159Z" fill="black" fill-opacity="0.6"/>
<path d="M120.27 43.0702H113.864V28.2196C113.864 27.6787 113.649 27.1601 113.267 26.7779C112.884 26.3954 112.366 26.1809 111.825 26.1812H105.417V19.7753C105.417 19.2344 105.203 18.7158 104.82 18.3336C104.438 17.9512 103.919 17.7366 103.379 17.7369H96.9727V11.3286C96.9729 10.7878 96.7584 10.2692 96.3759 9.88695C95.9935 9.5045 95.4749 9.28998 94.9343 9.29022H88.5282V2.88409C88.5284 2.34326 88.3139 1.82465 87.9314 1.44243C87.549 1.06022 87.0304 0.845464 86.4895 0.845703H35.8186C35.2778 0.845464 34.7592 1.05998 34.3769 1.44243C33.9945 1.82489 33.78 2.3435 33.7802 2.88409V9.29022H27.3741C26.8333 9.28998 26.3146 9.5045 25.9324 9.88695C25.55 10.2694 25.3355 10.788 25.3357 11.3286V17.7366H18.9296C18.3887 17.7364 17.8701 17.9509 17.4879 18.3334C17.1055 18.7158 16.8909 19.2344 16.8912 19.775V26.1812H10.4829C9.94207 26.1809 9.42346 26.3954 9.04125 26.7779C8.65879 27.1603 8.44428 27.679 8.44452 28.2196V43.0702H2.03839C1.49756 43.07 0.978943 43.2845 0.59673 43.6669C0.214278 44.0494 -0.000238684 44.568 1.99299e-07 45.1086V112.671C-0.000238684 113.212 0.214278 113.73 0.59673 114.112C0.979182 114.495 1.4978 114.709 2.03839 114.709H8.44452V121.115C8.44428 121.656 8.65879 122.175 9.04125 122.557C9.4237 122.939 9.94231 123.154 10.4829 123.154H27.3739C27.9147 123.154 28.4333 122.939 28.8155 122.557C29.198 122.174 29.4125 121.656 29.4122 121.115V114.709H35.8184C36.3592 114.71 36.8778 114.495 37.26 114.113C37.6425 113.73 37.857 113.212 37.8568 112.671V106.263H42.2243V112.671C42.224 113.212 42.4385 113.73 42.821 114.113C43.2034 114.495 43.722 114.71 44.2626 114.709H50.6707V121.115C50.6704 121.656 50.885 122.175 51.2674 122.557C51.6499 122.94 52.1685 123.154 52.7091 123.154H69.5981C70.1389 123.154 70.6576 122.94 71.0398 122.557C71.4222 122.175 71.6367 121.656 71.6365 121.115V114.709H78.0445C78.5854 114.71 79.104 114.495 79.4862 114.113C79.8686 113.73 80.0832 113.212 80.0829 112.671V106.263H84.4504V112.671C84.4502 113.212 84.6647 113.73 85.0471 114.113C85.4296 114.495 85.9482 114.71 86.4888 114.709H92.8949V121.115C92.8947 121.656 93.1092 122.175 93.4917 122.557C93.8741 122.94 94.3927 123.154 94.9333 123.154H111.824C112.365 123.154 112.884 122.94 113.266 122.557C113.648 122.175 113.863 121.656 113.863 121.115V114.709H120.269C120.81 114.71 121.328 114.495 121.71 114.113C122.093 113.73 122.307 113.212 122.307 112.671V45.1088C122.307 44.568 122.093 44.0494 121.71 43.6672C121.329 43.2847 120.81 43.07 120.27 43.0702ZM105.417 59.9614V53.5553C105.417 53.0144 105.203 52.4958 104.82 52.1136C104.438 51.7314 103.919 51.5166 103.379 51.5169H86.4898C85.9489 51.5166 85.4303 51.7311 85.0481 52.1136C84.6659 52.496 84.4511 53.0147 84.4514 53.5553V59.9614H80.0839V38.7027H86.49C87.0308 38.7029 87.5495 38.4884 87.9317 38.106C88.3141 37.7235 88.5286 37.2049 88.5284 36.6643V30.2582H101.34V36.6643C101.34 37.2051 101.555 37.7238 101.937 38.106C102.32 38.4884 102.838 38.7029 103.379 38.7027H109.787V59.9614H105.417ZM88.5282 61.9998V55.5936H101.34V68.4057H88.5282V61.9998ZM109.787 34.6257H105.417V30.2582H109.787V34.6257ZM118.231 110.632H111.825C111.284 110.632 110.766 110.847 110.383 111.229C110.001 111.611 109.786 112.13 109.787 112.671V119.077H96.9724V112.671C96.9727 112.13 96.7582 111.611 96.3757 111.229C95.9933 110.847 95.4746 110.632 94.934 110.632H88.5279V104.224C88.5282 103.683 88.3136 103.165 87.9312 102.783C87.5487 102.4 87.0301 102.186 86.4895 102.186H78.045C77.5042 102.186 76.9856 102.4 76.6034 102.783C76.2209 103.165 76.0064 103.684 76.0066 104.224V110.632H69.5986C69.0578 110.632 68.5391 110.847 68.1569 111.229C67.7747 111.611 67.56 112.13 67.5602 112.671V119.077H54.7482V112.671C54.7484 112.13 54.5339 111.611 54.1515 111.229C53.769 110.847 53.2504 110.632 52.7098 110.632H46.3018V104.224C46.302 103.683 46.0875 103.165 45.705 102.783C45.3226 102.4 44.804 102.186 44.2634 102.186H35.8188C35.278 102.186 34.7594 102.4 34.3772 102.783C33.9947 103.165 33.7802 103.684 33.7805 104.224V110.632H27.3743C26.8335 110.632 26.3149 110.847 25.9327 111.229C25.5502 111.611 25.3357 112.13 25.3359 112.671V119.077H12.5215V112.671C12.5218 112.13 12.3073 111.611 11.9248 111.229C11.5424 110.847 11.0237 110.632 10.4831 110.632H4.07702V47.1472H10.4831C11.024 47.1475 11.5426 46.9329 11.9248 46.5505C12.3073 46.168 12.5218 45.6494 12.5215 45.1088V30.2582H18.9296C19.4704 30.2584 19.989 30.0439 20.3712 29.6615C20.7537 29.279 20.9682 28.7604 20.968 28.2198V21.8137H27.3741C27.9149 21.8139 28.4335 21.5994 28.8157 21.2169C29.1982 20.8345 29.4127 20.3159 29.4125 19.7753V13.3672H35.8186C36.3594 13.3675 36.8781 13.153 37.2603 12.7705C37.6427 12.3881 37.8572 11.8694 37.857 11.3288V4.92272H84.4511V11.3288C84.4509 11.8697 84.6654 12.3883 85.0479 12.7705C85.4303 13.1527 85.9489 13.3675 86.4895 13.3672H92.8957V19.7753C92.8954 20.3161 93.1099 20.8347 93.4924 21.2169C93.8748 21.5994 94.3934 21.8139 94.934 21.8137H101.34V26.1812H86.4895C85.9487 26.1809 85.4301 26.3954 85.0479 26.7779C84.6654 27.1603 84.4509 27.679 84.4511 28.2196V34.6257H78.045C77.5042 34.6254 76.9856 34.84 76.6034 35.2224C76.2209 35.6049 76.0064 36.1235 76.0066 36.6641V61.9998C76.0064 62.5406 76.2209 63.0592 76.6034 63.4414C76.9858 63.8236 77.5044 64.0384 78.045 64.0382H84.4511V70.4443C84.4509 70.9851 84.6654 71.5037 85.0479 71.8859C85.4303 72.2682 85.9489 72.4829 86.4895 72.4827H103.379C103.919 72.4829 104.438 72.2684 104.82 71.8859C105.202 71.5035 105.417 70.9849 105.417 70.4443V64.0382H111.825C112.366 64.0384 112.884 63.8239 113.267 63.4414C113.649 63.059 113.864 62.5404 113.863 61.9998V47.1472H118.231V110.632H118.231Z" fill="url(#paint5_linear_315_105364)"/>
<path d="M120.27 43.0702H113.864V28.2196C113.864 27.6787 113.649 27.1601 113.267 26.7779C112.884 26.3954 112.366 26.1809 111.825 26.1812H105.417V19.7753C105.417 19.2344 105.203 18.7158 104.82 18.3336C104.438 17.9512 103.919 17.7366 103.379 17.7369H96.9727V11.3286C96.9729 10.7878 96.7584 10.2692 96.3759 9.88695C95.9935 9.5045 95.4749 9.28998 94.9343 9.29022H88.5282V2.88409C88.5284 2.34326 88.3139 1.82465 87.9314 1.44243C87.549 1.06022 87.0304 0.845464 86.4895 0.845703H35.8186C35.2778 0.845464 34.7592 1.05998 34.3769 1.44243C33.9945 1.82489 33.78 2.3435 33.7802 2.88409V9.29022H27.3741C26.8333 9.28998 26.3146 9.5045 25.9324 9.88695C25.55 10.2694 25.3355 10.788 25.3357 11.3286V17.7366H18.9296C18.3887 17.7364 17.8701 17.9509 17.4879 18.3334C17.1055 18.7158 16.8909 19.2344 16.8912 19.775V26.1812H10.4829C9.94207 26.1809 9.42346 26.3954 9.04125 26.7779C8.65879 27.1603 8.44428 27.679 8.44452 28.2196V43.0702H2.03839C1.49756 43.07 0.978943 43.2845 0.59673 43.6669C0.214278 44.0494 -0.000238684 44.568 1.99299e-07 45.1086V112.671C-0.000238684 113.212 0.214278 113.73 0.59673 114.112C0.979182 114.495 1.4978 114.709 2.03839 114.709H8.44452V121.115C8.44428 121.656 8.65879 122.175 9.04125 122.557C9.4237 122.939 9.94231 123.154 10.4829 123.154H27.3739C27.9147 123.154 28.4333 122.939 28.8155 122.557C29.198 122.174 29.4125 121.656 29.4122 121.115V114.709H35.8184C36.3592 114.71 36.8778 114.495 37.26 114.113C37.6425 113.73 37.857 113.212 37.8568 112.671V106.263H42.2243V112.671C42.224 113.212 42.4385 113.73 42.821 114.113C43.2034 114.495 43.722 114.71 44.2626 114.709H50.6707V121.115C50.6704 121.656 50.885 122.175 51.2674 122.557C51.6499 122.94 52.1685 123.154 52.7091 123.154H69.5981C70.1389 123.154 70.6576 122.94 71.0398 122.557C71.4222 122.175 71.6367 121.656 71.6365 121.115V114.709H78.0445C78.5854 114.71 79.104 114.495 79.4862 114.113C79.8686 113.73 80.0832 113.212 80.0829 112.671V106.263H84.4504V112.671C84.4502 113.212 84.6647 113.73 85.0471 114.113C85.4296 114.495 85.9482 114.71 86.4888 114.709H92.8949V121.115C92.8947 121.656 93.1092 122.175 93.4917 122.557C93.8741 122.94 94.3927 123.154 94.9333 123.154H111.824C112.365 123.154 112.884 122.94 113.266 122.557C113.648 122.175 113.863 121.656 113.863 121.115V114.709H120.269C120.81 114.71 121.328 114.495 121.71 114.113C122.093 113.73 122.307 113.212 122.307 112.671V45.1088C122.307 44.568 122.093 44.0494 121.71 43.6672C121.329 43.2847 120.81 43.07 120.27 43.0702ZM105.417 59.9614V53.5553C105.417 53.0144 105.203 52.4958 104.82 52.1136C104.438 51.7314 103.919 51.5166 103.379 51.5169H86.4898C85.9489 51.5166 85.4303 51.7311 85.0481 52.1136C84.6659 52.496 84.4511 53.0147 84.4514 53.5553V59.9614H80.0839V38.7027H86.49C87.0308 38.7029 87.5495 38.4884 87.9317 38.106C88.3141 37.7235 88.5286 37.2049 88.5284 36.6643V30.2582H101.34V36.6643C101.34 37.2051 101.555 37.7238 101.937 38.106C102.32 38.4884 102.838 38.7029 103.379 38.7027H109.787V59.9614H105.417ZM88.5282 61.9998V55.5936H101.34V68.4057H88.5282V61.9998ZM109.787 34.6257H105.417V30.2582H109.787V34.6257ZM118.231 110.632H111.825C111.284 110.632 110.766 110.847 110.383 111.229C110.001 111.611 109.786 112.13 109.787 112.671V119.077H96.9724V112.671C96.9727 112.13 96.7582 111.611 96.3757 111.229C95.9933 110.847 95.4746 110.632 94.934 110.632H88.5279V104.224C88.5282 103.683 88.3136 103.165 87.9312 102.783C87.5487 102.4 87.0301 102.186 86.4895 102.186H78.045C77.5042 102.186 76.9856 102.4 76.6034 102.783C76.2209 103.165 76.0064 103.684 76.0066 104.224V110.632H69.5986C69.0578 110.632 68.5391 110.847 68.1569 111.229C67.7747 111.611 67.56 112.13 67.5602 112.671V119.077H54.7482V112.671C54.7484 112.13 54.5339 111.611 54.1515 111.229C53.769 110.847 53.2504 110.632 52.7098 110.632H46.3018V104.224C46.302 103.683 46.0875 103.165 45.705 102.783C45.3226 102.4 44.804 102.186 44.2634 102.186H35.8188C35.278 102.186 34.7594 102.4 34.3772 102.783C33.9947 103.165 33.7802 103.684 33.7805 104.224V110.632H27.3743C26.8335 110.632 26.3149 110.847 25.9327 111.229C25.5502 111.611 25.3357 112.13 25.3359 112.671V119.077H12.5215V112.671C12.5218 112.13 12.3073 111.611 11.9248 111.229C11.5424 110.847 11.0237 110.632 10.4831 110.632H4.07702V47.1472H10.4831C11.024 47.1475 11.5426 46.9329 11.9248 46.5505C12.3073 46.168 12.5218 45.6494 12.5215 45.1088V30.2582H18.9296C19.4704 30.2584 19.989 30.0439 20.3712 29.6615C20.7537 29.279 20.9682 28.7604 20.968 28.2198V21.8137H27.3741C27.9149 21.8139 28.4335 21.5994 28.8157 21.2169C29.1982 20.8345 29.4127 20.3159 29.4125 19.7753V13.3672H35.8186C36.3594 13.3675 36.8781 13.153 37.2603 12.7705C37.6427 12.3881 37.8572 11.8694 37.857 11.3288V4.92272H84.4511V11.3288C84.4509 11.8697 84.6654 12.3883 85.0479 12.7705C85.4303 13.1527 85.9489 13.3675 86.4895 13.3672H92.8957V19.7753C92.8954 20.3161 93.1099 20.8347 93.4924 21.2169C93.8748 21.5994 94.3934 21.8139 94.934 21.8137H101.34V26.1812H86.4895C85.9487 26.1809 85.4301 26.3954 85.0479 26.7779C84.6654 27.1603 84.4509 27.679 84.4511 28.2196V34.6257H78.045C77.5042 34.6254 76.9856 34.84 76.6034 35.2224C76.2209 35.6049 76.0064 36.1235 76.0066 36.6641V61.9998C76.0064 62.5406 76.2209 63.0592 76.6034 63.4414C76.9858 63.8236 77.5044 64.0384 78.045 64.0382H84.4511V70.4443C84.4509 70.9851 84.6654 71.5037 85.0479 71.8859C85.4303 72.2682 85.9489 72.4829 86.4895 72.4827H103.379C103.919 72.4829 104.438 72.2684 104.82 71.8859C105.202 71.5035 105.417 70.9849 105.417 70.4443V64.0382H111.825C112.366 64.0384 112.884 63.8239 113.267 63.4414C113.649 63.059 113.864 62.5404 113.863 61.9998V47.1472H118.231V110.632H118.231Z" fill="black" fill-opacity="0.6"/>
</g>
<path d="M208.847 36.664V62.0002H200.401V70.4457H183.511V62.0002H175.067V36.664H183.511V28.2207H200.401V36.664H208.847Z" fill="white"/>
<path d="M200.408 36.6629V28.2236H183.51V36.6629H175.07V62.001H183.51V70.4403H200.408V62.001H208.848V36.6629H200.408Z" fill="white"/>
<path d="M259.523 36.6619V62H251.063V70.4393H234.185V62H225.746V36.6619H234.185V28.2227H251.063V36.6619H259.523Z" fill="white"/>
<path d="M200.401 53.5537H183.511V70.4444H200.401V53.5537Z" fill="#336A93"/>
<path d="M251.076 53.5537H234.185V70.4444H251.076V53.5537Z" fill="#336A93"/>
<path d="M208.847 36.664V62.0002H200.401V70.4457H183.511V62.0002H175.067V36.664H183.511V28.2207H200.401V36.664H208.847Z" fill="white"/>
<path d="M200.408 36.6629V28.2236H183.51V36.6629H175.07V62.001H183.51V70.4403H200.408V62.001H208.848V36.6629H200.408Z" fill="white"/>
<path d="M259.523 28.2217H251.063V36.6609H259.523V28.2217Z" fill="#B61808"/>
<path d="M259.524 36.6609V61.999H251.064V70.4383H234.185V61.999H225.746V36.6609H234.185V28.2217H251.064V36.6609H259.524Z" fill="white"/>
<path d="M259.523 45.1006V61.9995H251.064V53.5602H234.185V61.9995H225.746V36.6614H234.185V28.2221H251.064V19.7829H242.624V11.323H234.185V2.88379H183.509V11.323H175.069V19.7826H166.63V28.2219H158.17V45.1004H149.731V112.676H158.17V121.115H175.069V112.676H183.508V104.216H191.948V112.676H200.407V121.115H217.286V112.676H225.745V104.216H234.185V112.676H242.624V121.115H259.523V112.676H267.962V45.1004H259.523V45.1006ZM208.847 61.9995H200.407V53.5602H183.509V61.9995H175.069V36.6614H183.509V28.2221H200.407V36.6614H208.847V61.9995Z" fill="url(#paint6_linear_315_105364)"/>
<path d="M259.523 45.1006V61.9995H242.909V53.5602H234.185V61.9995H217.592V36.6614H226.031V28.2221H242.909V19.7829H234.47V11.323H226.031V2.88379H183.509V11.323H175.069V19.7826H166.63V28.2219H158.17V45.1004H149.731V112.676H158.17V121.115H166.915V112.676H175.355V104.216H191.948V112.676H200.407V121.115H209.132V112.676H217.591V104.216H234.185V112.676H242.624V121.115H251.369V112.676H259.808V45.1004H259.523V45.1006ZM208.847 61.9995H192.254V53.5602H183.509V61.9995H166.915V36.6614H175.355V28.2221H200.407V36.6614H208.847V61.9995Z" fill="url(#paint7_linear_315_105364)"/>
<path d="M200.401 53.5537H183.511V70.4444H200.401V53.5537Z" fill="url(#paint8_linear_315_105364)"/>
<path d="M200.401 53.5537H183.511V70.4444H200.401V53.5537Z" fill="black" fill-opacity="0.6"/>
<path d="M251.076 53.5537H234.185V70.4444H251.076V53.5537Z" fill="url(#paint9_linear_315_105364)"/>
<path d="M251.076 53.5537H234.185V70.4444H251.076V53.5537Z" fill="black" fill-opacity="0.6"/>
<path d="M208.847 34.6252H202.441V28.2191C202.441 27.6782 202.226 27.1596 201.844 26.7774C201.461 26.3949 200.943 26.1804 200.402 26.1807H183.511C182.97 26.1804 182.452 26.3949 182.07 26.7774C181.687 27.1598 181.473 27.6785 181.473 28.2191V34.6252H175.067C174.526 34.6249 174.007 34.8395 173.625 35.2219C173.243 35.6044 173.028 36.123 173.028 36.6636V61.9993C173.028 62.5401 173.243 63.0587 173.625 63.4409C174.008 63.8234 174.526 64.0379 175.067 64.0377H181.473V70.4438C181.473 70.9846 181.687 71.5033 182.07 71.8855C182.452 72.2679 182.971 72.4824 183.511 72.4822H200.402C200.943 72.4824 201.462 72.2679 201.844 71.8855C202.226 71.503 202.441 70.9844 202.441 70.4438V64.0377H208.847C209.388 64.0379 209.906 63.8234 210.288 63.4409C210.671 63.0585 210.885 62.5399 210.885 61.9993V36.6638C210.885 36.123 210.671 35.6044 210.288 35.2222C209.906 34.8397 209.388 34.6249 208.847 34.6252ZM198.364 68.4054H185.55V55.5934H198.364V68.4054ZM206.808 59.9609H202.441V53.5548C202.441 53.0139 202.227 52.4953 201.844 52.1131C201.462 51.7307 200.943 51.5161 200.402 51.5164H183.511C182.971 51.5161 182.452 51.7307 182.07 52.1131C181.687 52.4956 181.473 53.0142 181.473 53.5548V59.9609H177.106V38.7022H183.512C184.053 38.7024 184.571 38.4879 184.953 38.1055C185.336 37.723 185.55 37.2044 185.55 36.6638V30.2577H198.364V36.6638C198.364 37.2046 198.579 37.7233 198.961 38.1055C199.343 38.4879 199.862 38.7024 200.403 38.7022H206.809V59.9609H206.808Z" fill="url(#paint10_linear_315_105364)"/>
<path d="M208.847 34.6252H202.441V28.2191C202.441 27.6782 202.226 27.1596 201.844 26.7774C201.461 26.3949 200.943 26.1804 200.402 26.1807H183.511C182.97 26.1804 182.452 26.3949 182.07 26.7774C181.687 27.1598 181.473 27.6785 181.473 28.2191V34.6252H175.067C174.526 34.6249 174.007 34.8395 173.625 35.2219C173.243 35.6044 173.028 36.123 173.028 36.6636V61.9993C173.028 62.5401 173.243 63.0587 173.625 63.4409C174.008 63.8234 174.526 64.0379 175.067 64.0377H181.473V70.4438C181.473 70.9846 181.687 71.5033 182.07 71.8855C182.452 72.2679 182.971 72.4824 183.511 72.4822H200.402C200.943 72.4824 201.462 72.2679 201.844 71.8855C202.226 71.503 202.441 70.9844 202.441 70.4438V64.0377H208.847C209.388 64.0379 209.906 63.8234 210.288 63.4409C210.671 63.0585 210.885 62.5399 210.885 61.9993V36.6638C210.885 36.123 210.671 35.6044 210.288 35.2222C209.906 34.8397 209.388 34.6249 208.847 34.6252ZM198.364 68.4054H185.55V55.5934H198.364V68.4054ZM206.808 59.9609H202.441V53.5548C202.441 53.0139 202.227 52.4953 201.844 52.1131C201.462 51.7307 200.943 51.5161 200.402 51.5164H183.511C182.971 51.5161 182.452 51.7307 182.07 52.1131C181.687 52.4956 181.473 53.0142 181.473 53.5548V59.9609H177.106V38.7022H183.512C184.053 38.7024 184.571 38.4879 184.953 38.1055C185.336 37.723 185.55 37.2044 185.55 36.6638V30.2577H198.364V36.6638C198.364 37.2046 198.579 37.7233 198.961 38.1055C199.343 38.4879 199.862 38.7024 200.403 38.7022H206.809V59.9609H206.808Z" fill="black" fill-opacity="0.6"/>
<path d="M267.963 43.0702H261.556V28.2196C261.557 27.6787 261.342 27.1601 260.96 26.7779C260.577 26.3954 260.059 26.1809 259.518 26.1812H253.11V19.7753C253.11 19.2344 252.896 18.7158 252.513 18.3336C252.131 17.9512 251.612 17.7366 251.072 17.7369H244.666V11.3286C244.666 10.7878 244.451 10.2692 244.069 9.88695C243.686 9.5045 243.168 9.28998 242.627 9.29022H236.221V2.88409C236.221 2.34326 236.007 1.82465 235.624 1.44243C235.242 1.06022 234.723 0.845464 234.182 0.845703H183.511C182.971 0.845464 182.452 1.05998 182.07 1.44243C181.687 1.82488 181.473 2.3435 181.473 2.88409V9.29022H175.067C174.526 9.28998 174.008 9.5045 173.625 9.88695C173.243 10.2694 173.028 10.788 173.029 11.3286V17.7366H166.622C166.082 17.7364 165.563 17.9509 165.181 18.3334C164.798 18.7158 164.584 19.2344 164.584 19.775V26.1812H158.176C157.635 26.1809 157.116 26.3954 156.734 26.7779C156.352 27.1603 156.137 27.679 156.137 28.2196V43.0702H149.731C149.19 43.07 148.672 43.2845 148.29 43.6669C147.907 44.0494 147.693 44.568 147.693 45.1086V112.671C147.693 113.212 147.907 113.73 148.29 114.112C148.672 114.495 149.191 114.709 149.731 114.709H156.137V121.115C156.137 121.656 156.352 122.175 156.734 122.557C157.117 122.939 157.635 123.154 158.176 123.154H175.067C175.608 123.154 176.126 122.939 176.508 122.557C176.891 122.174 177.105 121.656 177.105 121.115V114.709H183.511C184.052 114.71 184.571 114.495 184.953 114.113C185.335 113.73 185.55 113.212 185.55 112.671V106.263H189.917V112.671C189.917 113.212 190.131 113.73 190.514 114.113C190.896 114.495 191.415 114.71 191.956 114.709H198.364V121.115C198.363 121.656 198.578 122.175 198.96 122.557C199.343 122.94 199.861 123.154 200.402 123.154H217.291C217.832 123.154 218.35 122.94 218.733 122.557C219.115 122.175 219.33 121.656 219.329 121.115V114.709H225.737C226.278 114.71 226.797 114.495 227.179 114.113C227.562 113.73 227.776 113.212 227.776 112.671V106.263H232.143V112.671C232.143 113.212 232.358 113.73 232.74 114.113C233.122 114.495 233.641 114.71 234.182 114.709H240.588V121.115C240.588 121.656 240.802 122.175 241.185 122.557C241.567 122.94 242.086 123.154 242.626 123.154H259.517C260.058 123.154 260.577 122.94 260.959 122.557C261.341 122.175 261.556 121.656 261.556 121.115V114.709H267.962C268.502 114.71 269.021 114.495 269.403 114.113C269.786 113.73 270 113.212 270 112.671V45.1088C270 44.568 269.786 44.0494 269.403 43.6672C269.022 43.2847 268.503 43.07 267.963 43.0702ZM253.11 59.9614V53.5552C253.11 53.0144 252.896 52.4958 252.513 52.1136C252.131 51.7314 251.612 51.5166 251.072 51.5169H234.183C233.642 51.5166 233.123 51.7311 232.741 52.1136C232.359 52.496 232.144 53.0147 232.144 53.5552V59.9614H227.777V38.7027H234.183C234.724 38.7029 235.242 38.4884 235.625 38.106C236.007 37.7235 236.221 37.2049 236.221 36.6643V30.2582H249.033V36.6643C249.033 37.2051 249.248 37.7238 249.63 38.106C250.012 38.4884 250.531 38.7029 251.072 38.7027H257.48V59.9614H253.11ZM236.221 61.9998V55.5936H249.033V68.4057H236.221V61.9998ZM257.479 34.6257H253.11V30.2582H257.479V34.6257ZM265.924 110.632H259.518C258.977 110.632 258.458 110.847 258.076 111.229C257.694 111.611 257.479 112.13 257.479 112.671V119.077H244.665V112.671C244.666 112.13 244.451 111.611 244.069 111.229C243.686 110.847 243.167 110.632 242.627 110.632H236.221V104.224C236.221 103.683 236.006 103.165 235.624 102.783C235.242 102.4 234.723 102.186 234.182 102.186H225.738C225.197 102.186 224.678 102.4 224.296 102.783C223.914 103.165 223.699 103.684 223.699 104.224V110.632H217.291C216.751 110.632 216.232 110.847 215.85 111.229C215.468 111.611 215.253 112.13 215.253 112.671V119.077H202.441V112.671C202.441 112.13 202.227 111.611 201.844 111.229C201.462 110.847 200.943 110.632 200.403 110.632H193.995V104.224C193.995 103.683 193.78 103.165 193.398 102.783C193.015 102.4 192.497 102.186 191.956 102.186H183.512C182.971 102.186 182.452 102.4 182.07 102.783C181.688 103.165 181.473 103.684 181.473 104.224V110.632H175.067C174.526 110.632 174.008 110.847 173.626 111.229C173.243 111.611 173.029 112.13 173.029 112.671V119.077H160.214V112.671C160.215 112.13 160 111.611 159.618 111.229C159.235 110.847 158.717 110.632 158.176 110.632H151.77V47.1472H158.176C158.717 47.1475 159.235 46.9329 159.618 46.5505C160 46.168 160.215 45.6494 160.214 45.1088V30.2582H166.622C167.163 30.2584 167.682 30.0439 168.064 29.6615C168.447 29.279 168.661 28.7604 168.661 28.2198V21.8137H175.067C175.608 21.8139 176.126 21.5994 176.509 21.2169C176.891 20.8345 177.106 20.3159 177.105 19.7753V13.3672H183.511C184.052 13.3675 184.571 13.153 184.953 12.7705C185.336 12.3881 185.55 11.8694 185.55 11.3288V4.92272H232.144V11.3288C232.144 11.8697 232.358 12.3883 232.741 12.7705C233.123 13.1527 233.642 13.3675 234.182 13.3672H240.589V19.7753C240.588 20.3161 240.803 20.8347 241.185 21.2169C241.568 21.5994 242.086 21.8139 242.627 21.8137H249.033V26.1812H234.182C233.642 26.1809 233.123 26.3954 232.741 26.7779C232.358 27.1603 232.144 27.679 232.144 28.2196V34.6257H225.738C225.197 34.6254 224.678 34.84 224.296 35.2224C223.914 35.6049 223.699 36.1235 223.699 36.6641V61.9998C223.699 62.5406 223.914 63.0592 224.296 63.4414C224.679 63.8236 225.197 64.0384 225.738 64.0382H232.144V70.4443C232.144 70.9851 232.358 71.5037 232.741 71.8859C233.123 72.2682 233.642 72.4829 234.182 72.4827H251.071C251.612 72.4829 252.131 72.2684 252.513 71.8859C252.895 71.5035 253.11 70.9849 253.11 70.4443V64.0382H259.518C260.059 64.0384 260.577 63.8239 260.96 63.4414C261.342 63.059 261.556 62.5404 261.556 61.9998V47.1472H265.924L265.924 110.632Z" fill="url(#paint11_linear_315_105364)"/>
<path d="M267.963 43.0702H261.556V28.2196C261.557 27.6787 261.342 27.1601 260.96 26.7779C260.577 26.3954 260.059 26.1809 259.518 26.1812H253.11V19.7753C253.11 19.2344 252.896 18.7158 252.513 18.3336C252.131 17.9512 251.612 17.7366 251.072 17.7369H244.666V11.3286C244.666 10.7878 244.451 10.2692 244.069 9.88695C243.686 9.5045 243.168 9.28998 242.627 9.29022H236.221V2.88409C236.221 2.34326 236.007 1.82465 235.624 1.44243C235.242 1.06022 234.723 0.845464 234.182 0.845703H183.511C182.971 0.845464 182.452 1.05998 182.07 1.44243C181.687 1.82488 181.473 2.3435 181.473 2.88409V9.29022H175.067C174.526 9.28998 174.008 9.5045 173.625 9.88695C173.243 10.2694 173.028 10.788 173.029 11.3286V17.7366H166.622C166.082 17.7364 165.563 17.9509 165.181 18.3334C164.798 18.7158 164.584 19.2344 164.584 19.775V26.1812H158.176C157.635 26.1809 157.116 26.3954 156.734 26.7779C156.352 27.1603 156.137 27.679 156.137 28.2196V43.0702H149.731C149.19 43.07 148.672 43.2845 148.29 43.6669C147.907 44.0494 147.693 44.568 147.693 45.1086V112.671C147.693 113.212 147.907 113.73 148.29 114.112C148.672 114.495 149.191 114.709 149.731 114.709H156.137V121.115C156.137 121.656 156.352 122.175 156.734 122.557C157.117 122.939 157.635 123.154 158.176 123.154H175.067C175.608 123.154 176.126 122.939 176.508 122.557C176.891 122.174 177.105 121.656 177.105 121.115V114.709H183.511C184.052 114.71 184.571 114.495 184.953 114.113C185.335 113.73 185.55 113.212 185.55 112.671V106.263H189.917V112.671C189.917 113.212 190.131 113.73 190.514 114.113C190.896 114.495 191.415 114.71 191.956 114.709H198.364V121.115C198.363 121.656 198.578 122.175 198.96 122.557C199.343 122.94 199.861 123.154 200.402 123.154H217.291C217.832 123.154 218.35 122.94 218.733 122.557C219.115 122.175 219.33 121.656 219.329 121.115V114.709H225.737C226.278 114.71 226.797 114.495 227.179 114.113C227.562 113.73 227.776 113.212 227.776 112.671V106.263H232.143V112.671C232.143 113.212 232.358 113.73 232.74 114.113C233.122 114.495 233.641 114.71 234.182 114.709H240.588V121.115C240.588 121.656 240.802 122.175 241.185 122.557C241.567 122.94 242.086 123.154 242.626 123.154H259.517C260.058 123.154 260.577 122.94 260.959 122.557C261.341 122.175 261.556 121.656 261.556 121.115V114.709H267.962C268.502 114.71 269.021 114.495 269.403 114.113C269.786 113.73 270 113.212 270 112.671V45.1088C270 44.568 269.786 44.0494 269.403 43.6672C269.022 43.2847 268.503 43.07 267.963 43.0702ZM253.11 59.9614V53.5552C253.11 53.0144 252.896 52.4958 252.513 52.1136C252.131 51.7314 251.612 51.5166 251.072 51.5169H234.183C233.642 51.5166 233.123 51.7311 232.741 52.1136C232.359 52.496 232.144 53.0147 232.144 53.5552V59.9614H227.777V38.7027H234.183C234.724 38.7029 235.242 38.4884 235.625 38.106C236.007 37.7235 236.221 37.2049 236.221 36.6643V30.2582H249.033V36.6643C249.033 37.2051 249.248 37.7238 249.63 38.106C250.012 38.4884 250.531 38.7029 251.072 38.7027H257.48V59.9614H253.11ZM236.221 61.9998V55.5936H249.033V68.4057H236.221V61.9998ZM257.479 34.6257H253.11V30.2582H257.479V34.6257ZM265.924 110.632H259.518C258.977 110.632 258.458 110.847 258.076 111.229C257.694 111.611 257.479 112.13 257.479 112.671V119.077H244.665V112.671C244.666 112.13 244.451 111.611 244.069 111.229C243.686 110.847 243.167 110.632 242.627 110.632H236.221V104.224C236.221 103.683 236.006 103.165 235.624 102.783C235.242 102.4 234.723 102.186 234.182 102.186H225.738C225.197 102.186 224.678 102.4 224.296 102.783C223.914 103.165 223.699 103.684 223.699 104.224V110.632H217.291C216.751 110.632 216.232 110.847 215.85 111.229C215.468 111.611 215.253 112.13 215.253 112.671V119.077H202.441V112.671C202.441 112.13 202.227 111.611 201.844 111.229C201.462 110.847 200.943 110.632 200.403 110.632H193.995V104.224C193.995 103.683 193.78 103.165 193.398 102.783C193.015 102.4 192.497 102.186 191.956 102.186H183.512C182.971 102.186 182.452 102.4 182.07 102.783C181.688 103.165 181.473 103.684 181.473 104.224V110.632H175.067C174.526 110.632 174.008 110.847 173.626 111.229C173.243 111.611 173.029 112.13 173.029 112.671V119.077H160.214V112.671C160.215 112.13 160 111.611 159.618 111.229C159.235 110.847 158.717 110.632 158.176 110.632H151.77V47.1472H158.176C158.717 47.1475 159.235 46.9329 159.618 46.5505C160 46.168 160.215 45.6494 160.214 45.1088V30.2582H166.622C167.163 30.2584 167.682 30.0439 168.064 29.6615C168.447 29.279 168.661 28.7604 168.661 28.2198V21.8137H175.067C175.608 21.8139 176.126 21.5994 176.509 21.2169C176.891 20.8345 177.106 20.3159 177.105 19.7753V13.3672H183.511C184.052 13.3675 184.571 13.153 184.953 12.7705C185.336 12.3881 185.55 11.8694 185.55 11.3288V4.92272H232.144V11.3288C232.144 11.8697 232.358 12.3883 232.741 12.7705C233.123 13.1527 233.642 13.3675 234.182 13.3672H240.589V19.7753C240.588 20.3161 240.803 20.8347 241.185 21.2169C241.568 21.5994 242.086 21.8139 242.627 21.8137H249.033V26.1812H234.182C233.642 26.1809 233.123 26.3954 232.741 26.7779C232.358 27.1603 232.144 27.679 232.144 28.2196V34.6257H225.738C225.197 34.6254 224.678 34.84 224.296 35.2224C223.914 35.6049 223.699 36.1235 223.699 36.6641V61.9998C223.699 62.5406 223.914 63.0592 224.296 63.4414C224.679 63.8236 225.197 64.0384 225.738 64.0382H232.144V70.4443C232.144 70.9851 232.358 71.5037 232.741 71.8859C233.123 72.2682 233.642 72.4829 234.182 72.4827H251.071C251.612 72.4829 252.131 72.2684 252.513 71.8859C252.895 71.5035 253.11 70.9849 253.11 70.4443V64.0382H259.518C260.059 64.0384 260.577 63.8239 260.96 63.4414C261.342 63.059 261.556 62.5404 261.556 61.9998V47.1472H265.924L265.924 110.632Z" fill="black" fill-opacity="0.6"/>
<defs>
<linearGradient id="paint0_linear_315_105364" x1="61.154" y1="2.88379" x2="61.154" y2="121.115" gradientUnits="userSpaceOnUse">
<stop stop-color="#08B982"/>
<stop offset="1" stop-color="#09B392"/>
</linearGradient>
<linearGradient id="paint1_linear_315_105364" x1="2.5145" y1="75.5323" x2="106.493" y2="94.5878" gradientUnits="userSpaceOnUse">
<stop stop-color="#36FF78"/>
<stop offset="1" stop-color="#0CFFFF"/>
</linearGradient>
<linearGradient id="paint2_linear_315_105364" x1="52.7086" y1="53.5547" x2="35.8179" y2="53.5547" gradientUnits="userSpaceOnUse">
<stop stop-color="#A83AFE"/>
<stop offset="1" stop-color="#6E59FE"/>
</linearGradient>
<linearGradient id="paint3_linear_315_105364" x1="103.383" y1="53.5547" x2="86.4922" y2="53.5547" gradientUnits="userSpaceOnUse">
<stop stop-color="#A83AFE"/>
<stop offset="1" stop-color="#6E59FE"/>
</linearGradient>
<linearGradient id="paint4_linear_315_105364" x1="63.1927" y1="26.1816" x2="25.3359" y2="26.1816" gradientUnits="userSpaceOnUse">
<stop stop-color="#A83AFE"/>
<stop offset="1" stop-color="#6E59FE"/>
</linearGradient>
<linearGradient id="paint5_linear_315_105364" x1="122.307" y1="0.845703" x2="0" y2="0.845703" gradientUnits="userSpaceOnUse">
<stop stop-color="#A83AFE"/>
<stop offset="1" stop-color="#6E59FE"/>
</linearGradient>
<linearGradient id="paint6_linear_315_105364" x1="208.846" y1="2.88379" x2="208.846" y2="121.115" gradientUnits="userSpaceOnUse">
<stop stop-color="#B40C06"/>
<stop offset="1" stop-color="#C1480D"/>
</linearGradient>
<linearGradient id="paint7_linear_315_105364" x1="204.77" y1="2.88379" x2="204.77" y2="121.115" gradientUnits="userSpaceOnUse">
<stop stop-color="#FF0C0C"/>
<stop offset="1" stop-color="#FF630C"/>
</linearGradient>
<linearGradient id="paint8_linear_315_105364" x1="200.401" y1="53.5537" x2="183.511" y2="53.5537" gradientUnits="userSpaceOnUse">
<stop stop-color="#A83AFE"/>
<stop offset="1" stop-color="#6E59FE"/>
</linearGradient>
<linearGradient id="paint9_linear_315_105364" x1="251.076" y1="53.5537" x2="234.185" y2="53.5537" gradientUnits="userSpaceOnUse">
<stop stop-color="#A83AFE"/>
<stop offset="1" stop-color="#6E59FE"/>
</linearGradient>
<linearGradient id="paint10_linear_315_105364" x1="210.885" y1="26.1807" x2="173.028" y2="26.1807" gradientUnits="userSpaceOnUse">
<stop stop-color="#A83AFE"/>
<stop offset="1" stop-color="#6E59FE"/>
</linearGradient>
<linearGradient id="paint11_linear_315_105364" x1="270" y1="0.845703" x2="147.693" y2="0.845703" gradientUnits="userSpaceOnUse">
<stop stop-color="#A83AFE"/>
<stop offset="1" stop-color="#6E59FE"/>
</linearGradient>
<clipPath id="clip0_315_105364">
<rect width="122.308" height="122.308" fill="white" transform="translate(0 0.845703)"/>
</clipPath>
</defs>
</svg>
