<svg width="28" height="31" viewBox="0 0 28 31" fill="none" xmlns="http://www.w3.org/2000/svg">
<path d="M7.67233 22.678C9.75144 22.678 11.4364 20.5683 11.4364 18.4906C11.4364 16.4129 9.75144 14.7266 7.67233 14.7266C5.59322 14.7266 3.90967 16.4115 3.90967 18.4906C3.90967 20.5697 5.59461 22.678 7.67233 22.678Z" fill="#DCDCDC"/>
<path d="M11.2186 23.2729C11.0035 23.1508 10.7342 23.1633 10.5329 23.3076C9.69742 23.9058 8.71893 24.2695 7.67382 24.2695C6.61206 24.2695 5.62108 23.8961 4.77861 23.2813C4.58014 23.1369 4.31782 23.1105 4.10269 23.2285C1.94308 24.418 0.388604 26.6248 0.0541143 29.0273C-0.0166699 29.538 0.378889 29.9933 0.895197 29.9933H14.3456C14.8605 29.9933 15.2574 29.538 15.1867 29.0287C14.8563 26.6553 13.3352 24.4735 11.2186 23.2729Z" fill="#DCDCDC"/>
<path d="M19.992 0.998047C15.576 0.998047 12 4.58205 12 8.99805C12 13.414 15.576 16.998 19.992 16.998C24.416 16.998 28 13.414 28 8.99805C28 4.58205 24.416 0.998047 19.992 0.998047ZM22.632 12.766L19.2 9.32605V4.99805H20.8V8.67005L23.768 11.638L22.632 12.766Z" fill="url(#paint0_linear_695_3133)"/>
<defs>
<linearGradient id="paint0_linear_695_3133" x1="28" y1="0.998047" x2="12" y2="0.998047" gradientUnits="userSpaceOnUse">
<stop stop-color="#FE753A"/>
<stop offset="1" stop-color="#F4C47A"/>
</linearGradient>
</defs>
</svg>
