<svg width="20" height="17" viewBox="0 0 20 17" fill="none" xmlns="http://www.w3.org/2000/svg">
<path d="M2.47 16.9997H17.53C19.07 16.9997 20.03 15.3297 19.26 13.9997L11.73 0.989688C10.96 -0.340312 9.04 -0.340312 8.27 0.989688L0.739999 13.9997C-0.0300008 15.3297 0.929999 16.9997 2.47 16.9997ZM10 9.99969C9.45 9.99969 9 9.54969 9 8.99969V6.99969C9 6.44969 9.45 5.99969 10 5.99969C10.55 5.99969 11 6.44969 11 6.99969V8.99969C11 9.54969 10.55 9.99969 10 9.99969ZM11 13.9997H9V11.9997H11V13.9997Z" fill="url(#paint0_linear_1298_4210)"/>
<defs>
<linearGradient id="paint0_linear_1298_4210" x1="10" y1="-0.0078125" x2="10" y2="16.9997" gradientUnits="userSpaceOnUse">
<stop stop-color="#FF0C0C"/>
<stop offset="1" stop-color="#FF630C"/>
</linearGradient>
</defs>
</svg>
