<svg width="90" height="90" viewBox="0 0 90 90" fill="none" xmlns="http://www.w3.org/2000/svg">
<g clip-path="url(#clip0_26_2907)">
<circle cx="45" cy="45" r="45" fill="#151515"/>
<path d="M45 90C32.9801 90 21.6796 85.3191 13.1801 76.8199C4.68088 68.3204 0 57.0199 0 45C0 32.9801 4.68088 21.6796 13.1801 13.1801C21.6796 4.68088 32.9801 0 45 0C57.0199 0 68.3204 4.68088 76.8199 13.1801C85.3191 21.6796 90 32.9801 90 45C90 57.0199 85.3191 68.3204 76.8199 76.8199C68.3204 85.3191 57.0199 90 45 90ZM45 7.03125C24.0639 7.03125 7.03125 24.0639 7.03125 45C7.03125 65.9361 24.0639 82.9688 45 82.9688C65.9361 82.9688 82.9688 65.9361 82.9688 45C82.9688 24.0639 65.9361 7.03125 45 7.03125Z" fill="url(#paint0_linear_26_2907)"/>
<path d="M67.59 63.8659C68.8203 65.3681 68.6001 67.5831 67.0979 68.8134C66.4445 69.3487 65.6559 69.6094 64.8721 69.6094C63.8545 69.6094 62.8455 69.1699 62.1503 68.3214C58.5203 63.8895 53.1575 61.3477 47.4373 61.3477H43.266C37.5457 61.3477 32.183 63.8895 28.5531 68.3216C27.3226 69.8235 25.1076 70.0441 23.6055 68.8136C22.1033 67.5831 21.8831 65.3681 23.1134 63.8661C28.0844 57.797 35.4298 54.3164 43.266 54.3164H47.4373C55.2734 54.3164 62.6188 57.797 67.59 63.8659Z" fill="url(#paint1_linear_26_2907)"/>
<path fill-rule="evenodd" clip-rule="evenodd" d="M44.8242 48.3398C35.5192 48.3398 27.9492 40.7698 27.9492 31.4648C27.9492 22.1599 35.5192 14.5898 44.8242 14.5898C54.1292 14.5898 61.6992 22.1599 61.6992 31.4648C61.6992 40.7698 54.1292 48.3398 44.8242 48.3398ZM44.8242 21.6211C39.3963 21.6211 34.9805 26.0371 34.9805 31.4648C34.9805 36.8926 39.3963 41.3086 44.8242 41.3086C50.2522 41.3086 54.668 36.8926 54.668 31.4648C54.668 26.0371 50.2522 21.6211 44.8242 21.6211Z" fill="url(#paint2_linear_26_2907)"/>
</g>
<defs>
<linearGradient id="paint0_linear_26_2907" x1="88.4967" y1="69.1537" x2="-3.44778e-07" y2="17.4388" gradientUnits="userSpaceOnUse">
<stop stop-color="#0575E6"/>
<stop offset="1" stop-color="#FF0CF5"/>
</linearGradient>
<linearGradient id="paint1_linear_26_2907" x1="68.386" y1="54.3164" x2="22.3174" y2="54.3164" gradientUnits="userSpaceOnUse">
<stop stop-color="#3AA0FE"/>
<stop offset="1" stop-color="#59FEF4"/>
</linearGradient>
<linearGradient id="paint2_linear_26_2907" x1="61.6992" y1="14.5898" x2="27.9492" y2="14.5898" gradientUnits="userSpaceOnUse">
<stop stop-color="#3AA0FE"/>
<stop offset="1" stop-color="#59FEF4"/>
</linearGradient>
<clipPath id="clip0_26_2907">
<rect width="90" height="90" fill="white"/>
</clipPath>
</defs>
</svg>
