<svg width="91" height="90" viewBox="0 0 91 90" fill="none" xmlns="http://www.w3.org/2000/svg">
<g clip-path="url(#clip0_234_21097)">
<path d="M20 74L33 63.5L41.5 54.5H55L60 63.5L69 71.5L78.5 74L86 65.5V47L83 28L74 19L63.5 17L53 21.5H39L33 19L21 17L11.5 23.5L5 38V61L9 71.5L20 74Z" fill="#151515"/>
<path d="M85.512 28.1434C85.3985 27.7544 85.2981 27.4099 85.2132 27.1148C82.346 17.1 71.3987 11.1117 60.8095 13.7667C58.5008 14.3385 56.3104 15.3112 54.3379 16.6403H36.6617C34.6893 15.3111 32.4989 14.3385 30.1902 13.7667C19.6018 11.1117 8.65378 17.1 5.78609 27.1146C5.70154 27.4099 5.60099 27.7543 5.48726 28.1434C1.76896 40.8895 -2.48794 59.0317 3.4482 69.3833C5.50484 72.9692 8.56519 75.2941 12.5442 76.2915C14.0415 76.6679 15.5795 76.8581 17.1235 76.8581C26.2933 76.8581 35.263 70.177 40.4521 59.2177H54.2537C56.7711 64.977 59.3776 69.0516 62.368 71.9291C65.7887 75.221 69.6629 76.8751 73.9317 76.8749C75.4579 76.867 76.9774 76.6711 78.4556 76.2915C82.4344 75.294 85.4948 72.9692 87.5514 69.3833C93.4872 59.0317 89.2303 40.8895 85.512 28.1434ZM81.0472 65.6534C80.0153 67.4529 78.6124 68.5222 76.6326 69.0186C71.9654 70.1882 66.367 69.3276 60.2257 54.0689C59.9464 53.3751 59.466 52.7806 58.8463 52.362C58.2265 51.9433 57.4956 51.7196 56.7477 51.7196H38.0015C37.2536 51.7196 36.5228 51.9433 35.903 52.362C35.2832 52.7806 34.8028 53.3751 34.5235 54.0689C31.0014 62.8198 23.1919 71.2309 14.3676 69.0186C12.3877 68.5222 10.985 67.4529 9.95298 65.6534C6.61173 59.8266 7.53107 47.9129 12.6859 30.2433C12.8033 29.8408 12.9072 29.4843 12.9947 29.179C14.7615 23.0091 21.6577 19.3576 28.3669 21.0403C30.104 21.4674 31.7322 22.2539 33.1464 23.3492C33.8045 23.8612 34.6145 24.1392 35.4483 24.1392H55.5513C56.3851 24.1392 57.1951 23.8612 57.8532 23.3492C59.2674 22.2539 60.8956 21.4674 62.6327 21.0403C69.3428 19.3584 76.2382 23.0091 78.0049 29.179C78.0928 29.4841 78.1962 29.8406 78.3136 30.2432C83.4686 47.9129 84.3879 59.8266 81.0467 65.6534H81.0472Z" fill="url(#paint0_linear_234_21097)"/>
<path d="M34.254 34.4994H30.5037V30.7491C30.5037 29.7548 30.1087 28.8012 29.4056 28.0981C28.7025 27.395 27.7489 27 26.7546 27C25.7602 27 24.8066 27.395 24.1035 28.0981C23.4004 28.8012 23.0054 29.7548 23.0054 30.7491V34.4994H19.256C18.2616 34.4994 17.308 34.8944 16.6049 35.5975C15.9018 36.3006 15.5068 37.2543 15.5068 38.2486C15.5068 39.2429 15.9018 40.1965 16.6049 40.8996C17.308 41.6027 18.2616 41.9977 19.256 41.9977H23.0054V45.748C23.0054 46.7424 23.4004 47.696 24.1035 48.3991C24.8066 49.1022 25.7602 49.4972 26.7546 49.4972C27.7489 49.4972 28.7025 49.1022 29.4056 48.3991C30.1087 47.696 30.5037 46.7424 30.5037 45.748V41.9976H34.254C35.2483 41.9976 36.2019 41.6026 36.905 40.8995C37.6081 40.1964 38.0031 39.2428 38.0031 38.2484C38.0031 37.2541 37.6081 36.3005 36.905 35.5974C36.2019 34.8943 35.2483 34.4993 34.254 34.4993V34.4994Z" fill="#3E4246"/>
<path d="M53.5 40C55.1569 40 56.5 38.6569 56.5 37C56.5 35.3431 55.1569 34 53.5 34C51.8431 34 50.5 35.3431 50.5 37C50.5 38.6569 51.8431 40 53.5 40Z" fill="url(#paint1_linear_234_21097)"/>
<path d="M70.499 40C72.1559 40 73.499 38.6569 73.499 37C73.499 35.3431 72.1559 34 70.499 34C68.8422 34 67.499 35.3431 67.499 37C67.499 38.6569 68.8422 40 70.499 40Z" fill="url(#paint2_linear_234_21097)"/>
<path d="M62 48.9988C63.6569 48.9988 65 47.6556 65 45.9988C65 44.3419 63.6569 42.9988 62 42.9988C60.3431 42.9988 59 44.3419 59 45.9988C59 47.6556 60.3431 48.9988 62 48.9988Z" fill="url(#paint3_linear_234_21097)"/>
<path d="M62 32C63.6569 32 65 30.6569 65 29C65 27.3431 63.6569 26 62 26C60.3431 26 59 27.3431 59 29C59 30.6569 60.3431 32 62 32Z" fill="url(#paint4_linear_234_21097)"/>
</g>
<defs>
<linearGradient id="paint0_linear_234_21097" x1="88.9965" y1="62.1116" x2="18.3682" y2="3.83226" gradientUnits="userSpaceOnUse">
<stop stop-color="#0575E6"/>
<stop offset="1" stop-color="#FF0CF5"/>
</linearGradient>
<linearGradient id="paint1_linear_234_21097" x1="56.5" y1="34" x2="50.5" y2="34" gradientUnits="userSpaceOnUse">
<stop stop-color="#3AA0FE"/>
<stop offset="1" stop-color="#59FEF4"/>
</linearGradient>
<linearGradient id="paint2_linear_234_21097" x1="73.499" y1="34" x2="67.499" y2="34" gradientUnits="userSpaceOnUse">
<stop stop-color="#3AA0FE"/>
<stop offset="1" stop-color="#59FEF4"/>
</linearGradient>
<linearGradient id="paint3_linear_234_21097" x1="65" y1="42.9988" x2="59" y2="42.9988" gradientUnits="userSpaceOnUse">
<stop stop-color="#3AA0FE"/>
<stop offset="1" stop-color="#59FEF4"/>
</linearGradient>
<linearGradient id="paint4_linear_234_21097" x1="65" y1="26" x2="59" y2="26" gradientUnits="userSpaceOnUse">
<stop stop-color="#3AA0FE"/>
<stop offset="1" stop-color="#59FEF4"/>
</linearGradient>
<clipPath id="clip0_234_21097">
<rect width="90" height="90" fill="white" transform="translate(0.5)"/>
</clipPath>
</defs>
</svg>
