<svg width="90" height="90" viewBox="0 0 90 90" fill="none" xmlns="http://www.w3.org/2000/svg">
<g clip-path="url(#clip0_10_4207)">
<circle cx="45" cy="45" r="45" fill="#151515"/>
<path d="M45 0.142944C20.1472 0.142944 0 20.2901 0 45.1429C2.20605 104.77 87.8029 104.754 90 45.1424C90 20.2901 69.8528 0.142944 45 0.142944ZM45 84.8695C23.0947 84.8695 5.27344 67.0483 5.27344 45.1429C7.27066 -7.48737 82.7374 -7.47295 84.7266 45.1435C84.7266 67.0481 66.9053 84.8695 45 84.8695ZM67.8516 56.5687H22.1484C18.6537 56.6985 18.6564 61.7137 22.1484 61.8422H45.8789V67.9945C46.3665 80.806 64.7318 80.7963 65.2148 67.9945V61.8422H67.8516C71.3463 61.7124 71.3436 56.697 67.8516 56.5687ZM59.9414 67.9945C59.7197 73.818 51.3719 73.8136 51.1523 67.9945V61.8422H59.9414V67.9945Z" fill="url(#paint0_linear_10_4207)"/>
<path d="M19.405 38.005C18.3753 39.0347 18.3753 40.7041 19.405 41.7339C20.4348 42.7636 22.1043 42.7636 23.134 41.7339L27.4219 37.446L31.7097 41.7337C34.2698 44.1122 37.8179 40.5677 35.4386 38.0048L31.1507 33.717L35.4386 29.4292C37.8171 26.8691 34.2726 23.3209 31.7097 25.7003L27.4219 29.9881L23.1339 25.7005C20.5738 23.322 17.0256 26.8664 19.405 29.4293L23.6929 33.7172L19.405 38.005Z" fill="url(#paint1_linear_10_4207)"/>
<path d="M66.3071 33.717L70.595 29.4292C72.9733 26.8691 69.4289 23.3209 66.866 25.7003L62.5781 29.9881L58.2903 25.7005C55.7302 23.322 52.1821 26.8664 54.5615 29.4293L58.8493 33.7172L54.5615 38.005C52.183 40.5651 55.7274 44.1132 58.2903 41.7339L62.5781 37.446L66.8661 41.7337C69.4262 44.1122 72.9744 40.5677 70.595 38.0048L66.3071 33.717Z" fill="url(#paint2_linear_10_4207)"/>
</g>
<defs>
<linearGradient id="paint0_linear_10_4207" x1="88.4967" y1="69.0772" x2="0.143426" y2="17.2817" gradientUnits="userSpaceOnUse">
<stop stop-color="#0575E6"/>
<stop offset="1" stop-color="#FF0CF5"/>
</linearGradient>
<linearGradient id="paint1_linear_10_4207" x1="71.3803" y1="24.915" x2="18.6198" y2="24.915" gradientUnits="userSpaceOnUse">
<stop stop-color="#3AA0FE"/>
<stop offset="1" stop-color="#59FEF4"/>
</linearGradient>
<linearGradient id="paint2_linear_10_4207" x1="71.3803" y1="24.915" x2="18.6198" y2="24.915" gradientUnits="userSpaceOnUse">
<stop stop-color="#3AA0FE"/>
<stop offset="1" stop-color="#59FEF4"/>
</linearGradient>
<clipPath id="clip0_10_4207">
<rect width="90" height="90" rx="45" fill="white"/>
</clipPath>
</defs>
</svg>
