<svg width="136" height="90" viewBox="0 0 136 90" fill="none" xmlns="http://www.w3.org/2000/svg">
<g clip-path="url(#clip0_10_4202)">
<path d="M85.1199 28.1435C85.0064 27.7545 84.906 27.41 84.8211 27.1148C81.9539 17.1001 71.0066 11.1117 60.4174 13.7667C58.1087 14.3386 55.9183 15.3112 53.9458 16.6404H36.2696C34.2972 15.3112 32.1068 14.3385 29.7981 13.7667C19.2097 11.1117 8.26169 17.1001 5.394 27.1147C5.30945 27.41 5.2089 27.7543 5.09517 28.1435C1.37687 40.8896 -2.88002 59.0318 3.05611 69.3834C5.11275 72.9693 8.1731 75.2942 12.1521 76.2916C13.6494 76.6679 15.1875 76.8582 16.7314 76.8581C25.9012 76.8581 34.8709 70.177 40.06 59.2178H53.8616C56.379 64.9771 58.9855 69.0517 61.9759 71.9292C65.3966 75.2211 69.2708 76.8752 73.5396 76.875C75.0658 76.8671 76.5853 76.6711 78.0635 76.2916C82.0424 75.294 85.1027 72.9693 87.1593 69.3834C93.0951 59.0318 88.8382 40.8896 85.1199 28.1435ZM80.6551 65.6535C79.6233 67.4529 78.2203 68.5222 76.2405 69.0186C71.5733 70.1883 65.9749 69.3277 59.8336 54.069C59.5544 53.3751 59.074 52.7807 58.4542 52.362C57.8344 51.9434 57.1035 51.7197 56.3556 51.7196H37.6094C36.8615 51.7197 36.1307 51.9434 35.5109 52.362C34.8911 52.7807 34.4107 53.3751 34.1314 54.069C30.6093 62.8199 22.7999 71.231 13.9755 69.0186C11.9956 68.5222 10.5929 67.4529 9.56089 65.6535C6.21964 59.8267 7.13898 47.9129 12.2938 30.2434C12.4112 29.8409 12.5151 29.4844 12.6026 29.179C14.3694 23.0091 21.2656 19.3576 27.9749 21.0404C29.7119 21.4674 31.3401 22.254 32.7544 23.3493C33.4124 23.8613 34.2224 24.1392 35.0562 24.1392H55.1593C55.993 24.1392 56.803 23.8613 57.4611 23.3493C58.8754 22.254 60.5036 21.4674 62.2406 21.0404C68.9507 19.3585 75.8461 23.0091 77.6128 29.179C77.7007 29.4842 77.8041 29.8407 77.9215 30.2432C83.0765 47.9129 83.9958 59.8267 80.6546 65.6535H80.6551Z" fill="url(#paint0_linear_10_4202)"/>
<path d="M33.8614 33.7538H30.1111V30.0035C30.1111 29.0092 29.7161 28.0556 29.013 27.3525C28.3099 26.6494 27.3563 26.2544 26.362 26.2544C25.3676 26.2544 24.414 26.6494 23.7109 27.3525C23.0078 28.0556 22.6128 29.0092 22.6128 30.0035V33.7538H18.8634C17.8691 33.7538 16.9155 34.1488 16.2124 34.8519C15.5093 35.555 15.1143 36.5086 15.1143 37.503C15.1143 38.4973 15.5093 39.4509 16.2124 40.154C16.9155 40.8571 17.8691 41.2521 18.8634 41.2521H22.6128V45.0024C22.6128 45.9968 23.0078 46.9504 23.7109 47.6535C24.414 48.3566 25.3676 48.7516 26.362 48.7516C27.3563 48.7516 28.3099 48.3566 29.013 47.6535C29.7161 46.9504 30.1111 45.9968 30.1111 45.0024V41.252H33.8614C34.8558 41.252 35.8094 40.857 36.5125 40.1539C37.2156 39.4508 37.6106 38.4971 37.6106 37.5028C37.6106 36.5085 37.2156 35.5549 36.5125 34.8518C35.8094 34.1487 34.8558 33.7537 33.8614 33.7537V33.7538Z" fill="url(#paint1_linear_10_4202)"/>
<path d="M54.3538 44.252C56.4243 44.252 58.1029 42.5735 58.1029 40.503C58.1029 38.4324 56.4243 36.7539 54.3538 36.7539C52.2832 36.7539 50.6047 38.4324 50.6047 40.503C50.6047 42.5735 52.2832 44.252 54.3538 44.252Z" fill="url(#paint2_linear_10_4202)"/>
<path d="M71.3526 41.252C73.4231 41.252 75.1016 39.5735 75.1016 37.503C75.1016 35.4324 73.4231 33.7539 71.3526 33.7539C69.282 33.7539 67.6035 35.4324 67.6035 37.503C67.6035 39.5735 69.282 41.252 71.3526 41.252Z" fill="url(#paint3_linear_10_4202)"/>
<path d="M63.8531 48.7513C65.9236 48.7513 67.6021 47.0728 67.6021 45.0022C67.6021 42.9317 65.9236 41.2532 63.8531 41.2532C61.7825 41.2532 60.104 42.9317 60.104 45.0022C60.104 47.0728 61.7825 48.7513 63.8531 48.7513Z" fill="url(#paint4_linear_10_4202)"/>
<path d="M61.8531 32.7526C63.9236 32.7526 65.6021 31.0741 65.6021 29.0036C65.6021 26.933 63.9236 25.2545 61.8531 25.2545C59.7825 25.2545 58.104 26.933 58.104 29.0036C58.104 31.0741 59.7825 32.7526 61.8531 32.7526Z" fill="url(#paint5_linear_10_4202)"/>
</g>
<path d="M90.5354 9.4043L97.6545 13.623L129.471 68.291V74.0918L124.989 78.5742L116.287 80.9473H66.4534L56.1702 78.5742L52.0393 74.0918V64.5996L79.7249 15.7324L90.5354 9.4043Z" fill="#151515"/>
<path d="M90.1355 60.9082C87.7449 60.9082 85.741 62.9121 85.741 65.3027C85.741 67.6934 87.7449 69.6973 90.1355 69.6973C92.4382 69.6973 94.53 67.6934 94.4246 65.4082C94.53 62.8945 92.5437 60.9082 90.1355 60.9082Z" fill="url(#paint6_linear_10_4202)"/>
<path d="M130.811 76.4824C133.571 71.7188 133.589 66.041 130.847 61.2949L103.319 13.623C100.595 8.82422 95.6727 5.97656 90.1532 5.97656C84.6336 5.97656 79.7118 8.8418 76.9871 13.6055L49.4246 61.3301C46.6825 66.1289 46.7 71.8418 49.4774 76.6055C52.2196 81.3164 57.1239 84.1465 62.6082 84.1465H117.593C123.095 84.1465 128.034 81.2812 130.811 76.4824ZM124.835 73.0371C123.306 75.6738 120.598 77.2383 117.575 77.2383H62.5907C59.6024 77.2383 56.9129 75.709 55.4188 73.125C53.9071 70.5059 53.8895 67.377 55.4012 64.7402L82.9637 17.0332C84.4579 14.4141 87.1297 12.8672 90.1532 12.8672C93.159 12.8672 95.8485 14.4316 97.3426 17.0508L124.888 64.7578C126.364 67.3242 126.347 70.418 124.835 73.0371Z" fill="url(#paint7_linear_10_4202)"/>
<path d="M89.0457 30.0586C86.9539 30.6563 85.6531 32.5547 85.6531 34.8575C85.7585 36.2461 85.8464 37.6524 85.9519 39.0411C86.2507 44.3321 86.5496 49.5176 86.8484 54.8086C86.9539 56.6016 88.3425 57.9024 90.1355 57.9024C91.9285 57.9024 93.3347 56.5137 93.4226 54.7032C93.4226 53.6133 93.4226 52.6114 93.5281 51.5039C93.7214 48.1114 93.9324 44.7188 94.1257 41.3262C94.2312 39.1289 94.4246 36.9317 94.53 34.7344C94.53 33.9434 94.4246 33.2403 94.1257 32.5371C93.2292 30.5684 91.1374 29.5664 89.0457 30.0586Z" fill="url(#paint8_linear_10_4202)"/>
<defs>
<linearGradient id="paint0_linear_10_4202" x1="88.6044" y1="62.1117" x2="17.9762" y2="3.83232" gradientUnits="userSpaceOnUse">
<stop stop-color="#0575E6"/>
<stop offset="1" stop-color="#FF0CF5"/>
</linearGradient>
<linearGradient id="paint1_linear_10_4202" x1="37.2348" y1="43.5407" x2="15.1138" y2="30.6143" gradientUnits="userSpaceOnUse">
<stop stop-color="#0575E6"/>
<stop offset="1" stop-color="#FF0CF5"/>
</linearGradient>
<linearGradient id="paint2_linear_10_4202" x1="57.9776" y1="42.5153" x2="50.6047" y2="38.2068" gradientUnits="userSpaceOnUse">
<stop stop-color="#0575E6"/>
<stop offset="1" stop-color="#FF0CF5"/>
</linearGradient>
<linearGradient id="paint3_linear_10_4202" x1="74.9764" y1="39.5153" x2="67.6035" y2="35.2068" gradientUnits="userSpaceOnUse">
<stop stop-color="#0575E6"/>
<stop offset="1" stop-color="#FF0CF5"/>
</linearGradient>
<linearGradient id="paint4_linear_10_4202" x1="67.4769" y1="47.0145" x2="60.104" y2="42.706" gradientUnits="userSpaceOnUse">
<stop stop-color="#0575E6"/>
<stop offset="1" stop-color="#FF0CF5"/>
</linearGradient>
<linearGradient id="paint5_linear_10_4202" x1="65.4769" y1="31.0159" x2="58.104" y2="26.7074" gradientUnits="userSpaceOnUse">
<stop stop-color="#0575E6"/>
<stop offset="1" stop-color="#FF0CF5"/>
</linearGradient>
<linearGradient id="paint6_linear_10_4202" x1="94.4286" y1="60.9082" x2="85.741" y2="60.9082" gradientUnits="userSpaceOnUse">
<stop stop-color="#3AA0FE"/>
<stop offset="1" stop-color="#59FEF4"/>
</linearGradient>
<linearGradient id="paint7_linear_10_4202" x1="131.464" y1="66.0403" x2="51.3895" y2="14.8526" gradientUnits="userSpaceOnUse">
<stop stop-color="#0575E6"/>
<stop offset="1" stop-color="#FF0CF5"/>
</linearGradient>
<linearGradient id="paint8_linear_10_4202" x1="94.53" y1="29.9346" x2="85.6531" y2="29.9346" gradientUnits="userSpaceOnUse">
<stop stop-color="#3AA0FE"/>
<stop offset="1" stop-color="#59FEF4"/>
</linearGradient>
<clipPath id="clip0_10_4202">
<rect width="90" height="90" fill="white" transform="translate(0.107666)"/>
</clipPath>
</defs>
</svg>
