<svg width="91" height="80" viewBox="0 0 91 80" fill="none" xmlns="http://www.w3.org/2000/svg">
<path d="M23.5 10V33V36H10.5L4.5 42V69.5L10.5 75.5H61.5L69 68V46.5H83L87.5 42V10L83 5.5H29L23.5 10Z" fill="#151515"/>
<path d="M79.25 0.625H30.5C24.2956 0.625 19.25 5.67062 19.25 11.875V30.625H11.75C5.54562 30.625 0.5 35.6706 0.5 41.875V68.125C0.5 74.3294 5.54562 79.375 11.75 79.375H60.5C66.7044 79.375 71.75 74.3294 71.75 68.125V49.375H79.25C85.4544 49.375 90.5 44.3294 90.5 38.125V11.875C90.5 5.67062 85.4544 0.625 79.25 0.625ZM64.25 45.625V68.125C64.25 70.1931 62.5681 71.875 60.5 71.875H11.75C9.68188 71.875 8 70.1931 8 68.125V41.875C8 39.8069 9.68188 38.125 11.75 38.125H23H60.5C62.5681 38.125 64.25 39.8069 64.25 41.875V45.625ZM83 38.125C83 40.1931 81.3181 41.875 79.25 41.875H71.75C71.75 35.6706 66.7044 30.625 60.5 30.625H26.75V21.25H83V38.125ZM83 13.75H26.75V11.875C26.75 9.80688 28.4319 8.125 30.5 8.125H79.25C81.3181 8.125 83 9.80688 83 11.875V13.75Z" fill="url(#paint0_linear_57_504)"/>
<defs>
<linearGradient id="paint0_linear_57_504" x1="88.9967" y1="61.1345" x2="6.89769" y2="6.30442" gradientUnits="userSpaceOnUse">
<stop stop-color="#0575E6"/>
<stop offset="1" stop-color="#FF0CF5"/>
</linearGradient>
</defs>
</svg>
