<svg width="111" height="90" viewBox="0 0 111 90" fill="none" xmlns="http://www.w3.org/2000/svg">
<g clip-path="url(#clip0_26_2897)">
<circle cx="31.5" cy="31.5" r="31.5" fill="#151515"/>
<path d="M53.7739 9.2262C47.8244 3.2765 39.914 0 31.5001 0C23.0861 0 15.1756 3.2765 9.2262 9.22607C3.2765 15.1756 0 23.0861 0 31.5001C0 39.914 3.2765 47.8244 9.2262 53.7739C15.1756 59.7235 23.0861 63 31.5001 63C39.9141 63 47.8244 59.7235 53.774 53.7738C59.7235 47.8244 63.0001 39.9139 63.0001 31.4999C63.0001 23.086 59.7235 15.1756 53.7739 9.2262ZM11.8391 11.8391C14.609 9.06919 17.8608 6.95647 21.405 5.57748C20.461 6.75602 19.5777 8.11065 18.7681 9.63422C17.8279 11.4036 17.0167 13.3469 16.341 15.4226C14.0004 15.0341 11.8317 14.5565 9.89422 13.9959C10.5015 13.2495 11.1493 12.5289 11.8391 11.8391ZM7.6571 17.1755C9.92326 17.9011 12.5149 18.5131 15.3427 18.9977C14.5552 22.3404 14.0917 25.9375 13.9811 29.6525H3.75737C4.04776 25.1941 5.38676 20.9392 7.6571 17.1755ZM7.45592 45.4829C5.30813 41.8039 4.03902 37.6717 3.75724 33.3476H13.9881C14.109 36.9565 14.5632 40.4512 15.3242 43.7065C12.4382 44.1743 9.78151 44.7707 7.45592 45.4829ZM11.8391 51.161C11.0541 50.3759 10.3229 49.5514 9.64505 48.6933C11.6535 48.1364 13.8989 47.6648 16.3159 47.2865C16.9964 49.391 17.8164 51.36 18.768 53.1512C19.6503 54.8115 20.6202 56.2703 21.6608 57.52C18.0174 56.1439 14.6756 53.9973 11.8391 51.161ZM29.6524 58.8307C26.8459 58.0445 24.1911 55.4817 22.0313 51.4172C21.276 49.9958 20.6125 48.445 20.0441 46.7922C23.0871 46.4573 26.3251 46.2593 29.6524 46.2128V58.8307ZM29.6524 42.5173C25.9624 42.5677 22.3659 42.7994 18.9977 43.195C18.2548 40.1236 17.8077 36.7992 17.6851 33.3477H29.6525V42.5173H29.6524ZM29.6524 29.6524H17.6781C17.7902 26.1044 18.2443 22.6873 19.0104 19.5378C22.357 19.9562 25.9461 20.2106 29.6524 20.2835V29.6524ZM29.6524 16.5877C26.3121 16.5204 23.0813 16.3026 20.0599 15.9473C20.6248 14.3117 21.2831 12.7766 22.0313 11.3681C24.1909 7.30358 26.8459 4.74076 29.6524 3.95461V16.5877ZM55.4594 17.3718C57.6588 21.087 58.9573 25.2713 59.243 29.6524H49.0193C48.9099 25.9802 48.4552 22.4235 47.6842 19.1138C50.5307 18.6541 53.1544 18.0692 55.4594 17.3718ZM51.1609 11.8391C51.9027 12.581 52.5957 13.3586 53.2421 14.1659C51.2644 14.706 49.062 15.1643 46.6955 15.5332C46.0129 13.4158 45.1891 11.4351 44.2321 9.63422C43.4226 8.11065 42.5392 6.75602 41.5952 5.57748C45.1392 6.95647 48.3911 9.06919 51.1609 11.8391ZM33.3477 33.3477H45.3152C45.1916 36.826 44.7386 40.1756 43.985 43.2668C40.6389 42.8508 37.0515 42.5987 33.3477 42.5278V33.3477ZM33.3477 29.6524V20.2958C37.0398 20.2473 40.6391 20.0176 44.0105 19.6234C44.7642 22.7492 45.211 26.1366 45.3221 29.6524H33.3477ZM33.3475 3.95461H33.3476C36.1541 4.74076 38.8089 7.30358 40.9687 11.3681C41.7288 12.7987 42.3961 14.3603 42.9669 16.0252C39.9199 16.3589 36.6783 16.5554 33.3475 16.6003V3.95461ZM33.3477 58.8307V46.2235C36.6848 46.289 39.9132 46.5048 42.9335 46.8579C42.37 48.4861 41.714 50.0146 40.9688 51.4172C38.8091 55.4817 36.1542 58.0445 33.3477 58.8307ZM51.1609 51.161C48.3245 53.9974 44.9827 56.1439 41.3392 57.5199C42.3798 56.2702 43.3497 54.8115 44.232 53.1512C45.1696 51.3866 45.979 49.4489 46.6536 47.3795C49.0487 47.7749 51.2645 48.2638 53.2384 48.8388C52.5933 49.6442 51.9014 50.4204 51.1609 51.161ZM55.4458 45.6516C53.1528 44.9144 50.5239 44.2941 47.6537 43.8046C48.4284 40.5218 48.8901 36.9928 49.0123 33.3477H59.2431C58.9567 37.7378 57.6536 41.9306 55.4458 45.6516Z" fill="url(#paint0_linear_26_2897)"/>
</g>
<path d="M68.0352 14.4043L75.1543 18.623L106.971 73.291V79.0918L102.488 83.5742L93.7871 85.9473H43.9531L33.6699 83.5742L29.5391 79.0918V69.5996L57.2246 20.7324L68.0352 14.4043Z" fill="#151515"/>
<path d="M67.6357 65.9082C65.2451 65.9082 63.2412 67.9121 63.2412 70.3027C63.2412 72.6934 65.2451 74.6973 67.6357 74.6973C69.9385 74.6973 72.0303 72.6934 71.9248 70.4082C72.0303 67.8945 70.0439 65.9082 67.6357 65.9082Z" fill="url(#paint1_linear_26_2897)"/>
<path d="M108.311 81.4824C111.071 76.7188 111.088 71.041 108.346 66.2949L80.8189 18.623C78.0943 13.8242 73.1725 10.9766 67.6529 10.9766C62.1334 10.9766 57.2115 13.8418 54.4869 18.6055L26.9244 66.3301C24.1822 71.1289 24.1998 76.8418 26.9771 81.6055C29.7193 86.3164 34.6236 89.1465 40.108 89.1465H95.0924C100.594 89.1465 105.534 86.2812 108.311 81.4824ZM102.335 78.0371C100.805 80.6738 98.0982 82.2383 95.0748 82.2383H40.0904C37.1021 82.2383 34.4127 80.709 32.9185 78.125C31.4068 75.5059 31.3892 72.377 32.901 69.7402L60.4635 22.0332C61.9576 19.4141 64.6295 17.8672 67.6529 17.8672C70.6588 17.8672 73.3482 19.4316 74.8424 22.0508L102.387 69.7578C103.864 72.3242 103.846 75.418 102.335 78.0371Z" fill="url(#paint2_linear_26_2897)"/>
<path d="M66.5459 35.0586C64.4541 35.6563 63.1533 37.5547 63.1533 39.8575C63.2588 41.2461 63.3467 42.6524 63.4521 44.0411C63.751 49.3321 64.0498 54.5176 64.3486 59.8086C64.4541 61.6016 65.8428 62.9024 67.6357 62.9024C69.4287 62.9024 70.835 61.5137 70.9228 59.7032C70.9228 58.6133 70.9228 57.6114 71.0283 56.5039C71.2217 53.1114 71.4326 49.7188 71.626 46.3262C71.7314 44.1289 71.9248 41.9317 72.0303 39.7344C72.0303 38.9434 71.9248 38.2403 71.626 37.5371C70.7295 35.5684 68.6377 34.5664 66.5459 35.0586Z" fill="url(#paint3_linear_26_2897)"/>
<defs>
<linearGradient id="paint0_linear_26_2897" x1="63.0001" y1="0" x2="0" y2="0" gradientUnits="userSpaceOnUse">
<stop stop-color="#3AA0FE"/>
<stop offset="1" stop-color="#59FEF4"/>
</linearGradient>
<linearGradient id="paint1_linear_26_2897" x1="71.9288" y1="65.9082" x2="63.2412" y2="65.9082" gradientUnits="userSpaceOnUse">
<stop stop-color="#3AA0FE"/>
<stop offset="1" stop-color="#59FEF4"/>
</linearGradient>
<linearGradient id="paint2_linear_26_2897" x1="108.964" y1="71.0403" x2="28.8893" y2="19.8526" gradientUnits="userSpaceOnUse">
<stop stop-color="#0575E6"/>
<stop offset="1" stop-color="#FF0CF5"/>
</linearGradient>
<linearGradient id="paint3_linear_26_2897" x1="72.0303" y1="34.9346" x2="63.1533" y2="34.9346" gradientUnits="userSpaceOnUse">
<stop stop-color="#3AA0FE"/>
<stop offset="1" stop-color="#59FEF4"/>
</linearGradient>
<clipPath id="clip0_26_2897">
<rect width="63" height="63" fill="white"/>
</clipPath>
</defs>
</svg>
