<svg width="90" height="90" viewBox="0 0 90 90" fill="none" xmlns="http://www.w3.org/2000/svg">
<g clip-path="url(#clip0_10_4300)">
<path fill-rule="evenodd" clip-rule="evenodd" d="M21.9727 83.6719C20.918 83.1446 20.5664 81.7383 21.2695 80.6837C21.7969 79.8047 23.2031 79.4532 24.082 79.9805C31.9922 84.7266 41.1328 86.6602 50.0977 85.4297C58.7109 84.3751 67.1484 80.5079 73.8281 73.8282C80.5078 67.1485 84.375 58.711 85.4297 50.0977C86.3086 42.8907 85.4297 35.5079 82.4414 28.8282L81.7383 31.6407C81.3867 32.8712 80.332 33.3985 79.1016 33.2227C78.0469 32.8712 77.3438 31.6407 77.6953 30.586L79.8047 22.3243C79.9805 21.7969 80.332 21.2696 80.8594 21.0938C81.9141 20.3907 83.1445 20.7422 83.6719 21.7969C88.9453 30.586 90.8789 40.7813 89.6484 50.6251C88.418 60.1172 84.1992 69.4337 76.8164 76.8165C69.4336 84.1993 60.1172 88.418 50.625 89.6485C40.7812 90.879 30.7617 88.9454 21.9727 83.6719ZM8.26172 58.3594C8.61328 57.129 9.66797 56.6016 10.8984 56.7774C11.9531 57.129 12.6562 58.3594 12.3047 59.4141L10.1953 67.6758C9.84375 68.7305 8.61328 69.4337 7.55859 69.0821C7.03125 69.0821 6.50391 68.5547 6.15234 68.0274C1.05469 59.2383 -0.878906 49.2188 0.351562 39.3751C1.58203 29.8829 5.80078 20.5665 13.1836 13.1837C20.5664 5.80084 29.8828 1.58209 39.375 0.351623C49.2188 -0.878845 59.2383 1.05475 68.0273 6.32819C69.082 6.85553 69.4336 8.26178 68.7305 9.31647C68.2031 10.1954 66.7969 10.5469 65.918 10.0196C58.0078 5.2735 48.8672 3.3399 39.9023 4.57037C31.2891 5.62506 22.8516 9.49225 16.1719 16.1719C9.49219 22.8516 5.625 31.2891 4.57031 39.9024C3.69141 47.1094 4.57031 54.4922 7.55859 61.1719L8.26172 58.3594Z" fill="url(#paint0_linear_10_4300)"/>
<g clip-path="url(#clip1_10_4300)">
<path d="M60.0323 51.5766H70.3671C71.4048 51.5766 72.2461 50.7353 72.2461 49.6976V23.391C72.2461 22.3533 71.4048 21.512 70.3671 21.512H60.0323" fill="#3E4246"/>
<path d="M34.6653 17.7539H55.3347C56.3724 17.7539 57.2138 18.5953 57.2138 19.6329V53.4557C57.2138 54.4934 56.3724 55.3347 55.3347 55.3347H34.6653C33.6276 55.3347 32.7863 54.4934 32.7863 53.4557V19.6329C32.7863 18.5953 33.6276 17.7539 34.6653 17.7539Z" fill="#3E4246"/>
<path d="M19.6329 21.512C18.5953 21.512 17.7539 22.3533 17.7539 23.391V49.6976C17.7539 50.7353 18.5953 51.5766 19.6329 51.5766H29.9677V21.512H19.6329Z" fill="#3E4246"/>
<path d="M41.242 45H48.7581C49.7958 45 50.6372 45.8413 50.6372 46.879C50.6372 47.9167 49.7958 48.7581 48.7581 48.7581H41.242C40.2043 48.7581 39.3629 47.9167 39.3629 46.879C39.3629 45.8413 40.2043 45 41.242 45Z" fill="#151515"/>
<path d="M24.3306 43.121C23.2929 43.121 22.4515 43.9623 22.4515 45C22.4515 46.0377 23.2929 46.8791 24.3306 46.8791H29.9677V43.121H24.3306Z" fill="#151515"/>
<path d="M65.6695 43.121H60.0323V46.8791H65.6695C66.7072 46.8791 67.5485 46.0377 67.5485 45C67.5485 43.9623 66.7072 43.121 65.6695 43.121Z" fill="#151515"/>
<path d="M56.5899 60.0576C56.0439 59.9644 55.4847 60.1172 55.0618 60.4746C54.6388 60.8319 54.3947 61.3576 54.3952 61.9114C54.3952 60.8737 53.5539 60.0323 52.5162 60.0323C51.4785 60.0323 50.6371 60.8737 50.6371 61.9114C50.6371 60.8737 49.7958 60.0323 48.7581 60.0323C47.7204 60.0323 46.879 60.8737 46.879 61.9114V54.4957C46.9001 53.5516 46.2414 52.7286 45.3156 52.5414C44.7697 52.4483 44.2105 52.601 43.7875 52.9584C43.3646 53.3158 43.1205 53.8415 43.121 54.3952V67.5485L39.2041 65.1997C38.7174 64.9065 38.1146 64.8831 37.6068 65.1378L37.4595 65.2121C36.8985 65.4933 36.5443 66.0667 36.5443 66.6943C36.5439 67.2301 36.8026 67.7334 37.2384 68.0444L43.121 72.2461H58.1533V62.0118C58.1744 61.0677 57.5156 60.2447 56.5899 60.0576Z" fill="url(#paint1_linear_10_4300)"/>
<path d="M39.3629 21.512H41.242V23.391H39.3629V21.512Z" fill="#151515"/>
<path d="M43.121 21.512H50.6371V23.391H43.121V21.512Z" fill="#151515"/>
<path d="M36.5443 26.2096H38.4234V29.9677H36.5443V26.2096Z" fill="#151515"/>
<path d="M40.3024 26.2096H42.1814V29.9677H40.3024V26.2096Z" fill="#151515"/>
<path d="M44.0604 26.2096H45.9395V29.9677H44.0604V26.2096Z" fill="#151515"/>
<path d="M47.8186 26.2096H49.6976V29.9677H47.8186V26.2096Z" fill="#151515"/>
<path d="M51.5767 26.2096H53.4557V29.9677H51.5767V26.2096Z" fill="#151515"/>
<path d="M44.0604 32.7863H50.6371V34.6653H44.0604V32.7863Z" fill="#151515"/>
<path d="M39.3629 32.7863H42.1815V34.6653H39.3629V32.7863Z" fill="#151515"/>
<path d="M39.3629 36.5443H50.6372V38.4234H39.3629V36.5443Z" fill="#151515"/>
<path d="M41.2419 40.3024H48.7581V42.1814H41.2419V40.3024Z" fill="#151515"/>
<path d="M27.1492 24.3306H29.9677V26.2096H27.1492V24.3306Z" fill="#151515"/>
<path d="M20.5725 29.0282H22.4516V31.8468H20.5725V29.0282Z" fill="#151515"/>
<path d="M24.3306 29.0282H26.2096V31.8468H24.3306V29.0282Z" fill="#151515"/>
<path d="M28.0886 29.0282H29.9677V31.8468H28.0886V29.0282Z" fill="#151515"/>
<path d="M23.391 24.3306H25.27V26.2096H23.391V24.3306Z" fill="#151515"/>
<path d="M24.3306 34.6653H29.9677V36.5443H24.3306V34.6653Z" fill="#151515"/>
<path d="M26.2096 38.4233H29.9677V40.3024H26.2096V38.4233Z" fill="#151515"/>
<path d="M60.0323 24.3306H66.609V26.2096H60.0323V24.3306Z" fill="#151515"/>
<path d="M67.5485 29.0282H69.4275V31.8468H67.5485V29.0282Z" fill="#151515"/>
<path d="M63.7904 29.0282H65.6694V31.8468H63.7904V29.0282Z" fill="#151515"/>
<path d="M60.0323 29.0282H61.9114V31.8468H60.0323V29.0282Z" fill="#151515"/>
<path d="M60.0323 34.6653H64.73V36.5443H60.0323V34.6653Z" fill="#151515"/>
<path d="M60.0323 38.4233H62.8509V40.3024H60.0323V38.4233Z" fill="#3E4246"/>
</g>
</g>
<defs>
<linearGradient id="paint0_linear_10_4300" x1="88.5025" y1="69.157" x2="-0.00667908" y2="17.434" gradientUnits="userSpaceOnUse">
<stop stop-color="#0575E6"/>
<stop offset="1" stop-color="#FF0CF5"/>
</linearGradient>
<linearGradient id="paint1_linear_10_4300" x1="58.1538" y1="52.5146" x2="36.5443" y2="52.5146" gradientUnits="userSpaceOnUse">
<stop stop-color="#3AA0FE"/>
<stop offset="1" stop-color="#59FEF4"/>
</linearGradient>
<clipPath id="clip0_10_4300">
<rect width="90" height="90" fill="white"/>
</clipPath>
<clipPath id="clip1_10_4300">
<rect width="54.4922" height="54.4922" fill="white" transform="translate(17.7539 17.7539)"/>
</clipPath>
</defs>
</svg>
