<svg width="136" height="90" viewBox="0 0 136 90" fill="none" xmlns="http://www.w3.org/2000/svg">
<g clip-path="url(#clip0_26_2927)">
<path d="M85.1199 28.1435C85.0064 27.7545 84.906 27.41 84.8211 27.1148C81.9539 17.1001 71.0066 11.1117 60.4174 13.7667C58.1087 14.3386 55.9183 15.3112 53.9458 16.6404H36.2696C34.2972 15.3112 32.1068 14.3385 29.7981 13.7667C19.2097 11.1117 8.26169 17.1001 5.394 27.1147C5.30945 27.41 5.2089 27.7543 5.09517 28.1435C1.37687 40.8896 -2.88002 59.0318 3.05611 69.3834C5.11275 72.9693 8.1731 75.2942 12.1521 76.2916C13.6494 76.6679 15.1875 76.8582 16.7314 76.8581C25.9012 76.8581 34.8709 70.177 40.06 59.2178H53.8616C56.379 64.9771 58.9855 69.0517 61.9759 71.9292C65.3966 75.2211 69.2708 76.8752 73.5396 76.875C75.0658 76.8671 76.5853 76.6711 78.0635 76.2916C82.0424 75.294 85.1027 72.9693 87.1593 69.3834C93.0951 59.0318 88.8382 40.8896 85.1199 28.1435ZM80.6551 65.6535C79.6233 67.4529 78.2203 68.5222 76.2405 69.0186C71.5733 70.1883 65.9749 69.3277 59.8336 54.069C59.5544 53.3751 59.074 52.7807 58.4542 52.362C57.8344 51.9434 57.1035 51.7197 56.3556 51.7196H37.6094C36.8615 51.7197 36.1307 51.9434 35.5109 52.362C34.8911 52.7807 34.4107 53.3751 34.1314 54.069C30.6093 62.8199 22.7999 71.231 13.9755 69.0186C11.9956 68.5222 10.5929 67.4529 9.56089 65.6535C6.21964 59.8267 7.13898 47.9129 12.2938 30.2434C12.4112 29.8409 12.5151 29.4844 12.6026 29.179C14.3694 23.0091 21.2656 19.3576 27.9749 21.0404C29.7119 21.4674 31.3401 22.254 32.7544 23.3493C33.4124 23.8613 34.2224 24.1392 35.0562 24.1392H55.1593C55.993 24.1392 56.803 23.8613 57.4611 23.3493C58.8754 22.254 60.5036 21.4674 62.2406 21.0404C68.9507 19.3585 75.8461 23.0091 77.6128 29.179C77.7007 29.4842 77.8041 29.8407 77.9215 30.2432C83.0765 47.9129 83.9958 59.8267 80.6546 65.6535H80.6551Z" fill="url(#paint0_linear_26_2927)"/>
<path d="M33.8619 33.7538H30.1116V30.0035C30.1116 29.0092 29.7166 28.0556 29.0135 27.3525C28.3104 26.6494 27.3568 26.2544 26.3625 26.2544C25.3681 26.2544 24.4145 26.6494 23.7114 27.3525C23.0083 28.0556 22.6133 29.0092 22.6133 30.0035V33.7538H18.8639C17.8696 33.7538 16.9159 34.1488 16.2128 34.8519C15.5097 35.555 15.1147 36.5086 15.1147 37.503C15.1147 38.4973 15.5097 39.4509 16.2128 40.154C16.9159 40.8571 17.8696 41.2521 18.8639 41.2521H22.6133V45.0024C22.6133 45.9968 23.0083 46.9504 23.7114 47.6535C24.4145 48.3566 25.3681 48.7516 26.3625 48.7516C27.3568 48.7516 28.3104 48.3566 29.0135 47.6535C29.7166 46.9504 30.1116 45.9968 30.1116 45.0024V41.252H33.8619C34.8562 41.252 35.8099 40.857 36.513 40.1539C37.2161 39.4508 37.6111 38.4971 37.6111 37.5028C37.6111 36.5085 37.2161 35.5549 36.513 34.8518C35.8099 34.1487 34.8562 33.7537 33.8619 33.7537V33.7538Z" fill="url(#paint1_linear_26_2927)"/>
<path d="M54.354 44.252C56.4246 44.252 58.1031 42.5735 58.1031 40.503C58.1031 38.4324 56.4246 36.7539 54.354 36.7539C52.2835 36.7539 50.605 38.4324 50.605 40.503C50.605 42.5735 52.2835 44.252 54.354 44.252Z" fill="url(#paint2_linear_26_2927)"/>
<path d="M71.3531 41.252C73.4236 41.252 75.1021 39.5735 75.1021 37.503C75.1021 35.4324 73.4236 33.7539 71.3531 33.7539C69.2825 33.7539 67.604 35.4324 67.604 37.503C67.604 39.5735 69.2825 41.252 71.3531 41.252Z" fill="url(#paint3_linear_26_2927)"/>
<path d="M63.8536 48.7513C65.9241 48.7513 67.6026 47.0728 67.6026 45.0022C67.6026 42.9317 65.9241 41.2532 63.8536 41.2532C61.783 41.2532 60.1045 42.9317 60.1045 45.0022C60.1045 47.0728 61.783 48.7513 63.8536 48.7513Z" fill="url(#paint4_linear_26_2927)"/>
<path d="M61.8536 32.7525C63.9241 32.7525 65.6026 31.074 65.6026 29.0035C65.6026 26.9329 63.9241 25.2544 61.8536 25.2544C59.783 25.2544 58.1045 26.9329 58.1045 29.0035C58.1045 31.074 59.783 32.7525 61.8536 32.7525Z" fill="url(#paint5_linear_26_2927)"/>
</g>
<g clip-path="url(#clip1_26_2927)">
<circle cx="90.6079" cy="45.5" r="37.5" fill="#151515"/>
<path d="M90.1079 6C68.5731 6 51.1079 23.4652 51.1079 45C51.1079 66.5348 68.5731 84 90.1079 84C111.643 84 129.108 66.5348 129.108 45C129.108 23.4652 111.643 6 90.1079 6ZM90.1079 77.2174C72.3036 77.2174 57.8905 62.8043 57.8905 45C57.8905 27.1957 72.3036 12.7826 90.1079 12.7826C107.912 12.7826 122.325 27.1957 122.325 45C122.325 62.8043 107.912 77.2174 90.1079 77.2174Z" fill="url(#paint6_linear_26_2927)"/>
<path d="M103.08 57.9717C104.436 56.6152 104.436 54.4956 103.08 53.1391L93.4994 43.6435V24.8217C93.4994 22.9565 91.9733 21.4304 90.1081 21.4304C88.2429 21.4304 86.7168 22.9565 86.7168 24.8217V45C86.7168 45.9326 87.0559 46.7804 87.7342 47.3739L98.332 57.9717C99.0103 58.65 99.8581 58.9891 100.706 58.9891C101.554 58.9891 102.402 58.65 103.08 57.9717Z" fill="url(#paint7_linear_26_2927)"/>
</g>
<defs>
<linearGradient id="paint0_linear_26_2927" x1="88.6044" y1="62.1117" x2="17.9762" y2="3.83232" gradientUnits="userSpaceOnUse">
<stop stop-color="#0575E6"/>
<stop offset="1" stop-color="#FF0CF5"/>
</linearGradient>
<linearGradient id="paint1_linear_26_2927" x1="37.2353" y1="43.5407" x2="15.1143" y2="30.6143" gradientUnits="userSpaceOnUse">
<stop stop-color="#0575E6"/>
<stop offset="1" stop-color="#FF0CF5"/>
</linearGradient>
<linearGradient id="paint2_linear_26_2927" x1="57.9779" y1="42.5153" x2="50.605" y2="38.2068" gradientUnits="userSpaceOnUse">
<stop stop-color="#0575E6"/>
<stop offset="1" stop-color="#FF0CF5"/>
</linearGradient>
<linearGradient id="paint3_linear_26_2927" x1="74.9769" y1="39.5153" x2="67.604" y2="35.2068" gradientUnits="userSpaceOnUse">
<stop stop-color="#0575E6"/>
<stop offset="1" stop-color="#FF0CF5"/>
</linearGradient>
<linearGradient id="paint4_linear_26_2927" x1="67.4774" y1="47.0145" x2="60.1045" y2="42.706" gradientUnits="userSpaceOnUse">
<stop stop-color="#0575E6"/>
<stop offset="1" stop-color="#FF0CF5"/>
</linearGradient>
<linearGradient id="paint5_linear_26_2927" x1="65.4774" y1="31.0158" x2="58.1045" y2="26.7073" gradientUnits="userSpaceOnUse">
<stop stop-color="#0575E6"/>
<stop offset="1" stop-color="#FF0CF5"/>
</linearGradient>
<linearGradient id="paint6_linear_26_2927" x1="127.805" y1="65.9332" x2="51.1079" y2="21.1136" gradientUnits="userSpaceOnUse">
<stop stop-color="#0575E6"/>
<stop offset="1" stop-color="#FF0CF5"/>
</linearGradient>
<linearGradient id="paint7_linear_26_2927" x1="104.097" y1="21.4304" x2="86.7168" y2="21.4304" gradientUnits="userSpaceOnUse">
<stop stop-color="#3AA0FE"/>
<stop offset="1" stop-color="#59FEF4"/>
</linearGradient>
<clipPath id="clip0_26_2927">
<rect width="90" height="90" fill="white" transform="translate(0.10791)"/>
</clipPath>
<clipPath id="clip1_26_2927">
<rect width="78" height="78" fill="white" transform="translate(51.1079 6)"/>
</clipPath>
</defs>
</svg>
