<svg width="91" height="64" viewBox="0 0 91 64" fill="none" xmlns="http://www.w3.org/2000/svg">
<path d="M85.512 15.1435C85.3985 14.7545 85.2981 14.41 85.2132 14.1148C82.346 4.10006 71.3987 -1.88828 60.8095 0.766715C58.5008 1.33857 56.3104 2.31122 54.3379 3.64039H36.6617C34.6893 2.31118 32.4989 1.33853 30.1902 0.766715C19.6018 -1.88828 8.65378 4.10005 5.78609 14.1147C5.70154 14.41 5.60099 14.7543 5.48726 15.1435C1.76896 27.8896 -2.48794 46.0318 3.4482 56.3834C5.50484 59.9693 8.56519 62.2942 12.5442 63.2916C14.0415 63.6679 15.5795 63.8582 17.1235 63.8581C26.2933 63.8581 35.263 57.177 40.4521 46.2178H54.2537C56.7711 51.9771 59.3776 56.0517 62.368 58.9292C65.7887 62.2211 69.6629 63.8752 73.9317 63.875C75.4579 63.8671 76.9774 63.6711 78.4556 63.2916C82.4344 62.294 85.4948 59.9693 87.5514 56.3834C93.4872 46.0318 89.2303 27.8896 85.512 15.1435ZM81.0472 52.6535C80.0153 54.4529 78.6124 55.5222 76.6326 56.0186C71.9654 57.1883 66.367 56.3277 60.2257 41.069C59.9464 40.3751 59.466 39.7807 58.8463 39.362C58.2265 38.9434 57.4956 38.7197 56.7477 38.7196H38.0015C37.2536 38.7197 36.5228 38.9434 35.903 39.362C35.2832 39.7807 34.8028 40.3751 34.5235 41.069C31.0014 49.8199 23.1919 58.231 14.3676 56.0186C12.3877 55.5222 10.985 54.4529 9.95298 52.6535C6.61173 46.8267 7.53107 34.9129 12.6859 17.2434C12.8033 16.8409 12.9072 16.4844 12.9947 16.179C14.7615 10.0091 21.6577 6.35761 28.3669 8.04037C30.104 8.46742 31.7322 9.25397 33.1464 10.3493C33.8045 10.8613 34.6145 11.1392 35.4483 11.1392H55.5513C56.3851 11.1392 57.1951 10.8613 57.8532 10.3493C59.2674 9.25397 60.8956 8.46742 62.6327 8.04037C69.3428 6.35849 76.2382 10.0091 78.0049 16.179C78.0928 16.4842 78.1962 16.8407 78.3136 17.2432C83.4686 34.9129 84.3879 46.8267 81.0467 52.6535H81.0472Z" fill="url(#paint0_linear_57_415)"/>
<defs>
<linearGradient id="paint0_linear_57_415" x1="88.9965" y1="49.1117" x2="18.3682" y2="-9.16768" gradientUnits="userSpaceOnUse">
<stop stop-color="#0575E6"/>
<stop offset="1" stop-color="#FF0CF5"/>
</linearGradient>
</defs>
</svg>
