<svg width="90" height="90" viewBox="0 0 90 90" fill="none" xmlns="http://www.w3.org/2000/svg">
<g clip-path="url(#clip0_26_2917)">
<circle cx="60" cy="70.5" r="16.5" fill="#151515"/>
<rect x="4.5" y="3" width="83" height="70" fill="#151515"/>
<path d="M53.7891 31.9922H76.6406C78.0968 31.9922 79.2773 30.8116 79.2773 29.3555C79.2773 27.8993 78.0968 26.7188 76.6406 26.7188H53.7891C52.3329 26.7188 51.1523 27.8993 51.1523 29.3555C51.1523 30.8116 52.3329 31.9922 53.7891 31.9922Z" fill="#3E4246"/>
<path d="M53.7891 42.5391H76.6406C78.0968 42.5391 79.2773 41.3585 79.2773 39.9023C79.2773 38.4462 78.0968 37.2656 76.6406 37.2656H53.7891C52.3329 37.2656 51.1523 38.4462 51.1523 39.9023C51.1523 41.3585 52.3329 42.5391 53.7891 42.5391Z" fill="#3E4246"/>
<path d="M64.2035 63.2506L56.1242 71.3297L53.0168 68.2224C51.9872 67.1927 50.3176 67.1927 49.2879 68.2224C48.2582 69.2521 48.2582 70.9215 49.2879 71.9512L54.2597 76.923C55.2894 77.9528 56.9588 77.9528 57.9886 76.923L67.9322 66.9793C68.9619 65.9495 68.9619 64.2801 67.9322 63.2504C66.9028 62.2209 65.2332 62.2209 64.2035 63.2506Z" fill="url(#paint0_linear_26_2917)"/>
<path d="M83.8477 0H6.15234C2.75994 0 0 2.75994 0 6.15234V69.7852C0 73.1776 2.75994 75.9375 6.15234 75.9375H39.806C42.4151 84.0848 50.0604 90 59.0625 90C68.0646 90 75.7099 84.0848 78.319 75.9375H83.8477C87.2401 75.9375 90 73.1776 90 69.7852V6.15234C90 2.75994 87.2401 0 83.8477 0ZM5.27344 6.15234C5.27344 5.66772 5.66772 5.27344 6.15234 5.27344H30.0586V10.8984H5.27344V6.15234ZM15.9961 60.1172V59.2383C15.9961 52.9381 21.1217 47.8125 27.4219 47.8125H34.4531C39.2648 47.8125 43.4559 50.7681 45.1185 55.1624C43.609 56.6024 42.322 58.2732 41.3135 60.1172H15.9961ZM23.0273 34.6289C23.0273 30.2672 26.5758 26.7188 30.9375 26.7188C35.2992 26.7188 38.8477 30.2672 38.8477 34.6289C38.8477 38.9906 35.2992 42.5391 30.9375 42.5391C26.5758 42.5391 23.0273 38.9906 23.0273 34.6289ZM59.0625 84.7266C50.8238 84.7266 44.1211 78.0238 44.1211 69.7852C44.1211 61.5465 50.8238 54.8438 59.0625 54.8438C67.3012 54.8438 74.0039 61.5465 74.0039 69.7852C74.0039 78.0238 67.3012 84.7266 59.0625 84.7266ZM84.7266 69.7852C84.7266 70.2698 84.3323 70.6641 83.8477 70.6641H79.2571C79.2696 70.3724 79.2773 70.0798 79.2773 69.7852C79.2773 58.6387 70.209 49.5703 59.0625 49.5703C55.5973 49.5703 52.3331 50.4473 49.4796 51.9901C48.4042 49.7656 46.8415 47.7803 44.9003 46.2176C43.5707 45.1475 42.085 44.2965 40.5076 43.6822C42.7447 41.3188 44.1211 38.1326 44.1211 34.6289C44.1211 27.3595 38.2069 21.4453 30.9375 21.4453C23.6681 21.4453 17.7539 27.3595 17.7539 34.6289C17.7539 38.1299 19.1283 41.314 21.3627 43.6772C15.1414 46.1081 10.7227 52.1666 10.7227 59.2383V62.7539C10.7227 64.2101 11.9032 65.3906 13.3594 65.3906H39.3302C39.0152 66.806 38.8477 68.2763 38.8477 69.7852C38.8477 70.0798 38.8554 70.3724 38.8679 70.6641H6.15234C5.66772 70.6641 5.27344 70.2698 5.27344 69.7852V16.1719H84.7266V69.7852ZM84.7266 10.8984H35.332V5.27344H83.8477C84.3323 5.27344 84.7266 5.66772 84.7266 6.15234V10.8984Z" fill="url(#paint1_linear_26_2917)"/>
</g>
<defs>
<linearGradient id="paint0_linear_26_2917" x1="68.7045" y1="62.4783" x2="48.5156" y2="62.4783" gradientUnits="userSpaceOnUse">
<stop stop-color="#3AA0FE"/>
<stop offset="1" stop-color="#59FEF4"/>
</linearGradient>
<linearGradient id="paint1_linear_26_2917" x1="88.4967" y1="69.1537" x2="-3.44778e-07" y2="17.4388" gradientUnits="userSpaceOnUse">
<stop stop-color="#0575E6"/>
<stop offset="1" stop-color="#FF0CF5"/>
</linearGradient>
<clipPath id="clip0_26_2917">
<rect width="90" height="90" fill="white"/>
</clipPath>
</defs>
</svg>
