<svg width="111" height="90" viewBox="0 0 111 90" fill="none" xmlns="http://www.w3.org/2000/svg">
<path d="M56.1543 9.42773L63.2734 13.6465L95.0898 68.3145V74.1152L90.6074 78.5977L81.9062 80.9707H32.0723L21.7891 78.5977L17.6582 74.1152V64.623L45.3438 15.7559L56.1543 9.42773Z" fill="#151515"/>
<path d="M55.7539 60.9316C53.3633 60.9316 51.3594 62.9355 51.3594 65.3262C51.3594 67.7168 53.3633 69.7207 55.7539 69.7207C58.0566 69.7207 60.1484 67.7168 60.043 65.4316C60.1484 62.918 58.1621 60.9316 55.7539 60.9316Z" fill="url(#paint0_linear_357_1350)"/>
<path d="M96.4303 76.5059C99.19 71.7422 99.2076 66.0645 96.4654 61.3184L68.9381 13.6465C66.2135 8.84766 61.2916 6 55.7721 6C50.2525 6 45.3307 8.86523 42.606 13.6289L15.0435 61.3535C12.3014 66.1523 12.3189 71.8652 15.0963 76.6289C17.8385 81.3398 22.7428 84.1699 28.2271 84.1699H83.2115C88.7135 84.1699 93.6529 81.3047 96.4303 76.5059ZM90.4537 73.0605C88.9244 75.6973 86.2174 77.2617 83.1939 77.2617H28.2096C25.2213 77.2617 22.5318 75.7324 21.0377 73.1484C19.526 70.5293 19.5084 67.4004 21.0201 64.7637L48.5826 17.0566C50.0767 14.4375 52.7486 12.8906 55.7721 12.8906C58.7779 12.8906 61.4674 14.4551 62.9615 17.0742L90.5064 64.7813C91.983 67.3477 91.9654 70.4414 90.4537 73.0605Z" fill="url(#paint1_linear_357_1350)"/>
<path d="M54.6641 30.0821C52.5723 30.6797 51.2715 32.5782 51.2715 34.8809C51.377 36.2696 51.4648 37.6758 51.5703 39.0645C51.8691 44.3555 52.168 49.5411 52.4668 54.8321C52.5723 56.625 53.9609 57.9258 55.7539 57.9258C57.5469 57.9258 58.9531 56.5372 59.041 54.7266C59.041 53.6368 59.041 52.6348 59.1465 51.5274C59.3398 48.1348 59.5508 44.7422 59.7441 41.3496C59.8496 39.1524 60.043 36.9551 60.1484 34.7579C60.1484 33.9668 60.043 33.2637 59.7441 32.5606C58.8477 30.5918 56.7559 29.5899 54.6641 30.0821Z" fill="url(#paint2_linear_357_1350)"/>
<defs>
<linearGradient id="paint0_linear_357_1350" x1="60.047" y1="60.9316" x2="51.3594" y2="60.9316" gradientUnits="userSpaceOnUse">
<stop stop-color="#3AA0FE"/>
<stop offset="1" stop-color="#59FEF4"/>
</linearGradient>
<linearGradient id="paint1_linear_357_1350" x1="97.0828" y1="66.0638" x2="17.0084" y2="14.8761" gradientUnits="userSpaceOnUse">
<stop stop-color="#0575E6"/>
<stop offset="1" stop-color="#FF0CF5"/>
</linearGradient>
<linearGradient id="paint2_linear_357_1350" x1="60.1484" y1="29.958" x2="51.2715" y2="29.958" gradientUnits="userSpaceOnUse">
<stop stop-color="#3AA0FE"/>
<stop offset="1" stop-color="#59FEF4"/>
</linearGradient>
</defs>
</svg>
