<svg width="90" height="70" viewBox="0 0 90 70" fill="none" xmlns="http://www.w3.org/2000/svg">
<path fill-rule="evenodd" clip-rule="evenodd" d="M86.2383 69.225H3.73828C1.71328 69.225 -0.0117188 67.5442 -0.0117188 65.475C-0.0117188 63.405 1.71328 61.725 3.73828 61.725H10.4883V57.975C10.4883 51.0127 13.2639 44.3363 18.2139 39.4133C23.0889 34.4903 29.7633 31.725 36.7383 31.725C46.5633 31.725 55.1887 37.1265 59.6887 45.123C62.9137 42.7013 66.8884 41.3715 71.0134 41.3715C81.5134 41.3715 89.9883 49.8848 89.9883 60.3863V65.475C89.9883 67.5442 88.3383 69.225 86.2383 69.225ZM82.4883 61.725V60.3863C82.4883 54.027 77.3884 48.8715 71.0134 48.8715C67.9384 48.8715 65.0138 50.0842 62.8388 52.2442C62.6888 52.3695 62.6138 52.4842 62.4638 52.5885C62.8388 54.327 62.9883 56.1285 62.9883 57.975V61.725H82.4883ZM55.4883 61.725V57.975C55.4883 47.6197 47.0883 39.225 36.7383 39.225C31.7883 39.225 26.9889 41.2005 23.4639 44.7165C20.0139 48.2333 17.9883 53.0017 17.9883 57.975V61.725H55.4883ZM36.7383 0C44.3133 0 50.4639 6.14999 50.4639 13.725C50.4639 21.3 44.3133 27.45 36.7383 27.45C29.1633 27.45 23.0134 21.3 23.0134 13.725C23.0134 6.14999 29.1633 0 36.7383 0ZM36.7383 7.5C33.2883 7.5 30.5134 10.2892 30.5134 13.725C30.5134 17.1607 33.2883 19.95 36.7383 19.95C40.1883 19.95 42.9639 17.1607 42.9639 13.725C42.9639 10.2892 40.1883 7.5 36.7383 7.5ZM71.0134 13.725C77.4634 13.725 82.7138 18.978 82.7138 25.4483C82.7138 31.9185 77.4634 37.1715 71.0134 37.1715C64.4884 37.1715 59.2383 31.9185 59.2383 25.4483C59.2383 18.978 64.4884 13.725 71.0134 13.725ZM71.0134 21.225C68.6884 21.225 66.7383 23.1173 66.7383 25.4483C66.7383 27.7793 68.6884 29.6715 71.0134 29.6715C73.3384 29.6715 75.2138 27.7793 75.2138 25.4483C75.2138 23.1173 73.3384 21.225 71.0134 21.225Z" fill="url(#paint0_linear_2083_1342)"/>
<defs>
<linearGradient id="paint0_linear_2083_1342" x1="14.9883" y1="1.66204e-06" x2="89.9883" y2="69.225" gradientUnits="userSpaceOnUse">
<stop stop-color="#FF0CF5"/>
<stop offset="1" stop-color="#0575E6"/>
</linearGradient>
</defs>
</svg>
