<svg width="79" height="90" viewBox="0 0 79 90" fill="none" xmlns="http://www.w3.org/2000/svg">
<g clip-path="url(#clip0_2184_2385)">
<path fill-rule="evenodd" clip-rule="evenodd" d="M56.6909 69.2331C61.8512 64.4313 64.708 57.7054 64.708 50.6644C64.708 36.6413 53.3738 25.2739 39.3672 25.2739V50.6644L56.6909 69.2331Z" fill="url(#paint0_linear_2184_2385)"/>
<path fill-rule="evenodd" clip-rule="evenodd" d="M43.0378 11.5018C62.9878 13.3918 78.6628 30.2157 78.6628 50.6622C78.6628 72.3732 61.0378 89.9998 39.2878 89.9998C17.6128 89.9998 -0.0117188 72.3732 -0.0117188 50.6622C-0.0117188 30.2157 15.5878 13.3918 35.5378 11.5018V7.49976H31.0378C28.9378 7.49976 27.2878 5.81901 27.2878 3.74976C27.2878 1.67976 28.9378 -0.000244141 31.0378 -0.000244141H47.6133C49.6383 -0.000244141 51.3633 1.67976 51.3633 3.74976C51.3633 5.81901 49.6383 7.49976 47.6133 7.49976H43.0378V11.5018ZM39.2878 18.8248C21.7378 18.8248 7.48828 33.0905 7.48828 50.6622C7.48828 68.234 21.7378 82.4998 39.2878 82.4998C56.9128 82.4998 71.1628 68.234 71.1628 50.6622C71.1628 33.0905 56.9128 18.8248 39.2878 18.8248ZM65.1628 17.651C63.6628 16.1878 63.6628 13.8117 65.1628 12.3477C66.5878 10.8845 68.9883 10.8845 70.4883 12.3477L77.4631 19.3273C78.8881 20.7905 78.8881 23.1665 77.4631 24.6305C75.9631 26.0938 73.5634 26.0938 72.1384 24.6305L65.1628 17.651Z" fill="url(#paint1_linear_2184_2385)"/>
</g>
<defs>
<linearGradient id="paint0_linear_2184_2385" x1="13.9342" y1="50.6644" x2="64.7153" y2="50.6644" gradientUnits="userSpaceOnUse">
<stop stop-color="#A83AFE"/>
<stop offset="1" stop-color="#6E59FE"/>
</linearGradient>
<linearGradient id="paint1_linear_2184_2385" x1="-5.71168" y1="-0.000244141" x2="84.2883" y2="89.9992" gradientUnits="userSpaceOnUse">
<stop stop-color="#FF0CF5"/>
<stop offset="1" stop-color="#0575E6"/>
</linearGradient>
<clipPath id="clip0_2184_2385">
<rect width="78.75" height="90" fill="white"/>
</clipPath>
</defs>
</svg>
