<svg width="79" height="90" viewBox="0 0 79 90" fill="none" xmlns="http://www.w3.org/2000/svg">
<g clip-path="url(#clip0_3425_3535)">
<path fill-rule="evenodd" clip-rule="evenodd" d="M70.6884 54.75H60.9384V66.9375H63.8251C64.8345 64.1063 67.515 62.0625 70.6884 62.0625C74.7208 62.0625 78.0009 65.3426 78.0009 69.375C78.0009 73.4074 74.7208 76.6875 70.6884 76.6875C67.515 76.6875 64.8347 74.6437 63.8252 71.8125H58.5009C57.1548 71.8125 56.0634 70.7223 56.0634 69.375V54.75H41.4384V62.5117C44.2696 63.5211 46.3134 66.2015 46.3134 69.375C46.3134 73.4074 43.0333 76.6875 39.0009 76.6875C34.9686 76.6875 31.6884 73.4074 31.6884 69.375C31.6884 66.2015 33.7323 63.5211 36.5634 62.5117V54.75H21.9384V69.375C21.9384 70.7223 20.847 71.8125 19.5009 71.8125H14.1768C13.1674 74.6437 10.4869 76.6875 7.31344 76.6875C3.39225 76.6875 0.00673738 73.3404 9.87479e-06 69.411C-0.00669325 65.5039 3.40018 62.0625 7.31353 62.0625C10.487 62.0625 13.1674 64.1064 14.1768 66.9375H17.0634V54.75H7.31344C3.28108 54.75 0.000936125 51.4699 0.000936125 47.4375V20.625C0.000936125 16.5926 3.28108 13.3125 7.31344 13.3125H70.6884C74.7208 13.3125 78.0009 16.5926 78.0009 20.625V47.4375C78.0009 51.4699 74.7208 54.75 70.6884 54.75ZM4.87594 69.375C4.87594 70.7199 5.96972 71.8125 7.31344 71.8125C8.65716 71.8125 9.75094 70.7199 9.75094 69.375C9.75094 68.0301 8.65716 66.9375 7.31344 66.9375C5.96972 66.9375 4.87594 68.0301 4.87594 69.375ZM36.5634 69.375C36.5634 70.7199 37.6572 71.8125 39.0009 71.8125C40.3447 71.8125 41.4384 70.7199 41.4384 69.375C41.4384 68.0301 40.3447 66.9375 39.0009 66.9375C37.6572 66.9375 36.5634 68.0301 36.5634 69.375ZM4.87594 20.625V47.4375C4.87594 48.7824 5.96972 49.875 7.31344 49.875H70.6884C72.0322 49.875 73.1259 48.7824 73.1259 47.4375V20.625C73.1259 19.2813 72.0322 18.1875 70.6884 18.1875H7.31344C5.96972 18.1875 4.87594 19.2813 4.87594 20.625ZM73.1259 69.375C73.1259 68.0301 72.0322 66.9375 70.6884 66.9375C69.3447 66.9375 68.2509 68.0301 68.2509 69.375C68.2509 70.7199 69.3447 71.8125 70.6884 71.8125C72.0322 71.8125 73.1259 70.7199 73.1259 69.375ZM36.5625 23.0625H41.4375C45.4699 23.0625 48.75 26.3426 48.75 30.375C48.75 34.4074 45.4699 37.6875 41.4375 37.6875H39V42.5625C39 45.6539 34.125 45.6271 34.125 42.5623V25.5C34.125 24.1539 35.2164 23.0625 36.5625 23.0625ZM39 32.8125H41.4375C44.5871 32.8125 44.5753 27.9375 41.4375 27.9375H39V32.8125ZM63.375 33.3837V25.4999C63.375 22.3513 68.25 22.358 68.25 25.4999V42.5624C68.25 44.9907 64.9042 45.8854 63.6964 43.7716L58.5 34.6786V42.5624C58.5 45.6507 53.625 45.6191 53.625 42.5622V25.4999C53.625 23.0593 56.9684 22.1729 58.1786 24.2907L63.375 33.3837ZM21.7423 43.5235L29.0547 26.4611C30.2896 23.5796 25.814 21.6378 24.5749 24.5401L19.5023 36.3753L14.4298 24.5402C13.1949 21.659 8.70659 23.5618 9.94988 26.461L17.2624 43.5235C18.0896 45.4538 20.9168 45.4539 21.7423 43.5235Z" fill="url(#paint0_linear_3425_3535)"/>
</g>
<defs>
<linearGradient id="paint0_linear_3425_3535" x1="76.698" y1="62.0082" x2="8.88698" y2="13.2361" gradientUnits="userSpaceOnUse">
<stop stop-color="#0575E6"/>
<stop offset="1" stop-color="#FF0CF5"/>
</linearGradient>
<clipPath id="clip0_3425_3535">
<rect width="78" height="78" fill="white" transform="translate(0 6)"/>
</clipPath>
</defs>
</svg>
