<svg width="146" height="41" viewBox="0 0 146 41" fill="none" xmlns="http://www.w3.org/2000/svg">
<path d="M65.3403 3.64545V36.0697C65.3403 37.8063 63.932 39.2146 62.1948 39.2146H3.80846C2.07185 39.2146 0.663574 37.8063 0.663574 36.0697V3.64545C0.663574 1.90828 2.07185 0.5 3.80846 0.5H62.1948C63.932 0.5 65.3403 1.90828 65.3403 3.64545Z" fill="#A8A8A8"/>
<path d="M16.4339 17.6146H6.1613C5.78618 17.6146 5.48209 17.3105 5.48209 16.9354V10.2352C5.48209 9.86007 5.78618 9.55598 6.1613 9.55598H16.4339C16.809 9.55598 17.1131 9.86007 17.1131 10.2352V16.9354C17.1131 17.3105 16.809 17.6146 16.4339 17.6146Z" fill="#EFBD5B"/>
<path fill-rule="evenodd" clip-rule="evenodd" d="M10.8923 12.1407V15.0287H11.7864V12.1407H10.8923ZM7.21713 11.3641C7.21713 9.76327 8.51486 8.4655 10.1157 8.4655H12.563C14.1638 8.4655 15.4616 9.76325 15.4616 11.3641V15.8051C15.4616 15.8051 15.4616 15.8052 15.4616 15.8053C15.4616 17.4062 14.1637 18.7038 12.563 18.7038H10.1157C8.51486 18.7038 7.21713 17.4061 7.21713 15.8053V11.3641Z" fill="#AA7B27"/>
<path fill-rule="evenodd" clip-rule="evenodd" d="M17.0923 13.8627H13.603V10.1875H17.0923V13.8627Z" fill="#AA7B27"/>
<path fill-rule="evenodd" clip-rule="evenodd" d="M17.1134 15.028H13.6242V11.3529H17.1134V15.028Z" fill="#AA7B27"/>
<path fill-rule="evenodd" clip-rule="evenodd" d="M17.1338 16.1901H13.6445V12.515H17.1338V16.1901Z" fill="#AA7B27"/>
<path fill-rule="evenodd" clip-rule="evenodd" d="M17.155 17.3522H13.6657V13.6771H17.155V17.3522Z" fill="#AA7B27"/>
<path fill-rule="evenodd" clip-rule="evenodd" d="M8.95103 13.8627H5.46176V10.1875H8.95103V13.8627Z" fill="#AA7B27"/>
<path fill-rule="evenodd" clip-rule="evenodd" d="M8.97135 15.028H5.48209V11.3529H8.97135V15.028Z" fill="#AA7B27"/>
<path fill-rule="evenodd" clip-rule="evenodd" d="M8.99254 16.1901H5.50327V12.515H8.99254V16.1901Z" fill="#AA7B27"/>
<path fill-rule="evenodd" clip-rule="evenodd" d="M9.01286 17.3522H5.52359V13.6771H9.01286V17.3522Z" fill="#AA7B27"/>
<path d="M14.7287 26.336H7.14358C6.27183 26.336 5.56509 25.6293 5.56509 24.7575C5.56509 23.8858 6.27183 23.179 7.14358 23.179H14.7287C15.6004 23.179 16.3072 23.8857 16.3072 24.7575C16.3072 25.6293 15.6005 26.336 14.7287 26.336Z" fill="url(#paint0_linear_222_295)"/>
<path d="M14.7287 26.336H7.14358C6.27183 26.336 5.56509 25.6293 5.56509 24.7575C5.56509 23.8858 6.27183 23.179 7.14358 23.179H14.7287C15.6004 23.179 16.3072 23.8857 16.3072 24.7575C16.3072 25.6293 15.6005 26.336 14.7287 26.336Z" fill="black" fill-opacity="0.6"/>
<path d="M33.4794 34.1062H7.14358C6.27183 34.1062 5.56509 33.3995 5.56509 32.5277C5.56509 31.656 6.27183 30.9492 7.14358 30.9492H33.4794C34.3512 30.9492 35.0579 31.6559 35.0579 32.5277C35.0579 33.3995 34.3512 34.1062 33.4794 34.1062Z" fill="url(#paint1_linear_222_295)"/>
<path d="M33.4794 34.1062H7.14358C6.27183 34.1062 5.56509 33.3995 5.56509 32.5277C5.56509 31.656 6.27183 30.9492 7.14358 30.9492H33.4794C34.3512 30.9492 35.0579 31.6559 35.0579 32.5277C35.0579 33.3995 34.3512 34.1062 33.4794 34.1062Z" fill="black" fill-opacity="0.6"/>
<path d="M29.4805 26.336H21.8954C21.0236 26.336 20.3169 25.6293 20.3169 24.7575C20.3169 23.8858 21.0236 23.179 21.8954 23.179H29.4805C30.3522 23.179 31.059 23.8857 31.059 24.7575C31.0589 25.6293 30.3522 26.336 29.4805 26.336Z" fill="url(#paint2_linear_222_295)"/>
<path d="M29.4805 26.336H21.8954C21.0236 26.336 20.3169 25.6293 20.3169 24.7575C20.3169 23.8858 21.0236 23.179 21.8954 23.179H29.4805C30.3522 23.179 31.059 23.8857 31.059 24.7575C31.0589 25.6293 30.3522 26.336 29.4805 26.336Z" fill="black" fill-opacity="0.6"/>
<path d="M56.2283 10.3041H41.9914C41.1197 10.3041 40.4129 9.59744 40.4129 8.72563C40.4129 7.85388 41.1196 7.14714 41.9914 7.14714H56.2283C57.1 7.14714 57.8068 7.85388 57.8068 8.72563C57.8068 9.59744 57.1001 10.3041 56.2283 10.3041Z" fill="url(#paint3_linear_222_295)"/>
<path d="M56.2283 10.3041H41.9914C41.1197 10.3041 40.4129 9.59744 40.4129 8.72563C40.4129 7.85388 41.1196 7.14714 41.9914 7.14714H56.2283C57.1 7.14714 57.8068 7.85388 57.8068 8.72563C57.8068 9.59744 57.1001 10.3041 56.2283 10.3041Z" fill="black" fill-opacity="0.6"/>
<path d="M44.2323 26.336H36.6472C35.7754 26.336 35.0687 25.6293 35.0687 24.7575C35.0687 23.8858 35.7754 23.179 36.6472 23.179H44.2323C45.104 23.179 45.8108 23.8857 45.8108 24.7575C45.8108 25.6293 45.104 26.336 44.2323 26.336Z" fill="url(#paint4_linear_222_295)"/>
<path d="M44.2323 26.336H36.6472C35.7754 26.336 35.0687 25.6293 35.0687 24.7575C35.0687 23.8858 35.7754 23.179 36.6472 23.179H44.2323C45.104 23.179 45.8108 23.8857 45.8108 24.7575C45.8108 25.6293 45.104 26.336 44.2323 26.336Z" fill="black" fill-opacity="0.6"/>
<path d="M58.9849 26.336H51.3998C50.528 26.336 49.8213 25.6293 49.8213 24.7575C49.8213 23.8858 50.528 23.179 51.3998 23.179H58.9849C59.8566 23.179 60.5634 23.8857 60.5634 24.7575C60.5634 25.6293 59.8566 26.336 58.9849 26.336Z" fill="url(#paint5_linear_222_295)"/>
<path d="M58.9849 26.336H51.3998C50.528 26.336 49.8213 25.6293 49.8213 24.7575C49.8213 23.8858 50.528 23.179 51.3998 23.179H58.9849C59.8566 23.179 60.5634 23.8857 60.5634 24.7575C60.5634 25.6293 59.8566 26.336 58.9849 26.336Z" fill="black" fill-opacity="0.6"/>
<path d="M82.0072 3.83333C82.0072 1.99238 83.4996 0.5 85.3405 0.5H142.007C143.848 0.5 145.341 1.99238 145.341 3.83333V37.1667C145.341 39.0076 143.848 40.5 142.007 40.5H85.3405C83.4996 40.5 82.0072 39.0076 82.0072 37.1667V3.83333Z" fill="#3E4246"/>
<path d="M82.007 8.83333H145.34V17.1667H82.007V8.83333Z" fill="url(#paint6_linear_222_295)"/>
<path d="M82.007 8.83333H145.34V17.1667H82.007V8.83333Z" fill="black" fill-opacity="0.6"/>
<path d="M85.3403 30.5C85.3403 29.5795 86.0865 28.8333 87.007 28.8333H140.34C141.261 28.8333 142.007 29.5795 142.007 30.5C142.007 31.4205 141.261 32.1667 140.34 32.1667H87.007C86.0865 32.1667 85.3403 31.4205 85.3403 30.5Z" fill="#0E0E0E"/>
<defs>
<linearGradient id="paint0_linear_222_295" x1="16.3072" y1="23.179" x2="5.56509" y2="23.179" gradientUnits="userSpaceOnUse">
<stop stop-color="#A83AFE"/>
<stop offset="1" stop-color="#6E59FE"/>
</linearGradient>
<linearGradient id="paint1_linear_222_295" x1="35.0579" y1="30.9492" x2="5.56509" y2="30.9492" gradientUnits="userSpaceOnUse">
<stop stop-color="#A83AFE"/>
<stop offset="1" stop-color="#6E59FE"/>
</linearGradient>
<linearGradient id="paint2_linear_222_295" x1="31.059" y1="23.179" x2="20.3169" y2="23.179" gradientUnits="userSpaceOnUse">
<stop stop-color="#A83AFE"/>
<stop offset="1" stop-color="#6E59FE"/>
</linearGradient>
<linearGradient id="paint3_linear_222_295" x1="57.8068" y1="7.14714" x2="40.4129" y2="7.14714" gradientUnits="userSpaceOnUse">
<stop stop-color="#A83AFE"/>
<stop offset="1" stop-color="#6E59FE"/>
</linearGradient>
<linearGradient id="paint4_linear_222_295" x1="45.8108" y1="23.179" x2="35.0687" y2="23.179" gradientUnits="userSpaceOnUse">
<stop stop-color="#A83AFE"/>
<stop offset="1" stop-color="#6E59FE"/>
</linearGradient>
<linearGradient id="paint5_linear_222_295" x1="60.5634" y1="23.179" x2="49.8213" y2="23.179" gradientUnits="userSpaceOnUse">
<stop stop-color="#A83AFE"/>
<stop offset="1" stop-color="#6E59FE"/>
</linearGradient>
<linearGradient id="paint6_linear_222_295" x1="145.34" y1="8.83333" x2="82.007" y2="8.83333" gradientUnits="userSpaceOnUse">
<stop stop-color="#A83AFE"/>
<stop offset="1" stop-color="#6E59FE"/>
</linearGradient>
</defs>
</svg>
