<svg width="250" height="61" viewBox="0 0 250 61" fill="none" xmlns="http://www.w3.org/2000/svg">
<path d="M71.7562 14.8076H88.2241C89.9815 14.7681 91.7333 15.0174 93.4099 15.5456C94.7531 15.9775 95.9774 16.716 96.9859 17.7027C97.6313 18.3483 98.1463 19.1122 98.5027 19.9526C98.8837 20.8864 99.07 21.8882 99.0501 22.8966V22.9829C99.1276 24.609 98.6343 26.2111 97.6555 27.5121C96.712 28.6705 95.4963 29.5772 94.1169 30.1514C95.8834 30.6757 97.4907 31.6334 98.7927 32.9373C100.015 34.3357 100.636 36.1602 100.52 38.0139V38.1051C100.572 39.3722 100.309 40.6325 99.7518 41.772C99.1952 42.9116 98.3632 43.8944 97.3313 44.6316C94.6605 46.3456 91.5141 47.1666 88.3463 46.9761H71.7562V14.8076ZM86.0459 27.6277C87.1381 27.6957 88.2276 27.4576 89.1919 26.9402C89.5458 26.7166 89.8334 26.4022 90.0245 26.0297C90.2156 25.6571 90.3034 25.2402 90.2786 24.8223V24.7343C90.297 24.3346 90.2136 23.9368 90.036 23.5783C89.8585 23.2198 89.5927 22.9123 89.2636 22.6848C88.3481 22.1495 87.293 21.9015 86.2349 21.9728H80.4431V27.6261L86.0459 27.6277ZM87.3346 39.8076C88.4434 39.8748 89.5473 39.6117 90.5066 39.0516C90.8618 38.8122 91.1494 38.4856 91.342 38.103C91.5346 37.7204 91.6256 37.2948 91.6063 36.8669V36.7757C91.6205 36.3632 91.5318 35.9537 91.3484 35.584C91.165 35.2143 90.8925 34.896 90.5555 34.6577C89.5597 34.0602 88.403 33.7864 87.245 33.8741H80.4431V39.8043L87.3346 39.8076Z" fill="#5F6062"/>
<path d="M115.78 13.426H124.56V46.9761H115.78V13.426Z" fill="#5F6062"/>
<path d="M128.416 13.426H137.196V46.9761H128.416V13.426Z" fill="#5F6062"/>
<path d="M141.37 14.8076H153.78C156.394 14.7669 158.997 15.164 161.481 15.9823C163.586 16.6739 165.527 17.7908 167.183 19.2635C168.721 20.6586 169.93 22.3781 170.722 24.2977C171.555 26.3315 171.971 28.5123 171.945 30.7102V30.803C171.967 33.0173 171.542 35.2132 170.696 37.2595C169.892 39.209 168.668 40.9573 167.111 42.3801C165.436 43.8857 163.472 45.0358 161.339 45.7607C158.846 46.6078 156.226 47.0195 153.594 46.9777H141.375L141.37 14.8076ZM153.936 39.0712C156.275 39.1841 158.573 38.4299 160.389 36.9533C161.221 36.1974 161.873 35.2644 162.296 34.223C162.719 33.1816 162.902 32.0585 162.833 30.9366V30.8438C162.898 29.726 162.712 28.608 162.289 27.5712C161.866 26.5345 161.217 25.6054 160.389 24.8516C158.58 23.3593 156.279 22.5964 153.936 22.7125H150.29V39.0696L153.936 39.0712Z" fill="#5F6062"/>
<path d="M187.193 47.5691C185.358 47.5914 183.535 47.2727 181.817 46.629C180.256 46.0459 178.827 45.16 177.61 44.0223C176.412 42.8757 175.473 41.4872 174.853 39.9493C174.177 38.2715 173.841 36.4763 173.863 34.6675V34.5779C173.852 32.8407 174.163 31.1166 174.782 29.4932C175.372 27.9586 176.258 26.5549 177.388 25.3615C178.512 24.1733 179.865 23.2265 181.367 22.5789C182.961 21.8934 184.682 21.5494 186.417 21.5688C188.336 21.524 190.241 21.9011 191.997 22.6734C193.507 23.3551 194.844 24.3687 195.907 25.6385C196.953 26.9101 197.734 28.3773 198.206 29.9542C198.72 31.6439 198.977 33.4015 198.967 35.1676V36.0409C198.967 36.3467 198.951 36.6524 198.918 36.9565H182.274C182.511 38.1828 183.19 39.2793 184.182 40.0373C185.2 40.7384 186.417 41.0932 187.652 41.049C188.643 41.0614 189.624 40.8556 190.526 40.4462C191.515 39.9681 192.409 39.3164 193.167 38.5222L197.993 42.5169C196.73 44.1649 195.089 45.4843 193.209 46.3634C191.328 47.2426 189.264 47.6556 187.19 47.5674L187.193 47.5691ZM190.777 32.5039C190.697 31.283 190.209 30.1246 189.391 29.2146C189.016 28.8131 188.559 28.4966 188.052 28.2864C187.544 28.0762 186.997 27.9772 186.448 27.9959C185.915 27.9788 185.384 28.0791 184.893 28.2897C184.402 28.5003 183.964 28.816 183.609 29.2146C182.814 30.1476 182.305 31.2895 182.142 32.5039H190.777Z" fill="#5F6062"/>
<path d="M211.403 47.5202C209.319 47.5261 207.246 47.2259 205.249 46.629C203.24 46.0249 201.346 45.0888 199.646 43.8594L202.905 38.5776C204.263 39.4846 205.739 40.2021 207.291 40.7102C208.632 41.1603 210.034 41.3994 211.448 41.4189C212.926 41.4189 213.649 40.979 213.649 40.0911V39.995C213.649 39.5062 213.316 39.1261 212.649 38.8545C211.669 38.479 210.669 38.1565 209.655 37.8884C208.484 37.5998 207.332 37.2374 206.207 36.8034C205.208 36.4304 204.264 35.9217 203.403 35.2915C202.566 34.6812 201.893 33.8727 201.444 32.9384C200.996 32.0041 200.786 30.9732 200.834 29.9379V29.8451C200.812 28.6307 201.072 27.4278 201.593 26.3309C202.085 25.3236 202.801 24.4424 203.687 23.7551C204.632 23.0407 205.698 22.5036 206.834 22.1699C208.124 21.792 209.463 21.6076 210.806 21.6225C212.64 21.6199 214.464 21.8738 216.227 22.3768C217.931 22.8492 219.557 23.5694 221.052 24.5144L218.069 30.0292C216.824 29.3448 215.514 28.7833 214.159 28.3527C213.046 27.9772 211.883 27.7686 210.709 27.7336C210.18 27.6968 209.652 27.8169 209.192 28.079C209.042 28.1656 208.917 28.289 208.829 28.4376C208.74 28.5862 208.692 28.755 208.687 28.9278V29.0109C208.687 29.4997 209.029 29.8907 209.723 30.184C210.417 30.4772 211.409 30.8161 212.731 31.2152C213.952 31.5541 215.103 31.9299 216.181 32.3426C217.181 32.7166 218.125 33.2271 218.985 33.8594C219.764 34.4396 220.404 35.1852 220.86 36.0425C221.349 36.9904 221.593 38.0457 221.569 39.1119V39.1999C221.598 40.4441 221.347 41.679 220.836 42.8135C220.352 43.8239 219.644 44.7105 218.765 45.4055C217.811 46.1442 216.719 46.6843 215.552 46.994C214.199 47.3564 212.803 47.5334 211.403 47.5202Z" fill="#5F6062"/>
<path d="M223.991 13.426H232.773V30.4283L239.524 22.1194H249.405L240.771 32.0901L249.642 46.9826H240.029L235.023 38.5271L232.773 41.1452V46.9826H223.991V13.426Z" fill="#5F6062"/>
<path d="M111.924 17.5153V13.426H103.144V22.2107L111.924 17.5153Z" fill="#F37321"/>
<path d="M103.144 27.2791V46.9761H111.924V19.2357L103.144 27.2791Z" fill="#5F6062"/>
<path d="M27.1408 10.9513L20.057 15.0389V22.7516L27.1408 18.659L37.3868 24.5779V36.4123L27.1408 42.3296L16.8915 36.414V13.2452L25.5539 8.21424V0.5L0.366577 15.0455V45.9546L25.5523 60.4951V52.7874L7.04465 42.108V18.9099L10.2085 17.0819V40.2687L27.1408 50.0438L44.0697 40.2687V20.7183L27.1408 10.9513Z" fill="#F37321"/>
<path d="M28.7244 0.5V8.21261L47.2353 18.8936V42.095L28.7244 52.7874V60.5L53.9248 45.9545V15.0373L28.7244 0.5Z" fill="#5F6062"/>
</svg>
