<svg width="96" height="41" viewBox="0 0 96 41" fill="none" xmlns="http://www.w3.org/2000/svg">
<path fill-rule="evenodd" clip-rule="evenodd" d="M8.23499 31.8096C3.3152 28.6641 0.149066 22.3493 0.618563 16.518L0.729394 15.1412L2.09386 14.9265C4.48775 14.5498 6.24701 13.8272 8.35004 12.6412L9.21149 12.1555L10.0728 12.6412C12.1873 13.8336 13.9414 14.5283 16.3449 14.929L17.6947 15.1542L17.8045 16.518C18.274 22.3493 15.1077 28.6641 10.1881 31.8096L9.2019 32.4249L8.23499 31.8096Z" fill="url(#paint0_linear_222_397)"/>
<path fill-rule="evenodd" clip-rule="evenodd" d="M8.23499 31.8096C3.3152 28.6641 0.149066 22.3493 0.618563 16.518L0.729394 15.1412L2.09386 14.9265C4.48775 14.5498 6.24701 13.8272 8.35004 12.6412L9.21149 12.1555L10.0728 12.6412C12.1873 13.8336 13.9414 14.5283 16.3449 14.929L17.6947 15.1542L17.8045 16.518C18.274 22.3493 15.1077 28.6641 10.1881 31.8096L9.2019 32.4249L8.23499 31.8096Z" fill="black" fill-opacity="0.6"/>
<path fill-rule="evenodd" clip-rule="evenodd" d="M9.21175 14.1686C6.86511 15.4919 4.9783 16.2479 2.36672 16.6587C1.93719 21.9936 4.94048 27.6406 9.21175 30.3531C13.483 27.6406 16.4862 21.9936 16.0568 16.6587C13.3963 16.2154 11.5584 15.4919 9.21175 14.1686Z" fill="#3E4246"/>
<path fill-rule="evenodd" clip-rule="evenodd" d="M2.79915 17.0491C2.69583 19.0735 3.09592 21.1174 3.84914 22.9931C4.92328 25.6678 6.79836 28.188 9.21135 29.8048C11.6243 28.188 13.4993 25.6678 14.5735 22.9933C15.3272 21.1166 15.7272 19.0715 15.6234 17.0461C14.5173 16.8451 13.4404 16.57 12.3811 16.1798C11.2802 15.774 10.235 15.2593 9.21135 14.6911C8.13636 15.2879 7.03766 15.8276 5.8783 16.245C4.87173 16.6074 3.84898 16.8658 2.79915 17.0491Z" fill="url(#paint1_linear_222_397)"/>
<path fill-rule="evenodd" clip-rule="evenodd" d="M2.79915 17.0491C2.69583 19.0735 3.09592 21.1174 3.84914 22.9931C4.92328 25.6678 6.79836 28.188 9.21135 29.8048C11.6243 28.188 13.4993 25.6678 14.5735 22.9933C15.3272 21.1166 15.7272 19.0715 15.6234 17.0461C14.5173 16.8451 13.4404 16.57 12.3811 16.1798C11.2802 15.774 10.235 15.2593 9.21135 14.6911C8.13636 15.2879 7.03766 15.8276 5.8783 16.245C4.87173 16.6074 3.84898 16.8658 2.79915 17.0491Z" fill="black" fill-opacity="0.6"/>
<path fill-rule="evenodd" clip-rule="evenodd" d="M2.79915 17.0491C2.69583 19.0735 3.09592 21.1174 3.84914 22.9931C4.92328 25.6678 6.79836 28.188 9.21135 29.8048V14.6911C8.13636 15.288 7.03767 15.8276 5.8783 16.245C4.87173 16.6074 3.84898 16.8658 2.79915 17.0491Z" fill="url(#paint2_linear_222_397)"/>
<path fill-rule="evenodd" clip-rule="evenodd" d="M2.79915 17.0491C2.69583 19.0735 3.09592 21.1174 3.84914 22.9931C4.92328 25.6678 6.79836 28.188 9.21135 29.8048V14.6911C8.13636 15.288 7.03767 15.8276 5.8783 16.245C4.87173 16.6074 3.84898 16.8658 2.79915 17.0491Z" fill="black" fill-opacity="0.6"/>
<path d="M62.0051 34.0237H31.0079V37.2621H62.0051V34.0237Z" fill="#A8A8A8"/>
<path d="M37.5434 33.1706H32.6884V34.0241H37.5434V33.1706Z" fill="#959595"/>
<path fill-rule="evenodd" clip-rule="evenodd" d="M40.051 17.9111H44.906V18.7646H40.051V17.9111ZM47.4136 17.9111H52.2685V18.7646H47.4136V17.9111ZM54.7761 17.9111H59.6311V18.7646H54.7761V17.9111ZM32.6884 17.9111H37.5434V18.7646H32.6884V17.9111Z" fill="#959595"/>
<path d="M37.0098 18.7643H33.1685V33.1692H37.0098V18.7643Z" fill="#576068"/>
<path d="M62.9322 16.8066H29.4387V17.9118H62.9322V16.8066Z" fill="#576068"/>
<path d="M61.3366 15.2567H30.9797V15.8837H61.3366V15.2567Z" fill="#959595"/>
<path fill-rule="evenodd" clip-rule="evenodd" d="M30.9797 14.0237L46.2375 5.06067L61.3366 14.0237V15.2572H30.9797V14.0237Z" fill="#A8A8A8"/>
<path d="M44.9063 33.1706H40.0514V34.0241H44.9063V33.1706Z" fill="#959595"/>
<path d="M52.2689 33.1706H47.4139V34.0241H52.2689V33.1706Z" fill="#959595"/>
<path d="M59.6314 33.1706H54.7764V34.0241H59.6314V33.1706Z" fill="#959595"/>
<path d="M44.3723 18.7643H40.5309V33.1692H44.3723V18.7643Z" fill="#576068"/>
<path d="M51.7349 18.7643H47.8934V33.1692H51.7349V18.7643Z" fill="#576068"/>
<path d="M59.0978 18.7643H55.2564V33.1692H59.0978V18.7643Z" fill="#576068"/>
<path fill-rule="evenodd" clip-rule="evenodd" d="M56.3764 19.4927C56.538 19.4927 56.6699 19.6246 56.6699 19.7862V32.1037C56.6699 32.2653 56.538 32.3972 56.3764 32.3972C56.215 32.3972 56.083 32.2653 56.083 32.1037V19.7862C56.083 19.6246 56.2149 19.4927 56.3764 19.4927ZM50.6612 19.4927C50.8227 19.4927 50.9547 19.6246 50.9547 19.7862V32.1037C50.9547 32.2653 50.8227 32.3972 50.6612 32.3972C50.4998 32.3972 50.3678 32.2653 50.3678 32.1037V19.7862C50.3678 19.6246 50.4998 19.4927 50.6612 19.4927ZM49.0139 19.4927C49.1754 19.4927 49.3074 19.6246 49.3074 19.7862V32.1037C49.3074 32.2653 49.1754 32.3972 49.0139 32.3972C48.8524 32.3972 48.7204 32.2653 48.7204 32.1037V19.7862C48.7204 19.6246 48.8524 19.4927 49.0139 19.4927ZM43.2986 19.4927C43.4602 19.4927 43.5921 19.6246 43.5921 19.7862V32.1037C43.5921 32.2653 43.4601 32.3972 43.2986 32.3972C43.1373 32.3972 43.0052 32.2653 43.0052 32.1037V19.7862C43.0052 19.6246 43.1373 19.4927 43.2986 19.4927ZM41.6513 19.4927C41.8128 19.4927 41.9447 19.6246 41.9447 19.7862V32.1037C41.9447 32.2653 41.8128 32.3972 41.6513 32.3972C41.4899 32.3972 41.3578 32.2653 41.3578 32.1037V19.7862C41.3579 19.6246 41.4899 19.4927 41.6513 19.4927ZM35.936 19.4927C36.0976 19.4927 36.2295 19.6246 36.2295 19.7862V32.1037C36.2295 32.2653 36.0976 32.3972 35.936 32.3972C35.7746 32.3972 35.6426 32.2653 35.6426 32.1037V19.7862C35.6427 19.6246 35.7746 19.4927 35.936 19.4927ZM34.2887 19.4927C34.4502 19.4927 34.5822 19.6246 34.5822 19.7862V32.1037C34.5822 32.2653 34.4502 32.3972 34.2887 32.3972C34.1273 32.3972 33.9954 32.2653 33.9954 32.1037V19.7862C33.9954 19.6246 34.1273 19.4927 34.2887 19.4927ZM58.0237 19.4927C58.1852 19.4927 58.3172 19.6246 58.3172 19.7862V32.1037C58.3172 32.2653 58.1853 32.3972 58.0237 32.3972C57.8623 32.3972 57.7303 32.2653 57.7303 32.1037V19.7862C57.7303 19.6246 57.8624 19.4927 58.0237 19.4927Z" fill="#A8A8A8"/>
<path d="M63.1321 37.1948H29.8811V38.2742H63.1321V37.1948Z" fill="#576068"/>
<path d="M62.9323 15.8842H29.4387V16.8978H62.9323V15.8842Z" fill="#3E4246"/>
<path d="M64.1434 38.2063H28.8696V39.2859H64.1434V38.2063Z" fill="#4E5357"/>
<path d="M65.0281 39.2197H27.9853V40.4999H65.0281V39.2197Z" fill="#3E4246"/>
<path fill-rule="evenodd" clip-rule="evenodd" d="M64.0829 8.45984C64.1003 8.46991 64.1186 8.48044 64.137 8.49108C64.4437 8.66814 65.0856 8.38316 64.8723 7.75844C64.8561 7.71015 64.849 7.69854 64.8371 7.64642C64.8254 7.59435 64.8114 7.57407 64.7986 7.52613C64.7476 7.3467 64.6033 7.00295 64.5186 6.84576C64.4969 6.80481 64.4876 6.78063 64.4654 6.73859C64.4236 6.66631 64.3816 6.59395 64.3401 6.52097C64.2074 6.31221 64.1522 6.20855 63.984 5.99464C63.6582 5.58105 63.19 5.12218 62.7064 4.84295C62.1783 4.53807 61.9224 4.41379 61.3255 4.25412C60.8281 4.12166 60.2848 4.08039 59.7843 4.11032C59.4335 4.13045 59.3852 4.15154 59.0546 4.20501C59.0072 4.21251 58.9865 4.22423 58.9401 4.23235C58.731 4.26447 58.4957 4.33605 58.3813 4.5342C58.2829 4.70469 58.305 4.88157 58.3461 5.01561C58.3878 5.1548 58.5253 5.30112 58.7076 5.33945C58.8713 5.37377 59.1547 5.25702 59.378 5.22666C59.6443 5.18979 59.684 5.18342 59.9502 5.17123C60.1168 5.16452 60.3932 5.17882 60.5529 5.20209C61.0671 5.27748 61.5363 5.42462 61.959 5.65464C62.3816 5.88436 62.7599 6.19724 63.0924 6.60327C63.4051 6.98562 63.6022 7.36456 63.7805 7.83257C63.8143 7.93879 63.8482 8.04522 63.8821 8.15163C63.8923 8.1961 63.8951 8.22137 63.9144 8.26459C63.9455 8.33147 64.0009 8.41254 64.0829 8.45984ZM58.9386 7.19519C59.247 7.37327 59.367 7.17569 59.9234 7.15351C60.5797 7.12761 61.2569 7.44993 61.6471 7.98558C61.7457 8.12076 61.8299 8.26657 61.8964 8.42101C61.9167 8.46647 61.945 8.53211 61.9588 8.58062C62.0271 8.82271 62.0596 9.03595 62.3312 9.13504C62.491 9.19439 62.6871 9.14246 62.8146 9.05662C62.9928 8.93692 63.0887 8.70654 63.0327 8.48362C63.0051 8.37429 62.9823 8.27918 62.9419 8.17182C62.8401 7.90541 62.8147 7.84085 62.6636 7.57525C62.5984 7.48097 62.534 7.38731 62.4696 7.29357C62.1731 6.90536 61.819 6.61326 61.4199 6.41294C61.0207 6.2128 60.5729 6.10508 60.0897 6.08468C59.8211 6.073 59.4976 6.10595 59.2384 6.18076C59.2116 6.18696 59.1856 6.19379 59.1597 6.20044C59.0463 6.23391 58.9275 6.26637 58.8468 6.36403C58.6184 6.63885 58.6945 7.05429 58.9386 7.19519ZM59.4768 10.0867C59.7303 10.2331 60.0406 10.267 60.3096 10.1875C61.1392 9.94205 61.4083 9.00702 60.9887 8.4035C60.7233 8.02013 60.2689 7.84923 59.8349 7.97303C59.5887 8.04309 59.2905 8.20955 59.1516 8.45011C58.9416 8.81375 58.8913 9.03384 58.9842 9.42227C59.0368 9.64322 59.2075 9.93129 59.4768 10.0867ZM58.1354 3.33577C58.3437 3.45601 58.4031 3.43366 58.6483 3.37906C58.9647 3.30802 58.987 3.29174 59.3485 3.24093C59.8578 3.1699 60.5911 3.17354 61.1043 3.27084C61.3703 3.3215 61.4559 3.33608 61.7238 3.40945C62.4648 3.61292 63.0349 3.91937 63.6532 4.37811C64.1036 4.71279 64.6367 5.28657 64.9528 5.77755C65.3273 6.36069 65.4292 6.61674 65.6418 7.20437C65.6826 7.34309 65.7246 7.48146 65.7667 7.61989C65.9461 8.06398 66.5176 7.96758 66.6891 7.67047C66.8399 7.4094 66.7797 7.34256 66.7208 7.09638C66.579 6.50887 66.2131 5.77598 65.9077 5.2725C65.8418 5.17583 65.7756 5.07912 65.7094 4.98232C65.6754 4.93062 65.642 4.8917 65.6077 4.84256C65.5403 4.74608 65.4618 4.65846 65.3853 4.55954C65.087 4.17048 64.5445 3.68351 64.1275 3.38343C64.0824 3.35082 64.0077 3.30301 63.9587 3.26334C63.9016 3.21728 63.8327 3.18958 63.7711 3.14939C63.6947 3.09869 63.6413 3.0602 63.5803 3.02305C63.5621 3.01255 63.5437 3.00191 63.5263 2.99185C63.488 2.97166 63.4452 2.95103 63.3915 2.92731C63.3264 2.89929 63.2628 2.84848 63.1978 2.82023C62.7123 2.61076 62.5885 2.53927 62.0587 2.3804C61.7803 2.29705 61.276 2.19647 60.9832 2.16429C60.6965 2.14783 60.4106 2.13175 60.1249 2.11568C59.8408 2.13476 59.5567 2.15387 59.2735 2.17331C59.0034 2.22281 58.733 2.2725 58.4639 2.32173C58.4065 2.33677 58.3573 2.3536 58.299 2.36991C58.166 2.40912 58.0701 2.48672 58.0078 2.58281C57.9984 2.59908 57.9889 2.61541 57.9795 2.63168C57.8537 2.87787 57.9228 3.21302 58.1354 3.33577Z" fill="url(#paint3_linear_222_397)"/>
<path fill-rule="evenodd" clip-rule="evenodd" d="M80.9984 27.1206C80.0446 27.3377 79.0722 27.6602 78.2023 28.1212C78.3919 28.3514 78.5924 28.5728 78.8033 28.7837C79.9403 29.9207 81.3511 30.7389 82.8958 31.1562C82.4224 30.6104 82.047 29.9562 81.756 29.3167C81.4358 28.6134 81.1893 27.8703 80.9984 27.1206ZM92.3912 28.1212C91.5213 27.6607 90.5492 27.3382 89.5955 27.1206C89.4045 27.8703 89.1581 28.6134 88.8379 29.3167C88.5467 29.9562 88.1713 30.6104 87.6979 31.1562C89.2426 30.7389 90.6529 29.9207 91.7903 28.7837C92.0011 28.5728 92.2018 28.3514 92.3912 28.1212ZM89.7125 17.9495C90.718 17.7016 91.7764 17.3444 92.6744 16.8205C92.4054 16.4579 92.1095 16.1154 91.7903 15.7962C90.6529 14.6588 89.2426 13.8412 87.6979 13.4237C88.1713 13.9695 88.5468 14.6233 88.8379 15.2632C89.2265 16.1169 89.5086 17.0325 89.7125 17.9495ZM77.9192 16.8205C78.8173 17.3444 79.876 17.7016 80.8814 17.9495C81.0852 17.0326 81.3671 16.1169 81.756 15.2633C82.047 14.6234 82.4225 13.9696 82.8959 13.4238C81.3511 13.8411 79.9403 14.6589 78.8033 15.7963C78.4839 16.1155 78.1884 16.4581 77.9192 16.8205ZM84.8212 18.4433V13.1789C83.7851 13.4934 83.0292 14.7582 82.62 15.6569C82.2602 16.4472 81.9994 17.2968 81.8105 18.1461C82.8022 18.3261 83.8138 18.4206 84.8212 18.4433ZM81.9302 26.9317C82.1054 27.6111 82.3298 28.2851 82.6201 28.9231C83.0291 29.8219 83.7852 31.0867 84.8213 31.4008V26.6561C83.854 26.6776 82.8835 26.7659 81.9302 26.9317ZM85.7726 26.6561V31.4008C86.8089 31.0867 87.565 29.8223 87.9741 28.9231C88.2643 28.2851 88.4884 27.6111 88.6638 26.9317C87.7104 26.7659 86.74 26.6776 85.7726 26.6561ZM85.7726 13.1789V18.4433C86.78 18.4206 87.7916 18.326 88.7833 18.1461C88.5941 17.2971 88.3336 16.4471 87.9741 15.6569C87.5651 14.7581 86.8088 13.4933 85.7726 13.1789ZM93.2016 17.6134C92.1962 18.2101 91.0278 18.6175 89.8938 18.8845C90.056 19.8515 90.143 20.8339 90.1643 21.8141H94.4682C94.3919 20.3291 93.9599 18.8925 93.2016 17.6134ZM85.7726 21.8142H89.2124C89.1917 20.8993 89.1123 19.9824 88.9636 19.0795C87.9125 19.2705 86.8407 19.3716 85.7726 19.3949V21.8142ZM81.3812 21.8142H84.8212V19.3949C83.7529 19.3717 82.6814 19.2706 81.63 19.0795C81.4814 19.9824 81.402 20.8993 81.3812 21.8142ZM76.1255 21.8142H80.4299C80.4509 20.8339 80.5377 19.8515 80.6995 18.8846C79.5657 18.6172 78.3972 18.2098 77.3917 17.6131C76.6335 18.8925 76.2017 20.3289 76.1255 21.8142ZM80.4299 22.7658H76.1255C76.2092 24.4044 76.7265 25.9806 77.6319 27.3491C78.6084 26.812 79.7086 26.4394 80.7899 26.1933C80.5688 25.067 80.4545 23.9131 80.4299 22.7658ZM81.7205 26.0038C82.7426 25.8225 83.7837 25.7266 84.8212 25.7046V22.7658H81.3812C81.4055 23.8494 81.5127 24.9396 81.7205 26.0038ZM88.8732 26.0038C89.0811 24.9396 89.1879 23.8494 89.2124 22.7658H85.7726V25.7046C86.8102 25.7266 87.8511 25.8225 88.8732 26.0038ZM94.4682 22.7658H90.1642C90.1391 23.9131 90.0248 25.067 89.8038 26.1936C90.8846 26.4396 91.9857 26.812 92.9621 27.3491C93.8673 25.9806 94.3843 24.404 94.4682 22.7658ZM85.297 12.1549C87.9937 12.1549 90.5566 13.2169 92.4633 15.1234C94.37 17.0299 95.4314 19.5932 95.4314 22.2901C95.4314 24.9865 94.3698 27.5497 92.4633 29.4562C90.5566 31.3627 87.9938 32.4243 85.297 32.4243C82.6 32.4243 80.0373 31.3627 78.1304 29.4562C76.2239 27.5497 75.1625 24.9865 75.1625 22.2901C75.1625 19.5932 76.2239 17.0299 78.1304 15.1234C80.0371 13.2169 82.6 12.1549 85.297 12.1549Z" fill="url(#paint4_linear_222_397)"/>
<path fill-rule="evenodd" clip-rule="evenodd" d="M80.9984 27.1206C80.0446 27.3377 79.0722 27.6602 78.2023 28.1212C78.3919 28.3514 78.5924 28.5728 78.8033 28.7837C79.9403 29.9207 81.3511 30.7389 82.8958 31.1562C82.4224 30.6104 82.047 29.9562 81.756 29.3167C81.4358 28.6134 81.1893 27.8703 80.9984 27.1206ZM92.3912 28.1212C91.5213 27.6607 90.5492 27.3382 89.5955 27.1206C89.4045 27.8703 89.1581 28.6134 88.8379 29.3167C88.5467 29.9562 88.1713 30.6104 87.6979 31.1562C89.2426 30.7389 90.6529 29.9207 91.7903 28.7837C92.0011 28.5728 92.2018 28.3514 92.3912 28.1212ZM89.7125 17.9495C90.718 17.7016 91.7764 17.3444 92.6744 16.8205C92.4054 16.4579 92.1095 16.1154 91.7903 15.7962C90.6529 14.6588 89.2426 13.8412 87.6979 13.4237C88.1713 13.9695 88.5468 14.6233 88.8379 15.2632C89.2265 16.1169 89.5086 17.0325 89.7125 17.9495ZM77.9192 16.8205C78.8173 17.3444 79.876 17.7016 80.8814 17.9495C81.0852 17.0326 81.3671 16.1169 81.756 15.2633C82.047 14.6234 82.4225 13.9696 82.8959 13.4238C81.3511 13.8411 79.9403 14.6589 78.8033 15.7963C78.4839 16.1155 78.1884 16.4581 77.9192 16.8205ZM84.8212 18.4433V13.1789C83.7851 13.4934 83.0292 14.7582 82.62 15.6569C82.2602 16.4472 81.9994 17.2968 81.8105 18.1461C82.8022 18.3261 83.8138 18.4206 84.8212 18.4433ZM81.9302 26.9317C82.1054 27.6111 82.3298 28.2851 82.6201 28.9231C83.0291 29.8219 83.7852 31.0867 84.8213 31.4008V26.6561C83.854 26.6776 82.8835 26.7659 81.9302 26.9317ZM85.7726 26.6561V31.4008C86.8089 31.0867 87.565 29.8223 87.9741 28.9231C88.2643 28.2851 88.4884 27.6111 88.6638 26.9317C87.7104 26.7659 86.74 26.6776 85.7726 26.6561ZM85.7726 13.1789V18.4433C86.78 18.4206 87.7916 18.326 88.7833 18.1461C88.5941 17.2971 88.3336 16.4471 87.9741 15.6569C87.5651 14.7581 86.8088 13.4933 85.7726 13.1789ZM93.2016 17.6134C92.1962 18.2101 91.0278 18.6175 89.8938 18.8845C90.056 19.8515 90.143 20.8339 90.1643 21.8141H94.4682C94.3919 20.3291 93.9599 18.8925 93.2016 17.6134ZM85.7726 21.8142H89.2124C89.1917 20.8993 89.1123 19.9824 88.9636 19.0795C87.9125 19.2705 86.8407 19.3716 85.7726 19.3949V21.8142ZM81.3812 21.8142H84.8212V19.3949C83.7529 19.3717 82.6814 19.2706 81.63 19.0795C81.4814 19.9824 81.402 20.8993 81.3812 21.8142ZM76.1255 21.8142H80.4299C80.4509 20.8339 80.5377 19.8515 80.6995 18.8846C79.5657 18.6172 78.3972 18.2098 77.3917 17.6131C76.6335 18.8925 76.2017 20.3289 76.1255 21.8142ZM80.4299 22.7658H76.1255C76.2092 24.4044 76.7265 25.9806 77.6319 27.3491C78.6084 26.812 79.7086 26.4394 80.7899 26.1933C80.5688 25.067 80.4545 23.9131 80.4299 22.7658ZM81.7205 26.0038C82.7426 25.8225 83.7837 25.7266 84.8212 25.7046V22.7658H81.3812C81.4055 23.8494 81.5127 24.9396 81.7205 26.0038ZM88.8732 26.0038C89.0811 24.9396 89.1879 23.8494 89.2124 22.7658H85.7726V25.7046C86.8102 25.7266 87.8511 25.8225 88.8732 26.0038ZM94.4682 22.7658H90.1642C90.1391 23.9131 90.0248 25.067 89.8038 26.1936C90.8846 26.4396 91.9857 26.812 92.9621 27.3491C93.8673 25.9806 94.3843 24.404 94.4682 22.7658ZM85.297 12.1549C87.9937 12.1549 90.5566 13.2169 92.4633 15.1234C94.37 17.0299 95.4314 19.5932 95.4314 22.2901C95.4314 24.9865 94.3698 27.5497 92.4633 29.4562C90.5566 31.3627 87.9938 32.4243 85.297 32.4243C82.6 32.4243 80.0373 31.3627 78.1304 29.4562C76.2239 27.5497 75.1625 24.9865 75.1625 22.2901C75.1625 19.5932 76.2239 17.0299 78.1304 15.1234C80.0371 13.2169 82.6 12.1549 85.297 12.1549Z" fill="black" fill-opacity="0.6"/>
<defs>
<linearGradient id="paint0_linear_222_397" x1="17.8505" y1="12.1555" x2="0.572571" y2="12.1555" gradientUnits="userSpaceOnUse">
<stop stop-color="#A83AFE"/>
<stop offset="1" stop-color="#6E59FE"/>
</linearGradient>
<linearGradient id="paint1_linear_222_397" x1="15.6396" y1="14.6911" x2="2.78308" y2="14.6911" gradientUnits="userSpaceOnUse">
<stop stop-color="#A83AFE"/>
<stop offset="1" stop-color="#6E59FE"/>
</linearGradient>
<linearGradient id="paint2_linear_222_397" x1="9.21135" y1="14.6911" x2="2.78308" y2="14.6911" gradientUnits="userSpaceOnUse">
<stop stop-color="#A83AFE"/>
<stop offset="1" stop-color="#6E59FE"/>
</linearGradient>
<linearGradient id="paint3_linear_222_397" x1="67.9243" y1="5.53107" x2="59.2103" y2="0.5" gradientUnits="userSpaceOnUse">
<stop stop-color="#A83AFE"/>
<stop offset="1" stop-color="#6E59FE"/>
</linearGradient>
<linearGradient id="paint4_linear_222_397" x1="95.4314" y1="12.1549" x2="75.1625" y2="12.1549" gradientUnits="userSpaceOnUse">
<stop stop-color="#A83AFE"/>
<stop offset="1" stop-color="#6E59FE"/>
</linearGradient>
</defs>
</svg>
