<svg width="114" height="41" viewBox="0 0 114 41" fill="none" xmlns="http://www.w3.org/2000/svg">
<mask id="mask0_222_227" style="mask-type:luminance" maskUnits="userSpaceOnUse" x="-10" y="-13" width="134" height="67">
<path d="M-9.08618 -12.546H123.096V53.5453H-9.08618V-12.546Z" fill="white"/>
</mask>
<g mask="url(#mask0_222_227)">
<path d="M1.30991 34.86H2.15747L1.36989 38.1496C1.253 38.6377 1.27503 39.0051 1.43659 39.2502C1.59753 39.4956 1.89709 39.6183 2.33494 39.6183C2.77004 39.6183 3.12681 39.4956 3.40556 39.2502C3.68461 39.0051 3.88258 38.6377 3.99946 38.1496L4.78675 34.86H5.64532L4.83846 38.231C4.66313 38.9635 4.35073 39.5118 3.90339 39.8753C3.45574 40.2395 2.86887 40.4212 2.14279 40.4212C1.41609 40.4212 0.91765 40.2398 0.646248 39.8772C0.374539 39.5149 0.327112 38.966 0.50305 38.231L1.30991 34.86Z" fill="#A8A8A8"/>
<path d="M5.53143 40.2771L6.87957 34.6456L9.44122 37.9572C9.50976 38.0505 9.57892 38.1505 9.64715 38.2567C9.71538 38.3629 9.78514 38.4822 9.85674 38.6156L10.756 34.8601H11.5494L10.2022 40.4873L7.58669 37.1166C7.51662 37.0258 7.45145 36.9297 7.39056 36.8284C7.32906 36.7271 7.27367 36.621 7.22288 36.5102L6.32116 40.2771H5.53143Z" fill="#A8A8A8"/>
<path d="M11.4792 40.2771L12.7759 34.8601H13.6339L12.3375 40.2771H11.4792Z" fill="#A8A8A8"/>
<path d="M13.5712 40.2771L14.8679 34.8601H17.8145L17.6355 35.6073H15.5472L15.2238 36.9578H17.3121L17.1272 37.7311H15.0386L14.4294 40.2771H13.5712Z" fill="#A8A8A8"/>
<path d="M17.4631 40.2771L18.7599 34.8601H19.6178L18.3214 40.2771H17.4631Z" fill="#A8A8A8"/>
<path d="M19.5551 40.2771L20.8518 34.8601H23.7984L23.6194 35.6073H21.5311L21.2058 36.9652H23.2941L23.1093 37.7387H21.021L20.6018 39.4889H22.6901L22.5016 40.2771H19.5551Z" fill="#A8A8A8"/>
<path d="M24.5353 39.4814H25.2568C25.6533 39.4814 25.9575 39.4541 26.1689 39.4C26.3803 39.3458 26.5743 39.2543 26.7521 39.1261C26.9935 38.9514 27.1952 38.7336 27.3573 38.4732C27.5192 38.2131 27.6419 37.9099 27.7245 37.5644C27.8068 37.219 27.8294 36.9167 27.7921 36.6569C27.7545 36.3962 27.6572 36.1786 27.4996 36.0033C27.3812 35.8754 27.2248 35.7836 27.0296 35.7292C26.8341 35.6753 26.5159 35.6481 26.0734 35.6481H25.7632H25.4529L24.5353 39.4814ZM23.4867 40.2772L24.7834 34.8599H25.9409C26.6937 34.8599 27.2138 34.8984 27.502 34.9761C27.7897 35.0542 28.0274 35.1845 28.2144 35.3669C28.4625 35.6062 28.6204 35.9134 28.6883 36.2879C28.7559 36.663 28.7321 37.0911 28.617 37.5721C28.502 38.0531 28.3212 38.4793 28.0745 38.8504C27.8285 39.2219 27.5235 39.5282 27.1606 39.7699C26.8861 39.9526 26.5918 40.0826 26.2791 40.1606C25.9654 40.2381 25.4979 40.2772 24.8749 40.2772H24.6439H23.4867Z" fill="#A8A8A8"/>
<path d="M32.7961 37.1247H33.0164C33.4922 37.1247 33.8224 37.0711 34.0066 36.9653C34.1911 36.8594 34.315 36.6718 34.3792 36.4029C34.4484 36.1144 34.4126 35.9106 34.2712 35.7925C34.1299 35.6741 33.8324 35.6144 33.3781 35.6144H33.1578L32.7961 37.1247ZM32.5694 37.8456L31.9874 40.2772H31.1833L32.4803 34.8601H33.7786C34.1632 34.8601 34.4413 34.8816 34.6127 34.9247C34.7834 34.9675 34.9245 35.0388 35.0359 35.1377C35.1714 35.2634 35.2605 35.4329 35.3033 35.6462C35.3458 35.8598 35.3366 36.0948 35.2754 36.3509C35.2136 36.6076 35.1102 36.8444 34.9646 37.0617C34.8189 37.2786 34.6482 37.449 34.453 37.572C34.2945 37.6709 34.1198 37.7412 33.9282 37.7829C33.7364 37.8251 33.4484 37.8456 33.0638 37.8456H32.8946H32.5694Z" fill="#A8A8A8"/>
<path d="M36.335 38.1496H37.8064L37.5607 36.9134C37.5491 36.8348 37.5381 36.7442 37.5286 36.6417C37.5197 36.5392 37.5136 36.4251 37.5096 36.2994C37.4527 36.4178 37.3955 36.5282 37.3383 36.6307C37.2814 36.7329 37.226 36.8272 37.1715 36.9134L36.335 38.1496ZM38.199 40.2771L37.9337 38.8821H35.8418L34.8948 40.2771H33.9937L37.8982 34.6455L39.1041 40.2771H38.199Z" fill="#A8A8A8"/>
<path d="M40.3342 40.2771L40.9272 37.7978L39.8526 34.8601H40.7543L41.4214 36.699C41.4366 36.7461 41.455 36.8076 41.4761 36.8841C41.4975 36.9606 41.5183 37.0429 41.5379 37.1319C41.5918 37.0457 41.6472 36.9637 41.7025 36.8875C41.7579 36.811 41.8139 36.7409 41.8705 36.6767L43.4411 34.8601H44.2997L41.7784 37.7978L41.1851 40.2771H40.3342Z" fill="#A8A8A8"/>
<path d="M48.5235 37.6016C48.5238 37.5597 48.5361 37.444 48.5599 37.254C48.5783 37.0961 48.5927 36.9652 48.6031 36.8614C48.552 36.9851 48.4917 37.1087 48.4226 37.2317C48.3531 37.355 48.2735 37.4807 48.1827 37.6093L46.1103 40.4955L45.4341 37.5502C45.4053 37.429 45.3833 37.3118 45.3686 37.1986C45.3539 37.0851 45.3438 36.9728 45.3389 36.8614C45.3095 36.9753 45.2722 37.094 45.2266 37.2188C45.181 37.3434 45.1266 37.4737 45.0626 37.6093L43.8577 40.2771H43.0682L45.6675 34.6302L46.4074 38.0496C46.4181 38.1037 46.4337 38.194 46.4527 38.3197C46.4716 38.4455 46.494 38.6009 46.52 38.7857C46.6075 38.6303 46.7336 38.4333 46.8994 38.194C46.9435 38.1297 46.9771 38.0805 46.9998 38.0459L49.3396 34.6302L49.2646 40.2771H48.4672L48.5235 37.6016Z" fill="#A8A8A8"/>
<path d="M49.9498 40.2771L51.2469 34.8601H54.1934L54.0144 35.6073H51.9258L51.6009 36.9652H53.6892L53.5044 37.7387H51.4158L50.9969 39.4889H53.0852L52.8961 40.2771H49.9498Z" fill="#A8A8A8"/>
<path d="M53.8814 40.2771L55.2295 34.6456L57.7912 37.9572C57.8597 38.0505 57.9289 38.1505 57.9971 38.2567C58.0654 38.3629 58.1351 38.4822 58.2067 38.6156L59.106 34.8601H59.8997L58.5522 40.4873L55.9367 37.1166C55.8666 37.0258 55.8014 36.9297 55.7405 36.8284C55.679 36.7271 55.6236 36.621 55.5729 36.5102L54.6711 40.2771H53.8814Z" fill="#A8A8A8"/>
<path d="M62.6383 35.6073L61.5205 40.2772H60.6622L61.7797 35.6073H60.3768L60.5558 34.8601H64.2128L64.0341 35.6073H62.6383Z" fill="#A8A8A8"/>
<path d="M63.529 39.1928L64.2921 38.8675C64.2998 39.1089 64.3744 39.2934 64.517 39.4204C64.6596 39.5477 64.8655 39.611 65.1354 39.611C65.39 39.611 65.6103 39.5382 65.7951 39.3926C65.9802 39.2472 66.1023 39.0523 66.1607 38.8081C66.2369 38.4896 66.0469 38.206 65.5925 37.9572C65.5289 37.9202 65.4799 37.893 65.4463 37.8755C64.9337 37.5845 64.6088 37.3211 64.4717 37.0855C64.3349 36.8499 64.3068 36.562 64.3882 36.2217C64.4937 35.7802 64.7257 35.4225 65.0834 35.1486C65.4411 34.8748 65.8566 34.7377 66.3305 34.7377C66.72 34.7377 67.0276 34.8148 67.2524 34.969C67.4776 35.1236 67.6062 35.3448 67.638 35.6333L66.8825 35.9886C66.817 35.8184 66.7308 35.6939 66.6237 35.6147C66.5163 35.5357 66.3804 35.4962 66.2173 35.4962C65.9866 35.4962 65.7883 35.5584 65.6228 35.681C65.4582 35.8047 65.3502 35.9699 65.3003 36.1773C65.2226 36.5029 65.4481 36.8061 65.9771 37.0873C66.0178 37.1094 66.0496 37.1271 66.0726 37.1393C66.5355 37.3857 66.8366 37.6271 66.9746 37.8627C67.1129 38.0986 67.1402 38.3926 67.0554 38.7451C66.9327 39.2585 66.6778 39.6661 66.2905 39.9681C65.9031 40.2701 65.4411 40.4213 64.9053 40.4213C64.4552 40.4213 64.1122 40.3154 63.876 40.103C63.6391 39.891 63.5235 39.5878 63.529 39.1928Z" fill="#A8A8A8"/>
<path d="M69.8702 40.2771L71.167 34.8601H72.0252L70.7285 40.2771H69.8702Z" fill="#A8A8A8"/>
<path d="M71.9622 40.2771L73.3104 34.6456L75.872 37.9572C75.9405 38.0505 76.0097 38.1505 76.0779 38.2567C76.1462 38.3629 76.2159 38.4822 76.2875 38.6156L77.1868 34.8601H77.9802L76.633 40.4873L74.0175 37.1166C73.9474 37.0258 73.8819 36.9297 73.821 36.8284C73.7598 36.7271 73.7042 36.621 73.6534 36.5102L72.7519 40.2771H71.9622Z" fill="#A8A8A8"/>
<path d="M80.7191 35.6073L79.601 40.2772H78.7431L79.8605 35.6073H78.4576L78.6366 34.8601H82.2936L82.1149 35.6073H80.7191Z" fill="#A8A8A8"/>
<path d="M81.6534 40.2771L82.9502 34.8601H85.8967L85.7181 35.6073H83.6298L83.3045 36.9652H85.3928L85.2077 37.7387H83.1194L82.7005 39.4889H84.7888L84.6 40.2771H81.6534Z" fill="#A8A8A8"/>
<path d="M87.1873 37.1686H87.3427C87.7968 37.1686 88.1117 37.1148 88.2867 37.0061C88.4617 36.8975 88.5829 36.7054 88.6484 36.4287C88.72 36.1304 88.6906 35.9199 88.5593 35.7981C88.4293 35.6754 88.1475 35.6145 87.7148 35.6145H87.5594L87.1873 37.1686ZM86.9695 37.8531L86.389 40.277H85.5849L86.8819 34.86H88.0792C88.4302 34.86 88.697 34.8833 88.8791 34.9304C89.0614 34.9772 89.2083 35.0546 89.3194 35.1635C89.4515 35.2939 89.5372 35.4634 89.577 35.6705C89.6159 35.8774 89.6058 36.1044 89.547 36.3507C89.4433 36.7849 89.2597 37.1248 88.9966 37.3705C88.7334 37.6156 88.3962 37.7634 87.9853 37.8124L89.2135 40.277H88.2429L87.0668 37.8531H86.9695Z" fill="#A8A8A8"/>
<path d="M89.7221 40.2771L91.0188 34.8601H93.9654L93.7867 35.6073H91.6981L91.3747 36.9578H93.4633L93.2782 37.7311H91.1899L90.5804 40.2771H89.7221Z" fill="#A8A8A8"/>
<path d="M94.9602 38.1496H96.4319L96.1862 36.9134C96.1743 36.8348 96.1636 36.7442 96.1541 36.6417C96.1452 36.5392 96.1391 36.4251 96.1351 36.2994C96.0779 36.4178 96.0207 36.5282 95.9638 36.6307C95.9069 36.7329 95.8512 36.8272 95.7967 36.9134L94.9602 38.1496ZM96.8245 40.2771L96.5592 38.8821H94.4673L93.5202 40.2771H92.6188L96.5234 34.6455L97.7296 40.2771H96.8245Z" fill="#A8A8A8"/>
<path d="M103.317 36.1772C103.125 35.9651 102.906 35.806 102.661 35.6999C102.416 35.5943 102.144 35.5408 101.846 35.5408C101.269 35.5408 100.754 35.7308 100.302 36.1105C99.8484 36.4905 99.5497 36.9825 99.405 37.5871C99.2652 38.1719 99.3261 38.6538 99.5874 39.0335C99.8487 39.4135 100.248 39.6038 100.783 39.6038C101.096 39.6038 101.407 39.5469 101.717 39.4334C102.027 39.3199 102.339 39.1485 102.653 38.9188L102.415 39.9144C102.144 40.0845 101.862 40.2118 101.57 40.2954C101.278 40.3792 100.974 40.4211 100.656 40.4211C100.253 40.4211 99.8952 40.3535 99.5852 40.2176C99.275 40.0821 99.0213 39.8826 98.8252 39.6182C98.63 39.3594 98.5048 39.0543 98.4513 38.7024C98.3968 38.3512 98.4173 37.9767 98.5122 37.5792C98.6073 37.1823 98.7661 36.8093 98.988 36.4602C99.2095 36.1111 99.4833 35.8045 99.8083 35.5408C100.134 35.2742 100.483 35.0729 100.855 34.9355C101.227 34.7991 101.61 34.7302 102.004 34.7302C102.315 34.7302 102.599 34.7767 102.858 34.8694C103.117 34.9615 103.357 35.1014 103.577 35.2895L103.317 36.1772Z" fill="#A8A8A8"/>
<path d="M103.4 40.2771L104.696 34.8601H107.643L107.464 35.6073H105.376L105.051 36.9652H107.139L106.954 37.7387H104.866L104.447 39.4889H106.535L106.346 40.2771H103.4Z" fill="#A8A8A8"/>
<path d="M87.7446 30.1395H81.8444L90.0501 0.503958H95.9506L87.7446 30.1395Z" fill="#A8A8A8"/>
<path d="M84.6815 1.44086C84.2724 0.87694 83.6415 0.592379 82.7845 0.592379H50.3397L48.7327 6.39679H54.6363V6.39342H78.2483L76.5306 12.5962H52.9179L52.92 12.5834H47.0189L42.1212 30.2649H48.0253L51.3121 18.3973H77.8545C78.6834 18.3973 79.4637 18.1145 80.1974 17.5491C80.9296 16.983 81.4115 16.2851 81.6425 15.4516L84.9291 3.58148C85.1689 2.72015 85.086 2.00539 84.6815 1.44086Z" fill="#A8A8A8"/>
<path d="M38.6831 28.2896C38.3572 29.463 37.2887 30.2748 36.0706 30.2748H5.62852C4.79902 30.2748 4.18247 29.992 3.77705 29.4272C3.37193 28.8618 3.28504 28.1623 3.51666 27.3291L10.9446 0.59058H16.8503L10.2158 24.4722H33.8391L40.4736 0.59058H46.3781L38.6831 28.2896Z" fill="#A8A8A8"/>
<path d="M106.141 0.559404L113.611 15.4156L97.9077 30.2678L106.141 0.559404Z" fill="#27803B"/>
<path d="M100.904 0.559404L108.369 15.4156L92.6592 30.2678L100.904 0.559404Z" fill="#E9661C"/>
</g>
</svg>
