<svg width="170" height="61" viewBox="0 0 170 61" fill="none" xmlns="http://www.w3.org/2000/svg">
<g clip-path="url(#clip0_77_149)">
<mask id="mask0_77_149" style="mask-type:luminance" maskUnits="userSpaceOnUse" x="-15" y="-20" width="200" height="101">
<path d="M-14.1323 -19.069H184.142V80.068H-14.1323V-19.069Z" fill="white"/>
</mask>
<g mask="url(#mask0_77_149)">
<path d="M1.46182 52.0401H2.73316L1.55178 56.9744C1.37645 57.7065 1.4095 58.2577 1.65183 58.6253C1.89325 58.9934 2.34258 59.1775 2.99936 59.1775C3.65201 59.1775 4.18717 58.9934 4.60529 58.6253C5.02387 58.2577 5.32082 57.7065 5.49614 56.9744L6.67707 52.0401H7.96493L6.75463 57.0965C6.49164 58.1953 6.02304 59.0177 5.35203 59.563C4.68056 60.1092 3.80026 60.3818 2.71113 60.3818C1.62108 60.3818 0.873424 60.1096 0.46632 59.5657C0.0587564 59.0223 -0.0123837 58.1989 0.251523 57.0965L1.46182 52.0401Z" fill="white"/>
<path d="M7.79419 60.1657L9.8164 51.7184L13.6589 56.6858C13.7617 56.8258 13.8654 56.9759 13.9678 57.1351C14.0701 57.2944 14.1748 57.4734 14.2822 57.6735L15.6311 52.0401H16.8212L14.8003 60.481L10.8771 55.425C10.772 55.2887 10.6742 55.1446 10.5829 54.9927C10.4906 54.8407 10.4076 54.6815 10.3314 54.5153L8.97878 60.1657H7.79419Z" fill="white"/>
<path d="M16.7158 60.1657L18.6609 52.0401H19.9479L18.0032 60.1657H16.7158Z" fill="white"/>
<path d="M19.8538 60.1657L21.7989 52.0401H26.2187L25.9502 53.1609H22.8178L22.3326 55.1868H25.4651L25.1879 56.3466H22.055L21.1412 60.1657H19.8538Z" fill="white"/>
<path d="M25.6917 60.1657L27.6368 52.0401H28.9237L26.9791 60.1657H25.6917Z" fill="white"/>
<path d="M28.8296 60.1657L30.7747 52.0401H35.1946L34.9261 53.1609H31.7936L31.3057 55.1978H34.4382L34.161 56.3581H31.0285L30.3997 58.9834H33.5322L33.2494 60.1657H28.8296Z" fill="white"/>
<path d="M36.2999 58.9721H37.3822C37.977 58.9721 38.4332 58.9312 38.7504 58.85C39.0675 58.7688 39.3585 58.6315 39.6252 58.4392C39.9873 58.1771 40.2897 57.8504 40.533 57.4598C40.7758 57.0697 40.9598 56.6148 41.0838 56.0966C41.2072 55.5785 41.2412 55.125 41.1852 54.7353C41.1287 54.3443 40.9828 54.018 40.7464 53.755C40.5688 53.5631 40.3343 53.4255 40.0414 53.3438C39.7482 53.263 39.2708 53.2221 38.6072 53.2221H38.1418H37.6764L36.2999 58.9721ZM34.7271 60.1658L36.6722 52.0398H38.4084C39.5375 52.0398 40.3177 52.0977 40.7501 52.2142C41.1815 52.3313 41.5381 52.5268 41.8186 52.8003C42.1908 53.1592 42.4276 53.6201 42.5295 54.1818C42.6309 54.7445 42.5951 55.3866 42.4226 56.1081C42.25 56.8296 41.9787 57.469 41.6088 58.0257C41.2398 58.5829 40.7822 59.0423 40.2379 59.4049C39.8262 59.6789 39.3847 59.8739 38.9156 59.991C38.4451 60.1071 37.7438 60.1658 36.8094 60.1658H36.4629H34.7271Z" fill="white"/>
<path d="M48.6912 55.4371H49.0216C49.7353 55.4371 50.2306 55.3568 50.5069 55.198C50.7836 55.0391 50.9695 54.7578 51.0659 54.3544C51.1696 53.9216 51.1159 53.6159 50.9039 53.4387C50.6918 53.2611 50.2457 53.1716 49.5641 53.1716H49.2337L48.6912 55.4371ZM48.3511 56.5184L47.4781 60.1658H46.272L48.2175 52.0403H50.1649C50.7419 52.0403 51.1591 52.0724 51.4161 52.1371C51.6722 52.2014 51.8838 52.3083 52.0508 52.4565C52.2542 52.6452 52.3877 52.8994 52.452 53.2193C52.5158 53.5397 52.502 53.8922 52.4102 54.2763C52.3175 54.6614 52.1624 55.0167 51.9439 55.3425C51.7254 55.6679 51.4693 55.9236 51.1765 56.1081C50.9388 56.2563 50.6767 56.3619 50.3894 56.4243C50.1016 56.4877 49.6697 56.5184 49.0928 56.5184H48.839H48.3511Z" fill="white"/>
<path d="M53.9993 56.9744H56.2065L55.8379 55.1202C55.8205 55.0022 55.804 54.8664 55.7898 54.7126C55.7764 54.5589 55.7673 54.3877 55.7613 54.1991C55.6759 54.3767 55.5901 54.5424 55.5043 54.6961C55.4189 54.8494 55.3358 54.9908 55.2541 55.1202L53.9993 56.9744ZM56.7954 60.1656L56.3974 58.0732H53.2595L51.839 60.1656H50.4873L56.3442 51.7183L58.153 60.1656H56.7954Z" fill="white"/>
<path d="M59.9983 60.1657L60.8878 56.4467L59.2759 52.0401H60.6285L61.629 54.7985C61.652 54.8692 61.6795 54.9614 61.7112 55.0762C61.7433 55.1909 61.7745 55.3144 61.8039 55.4479C61.8847 55.3185 61.9677 55.1955 62.0508 55.0812C62.1339 54.9665 62.2179 54.8614 62.3028 54.765L64.6586 52.0401H65.9465L62.1646 56.4467L61.2747 60.1657H59.9983Z" fill="white"/>
<path d="M72.2821 56.1524C72.2825 56.0895 72.3009 55.916 72.3367 55.631C72.3642 55.3942 72.3858 55.1978 72.4014 55.0422C72.3247 55.2276 72.2343 55.413 72.1306 55.5975C72.0264 55.7825 71.9071 55.9711 71.7708 56.1639L68.6622 60.4933L67.6479 56.0753C67.6047 55.8936 67.5717 55.7178 67.5496 55.548C67.5276 55.3777 67.5125 55.2092 67.5051 55.0422C67.4611 55.2129 67.4051 55.391 67.3367 55.5782C67.2683 55.765 67.1866 55.9606 67.0907 56.1639L65.2833 60.1656H64.0991L67.9981 51.6954L69.1078 56.8243C69.1239 56.9056 69.1473 57.041 69.1758 57.2296C69.2042 57.4182 69.2377 57.6514 69.2767 57.9286C69.408 57.6955 69.5971 57.3999 69.8459 57.041C69.9119 56.9446 69.9624 56.8707 69.9964 56.8188L73.5061 51.6954L73.3937 60.1656H72.1976L72.2821 56.1524Z" fill="white"/>
<path d="M74.4219 60.1657L76.3674 52.0401H80.7873L80.5188 53.1609H77.3859L76.8985 55.1978H80.0309L79.7537 56.3581H76.6208L75.9925 58.9834H79.1249L78.8413 60.1657H74.4219Z" fill="white"/>
<path d="M80.3188 60.1657L82.3411 51.7184L86.1835 56.6858C86.2863 56.8258 86.3901 56.9759 86.4924 57.1351C86.5948 57.2944 86.6994 57.4734 86.8068 57.6735L88.1557 52.0401H89.3463L87.325 60.481L83.4017 55.425C83.2966 55.2887 83.1989 55.1446 83.1075 54.9927C83.0153 54.8407 82.9322 54.6815 82.856 54.5153L81.5034 60.1657H80.3188Z" fill="white"/>
<path d="M93.4542 53.161L91.7776 60.1658H90.4902L92.1664 53.161H90.062L90.3305 52.0402H95.8161L95.5481 53.161H93.4542Z" fill="white"/>
<path d="M94.7903 58.5391L95.935 58.0513C95.9465 58.4134 96.0584 58.6901 96.2723 58.8806C96.4862 59.0715 96.7951 59.1666 97.1999 59.1666C97.5818 59.1666 97.9122 59.0573 98.1894 58.8388C98.4671 58.6208 98.6502 58.3285 98.7379 57.9622C98.8522 57.4844 98.5672 57.059 97.8856 56.6858C97.7901 56.6303 97.7167 56.5894 97.6662 56.5633C96.8974 56.1268 96.41 55.7316 96.2044 55.3782C95.9992 55.0248 95.957 54.5929 96.0791 54.0826C96.2374 53.4203 96.5853 52.8837 97.1219 52.473C97.6584 52.0622 98.2817 51.8566 98.9926 51.8566C99.5769 51.8566 100.038 51.9722 100.375 52.2036C100.713 52.4353 100.906 52.7672 100.954 53.2L99.8206 53.7328C99.7224 53.4776 99.593 53.2908 99.4323 53.172C99.2712 53.0536 99.0674 52.9944 98.8228 52.9944C98.4767 52.9944 98.1793 53.0875 97.931 53.2716C97.6841 53.457 97.5221 53.7048 97.4473 54.016C97.3307 54.5044 97.669 54.9592 98.4625 55.381C98.5236 55.414 98.5713 55.4407 98.6057 55.459C99.3001 55.8285 99.7518 56.1906 99.9588 56.544C100.166 56.8979 100.207 57.3389 100.08 57.8677C99.8959 58.6378 99.5136 59.2492 98.9325 59.7022C98.3514 60.1552 97.6584 60.3819 96.8548 60.3819C96.1796 60.3819 95.6651 60.2231 95.3108 59.9046C94.9555 59.5865 94.7821 59.1317 94.7903 58.5391Z" fill="white"/>
<path d="M104.302 60.1657L106.247 52.0401H107.535L105.59 60.1657H104.302Z" fill="white"/>
<path d="M107.44 60.1657L109.463 51.7184L113.305 56.6858C113.408 56.8258 113.512 56.9759 113.614 57.1351C113.716 57.2944 113.821 57.4734 113.928 57.6735L115.277 52.0401H116.467L114.447 60.481L110.523 55.425C110.418 55.2887 110.32 55.1446 110.229 54.9927C110.137 54.8407 110.053 54.6815 109.977 54.5153L108.625 60.1657H107.44Z" fill="white"/>
<path d="M120.575 53.161L118.898 60.1658H117.611L119.287 53.161H117.183L117.452 52.0402H122.937L122.669 53.161H120.575Z" fill="white"/>
<path d="M121.977 60.1657L123.922 52.0401H128.342L128.074 53.1609H124.942L124.454 55.1978H127.586L127.308 56.3581H124.176L123.548 58.9834H126.68L126.397 60.1657H121.977Z" fill="white"/>
<path d="M130.278 55.5029H130.511C131.192 55.5029 131.665 55.4222 131.927 55.2592C132.19 55.0963 132.371 54.8081 132.47 54.3932C132.577 53.9457 132.533 53.6299 132.336 53.4472C132.141 53.2632 131.718 53.1718 131.069 53.1718H130.836L130.278 55.5029ZM129.951 56.5296L129.081 60.1656H127.875L129.82 52.04H131.616C132.142 52.04 132.543 52.0749 132.816 52.1456C133.089 52.2158 133.31 52.3319 133.476 52.4953C133.674 52.6908 133.803 52.9451 133.863 53.2558C133.921 53.5661 133.906 53.9066 133.818 54.2761C133.662 54.9274 133.387 55.4373 132.992 55.8059C132.597 56.1735 132.092 56.3952 131.475 56.4686L133.317 60.1656H131.862L130.097 56.5296H129.951Z" fill="white"/>
<path d="M134.08 60.1657L136.025 52.0401H140.445L140.177 53.1609H137.044L136.559 55.1868H139.692L139.414 56.3466H136.282L135.367 60.1657H134.08Z" fill="white"/>
<path d="M141.937 56.9744H144.145L143.776 55.1202C143.758 55.0022 143.742 54.8664 143.728 54.7126C143.715 54.5589 143.706 54.3877 143.7 54.1991C143.614 54.3767 143.528 54.5424 143.443 54.6961C143.357 54.8494 143.274 54.9908 143.192 55.1202L141.937 56.9744ZM144.734 60.1656L144.336 58.0732H141.198L139.777 60.1656H138.425L144.282 51.7183L146.091 60.1656H144.734Z" fill="white"/>
<path d="M154.472 54.0158C154.184 53.6977 153.857 53.4591 153.488 53.2998C153.121 53.1415 152.714 53.0611 152.266 53.0611C151.401 53.0611 150.628 53.3462 149.949 53.9157C149.27 54.4858 148.822 55.2238 148.605 56.1307C148.395 57.0078 148.486 57.7307 148.878 58.3003C149.27 58.8703 149.869 59.1558 150.672 59.1558C151.142 59.1558 151.608 59.0704 152.073 58.9001C152.537 58.7298 153.006 58.4728 153.477 58.1281L153.119 59.6216C152.712 59.8768 152.29 60.0677 151.852 60.193C151.414 60.3188 150.958 60.3817 150.482 60.3817C149.876 60.3817 149.34 60.2802 148.875 60.0765C148.409 59.8731 148.029 59.5739 147.735 59.1773C147.442 58.7891 147.254 58.3315 147.174 57.8036C147.092 57.2768 147.123 56.715 147.265 56.1188C147.408 55.5235 147.646 54.964 147.979 54.4403C148.311 53.9167 148.722 53.4568 149.209 53.0611C149.699 52.6614 150.222 52.3594 150.779 52.1533C151.337 51.9486 151.912 51.8453 152.503 51.8453C152.969 51.8453 153.396 51.9151 153.784 52.0542C154.173 52.1923 154.532 52.4021 154.862 52.6843L154.472 54.0158Z" fill="white"/>
<path d="M154.597 60.1657L156.542 52.0401H160.962L160.693 53.1609H157.561L157.073 55.1978H160.206L159.928 56.3581H156.796L156.167 58.9834H159.3L159.017 60.1657H154.597Z" fill="white"/>
<path d="M131.114 44.9593H122.264L134.572 0.505955H143.423L131.114 44.9593Z" fill="white"/>
<path d="M126.519 1.91131C125.906 1.06543 124.959 0.638592 123.674 0.638592H75.0066L72.5961 9.34521H81.4514V9.34016H116.869L114.293 18.6443H78.8738L78.877 18.6251H70.0254L62.6787 45.1474H71.5349L76.4652 27.3459H116.279C117.522 27.3459 118.692 26.9218 119.793 26.0737C120.891 25.2246 121.614 24.1777 121.961 22.9274L126.891 5.12225C127.25 3.83025 127.126 2.75811 126.519 1.91131Z" fill="white"/>
<path d="M57.5214 42.1844C57.0326 43.9445 55.4299 45.1622 53.6027 45.1622H7.93958C6.69532 45.1622 5.7705 44.7381 5.16237 43.8908C4.55469 43.0426 4.42435 41.9934 4.77179 40.7437L15.9137 0.635876H24.7722L14.8204 36.4583H50.2555L60.2073 0.635876H69.064L57.5214 42.1844Z" fill="white"/>
<path d="M158.708 0.589119L169.914 22.8734L146.358 45.1517L158.708 0.589119Z" fill="#27803B"/>
<path d="M150.854 0.589119L162.051 22.8734L138.486 45.1517L150.854 0.589119Z" fill="#E9661C"/>
</g>
</g>
<defs>
<clipPath id="clip0_77_149">
<rect width="169.834" height="60" fill="white" transform="translate(0.0830078 0.5)"/>
</clipPath>
</defs>
</svg>
