<svg width="146" height="61" viewBox="0 0 146 61" fill="none" xmlns="http://www.w3.org/2000/svg">
<path fill-rule="evenodd" clip-rule="evenodd" d="M145.096 31.5013C145.096 21.2477 140.129 13.1569 130.637 13.1569C121.104 13.1569 115.336 21.2477 115.336 31.4212C115.336 43.4773 122.145 49.5654 131.919 49.5654C136.685 49.5654 140.29 48.484 143.013 46.9619V38.9513C140.29 40.3131 137.165 41.1542 133.2 41.1542C129.315 41.1542 125.87 39.7924 125.43 35.0661H145.016C145.016 34.5454 145.096 32.4626 145.096 31.5013ZM125.31 27.6963C125.31 23.1702 128.073 21.2877 130.597 21.2877C133.04 21.2877 135.643 23.1702 135.643 27.6963H125.31ZM99.8758 13.1569C95.9505 13.1569 93.4272 14.9993 92.0253 16.281L91.5046 13.7977H82.6929V60.5L92.7062 58.3772L92.7463 47.0421C94.1882 48.0834 96.311 49.5654 99.8357 49.5654C107.005 49.5654 113.534 43.7977 113.534 31.1008C113.494 19.4853 106.885 13.1569 99.8758 13.1569ZM97.4726 40.7537C95.1094 40.7537 93.7076 39.9126 92.7463 38.8712L92.7062 24.0113C93.7476 22.8498 95.1895 22.0487 97.4726 22.0487C101.117 22.0487 103.641 26.1342 103.641 31.3812C103.641 36.7483 101.157 40.7537 97.4726 40.7537ZM68.9145 10.7937L78.9679 8.63084V0.5L68.9145 2.62283V10.7937ZM68.9145 13.8378H78.9679V48.8845H68.9145V13.8378ZM58.1401 16.8017L57.4993 13.8378H48.8477V48.8845H58.8611V25.1328C61.2242 22.0487 65.2296 22.6095 66.4712 23.0501V13.8378C65.1895 13.3571 60.5033 12.476 58.1401 16.8017ZM38.1134 5.14619L28.3404 7.22897L28.3003 39.3117C28.3003 45.2397 32.7463 49.6055 38.6742 49.6055C41.9585 49.6055 44.3618 49.0047 45.6835 48.2837V40.1529C44.4018 40.6736 38.0734 42.516 38.0734 36.5881V22.3692H45.6835V13.8378H38.0734L38.1134 5.14619ZM11.0373 24.0113C11.0373 22.4493 12.319 21.8485 14.4419 21.8485C17.4859 21.8485 21.331 22.7697 24.3751 24.4119V14.9993C21.0507 13.6776 17.7663 13.1569 14.4419 13.1569C6.31102 13.1569 0.903809 17.4025 0.903809 24.492C0.903809 35.5467 16.1241 33.7844 16.1241 38.5507C16.1241 40.3932 14.522 40.994 12.279 40.994C8.95454 40.994 4.70888 39.6322 1.3444 37.7897V47.3224C5.06936 48.9246 8.83438 49.6055 12.279 49.6055C20.6101 49.6055 26.3377 45.48 26.3377 38.3104C26.2977 26.3745 11.0373 28.4973 11.0373 24.0113Z" fill="#635BFF"/>
</svg>
