<svg width="203" height="57" viewBox="0 0 203 57" fill="none" xmlns="http://www.w3.org/2000/svg">
<path d="M50.8 20.7403C51.0075 20.814 51.28 20.8762 51.5259 21.0054C52.0789 21.2957 52.2866 21.8192 52.1712 22.5279C52.1184 22.8514 51.9964 23.1401 51.8524 23.4193C51.5436 24.0175 51.1491 24.5318 50.7163 25.0089C50.0003 25.7983 49.2249 26.5016 48.4054 27.1334C45.8571 29.0972 43.1344 30.627 40.2335 31.7012C39.1601 32.0986 38.0679 32.4102 36.9457 32.5191C36.3781 32.5743 35.8051 32.6093 35.2621 32.3556C35.111 32.2849 34.9568 32.2067 34.8269 32.0959C34.4453 31.77 34.3257 31.2818 34.4503 30.7302C34.5658 30.2183 34.7881 29.7752 35.0611 29.3604C35.4354 28.7915 35.8718 28.2926 36.3356 27.8252C37.2499 26.9041 38.2386 26.1045 39.2662 25.3716C41.4697 23.7998 43.7898 22.5287 46.2451 21.6186C47.4601 21.1681 48.6927 20.8131 49.968 20.7393C50.2237 20.7241 50.4805 20.7389 50.8 20.7403ZM50.6566 21.5153C50.3495 21.5149 50.1111 21.5035 49.8733 21.5159C48.8188 21.5697 47.8001 21.8666 46.7919 22.2197C44.9661 22.8592 43.2188 23.7344 41.5204 24.75C39.9865 25.6672 38.5097 26.696 37.1525 27.9507C36.6286 28.435 36.1195 28.9407 35.6869 29.5374C35.4728 29.833 35.2684 30.1493 35.1132 30.489C34.7989 31.1768 35.057 31.606 35.6085 31.7196C35.9306 31.7861 36.2643 31.8169 36.5926 31.8078C37.4974 31.783 38.3821 31.5708 39.2517 31.2743C42.7191 30.0911 45.9294 28.2678 48.8745 25.7942C49.5673 25.2123 50.2267 24.5793 50.7902 23.8242C50.9959 23.5484 51.1832 23.2489 51.3478 22.9379C51.4421 22.7599 51.4903 22.5412 51.5292 22.3338C51.5729 22.1021 51.4981 21.8926 51.3142 21.7944C51.0849 21.672 50.8393 21.591 50.6566 21.5153Z" fill="url(#paint0_linear_214_16995)"/>
<path d="M50.6563 21.5155C50.839 21.5913 51.0842 21.6723 51.3133 21.7947C51.4972 21.8929 51.5719 22.1024 51.5283 22.3341C51.4892 22.5415 51.4409 22.7602 51.3468 22.9382C51.1823 23.2492 50.995 23.5487 50.7893 23.8245C50.2261 24.5796 49.5664 25.2126 48.8736 25.7944C45.9285 28.268 42.7185 30.0914 39.2508 31.2745C38.3812 31.5711 37.4967 31.7832 36.5917 31.8081C36.2636 31.8171 35.93 31.7864 35.6075 31.7199C35.056 31.6062 34.798 31.177 35.1123 30.4893C35.2675 30.1495 35.4719 29.8329 35.686 29.5377C36.1186 28.9409 36.628 28.435 37.1516 27.951C38.5088 26.6963 39.9858 25.6678 41.5195 24.7503C43.2178 23.7347 44.9652 22.8591 46.791 22.22C47.7994 21.8669 48.8181 21.57 49.8724 21.5162C50.111 21.5039 50.3491 21.5151 50.6563 21.5155Z" fill="url(#paint1_linear_214_16995)"/>
<path d="M50.6563 21.5155C50.839 21.5913 51.0842 21.6723 51.3133 21.7947C51.4972 21.8929 51.5719 22.1024 51.5283 22.3341C51.4892 22.5415 51.4409 22.7602 51.3468 22.9382C51.1823 23.2492 50.995 23.5487 50.7893 23.8245C50.2261 24.5796 49.5664 25.2126 48.8736 25.7944C45.9285 28.268 42.7185 30.0914 39.2508 31.2745C38.3812 31.5711 37.4967 31.7832 36.5917 31.8081C36.2636 31.8171 35.93 31.7864 35.6075 31.7199C35.056 31.6062 34.798 31.177 35.1123 30.4893C35.2675 30.1495 35.4719 29.8329 35.686 29.5377C36.1186 28.9409 36.628 28.435 37.1516 27.951C38.5088 26.6963 39.9858 25.6678 41.5195 24.7503C43.2178 23.7347 44.9652 22.8591 46.791 22.22C47.7994 21.8669 48.8181 21.57 49.8724 21.5162C50.111 21.5039 50.3491 21.5151 50.6563 21.5155Z" fill="black" fill-opacity="0.6"/>
<path d="M39.9127 30.8622C39.9127 33.1444 40.3427 34.9883 41.2034 36.3942C42.0634 37.8009 43.4074 38.5036 45.2342 38.5036C46.8229 38.5036 48.1064 37.8933 49.0863 36.6727C50.0655 35.4527 50.5559 33.5156 50.5559 30.8622C50.5559 28.5806 50.1252 26.7368 49.2651 25.3303C48.4044 23.9241 47.061 23.2209 45.2342 23.2209C43.6457 23.2209 42.3611 23.8314 41.382 25.0515C40.4022 26.2722 39.9127 28.2094 39.9127 30.8622ZM35.584 30.8622C35.584 29.0054 35.8154 27.3999 36.2789 26.0465C36.7418 24.6934 37.3971 23.5791 38.2447 22.7034C39.0918 21.8279 40.1043 21.1779 41.2827 20.7532C42.4605 20.3291 43.7778 20.1163 45.2342 20.1163C46.9023 20.1163 48.3448 20.3753 49.5628 20.8924C50.7805 21.4099 51.7801 22.14 52.5613 23.0815C53.3419 24.0234 53.9244 25.1511 54.3087 26.4642C54.692 27.7776 54.8844 29.244 54.8844 30.8622C54.8844 32.7197 54.6524 34.3246 54.1895 35.678C53.7259 37.0308 53.0708 38.1452 52.2237 39.0211C51.3761 39.8964 50.3634 40.5468 49.1855 40.971C48.0074 41.3954 46.6899 41.608 45.2342 41.608C43.5663 41.608 42.1228 41.3491 40.9055 40.8316C39.6874 40.3145 38.6878 39.585 37.9071 38.6428C37.1259 37.7013 36.5431 36.5732 36.1596 35.2597C35.7756 33.9467 35.584 32.4808 35.584 30.8622Z" fill="white"/>
<path d="M60.8506 23.4646V26.3836C61.2569 25.4004 61.8561 24.6425 62.6488 24.1099C63.4415 23.5775 64.3661 23.3109 65.4228 23.3109C66.8855 23.3109 68.0438 23.8438 68.8972 24.9086C69.7506 25.9741 70.1776 27.5927 70.1776 29.764V39.4433H67.1296V29.764C67.1296 28.596 66.8706 27.7157 66.3525 27.1211C65.8337 26.5274 65.1179 26.23 64.2031 26.23C63.1669 26.23 62.3488 26.5171 61.7495 27.0904C61.1502 27.664 60.8506 28.4423 60.8506 29.4257V39.4433H57.8027V23.4646H60.8506Z" fill="white"/>
<path d="M84.0529 29.8853C84.0932 29.4549 84.0473 28.9941 83.9153 28.5025C83.7833 28.0108 83.5596 27.5552 83.2447 27.1351C82.9299 26.7156 82.5234 26.3667 82.0257 26.0901C81.5274 25.8138 80.9436 25.6755 80.273 25.6755C79.176 25.6755 78.2817 26.0086 77.5907 26.6743C76.8997 27.34 76.4528 28.4104 76.2496 29.8853H84.0529ZM80.273 23.1556C81.5125 23.1556 82.5748 23.366 83.4586 23.7857C84.3423 24.2057 85.0631 24.7998 85.6228 25.568C86.1812 26.336 86.5828 27.258 86.8263 28.3334C87.0705 29.4091 87.1616 30.6025 87.1009 31.9133H76.1585C76.239 33.6548 76.7168 34.9298 77.5907 35.739C78.4646 36.5486 79.6024 36.9527 81.0049 36.9527C82.4676 36.9527 83.6513 36.6661 84.5555 36.0923C85.4598 35.5191 86.1657 34.7711 86.6739 33.8491V37.0143C86.2475 37.813 85.5664 38.469 84.6318 38.9809C83.6972 39.4926 82.488 39.7492 81.0049 39.7492C79.7859 39.7492 78.6728 39.585 77.6669 39.2572C76.6611 38.9298 75.7978 38.4277 75.0764 37.7517C74.355 37.0756 73.8009 36.2152 73.4154 35.1707C73.0293 34.1257 72.8359 32.8866 72.8359 31.4524C72.8359 30.0188 73.0138 28.7791 73.3695 27.7341C73.7247 26.6896 74.2279 25.8292 74.878 25.1531C75.5282 24.4771 76.3109 23.9752 77.225 23.6473C78.1398 23.3198 79.1556 23.1556 80.273 23.1556Z" fill="white"/>
<path d="M92.4444 31.4524C92.4444 33.4395 92.82 34.8786 93.5724 35.7699C94.3235 36.661 95.3195 37.1064 96.559 37.1064C97.7781 37.1064 98.7486 36.5994 99.47 35.5853C100.191 34.5715 100.552 33.1937 100.552 31.4524C100.552 29.7114 100.191 28.3334 99.47 27.3194C98.7486 26.3054 97.7781 25.7983 96.559 25.7983C95.3195 25.7983 94.3235 26.2438 93.5724 27.1351C92.82 28.0263 92.4444 29.4655 92.4444 31.4524ZM89.3965 23.463H92.4444V26.2285C92.9725 25.184 93.679 24.4108 94.5628 23.9085C95.4466 23.4069 96.4679 23.1556 97.6256 23.1556C98.5807 23.1556 99.4396 23.3555 100.201 23.7548C100.964 24.1544 101.619 24.7181 102.168 25.445C102.716 26.1722 103.138 27.043 103.433 28.0568C103.727 29.0708 103.875 30.203 103.875 31.4524C103.875 32.7021 103.727 33.8339 103.433 34.8477C103.138 35.8618 102.716 36.7328 102.168 37.4598C101.619 38.1872 100.964 38.7504 100.201 39.1497C99.4396 39.5492 98.5807 39.7492 97.6256 39.7492C96.4679 39.7492 95.4466 39.498 94.5628 38.9962C93.679 38.4944 92.9725 37.7209 92.4444 36.6761V44.2045H89.3965V23.463Z" fill="white"/>
<path d="M109.823 16.3992H106.775V39.4454H109.823V16.3992Z" fill="white"/>
<path d="M115.194 35.6622C115.194 35.9901 115.285 36.2664 115.468 36.4918C115.651 36.7173 115.88 36.9019 116.154 37.0447C116.428 37.1884 116.723 37.2859 117.038 37.3367C117.353 37.3882 117.642 37.4135 117.907 37.4135C119.044 37.4135 120.01 37.1268 120.803 36.5532C121.595 35.9798 122.072 34.9452 122.235 33.4497C122.255 33.1223 122.265 32.8149 122.265 32.5277V31.6983C121.798 31.9646 121.259 32.195 120.65 32.3894C120.04 32.5844 119.359 32.7635 118.607 32.9273C117.571 33.2145 116.743 33.5779 116.123 34.018C115.504 34.459 115.194 35.0067 115.194 35.6622ZM117.754 30.6227C119.116 30.2745 120.208 29.9572 121.031 29.67C121.854 29.3833 122.285 28.9432 122.326 28.3488V28.2874C122.326 27.5912 122.022 27.0275 121.412 26.5972C120.803 26.167 119.999 25.952 119.004 25.952C117.541 25.952 116.276 26.2438 115.209 26.8275C114.142 27.4117 113.457 28.195 113.152 29.1784V26.0751C113.436 25.2147 114.117 24.513 115.194 23.9701C116.271 23.4273 117.541 23.1556 119.004 23.1556C119.959 23.1556 120.822 23.2631 121.595 23.4784C122.367 23.6935 123.027 24.0314 123.576 24.4922C124.124 24.9533 124.546 25.5476 124.841 26.2746C125.135 27.002 125.283 27.8878 125.283 28.9325V39.4417H122.174V39.0113C122.194 38.8272 122.204 38.5404 122.204 38.1509C122.204 37.7623 122.214 37.209 122.235 36.4918V36.2459C121.991 36.9219 121.686 37.4804 121.321 37.9206C120.954 38.3613 120.548 38.7196 120.101 38.9962C119.654 39.2725 119.182 39.4671 118.684 39.5799C118.186 39.6923 117.693 39.7491 117.205 39.7491C115.6 39.7491 114.34 39.3754 113.426 38.6274C112.512 37.8797 112.055 36.8913 112.055 35.6622C112.055 34.4331 112.573 33.3882 113.609 32.5277C114.645 31.6674 116.027 31.0328 117.754 30.6227Z" fill="white"/>
<path d="M126.604 23.4692H130.048L133.462 35.7605L137.211 23.4692H140.838L134.65 41.5067C134.183 42.8586 133.538 43.8314 132.715 44.426C131.892 45.0198 130.779 45.317 129.378 45.317C129.215 45.317 129.037 45.3015 128.844 45.2711C128.651 45.2402 128.422 45.2043 128.158 45.1635C128.016 45.1222 127.884 45.0914 127.762 45.0711C127.64 45.0506 127.508 45.0198 127.366 44.979V42.1828C127.508 42.2236 127.64 42.2544 127.762 42.2748C127.884 42.2952 128.016 42.3257 128.158 42.367C128.422 42.4077 128.651 42.444 128.844 42.4746C129.037 42.5053 129.215 42.5208 129.378 42.5208C130.149 42.5208 130.703 42.4133 131.038 42.1981C131.374 41.9829 131.653 41.5577 131.876 40.9229L132.029 40.4312L126.604 23.4692Z" fill="white"/>
<path d="M2.02455 21.386C0.313443 24.3934 -0.337054 27.8171 0.164967 31.3036C1.23014 38.1568 6.97451 43.4972 13.8285 43.9943C14.1974 44.0162 14.542 44.0166 14.9109 44.0386C18.6309 44.0246 22.194 42.6549 24.9473 40.1344C27.6579 37.6631 29.3664 34.2622 29.7519 30.6477C29.8318 30.1098 29.6616 29.6116 29.3145 29.2177C28.9674 28.8238 28.4706 28.6019 27.9431 28.6136L26.7752 28.6675C25.8817 28.7033 25.1431 29.3541 25.0627 30.2393C24.4316 35.3752 20.0666 39.2524 14.944 39.2432C9.65985 39.2214 5.18855 35.0937 4.75274 29.7967C4.45586 25.5788 6.74445 21.5608 10.5063 19.7147C9.55598 18.8744 8.97192 17.6625 8.93387 16.3683C8.90691 15.9533 8.95004 15.5568 9.03898 15.1573C6.13467 16.4141 3.65915 18.6152 2.02455 21.386Z" fill="white"/>
<path d="M14.2422 13.194C13.3244 13.2083 12.4335 13.6375 11.9111 14.4362C11.0985 15.7171 11.3923 17.4112 12.6444 18.3011C13.8722 19.1694 15.5312 18.8978 16.42 17.7277C16.42 17.7277 18.0529 16.3464 20.3541 17.1207C21.3386 17.4263 21.8282 18.598 21.3849 19.5536C20.8989 20.5582 20.0226 21.5654 18.4884 21.9908C17.7381 22.1098 17.0088 22.5516 16.5506 23.2765C16.1778 23.9031 16.0642 24.6285 16.2006 25.3141C16.2006 25.3141 16.208 29.3196 12.7339 30.2898C12.005 30.3842 11.3185 30.7769 10.8572 31.4557C9.97451 32.7181 10.2956 34.4798 11.5478 35.3697C12.7999 36.2596 14.5719 35.9575 15.4302 34.6736C15.8944 34.0409 16.0265 33.2448 15.9115 32.5346C15.6292 28.8946 19.3782 27.5589 19.3782 27.5589C20.0827 27.443 20.7692 27.0503 21.2091 26.3961C21.6703 25.7173 21.8054 24.9674 21.666 24.2356C21.4294 20.5926 25.1541 19.2353 25.1541 19.2353C25.9744 19.1349 26.7221 18.6224 27.1743 17.8053C27.7885 16.6533 27.5098 15.1897 26.5594 14.3493C25.4172 13.3827 23.8376 13.4638 22.818 14.3879C19.839 16.9695 16.3967 14.1864 16.3967 14.1864C16.074 13.8141 15.6871 13.5154 15.1719 13.3642C14.8885 13.244 14.5409 13.1974 14.2422 13.194Z" fill="white"/>
<path d="M153.866 44.8262C151.665 46.4423 149.032 47.2963 146.132 47.2963C145.04 47.2963 144.052 47.1721 143.174 46.9285C141.573 46.485 140.363 45.6509 139.572 44.4522C138.781 43.2547 138.455 41.7724 138.62 40.0328C138.711 39.0643 138.961 38.0047 139.374 36.8598C141.824 30.0658 144.234 23.3807 146.686 16.5794C147.056 15.5514 148.043 14.8736 149.051 14.8742V14.8716H185.962L190.683 10.587C191.663 9.69851 193.104 9.71078 193.899 10.6142C194.09 10.8308 194.227 11.0789 194.31 11.3434L199.86 25.9163C200.293 27.0583 199.684 28.4264 198.5 28.9727C198.168 29.1255 197.827 29.1976 197.498 29.1974L197.497 29.2065H192.451C189.921 33.6856 186.226 37.6231 181.952 40.6995C177.364 44.0021 170.107 46.7899 164.623 46.8659L156.873 46.9728L156.874 46.9702C156.679 46.9702 156.484 46.9448 156.293 46.8918C155.108 46.5642 154.504 45.3044 154.945 44.0783L155.021 43.8689C154.653 44.2118 154.267 44.5311 153.866 44.8265V44.8262Z" fill="black"/>
<path fill-rule="evenodd" clip-rule="evenodd" d="M166.985 36.829H164.461L166.171 32.0864H168.695C170.578 32.0864 171.201 32.9656 170.659 34.4692C170.126 35.9497 168.868 36.829 166.985 36.829ZM170.272 28.4774H162.929L157.09 44.6715H161.633L163.16 40.4377H165.96C170.343 40.4377 173.922 38.1475 175.248 34.4692C176.583 30.7677 174.656 28.4774 170.272 28.4774ZM146.348 44.9954C151.098 44.9954 154.874 42.2886 156.618 37.4536L159.854 28.4774H155.379L152.193 37.3147C151.192 40.0909 149.644 41.2014 147.762 41.2014C145.857 41.2014 145.111 40.0909 146.111 37.3147L149.298 28.4774H144.754L141.518 37.4536C139.774 42.2889 141.598 44.9954 146.348 44.9954Z" fill="url(#paint2_linear_214_16995)"/>
<path fill-rule="evenodd" clip-rule="evenodd" d="M148.831 17.1723H183.769L173.045 26.9043H145.322L148.831 17.1723Z" fill="white"/>
<path fill-rule="evenodd" clip-rule="evenodd" d="M175.946 26.9066L192.126 12.2249L197.716 26.9066H191.188C186.475 36.4126 176.048 42.7434 165.916 44.2813C175.865 40.9488 180.614 32.4573 182.671 26.9066H175.946Z" fill="url(#paint3_linear_214_16995)"/>
<path d="M170.94 25.0219H173.824L175.298 23.6838H173.096L174.765 19.0562H173.091L170.94 25.0222V25.0219ZM167.386 23.7181L167.779 22.6273H170.409L170.864 21.3658H168.234L168.597 20.36H171.581L172.051 19.0559H167.41L165.259 25.0219H170.01L170.481 23.7181H167.386ZM165.407 19.0562L162.365 22.9426L162.16 19.0562H160.351L160.728 25.0222H162.377L167.064 19.0562H165.407ZM155.44 23.7181L155.834 22.6273H158.463L158.918 21.3658H156.289L156.651 20.36H159.635L160.106 19.0559H155.464L153.314 25.0219H158.065L158.535 23.7181H155.44ZM148.156 25.0219H152.654L153.137 23.6838H150.313L151.981 19.0562H150.308L148.157 25.0222L148.156 25.0219Z" fill="black"/>
<path d="M34.6814 30.2439C34.645 29.9774 34.6041 29.7026 34.5708 29.4269C34.2676 26.9181 33.9656 24.4089 33.663 21.9C33.4217 19.9005 33.1753 17.9015 32.9396 15.9011C32.6506 13.448 32.3835 10.9925 32.0808 8.54101C31.9435 7.42908 31.7421 6.32469 31.5711 5.21674C31.5539 5.10625 31.5453 4.99428 31.5258 4.82538C31.6533 4.88313 31.7424 4.90633 31.8096 4.95661C32.3077 5.3285 32.8083 5.69781 33.2949 6.08285C36.8264 8.87583 40.2927 11.7426 43.7237 14.6489C45.6313 16.2647 47.5169 17.9048 49.4082 19.5384C49.7746 19.8549 50.1223 20.1913 50.4759 20.521C50.5435 20.5839 50.5992 20.6589 50.689 20.7609C50.5394 20.8082 50.4333 20.8597 50.3222 20.8743C49.2998 21.0069 48.3209 21.3041 47.3443 21.6088C47.119 21.6791 46.8926 21.7508 46.6765 21.8431C45.2148 22.468 43.7411 23.0686 42.3315 23.8013C42.2621 23.8373 42.1909 23.8713 42.1236 23.9114C40.0819 25.1229 38.1334 26.4503 36.4784 28.1417C35.9074 28.7253 35.3941 29.3518 34.9529 30.0331C34.8977 30.1185 34.8805 30.2654 34.6814 30.2439Z" fill="url(#paint4_linear_214_16995)"/>
<path d="M46.232 16.1433C46.3359 16.1857 46.472 16.2186 46.5804 16.2898C46.7586 16.4071 46.9235 16.5442 47.0862 16.6817C47.6781 17.1823 48.2703 17.6832 48.8545 18.1922C49.0096 18.3273 49.264 18.4491 49.213 18.6761C49.1484 18.9628 48.8363 18.8957 48.616 18.9303C43.7024 19.703 39.5488 21.8322 36.2128 25.417C35.4705 26.2148 34.8522 27.0977 34.3306 28.0438C34.2475 28.1945 34.1609 28.3462 34.0542 28.4812C34.0208 28.5237 33.9127 28.531 33.8441 28.5209C33.8077 28.5156 33.759 28.4403 33.7561 28.3943C33.6875 27.2939 33.5232 26.2046 33.3364 25.1193C33.291 24.8554 33.3398 24.6554 33.4872 24.4288C35.6879 21.0484 38.7855 18.7256 42.5828 17.2208C43.5889 16.8222 44.6151 16.4834 45.677 16.2517C45.8493 16.2141 46.0236 16.1837 46.232 16.1433ZM34.0975 27.4483C34.213 27.2992 34.2707 27.232 34.32 27.1597C34.5361 26.8416 34.7318 26.5089 34.9673 26.2047C37.4256 23.032 40.6234 20.8228 44.4647 19.4664C45.6521 19.047 46.8816 18.7671 48.1209 18.5295C48.2088 18.5126 48.2927 18.4745 48.3942 18.4414C48.0719 18.0718 46.6327 16.8534 46.251 16.6197C45.437 16.7559 44.6527 17.0133 43.8724 17.2798C39.7438 18.6912 36.3976 21.0916 33.9286 24.6024C33.7987 24.787 33.735 24.9583 33.7703 25.1834C33.8831 25.8953 33.978 26.6103 34.0975 27.4483Z" fill="white"/>
<path d="M34.0957 27.4482C33.9762 26.6102 33.881 25.8953 33.7685 25.1833C33.7329 24.9585 33.7969 24.787 33.9268 24.6023C36.3955 21.0913 39.7417 18.6908 43.8706 17.2797C44.6509 17.0129 45.4351 16.7555 46.2492 16.6196C46.6308 16.8533 48.07 18.0717 48.3924 18.4413C48.2909 18.4747 48.2073 18.5125 48.1191 18.5294C46.88 18.7671 45.6506 19.0469 44.4629 19.4663C40.6216 20.8227 37.4238 23.0322 34.9655 26.2046C34.73 26.5086 34.5342 26.8415 34.3182 27.1597C34.2689 27.2322 34.2112 27.2991 34.0957 27.4482Z" fill="url(#paint5_linear_214_16995)"/>
<path d="M33.1811 21.597C33.008 21.5712 32.9549 21.4785 32.9342 21.3589C32.8366 20.7973 32.7331 20.2366 32.6435 19.6739C32.5688 19.2047 32.5186 18.732 32.4414 18.2632C32.4078 18.0598 32.5106 17.694 32.4414 17.4427C32.5455 17.1471 32.5871 17.0205 32.7981 16.7231C33.954 15.0942 35.4352 13.7949 37.156 12.7403C37.9916 12.2282 38.8593 11.7764 39.8036 11.4753C39.8972 11.4455 39.9915 11.4169 40.0838 11.3833C40.5323 11.2207 40.9002 11.2797 41.2631 11.6258C42.0026 12.3305 42.7848 12.9935 43.5741 13.6955C43.5166 13.7684 43.4759 13.8686 43.4027 13.9023C43.244 13.9751 43.0696 14.0175 42.8998 14.0658C39.7171 14.9741 37.0757 16.6636 35.022 19.1843C34.4245 19.9177 33.8798 20.6904 33.3098 21.4448C33.2667 21.5019 33.2172 21.5547 33.1811 21.597ZM42.7473 13.5633C41.997 12.9058 41.3013 12.2958 40.5976 11.679C39.8856 11.957 39.169 12.168 38.5066 12.5119C37.3534 13.1111 36.2917 13.8373 35.3073 14.6673C34.3641 15.4626 33.6016 16.4105 32.8831 17.3935C32.775 17.5412 32.7285 17.6836 32.7665 17.8707C32.8425 18.2428 32.8852 18.6211 32.9466 18.9961C33.0346 19.5347 33.1268 20.0723 33.2405 20.749C33.7038 20.1269 34.0546 19.5807 34.4762 19.0879C34.9033 18.5889 35.329 18.0846 35.8 17.6254C36.271 17.1664 36.7769 16.7346 37.3051 16.3379C37.8491 15.9295 38.4215 15.55 39.0129 15.2081C39.587 14.8761 40.1904 14.5859 40.8002 14.3181C41.4064 14.0523 42.0359 13.8367 42.7473 13.5633Z" fill="white"/>
<path d="M42.7465 13.5634C42.0354 13.8365 41.4056 14.0523 40.8 14.3185C40.1902 14.5865 39.5868 14.8767 39.0127 15.2084C38.4215 15.5503 37.8489 15.9298 37.3049 16.3382C36.7767 16.7352 36.2705 17.1667 35.7998 17.6257C35.3288 18.085 34.9031 18.5892 34.476 19.0883C34.0544 19.5808 33.7036 20.127 33.2404 20.7493C33.1266 20.0726 33.0344 19.5347 32.9464 18.9964C32.885 18.6214 32.8423 18.2431 32.7663 17.871C32.7281 17.6837 32.7748 17.5415 32.8829 17.3938C33.6014 16.4108 34.3639 15.4629 35.3071 14.6677C36.2915 13.8376 37.3532 13.1115 38.5064 12.5123C39.1688 12.168 39.8854 11.9574 40.5975 11.6793C41.3006 12.2961 41.9962 12.9059 42.7465 13.5634Z" fill="url(#paint6_linear_214_16995)"/>
<path d="M37.9974 9.01395C37.9631 9.1218 37.9345 9.21072 37.9208 9.25364C37.6163 9.39091 37.3486 9.5029 37.089 9.62964C36.2944 10.018 35.5479 10.4778 34.8566 11.023C34.0853 11.6312 33.4334 12.3395 32.8744 13.1308C32.8189 13.2093 32.7674 13.2908 32.7101 13.3681C32.6205 13.4891 32.5488 13.6602 32.352 13.6014C32.1743 13.5484 32.1593 13.3765 32.1418 13.2259C32.1025 12.8865 32.0814 12.5449 32.0323 12.207C31.9012 11.3063 31.8367 10.3961 31.616 9.5079C31.5918 9.41092 31.6291 9.27491 31.6877 9.18795C31.8269 8.98172 31.9826 8.78271 32.1551 8.60109C32.9014 7.81575 33.8219 7.26847 34.8109 6.81785C34.8995 6.77761 34.9939 6.74646 35.0887 6.72243C35.2288 6.68703 35.2096 6.75368 35.3234 6.84913C35.3829 6.89893 35.4424 6.94846 35.5 7C36.1065 7.54065 36.8644 8.03318 37.4723 8.57267C37.629 8.71234 37.794 8.84368 37.9974 9.01395ZM35.1633 7.1394C34.5602 7.44334 33.9293 7.72463 33.3901 8.14301C32.9763 8.46401 32.6085 8.8401 32.2226 9.19391C32.0837 9.32129 32.0485 9.47204 32.077 9.66059C32.2136 10.5624 32.334 11.4663 32.4652 12.3689C32.48 12.4721 32.5263 12.5708 32.5578 12.6708C32.6105 12.6569 32.6368 12.6576 32.6477 12.6459C32.7379 12.546 32.8287 12.446 32.9131 12.3414C33.4852 11.6287 34.1496 11.008 34.8892 10.4573C35.5012 10.0016 36.137 9.58577 36.8303 9.25334C36.9624 9.19 37.0801 9.09847 37.2069 9.01834C36.9402 8.69432 35.6384 7.50079 35.1633 7.1394Z" fill="white"/>
<path d="M35.1638 7.13953C35.6388 7.50092 36.9406 8.69445 37.2073 9.0182C37.0803 9.09834 36.9628 9.18986 36.8308 9.2532C36.1374 9.58563 35.5017 10.0015 34.8896 10.4572C34.15 11.0079 33.4857 11.6288 32.9136 12.3413C32.8295 12.4461 32.7384 12.5458 32.6481 12.6457C32.6373 12.6578 32.6113 12.6567 32.5583 12.6706C32.5268 12.571 32.4805 12.4719 32.4656 12.3688C32.3345 11.4662 32.2141 10.5623 32.0775 9.66045C32.0489 9.4719 32.0839 9.32144 32.2231 9.19377C32.6092 8.83994 32.9767 8.4636 33.3905 8.14286C33.9298 7.72475 34.5607 7.44347 35.1638 7.13953Z" fill="url(#paint7_linear_214_16995)"/>
<path d="M52.2952 21.7469C52.0994 21.6593 51.9159 21.6164 51.7872 21.5114C51.4843 21.2649 51.1654 21.2629 50.7915 21.3204C49.1839 21.5677 47.6445 22.0169 46.144 22.6289C45.0516 23.0745 43.9624 23.5214 42.9206 24.0678C42.2966 24.3949 41.6693 24.7239 41.0829 25.1081C39.9716 25.8364 38.8917 26.609 37.8742 27.4584C37.0335 28.1603 36.2859 28.9435 35.6467 29.8213C35.2593 30.3532 34.9206 30.9099 34.7187 31.5348C34.7069 31.5711 34.7071 31.62 34.6818 31.6411C34.6262 31.6873 34.5593 31.7474 34.4949 31.7498C34.4269 31.7523 34.3372 31.7101 34.2924 31.6589C34.2459 31.6057 34.2417 31.5183 34.2194 31.4459C33.9782 30.6603 33.862 29.8508 33.7424 29.0424C33.327 26.2403 33.0143 23.4261 32.7096 20.611C32.5644 19.2698 32.3886 17.9316 32.2366 16.5909C32.1276 15.628 32.0393 14.6628 31.9345 13.6991C31.8029 12.4899 31.673 11.2807 31.5252 10.0734C31.3404 8.56439 31.1371 7.05763 30.9449 5.54955C30.9065 5.24799 30.8811 4.94474 30.8518 4.64222C30.8281 4.39769 30.8257 4.1555 30.6755 3.9323C30.5787 3.78856 30.6994 3.6153 30.8799 3.61436C30.9908 3.61378 31.1236 3.63283 31.2093 3.693C31.7822 4.09422 32.3577 4.49369 32.909 4.92143C34.7032 6.31376 36.5075 7.69548 38.2702 9.1241C40.0939 10.6019 41.8836 12.1186 43.6698 13.6382C45.7365 15.3963 47.7856 17.1739 49.8379 18.9478C50.5848 19.5934 51.3192 20.2528 52.0598 20.905C52.2354 21.0598 52.4253 21.2136 52.4519 21.4539C52.4608 21.5381 52.3595 21.6333 52.2952 21.7469ZM34.6815 30.2437C34.8807 30.2655 34.8979 30.1186 34.9534 30.0329C35.3943 29.3516 35.9076 28.7251 36.4789 28.1415C38.1341 26.4501 40.0823 25.1227 42.1241 23.9112C42.1913 23.8714 42.2623 23.8374 42.3319 23.8011C43.7419 23.0684 45.2152 22.4678 46.677 21.8429C46.893 21.7506 47.1194 21.6789 47.3447 21.6086C48.3216 21.3039 49.3002 21.0067 50.3226 20.8741C50.4338 20.8598 50.5399 20.808 50.6895 20.7607C50.5997 20.6587 50.5442 20.5837 50.4764 20.5208C50.1228 20.191 49.7748 19.8545 49.4087 19.5382C47.5174 17.9046 45.6318 16.2645 43.7242 14.6487C40.2932 11.7424 36.8269 8.87562 33.2954 6.08264C32.8084 5.69761 32.3079 5.32831 31.8101 4.9564C31.7429 4.90612 31.6537 4.88292 31.5263 4.82517C31.5454 4.99436 31.5544 5.10604 31.5715 5.21653C31.7426 6.32448 31.9437 7.42888 32.0813 8.5408C32.3842 10.9922 32.6514 13.4477 32.9401 15.9009C33.1757 17.9012 33.4221 19.9003 33.6634 21.8998C33.966 24.4087 34.2678 26.9179 34.5713 29.4267C34.6043 29.7024 34.6452 29.9772 34.6815 30.2437Z" fill="url(#paint8_linear_214_16995)"/>
<path d="M52.2952 21.7469C52.0994 21.6593 51.9159 21.6164 51.7872 21.5114C51.4843 21.2649 51.1654 21.2629 50.7915 21.3204C49.1839 21.5677 47.6445 22.0169 46.144 22.6289C45.0516 23.0745 43.9624 23.5214 42.9206 24.0678C42.2966 24.3949 41.6693 24.7239 41.0829 25.1081C39.9716 25.8364 38.8917 26.609 37.8742 27.4584C37.0335 28.1603 36.2859 28.9435 35.6467 29.8213C35.2593 30.3532 34.9206 30.9099 34.7187 31.5348C34.7069 31.5711 34.7071 31.62 34.6818 31.6411C34.6262 31.6873 34.5593 31.7474 34.4949 31.7498C34.4269 31.7523 34.3372 31.7101 34.2924 31.6589C34.2459 31.6057 34.2417 31.5183 34.2194 31.4459C33.9782 30.6603 33.862 29.8508 33.7424 29.0424C33.327 26.2403 33.0143 23.4261 32.7096 20.611C32.5644 19.2698 32.3886 17.9316 32.2366 16.5909C32.1276 15.628 32.0393 14.6628 31.9345 13.6991C31.8029 12.4899 31.673 11.2807 31.5252 10.0734C31.3404 8.56439 31.1371 7.05763 30.9449 5.54955C30.9065 5.24799 30.8811 4.94474 30.8518 4.64222C30.8281 4.39769 30.8257 4.1555 30.6755 3.9323C30.5787 3.78856 30.6994 3.6153 30.8799 3.61436C30.9908 3.61378 31.1236 3.63283 31.2093 3.693C31.7822 4.09422 32.3577 4.49369 32.909 4.92143C34.7032 6.31376 36.5075 7.69548 38.2702 9.1241C40.0939 10.6019 41.8836 12.1186 43.6698 13.6382C45.7365 15.3963 47.7856 17.1739 49.8379 18.9478C50.5848 19.5934 51.3192 20.2528 52.0598 20.905C52.2354 21.0598 52.4253 21.2136 52.4519 21.4539C52.4608 21.5381 52.3595 21.6333 52.2952 21.7469ZM34.6815 30.2437C34.8807 30.2655 34.8979 30.1186 34.9534 30.0329C35.3943 29.3516 35.9076 28.7251 36.4789 28.1415C38.1341 26.4501 40.0823 25.1227 42.1241 23.9112C42.1913 23.8714 42.2623 23.8374 42.3319 23.8011C43.7419 23.0684 45.2152 22.4678 46.677 21.8429C46.893 21.7506 47.1194 21.6789 47.3447 21.6086C48.3216 21.3039 49.3002 21.0067 50.3226 20.8741C50.4338 20.8598 50.5399 20.808 50.6895 20.7607C50.5997 20.6587 50.5442 20.5837 50.4764 20.5208C50.1228 20.191 49.7748 19.8545 49.4087 19.5382C47.5174 17.9046 45.6318 16.2645 43.7242 14.6487C40.2932 11.7424 36.8269 8.87562 33.2954 6.08264C32.8084 5.69761 32.3079 5.32831 31.8101 4.9564C31.7429 4.90612 31.6537 4.88292 31.5263 4.82517C31.5454 4.99436 31.5544 5.10604 31.5715 5.21653C31.7426 6.32448 31.9437 7.42888 32.0813 8.5408C32.3842 10.9922 32.6514 13.4477 32.9401 15.9009C33.1757 17.9012 33.4221 19.9003 33.6634 21.8998C33.966 24.4087 34.2678 26.9179 34.5713 29.4267C34.6043 29.7024 34.6452 29.9772 34.6815 30.2437Z" fill="black" fill-opacity="0.6"/>
<path d="M187.921 39.1313C187.959 39.0288 187.987 38.876 188.068 38.7612C188.171 38.6144 188.312 38.4912 188.447 38.3696C189.323 37.5795 190.276 36.8954 191.295 36.3052C191.381 36.2555 191.47 36.211 191.553 36.1572C191.851 35.9646 191.86 35.9628 192.114 36.1393C192.431 36.3593 192.686 36.64 192.909 36.9523C193.108 37.2307 193.096 37.5122 192.905 37.7853C192.83 37.8931 192.737 37.9905 192.64 38.0797C192.312 38.3825 191.986 38.6898 191.644 38.9764C190.971 39.5394 190.288 40.0899 189.608 40.6443C189.557 40.6859 189.502 40.7227 189.444 40.7556C189.194 40.899 188.99 40.8893 188.831 40.6629C188.536 40.2431 188.271 39.8022 187.998 39.3673C187.965 39.3129 187.956 39.2421 187.921 39.1313ZM191.766 36.5277C191.301 36.8419 190.854 37.1206 190.433 37.435C189.865 37.8592 189.315 38.308 188.764 38.7537C188.64 38.8536 188.489 38.9449 188.467 39.1658C188.701 39.5286 188.926 39.9252 189.218 40.3026C190.368 39.5025 191.386 38.5931 192.38 37.6552C192.46 37.5798 192.51 37.4726 192.576 37.377C192.393 37.0049 192.106 36.7651 191.766 36.5277Z" fill="white"/>
<path d="M77.5756 19.5487C77.4548 19.4698 77.328 19.3987 77.2148 19.31C77.1025 19.2221 76.9886 19.1282 76.9023 19.0161C76.7094 18.7652 76.71 18.582 76.8946 18.3233C76.978 18.2066 77.0751 18.0958 77.1813 17.9998C77.8919 17.3576 78.5678 16.6803 79.215 15.9735C79.3729 15.8009 79.5531 15.648 79.7315 15.4962C80.0128 15.2568 80.3219 15.2243 80.6244 15.4431C80.9457 15.6753 81.2572 15.9223 81.5604 16.1783C81.6998 16.2962 81.7223 16.4679 81.6261 16.6236C81.5224 16.7912 81.4058 16.959 81.2635 17.0933C80.4225 17.8856 79.5737 18.6698 78.7231 19.4515C78.6163 19.5496 78.5156 19.6325 78.4615 19.7816C78.4002 19.9507 78.2609 19.9904 78.1157 19.9069C77.9289 19.7994 77.7525 19.6734 77.5716 19.5554C77.5726 19.553 77.5741 19.5508 77.5756 19.5487ZM80.1729 15.7927C79.7355 16.0296 79.475 16.4109 79.1502 16.7189C78.8224 17.0295 78.5098 17.3561 78.1887 17.6736C77.8733 17.9855 77.5046 18.2481 77.2611 18.6522C77.5374 18.954 77.897 19.0785 78.1891 19.2832C78.2457 19.2486 78.2808 19.2345 78.3065 19.2104C79.2041 18.3718 80.1016 17.5335 80.9959 16.6913C81.056 16.6348 81.0899 16.55 81.1476 16.4606C80.8325 16.223 80.5591 15.9612 80.1729 15.7927Z" fill="white"/>
<path d="M80.0905 15.7703C80.4766 15.9389 80.7504 16.2005 81.065 16.4381C81.0075 16.5276 80.9733 16.6123 80.9132 16.6688C80.019 17.511 79.1215 18.3494 78.2239 19.1879C78.1982 19.212 78.163 19.2261 78.1064 19.2607C77.8142 19.0563 77.4548 18.9315 77.1784 18.6297C77.422 18.2254 77.7906 17.9631 78.106 17.6511C78.4271 17.3336 78.7398 17.007 79.0675 16.6964C79.3924 16.3888 79.6531 16.0072 80.0905 15.7703Z" fill="white"/>
<path d="M67.8119 12.5027C67.8712 12.6786 67.9465 12.8274 67.97 12.9845C68.0989 13.8436 68.2168 14.7043 68.3342 15.5652C68.361 15.7622 68.3794 15.9613 68.3854 16.16C68.3945 16.4598 68.2965 16.593 68.0167 16.6781C67.7241 16.7668 67.43 16.8495 67.1354 16.9323C67.0664 16.9516 66.9952 16.9669 66.9239 16.9727C66.6288 16.9972 66.4503 16.8785 66.3503 16.5945C66.3322 16.5436 66.3176 16.4909 66.3046 16.4384C66.0657 15.4725 65.8252 14.507 65.5897 13.54C65.5514 13.3823 65.5209 13.2201 65.5122 13.0585C65.4965 12.7577 65.6262 12.5393 65.9092 12.498C66.4057 12.4256 66.9092 12.3911 67.4107 12.3674C67.5406 12.361 67.675 12.4537 67.8119 12.5027ZM66.8603 16.4555C66.8953 16.4604 66.9341 16.4776 66.9648 16.4685C67.2724 16.3747 67.5786 16.2767 67.8786 16.1818C67.8595 15.7006 67.461 13.3272 67.3346 12.9433C66.9109 12.9082 66.4851 12.921 66.0651 13.0214C66.083 13.5076 66.6662 16.0155 66.8603 16.4555Z" fill="white"/>
<path d="M73.0501 19.1193C73.1703 19.0551 73.1873 18.9476 73.1037 18.8344C72.9807 18.6681 72.8918 18.4843 72.8269 18.292C72.4939 17.306 72.3358 16.2993 72.4524 15.2531C72.5073 14.758 72.6529 14.2971 72.8521 13.8478C72.8698 13.8079 72.912 13.7789 72.9566 13.7294C73.0365 13.8653 73.0973 13.9834 73.1715 14.092C73.4647 14.5206 73.822 14.8699 74.3244 15.0503C74.7468 15.2019 75.1327 15.1341 75.4709 14.8562C75.8539 14.5415 76.1088 14.1345 76.1588 13.634C76.2355 12.8656 76.0134 12.4434 75.3904 12.073C74.9375 11.8038 74.4406 11.7243 73.9189 11.8194C73.8316 11.8354 73.7443 11.8511 73.6285 11.8723C73.653 11.7232 73.6642 11.6018 73.6934 11.485C73.8334 10.9249 74.0793 10.4109 74.3952 9.9309C74.5013 9.76964 74.6268 9.62093 74.7507 9.47229C74.8066 9.40529 74.8711 9.33908 74.9752 9.31429C75.0112 9.38885 75.0479 9.4493 75.0707 9.5148C75.2055 9.90254 75.4693 10.1931 75.7583 10.4715C76.1187 10.8185 76.798 10.8601 77.2313 10.5597C77.7464 10.2027 77.9969 9.57943 77.8547 8.94915C77.7102 8.30937 77.1973 7.83798 76.6054 7.76413C76.4246 7.74148 76.2407 7.74512 76.0583 7.73326C76.0035 7.72967 75.9388 7.76893 75.8954 7.70674C75.8934 7.6933 75.8891 7.6829 75.8909 7.67375C75.8963 7.64379 75.9017 7.61363 75.9108 7.58469C76.1101 6.95224 76.4281 6.3868 76.8817 5.90382C77.3101 5.44781 77.7737 5.03642 78.3849 4.83723C78.3946 4.83412 78.4042 4.83104 78.4136 4.82697C78.5081 4.78692 78.5596 4.71183 78.5576 4.6125C78.5532 4.39252 78.4867 4.192 78.3466 4.0195C78.2908 3.95078 78.2202 3.91961 78.1309 3.94168C78.0717 3.95612 78.0115 3.96743 77.9533 3.98501C77.4801 4.12684 77.0475 4.34925 76.6565 4.65144C76.2011 5.00315 75.8192 5.42651 75.4915 5.89703C75.0692 6.50335 74.8061 7.16936 74.7752 7.91655C74.7724 7.98643 74.7582 8.05577 74.7512 8.11051C73.1814 9.15616 72.4578 10.5981 72.6164 12.4679C72.5714 12.5202 72.5349 12.5691 72.4922 12.6118C71.8115 13.292 71.4341 14.1309 71.2576 15.0601C70.9848 16.4946 71.2916 17.8137 72.1053 19.017C72.1789 19.1261 72.267 19.2268 72.3581 19.322C72.3878 19.353 72.4579 19.3787 72.4933 19.3648C72.6825 19.2913 72.8715 19.2145 73.0501 19.1193ZM74.826 13.1488C74.9348 13.2126 75.0191 13.2949 75.0611 13.4156C75.1133 13.5657 75.0627 13.7102 74.9163 13.7696C74.8259 13.8063 74.7188 13.8314 74.6239 13.8204C74.337 13.7877 74.1046 13.6594 73.9821 13.3793C73.9422 13.2879 73.8901 13.2002 73.885 13.0982C74.2388 12.9761 74.5671 12.9968 74.826 13.1488ZM76.6228 8.69455C76.8349 8.74992 76.9736 8.88581 77.0549 9.08544C77.1137 9.22921 77.1027 9.36741 76.9938 9.48074C76.9249 9.55264 76.8471 9.62833 76.7581 9.66579C76.4727 9.7856 76.3168 9.72989 76.1541 9.55714C75.9504 9.34095 75.8695 9.0772 75.8198 8.76881C76.1039 8.66362 76.3582 8.6255 76.6228 8.69455Z" fill="white"/>
<g filter="url(#filter0_d_214_16995)">
<path d="M198.42 45.6712C198.456 45.5848 198.451 45.5028 198.386 45.429C198.343 45.38 198.302 45.3285 198.257 45.2818C197.89 44.9027 197.467 44.6015 196.99 44.3783C196.435 44.1182 195.85 43.963 195.246 43.8817C194.469 43.7771 193.715 43.8523 193 44.1869C192.933 44.2181 192.861 44.2387 192.806 44.2588C191.049 43.2816 189.339 43.2987 187.667 44.3593C187.595 44.3423 187.532 44.3314 187.47 44.3116C186.496 43.9982 185.523 44.0495 184.565 44.3349C183.087 44.7752 182.003 45.7081 181.279 47.0646C181.214 47.1876 181.163 47.32 181.119 47.4526C181.105 47.4957 181.115 47.5747 181.146 47.6016C181.308 47.7448 181.474 47.8866 181.651 48.0092C181.771 48.0919 181.88 48.0556 181.945 47.9213C182.04 47.7238 182.168 47.5502 182.316 47.3952C183.074 46.5996 183.939 45.9597 184.976 45.5604C185.467 45.3715 185.971 45.2849 186.491 45.2545C186.537 45.2518 186.585 45.2778 186.653 45.2959C186.566 45.4376 186.485 45.5526 186.42 45.676C186.164 46.1623 186.014 46.6708 186.094 47.2345C186.161 47.7083 186.416 48.0407 186.844 48.2256C187.328 48.4349 187.836 48.4785 188.33 48.2818C189.087 47.9801 189.373 47.5642 189.411 46.7939C189.438 46.2339 189.267 45.7246 188.919 45.2771C188.861 45.2021 188.803 45.1272 188.726 45.0277C188.878 44.9781 188.997 44.9299 189.121 44.9007C189.715 44.7606 190.318 44.7431 190.924 44.8084C191.128 44.8303 191.329 44.8768 191.53 44.9218C191.62 44.9421 191.714 44.971 191.789 45.0574C191.737 45.1278 191.699 45.192 191.649 45.2454C191.352 45.5622 191.211 45.9531 191.093 46.3625C190.947 46.8727 191.245 47.5363 191.741 47.8003C192.33 48.1142 193.038 48.0481 193.558 47.6062C194.086 47.1577 194.273 46.4424 194.049 45.846C193.98 45.6638 193.886 45.4913 193.807 45.3129C193.783 45.2591 193.714 45.217 193.751 45.1458C193.763 45.1373 193.77 45.1283 193.78 45.1254C193.81 45.1159 193.841 45.1063 193.873 45.1009C194.564 44.9816 195.252 45.0074 195.929 45.2017C196.568 45.3853 197.183 45.624 197.673 46.1058C197.681 46.1133 197.689 46.121 197.697 46.128C197.781 46.1979 197.877 46.2103 197.969 46.16C198.172 46.0485 198.328 45.8879 198.42 45.6712ZM193.034 46.9151C192.929 47.0407 192.794 47.0976 192.633 47.0497C192.532 47.0196 192.422 46.9826 192.343 46.9165C192.09 46.7046 192.065 46.5299 192.146 46.2916C192.247 45.9935 192.454 45.7884 192.719 45.591C192.958 45.8089 193.12 46.031 193.186 46.3154C193.239 46.5434 193.181 46.7407 193.034 46.9151ZM187.99 47.1358C187.876 47.2584 187.715 47.2809 187.587 47.1711C187.508 47.1034 187.431 47.014 187.394 46.9188C187.283 46.6313 187.288 46.3487 187.489 46.0961C187.555 46.0138 187.611 45.9216 187.704 45.8673C187.994 46.1428 188.138 46.464 188.124 46.7832C188.117 46.9172 188.082 47.0374 187.99 47.1358Z" fill="white"/>
</g>
<path d="M27.4833 42.0543C27.567 42.0227 27.6963 41.953 27.8338 41.9268C28.068 41.8823 28.3067 41.8489 28.5447 41.8396C29.6798 41.7953 30.8096 41.8581 31.9318 42.0383C32.2643 42.0917 32.4273 42.2363 32.4497 42.5648C32.478 42.9806 32.489 43.3997 32.4738 43.816C32.4592 44.2112 32.2588 44.4033 31.8716 44.4238C31.6497 44.4356 31.4243 44.4228 31.203 44.3983C30.5686 44.328 29.9359 44.2436 29.3018 44.1691C28.7946 44.1097 28.2866 44.0577 27.7791 43.9998C27.5411 43.9726 27.3044 43.9376 27.0903 43.8152C26.939 43.7286 26.8395 43.6033 26.8548 43.4271C26.8948 42.9695 27.0543 42.5545 27.3342 42.1894C27.363 42.1519 27.4049 42.1245 27.4833 42.0543ZM31.957 43.9166C31.9729 43.8734 32.004 43.8293 32.0027 43.7863C31.99 43.4174 31.9782 43.0487 31.9517 42.6807C31.9378 42.4872 31.8433 42.4034 31.6381 42.3867C30.5885 42.3013 29.5379 42.2319 28.4842 42.28C28.3096 42.288 28.1328 42.307 27.9637 42.3476C27.8602 42.3723 27.741 42.4254 27.6775 42.5052C27.4674 42.7686 27.322 43.0643 27.3431 43.4442C27.5294 43.4786 27.6992 43.5186 27.8712 43.5405C28.7414 43.6515 29.6122 43.7603 30.4833 43.8644C30.8158 43.9042 31.1495 43.9343 31.4834 43.9597C31.6393 43.9715 31.8004 43.9969 31.957 43.9166Z" fill="white"/>
<path d="M34.2736 47.5661C33.896 47.3223 33.562 47.0734 33.2733 46.7613C33.0461 46.5156 32.9906 46.2578 33.144 45.9649C33.2923 45.6819 33.4451 45.4002 33.6156 45.1305C33.8796 44.7128 34.1577 44.304 34.4348 43.8948C34.5894 43.6663 34.7477 43.4396 34.9163 43.2213C34.9951 43.1193 35.0927 43.0255 35.1983 42.9518C35.3651 42.8353 35.5616 42.8066 35.727 42.9355C36.0465 43.1843 36.36 43.4435 36.656 43.7201C36.8561 43.9071 36.8798 44.1553 36.7635 44.4057C36.7025 44.5373 36.6379 44.6697 36.5555 44.7882C36.3232 45.1224 36.0838 45.4515 35.8421 45.7787C35.5052 46.2345 35.1619 46.6854 34.8254 47.1414C34.6295 47.4064 34.633 47.4092 34.2736 47.5661ZM35.4591 43.3081C35.1881 43.5329 35.0193 43.7866 34.8477 44.0365C34.5353 44.4914 34.2206 44.9448 33.9196 45.4073C33.7778 45.6255 33.667 45.8642 33.5405 46.0926C33.4472 46.2609 33.4884 46.3966 33.6293 46.5158C33.773 46.6374 33.9068 46.7721 34.0566 46.8853C34.1556 46.9602 34.2343 47.0847 34.3957 47.0673C34.4272 47.0252 34.4631 46.9801 34.496 46.933C34.8106 46.48 35.123 46.0256 35.4396 45.574C35.673 45.2411 35.9147 44.9141 36.1459 44.5795C36.2435 44.438 36.3487 44.2948 36.3545 44.0794C36.1261 43.7756 35.7941 43.5696 35.4591 43.3081Z" fill="white"/>
<defs>
<filter id="filter0_d_214_16995" x="177.113" y="43.5442" width="25.3281" height="12.864" filterUnits="userSpaceOnUse" color-interpolation-filters="sRGB">
<feFlood flood-opacity="0" result="BackgroundImageFix"/>
<feColorMatrix in="SourceAlpha" type="matrix" values="0 0 0 0 0 0 0 0 0 0 0 0 0 0 0 0 0 0 127 0" result="hardAlpha"/>
<feOffset dy="4"/>
<feGaussianBlur stdDeviation="2"/>
<feComposite in2="hardAlpha" operator="out"/>
<feColorMatrix type="matrix" values="0 0 0 0 0 0 0 0 0 0 0 0 0 0 0 0 0 0 0.25 0"/>
<feBlend mode="normal" in2="BackgroundImageFix" result="effect1_dropShadow_214_16995"/>
<feBlend mode="normal" in="SourceGraphic" in2="effect1_dropShadow_214_16995" result="shape"/>
</filter>
<linearGradient id="paint0_linear_214_16995" x1="34.0468" y1="32.4428" x2="35.8385" y2="19.4848" gradientUnits="userSpaceOnUse">
<stop stop-color="#396AFC"/>
<stop offset="0.494792" stop-color="#821694"/>
<stop offset="0.846516" stop-color="#1F1F1F"/>
<stop offset="1" stop-color="#8E2DE2"/>
</linearGradient>
<linearGradient id="paint1_linear_214_16995" x1="34.9378" y1="31.7326" x2="50.9889" y2="32.5869" gradientUnits="userSpaceOnUse">
<stop stop-color="#A83AFE"/>
<stop offset="1" stop-color="#6E59FE"/>
</linearGradient>
<linearGradient id="paint2_linear_214_16995" x1="174.28" y1="41.1694" x2="157.574" y2="19.4579" gradientUnits="userSpaceOnUse">
<stop stop-color="#0575E6"/>
<stop offset="1" stop-color="#FF0CF5"/>
</linearGradient>
<linearGradient id="paint3_linear_214_16995" x1="196.27" y1="36.8562" x2="168.167" y2="18.7449" gradientUnits="userSpaceOnUse">
<stop stop-color="#0575E6"/>
<stop offset="1" stop-color="#FF0CF5"/>
</linearGradient>
<linearGradient id="paint4_linear_214_16995" x1="32.3518" y1="30.3524" x2="51.0767" y2="29.5241" gradientUnits="userSpaceOnUse">
<stop stop-color="#E1DCFE"/>
<stop offset="1" stop-color="#7E67FD"/>
</linearGradient>
<linearGradient id="paint5_linear_214_16995" x1="33.764" y1="19.5612" x2="45.6204" y2="28.7444" gradientUnits="userSpaceOnUse">
<stop stop-color="#0575E6"/>
<stop offset="1" stop-color="#FF0CF5"/>
</linearGradient>
<linearGradient id="paint6_linear_214_16995" x1="42.3751" y1="18.9743" x2="33.4421" y2="12.8415" gradientUnits="userSpaceOnUse">
<stop stop-color="#156EC8"/>
<stop offset="1" stop-color="#CA13C2"/>
</linearGradient>
<linearGradient id="paint7_linear_214_16995" x1="32.109" y1="8.53054" x2="37.4224" y2="11.19" gradientUnits="userSpaceOnUse">
<stop stop-color="#0575E6"/>
<stop offset="1" stop-color="#FF0CF5"/>
</linearGradient>
<linearGradient id="paint8_linear_214_16995" x1="31.8815" y1="31.8669" x2="52.8716" y2="30.9384" gradientUnits="userSpaceOnUse">
<stop stop-color="#A83AFE"/>
<stop offset="1" stop-color="#6E59FE"/>
</linearGradient>
</defs>
</svg>
